<svg width="430" height="106" viewBox="0 0 430 106" fill="none" xmlns="http://www.w3.org/2000/svg">
<g opacity="0.3">
<path d="M152.776 103.4C152.363 103.4 151.997 103.358 151.677 103.272C151.357 103.18 151.079 103.055 150.845 102.899C150.61 102.735 150.418 102.557 150.268 102.365C150.119 102.166 150.009 101.956 149.938 101.736L150.802 101.437C150.909 101.75 151.122 102.024 151.442 102.259C151.769 102.486 152.168 102.6 152.637 102.6C153.213 102.6 153.665 102.486 153.992 102.259C154.32 102.031 154.483 101.729 154.483 101.351C154.483 101.003 154.337 100.722 154.046 100.508C153.754 100.288 153.37 100.117 152.893 99.9963L152.072 99.7828C151.737 99.6975 151.428 99.573 151.143 99.4094C150.866 99.2386 150.642 99.0252 150.471 98.7691C150.307 98.5059 150.226 98.1929 150.226 97.8301C150.226 97.1542 150.443 96.6278 150.877 96.2508C151.318 95.8666 151.951 95.6745 152.776 95.6745C153.267 95.6745 153.69 95.7563 154.046 95.92C154.402 96.0765 154.69 96.2792 154.91 96.5282C155.138 96.7701 155.298 97.0333 155.39 97.3178L154.537 97.6166C154.402 97.2609 154.174 96.9835 153.854 96.7843C153.534 96.578 153.146 96.4748 152.691 96.4748C152.214 96.4748 151.833 96.5922 151.549 96.827C151.271 97.0546 151.133 97.3676 151.133 97.766C151.133 98.1075 151.243 98.3707 151.463 98.5557C151.684 98.7335 151.972 98.8651 152.328 98.9505L153.149 99.1533C153.875 99.324 154.43 99.6085 154.814 100.007C155.205 100.398 155.401 100.821 155.401 101.277C155.401 101.668 155.301 102.027 155.102 102.355C154.903 102.675 154.608 102.931 154.217 103.123C153.832 103.308 153.352 103.4 152.776 103.4Z" fill="black"/>
<path d="M156.428 103.272L156.45 97.9368H157.303L157.282 103.272H156.428ZM156.866 96.6989C156.723 96.6989 156.599 96.6456 156.492 96.5389C156.386 96.4322 156.332 96.3077 156.332 96.1654C156.332 96.016 156.386 95.8915 156.492 95.7919C156.599 95.6852 156.723 95.6318 156.866 95.6318C157.015 95.6318 157.14 95.6852 157.239 95.7919C157.346 95.8915 157.399 96.016 157.399 96.1654C157.399 96.3077 157.346 96.4322 157.239 96.5389C157.14 96.6456 157.015 96.6989 156.866 96.6989Z" fill="black"/>
<path d="M158.535 103.272V97.9368H159.335L159.389 98.9185V103.272H158.535ZM162.28 103.272V100.54L163.134 100.22V103.272H162.28ZM166.037 103.272V100.54L166.89 100.22V103.272H166.037ZM162.28 100.54C162.28 100.014 162.22 99.6121 162.099 99.3347C161.978 99.0572 161.811 98.8687 161.597 98.7691C161.384 98.6624 161.142 98.609 160.872 98.609C160.402 98.609 160.036 98.7762 159.773 99.1106C159.517 99.4378 159.389 99.9038 159.389 100.508H158.972C158.972 99.9465 159.054 99.4627 159.218 99.0572C159.381 98.6517 159.616 98.3423 159.922 98.1288C160.235 97.9154 160.612 97.8087 161.053 97.8087C161.701 97.8087 162.209 98.0079 162.579 98.4063C162.956 98.8047 163.141 99.4094 163.134 100.22L162.28 100.54ZM166.037 100.54C166.037 100.014 165.973 99.6121 165.844 99.3347C165.724 99.0572 165.556 98.8687 165.343 98.7691C165.13 98.6624 164.888 98.609 164.617 98.609C164.148 98.609 163.781 98.7762 163.518 99.1106C163.262 99.4378 163.134 99.9038 163.134 100.508H162.718C162.718 99.9465 162.8 99.4627 162.963 99.0572C163.127 98.6517 163.365 98.3423 163.678 98.1288C163.991 97.9154 164.368 97.8087 164.809 97.8087C165.45 97.8087 165.955 98.0079 166.325 98.4063C166.702 98.8047 166.89 99.4094 166.89 100.22L166.037 100.54Z" fill="black"/>
<path d="M167.97 105.406V97.9368H168.77L168.824 98.9185V105.406H167.97ZM170.627 103.4C170.179 103.4 169.784 103.283 169.443 103.048C169.108 102.813 168.848 102.486 168.664 102.066C168.479 101.64 168.386 101.152 168.386 100.605C168.386 100.05 168.479 99.5623 168.664 99.1426C168.848 98.7229 169.108 98.3956 169.443 98.1609C169.784 97.9261 170.179 97.8087 170.627 97.8087C171.104 97.8087 171.523 97.9261 171.886 98.1609C172.249 98.3956 172.53 98.7229 172.729 99.1426C172.935 99.5623 173.039 100.05 173.039 100.605C173.039 101.152 172.935 101.64 172.729 102.066C172.53 102.486 172.249 102.813 171.886 103.048C171.523 103.283 171.104 103.4 170.627 103.4ZM170.435 102.621C170.769 102.621 171.064 102.536 171.321 102.365C171.584 102.194 171.79 101.956 171.94 101.65C172.096 101.344 172.174 100.996 172.174 100.605C172.174 100.213 172.1 99.8646 171.95 99.5587C171.808 99.2528 171.605 99.0145 171.342 98.8438C171.079 98.6731 170.78 98.5877 170.446 98.5877C170.133 98.5877 169.852 98.6731 169.603 98.8438C169.361 99.0145 169.169 99.2528 169.026 99.5587C168.891 99.8646 168.824 100.213 168.824 100.605C168.824 100.996 168.891 101.344 169.026 101.65C169.169 101.956 169.361 102.194 169.603 102.365C169.844 102.536 170.122 102.621 170.435 102.621Z" fill="black"/>
<path d="M173.901 103.272L173.922 95.8026H174.776L174.755 103.272H173.901Z" fill="black"/>
<path d="M178.337 103.4C177.817 103.4 177.355 103.283 176.95 103.048C176.544 102.806 176.227 102.475 176 102.056C175.772 101.636 175.658 101.152 175.658 100.605C175.658 100.057 175.769 99.573 175.989 99.1533C176.217 98.7335 176.533 98.4063 176.939 98.1715C177.344 97.9296 177.803 97.8087 178.315 97.8087C178.842 97.8087 179.304 97.9296 179.703 98.1715C180.108 98.4063 180.421 98.7335 180.642 99.1533C180.869 99.573 180.983 100.057 180.983 100.605C180.983 101.152 180.869 101.636 180.642 102.056C180.421 102.475 180.112 102.806 179.713 103.048C179.315 103.283 178.856 103.4 178.337 103.4ZM178.337 102.589C178.685 102.589 178.991 102.507 179.254 102.344C179.518 102.173 179.724 101.938 179.873 101.64C180.023 101.341 180.097 100.996 180.097 100.605C180.097 100.213 180.019 99.8682 179.863 99.5694C179.713 99.2706 179.503 99.0394 179.233 98.8758C178.97 98.7051 178.664 98.6197 178.315 98.6197C177.967 98.6197 177.661 98.7051 177.398 98.8758C177.134 99.0394 176.925 99.2706 176.768 99.5694C176.619 99.8682 176.544 100.213 176.544 100.605C176.544 100.996 176.619 101.341 176.768 101.64C176.925 101.938 177.138 102.173 177.408 102.344C177.679 102.507 177.988 102.589 178.337 102.589Z" fill="black"/>
<path d="M181.868 103.272V97.9368H182.669L182.722 98.9185V103.272H181.868ZM185.614 103.272V100.54L186.468 100.22V103.272H185.614ZM185.614 100.54C185.614 100.014 185.553 99.6121 185.433 99.3347C185.312 99.0572 185.144 98.8687 184.931 98.7691C184.718 98.6624 184.476 98.609 184.205 98.609C183.736 98.609 183.369 98.7762 183.106 99.1106C182.85 99.4378 182.722 99.9038 182.722 100.508H182.306C182.306 99.9465 182.388 99.4627 182.551 99.0572C182.715 98.6517 182.95 98.3423 183.256 98.1288C183.569 97.9154 183.946 97.8087 184.387 97.8087C185.034 97.8087 185.543 98.0079 185.913 98.4063C186.29 98.8047 186.475 99.4094 186.468 100.22L185.614 100.54Z" fill="black"/>
<path d="M195.428 103.272L190.274 96.3041L190.978 95.8026L196.132 102.76L195.428 103.272ZM190.06 103.272V95.8026H190.978L190.967 96.5175V103.272H190.06ZM195.428 103.272V95.8026H196.335V103.272H195.428Z" fill="black"/>
<path d="M200.149 103.4C199.63 103.4 199.167 103.283 198.762 103.048C198.356 102.806 198.04 102.475 197.812 102.056C197.584 101.636 197.47 101.152 197.47 100.605C197.47 100.057 197.581 99.573 197.801 99.1533C198.029 98.7335 198.345 98.4063 198.751 98.1715C199.156 97.9296 199.615 97.8087 200.128 97.8087C200.654 97.8087 201.116 97.9296 201.515 98.1715C201.92 98.4063 202.233 98.7335 202.454 99.1533C202.681 99.573 202.795 100.057 202.795 100.605C202.795 101.152 202.681 101.636 202.454 102.056C202.233 102.475 201.924 102.806 201.525 103.048C201.127 103.283 200.668 103.4 200.149 103.4ZM200.149 102.589C200.497 102.589 200.803 102.507 201.067 102.344C201.33 102.173 201.536 101.938 201.685 101.64C201.835 101.341 201.91 100.996 201.91 100.605C201.91 100.213 201.831 99.8682 201.675 99.5694C201.525 99.2706 201.316 99.0394 201.045 98.8758C200.782 98.7051 200.476 98.6197 200.128 98.6197C199.779 98.6197 199.473 98.7051 199.21 98.8758C198.947 99.0394 198.737 99.2706 198.58 99.5694C198.431 99.8682 198.356 100.213 198.356 100.605C198.356 100.996 198.431 101.341 198.58 101.64C198.737 101.938 198.95 102.173 199.22 102.344C199.491 102.507 199.8 102.589 200.149 102.589Z" fill="black"/>
<path d="M204.15 100.38C204.15 99.8042 204.26 99.3382 204.481 98.9825C204.701 98.6197 204.982 98.3529 205.324 98.1822C205.672 98.0043 206.039 97.9154 206.423 97.9154V98.7157C206.11 98.7157 205.808 98.7691 205.516 98.8758C205.231 98.9754 204.997 99.1426 204.812 99.3773C204.627 99.6121 204.534 99.9322 204.534 100.338L204.15 100.38ZM203.681 103.272V97.9368H204.534V103.272H203.681Z" fill="black"/>
<path d="M206.966 103.272V97.9368H207.766L207.82 98.9185V103.272H206.966ZM210.712 103.272V100.54L211.565 100.22V103.272H210.712ZM214.468 103.272V100.54L215.321 100.22V103.272H214.468ZM210.712 100.54C210.712 100.014 210.651 99.6121 210.53 99.3347C210.409 99.0572 210.242 98.8687 210.029 98.7691C209.815 98.6624 209.573 98.609 209.303 98.609C208.833 98.609 208.467 98.7762 208.204 99.1106C207.948 99.4378 207.82 99.9038 207.82 100.508H207.404C207.404 99.9465 207.485 99.4627 207.649 99.0572C207.813 98.6517 208.047 98.3423 208.353 98.1288C208.666 97.9154 209.043 97.8087 209.484 97.8087C210.132 97.8087 210.64 98.0079 211.01 98.4063C211.387 98.8047 211.572 99.4094 211.565 100.22L210.712 100.54ZM214.468 100.54C214.468 100.014 214.404 99.6121 214.276 99.3347C214.155 99.0572 213.987 98.8687 213.774 98.7691C213.561 98.6624 213.319 98.609 213.048 98.609C212.579 98.609 212.213 98.7762 211.949 99.1106C211.693 99.4378 211.565 99.9038 211.565 100.508H211.149C211.149 99.9465 211.231 99.4627 211.394 99.0572C211.558 98.6517 211.796 98.3423 212.109 98.1288C212.422 97.9154 212.799 97.8087 213.241 97.8087C213.881 97.8087 214.386 98.0079 214.756 98.4063C215.133 98.8047 215.321 99.4094 215.321 100.22L214.468 100.54Z" fill="black"/>
<path d="M219.198 103.272V97.3285C219.198 96.7736 219.326 96.3575 219.582 96.08C219.845 95.7955 220.243 95.6532 220.777 95.6532C220.919 95.6532 221.079 95.6781 221.257 95.7279C221.435 95.7777 221.623 95.8488 221.823 95.9413L221.503 96.6136C221.339 96.5495 221.2 96.4997 221.086 96.4642C220.973 96.4286 220.876 96.4108 220.798 96.4108C220.549 96.4108 220.361 96.4926 220.233 96.6562C220.112 96.8128 220.051 97.0582 220.051 97.3925V103.272H219.198ZM218.216 98.6731V97.9368H221.599V98.6731H218.216Z" fill="black"/>
<path d="M224.673 103.4C224.154 103.4 223.692 103.283 223.286 103.048C222.881 102.806 222.564 102.475 222.336 102.056C222.109 101.636 221.995 101.152 221.995 100.605C221.995 100.057 222.105 99.573 222.326 99.1533C222.553 98.7335 222.87 98.4063 223.275 98.1715C223.681 97.9296 224.14 97.8087 224.652 97.8087C225.178 97.8087 225.641 97.9296 226.039 98.1715C226.445 98.4063 226.758 98.7335 226.978 99.1533C227.206 99.573 227.32 100.057 227.32 100.605C227.32 101.152 227.206 101.636 226.978 102.056C226.758 102.475 226.448 102.806 226.05 103.048C225.651 103.283 225.193 103.4 224.673 103.4ZM224.673 102.589C225.022 102.589 225.328 102.507 225.591 102.344C225.854 102.173 226.061 101.938 226.21 101.64C226.359 101.341 226.434 100.996 226.434 100.605C226.434 100.213 226.356 99.8682 226.199 99.5694C226.05 99.2706 225.84 99.0394 225.57 98.8758C225.306 98.7051 225.001 98.6197 224.652 98.6197C224.303 98.6197 223.997 98.7051 223.734 98.8758C223.471 99.0394 223.261 99.2706 223.105 99.5694C222.955 99.8682 222.881 100.213 222.881 100.605C222.881 100.996 222.955 101.341 223.105 101.64C223.261 101.938 223.475 102.173 223.745 102.344C224.015 102.507 224.325 102.589 224.673 102.589Z" fill="black"/>
<path d="M228.205 103.272V97.9368H229.005L229.059 98.9185V103.272H228.205ZM231.95 103.272V100.54L232.804 100.22V103.272H231.95ZM231.95 100.54C231.95 100.014 231.89 99.6121 231.769 99.3347C231.648 99.0572 231.481 98.8687 231.268 98.7691C231.054 98.6624 230.812 98.609 230.542 98.609C230.072 98.609 229.706 98.7762 229.443 99.1106C229.187 99.4378 229.059 99.9038 229.059 100.508H228.642C228.642 99.9465 228.724 99.4627 228.888 99.0572C229.052 98.6517 229.286 98.3423 229.592 98.1288C229.905 97.9154 230.282 97.8087 230.723 97.8087C231.371 97.8087 231.879 98.0079 232.249 98.4063C232.626 98.8047 232.811 99.4094 232.804 100.22L231.95 100.54Z" fill="black"/>
<path d="M235.948 103.4C235.429 103.4 235.027 103.265 234.742 102.995C234.458 102.724 234.315 102.344 234.315 101.853V96.2721H235.169V101.768C235.169 102.038 235.24 102.248 235.382 102.397C235.532 102.54 235.738 102.611 236.001 102.611C236.087 102.611 236.169 102.6 236.247 102.579C236.332 102.55 236.442 102.486 236.578 102.387L236.908 103.08C236.723 103.201 236.556 103.283 236.407 103.326C236.257 103.375 236.104 103.4 235.948 103.4ZM233.387 98.6944V97.9368H236.77V98.6944H233.387Z" fill="black"/>
<path d="M240.471 103.272V97.3285C240.471 96.7736 240.599 96.3575 240.855 96.08C241.118 95.7955 241.516 95.6532 242.05 95.6532C242.192 95.6532 242.352 95.6781 242.53 95.7279C242.708 95.7777 242.897 95.8488 243.096 95.9413L242.776 96.6136C242.612 96.5495 242.473 96.4997 242.359 96.4642C242.246 96.4286 242.15 96.4108 242.071 96.4108C241.822 96.4108 241.634 96.4926 241.506 96.6562C241.385 96.8128 241.324 97.0582 241.324 97.3925V103.272H240.471ZM239.489 98.6731V97.9368H242.872V98.6731H239.489Z" fill="black"/>
<path d="M246.896 103.272L246.811 100.455C246.797 100.035 246.743 99.6904 246.651 99.42C246.558 99.1426 246.416 98.9363 246.224 98.8011C246.032 98.6588 245.776 98.5877 245.456 98.5877C245.15 98.5877 244.883 98.6482 244.655 98.7691C244.435 98.89 244.253 99.0786 244.111 99.3347L243.353 99.0252C243.489 98.7762 243.656 98.5628 243.855 98.3849C244.054 98.2 244.289 98.0577 244.559 97.9581C244.83 97.8585 245.132 97.8087 245.466 97.8087C245.957 97.8087 246.366 97.9047 246.693 98.0968C247.021 98.2889 247.263 98.577 247.419 98.9612C247.583 99.3382 247.664 99.8113 247.664 100.38V103.272H246.896ZM245.274 103.4C244.641 103.4 244.147 103.258 243.791 102.973C243.442 102.682 243.268 102.28 243.268 101.768C243.268 101.227 243.446 100.814 243.802 100.53C244.164 100.238 244.669 100.092 245.317 100.092H247.195V100.807H245.509C245.011 100.807 244.655 100.889 244.442 101.053C244.236 101.216 244.132 101.451 244.132 101.757C244.132 102.034 244.236 102.255 244.442 102.419C244.648 102.575 244.936 102.653 245.306 102.653C245.619 102.653 245.89 102.582 246.117 102.44C246.345 102.298 246.519 102.106 246.64 101.864C246.761 101.615 246.821 101.334 246.821 101.021H247.344C247.344 101.746 247.166 102.326 246.811 102.76C246.455 103.187 245.943 103.4 245.274 103.4Z" fill="black"/>
<path d="M248.697 103.272V97.9368H249.497L249.55 98.9185V103.272H248.697ZM252.442 103.272V100.54L253.296 100.22V103.272H252.442ZM256.198 103.272V100.54L257.052 100.22V103.272H256.198ZM252.442 100.54C252.442 100.014 252.382 99.6121 252.261 99.3347C252.14 99.0572 251.973 98.8687 251.759 98.7691C251.546 98.6624 251.304 98.609 251.033 98.609C250.564 98.609 250.198 98.7762 249.934 99.1106C249.678 99.4378 249.55 99.9038 249.55 100.508H249.134C249.134 99.9465 249.216 99.4627 249.379 99.0572C249.543 98.6517 249.778 98.3423 250.084 98.1288C250.397 97.9154 250.774 97.8087 251.215 97.8087C251.862 97.8087 252.371 98.0079 252.741 98.4063C253.118 98.8047 253.303 99.4094 253.296 100.22L252.442 100.54ZM256.198 100.54C256.198 100.014 256.134 99.6121 256.006 99.3347C255.885 99.0572 255.718 98.8687 255.505 98.7691C255.291 98.6624 255.049 98.609 254.779 98.609C254.309 98.609 253.943 98.7762 253.68 99.1106C253.424 99.4378 253.296 99.9038 253.296 100.508H252.88C252.88 99.9465 252.961 99.4627 253.125 99.0572C253.289 98.6517 253.527 98.3423 253.84 98.1288C254.153 97.9154 254.53 97.8087 254.971 97.8087C255.611 97.8087 256.116 98.0079 256.486 98.4063C256.863 98.8047 257.052 99.4094 257.052 100.22L256.198 100.54Z" fill="black"/>
<path d="M258.132 103.272L258.153 97.9368H259.007L258.985 103.272H258.132ZM258.569 96.6989C258.427 96.6989 258.302 96.6456 258.196 96.5389C258.089 96.4322 258.036 96.3077 258.036 96.1654C258.036 96.016 258.089 95.8915 258.196 95.7919C258.302 95.6852 258.427 95.6318 258.569 95.6318C258.718 95.6318 258.843 95.6852 258.943 95.7919C259.049 95.8915 259.103 96.016 259.103 96.1654C259.103 96.3077 259.049 96.4322 258.943 96.5389C258.843 96.6456 258.718 96.6989 258.569 96.6989Z" fill="black"/>
<path d="M260.238 103.272L260.26 95.8026H261.113L261.092 103.272H260.238Z" fill="black"/>
<path d="M262.764 105.534C262.629 105.534 262.472 105.506 262.294 105.449C262.116 105.399 261.928 105.332 261.729 105.246L262.049 104.531C262.213 104.603 262.355 104.656 262.476 104.691C262.604 104.727 262.703 104.745 262.775 104.745C262.967 104.745 263.123 104.691 263.244 104.585C263.372 104.485 263.479 104.339 263.564 104.147L264.172 102.696L266.147 97.9368H267.064L264.503 104.019C264.368 104.332 264.226 104.603 264.076 104.83C263.934 105.058 263.76 105.232 263.553 105.353C263.347 105.474 263.084 105.534 262.764 105.534ZM263.938 103.272L261.633 97.9368H262.54L264.525 102.685L264.781 103.272H263.938Z" fill="black"/>
</g>
<path opacity="0.3" d="M52.1377 103.4C51.7749 103.4 51.4441 103.347 51.1453 103.24C50.8537 103.126 50.6011 102.98 50.3877 102.802C50.1814 102.625 50.0178 102.436 49.8968 102.237L50.6438 101.821C50.7221 101.92 50.8181 102.034 50.9319 102.162C51.0529 102.283 51.2058 102.386 51.3908 102.472C51.5757 102.557 51.8034 102.6 52.0737 102.6C52.5575 102.6 52.9452 102.461 53.2369 102.184C53.5285 101.906 53.6744 101.558 53.6744 101.138C53.6744 100.818 53.5854 100.547 53.4076 100.327C53.2369 100.106 52.9879 99.9391 52.6606 99.8253C52.3334 99.7114 51.9421 99.6545 51.4868 99.6545H51.2841V98.9502H51.4655C51.9137 98.9502 52.3263 99 52.7033 99.0996C53.0803 99.1992 53.4076 99.3451 53.685 99.5371C53.9696 99.7292 54.1866 99.964 54.336 100.241C54.4925 100.519 54.5707 100.839 54.5707 101.202C54.5707 101.643 54.4605 102.031 54.2399 102.365C54.0265 102.692 53.7348 102.948 53.3649 103.133C52.995 103.311 52.5859 103.4 52.1377 103.4ZM51.2841 99.5798V98.8862H51.4868C52.0986 98.8862 52.5824 98.7831 52.9381 98.5768C53.3009 98.3633 53.4823 98.061 53.4823 97.6697C53.4823 97.4563 53.4254 97.2607 53.3115 97.0828C53.1977 96.8979 53.0305 96.752 52.81 96.6453C52.5966 96.5315 52.3476 96.4746 52.063 96.4746C51.871 96.4746 51.6896 96.503 51.5188 96.5599C51.3552 96.6097 51.2023 96.688 51.06 96.7947C50.9248 96.8943 50.8003 97.0223 50.6865 97.1789L49.9822 96.7734C50.1174 96.5528 50.2881 96.3607 50.4944 96.1971C50.7078 96.0335 50.9497 95.9055 51.22 95.813C51.4904 95.7205 51.7856 95.6743 52.1057 95.6743C52.5397 95.6743 52.9274 95.7596 53.2689 95.9304C53.6175 96.1011 53.8913 96.3359 54.0905 96.6346C54.2897 96.9263 54.3893 97.2571 54.3893 97.627C54.3893 97.9401 54.3146 98.2175 54.1652 98.4594C54.0158 98.7012 53.806 98.9076 53.5356 99.0783C53.2724 99.249 52.963 99.3771 52.6073 99.4624C52.2587 99.5407 51.8781 99.5798 51.4655 99.5798H51.2841Z" fill="black"/>
<path opacity="0.3" d="M117.877 103.272L117.888 96.2825L117.962 95.8023H118.773L118.752 103.272H117.877ZM116.212 97.7231V96.9014C116.362 96.9085 116.54 96.8587 116.746 96.752C116.952 96.6453 117.166 96.5066 117.386 96.3359C117.607 96.1651 117.799 95.9873 117.962 95.8023L118.517 96.4105C118.282 96.6595 118.037 96.8836 117.781 97.0828C117.525 97.282 117.265 97.4421 117.002 97.563C116.739 97.6768 116.475 97.7302 116.212 97.7231Z" fill="black"/>
<path d="M141.567 79.7771L147.495 62.7981H173.817L179.745 79.7771H190.796L166.182 9.44999H155.13L130.516 79.7771H141.567ZM170.401 52.8518H150.91L160.656 24.9219L170.401 52.8518ZM222.679 80.7818C237.749 80.7818 247.896 71.1369 247.896 55.9663V9.44999H237.146V55.9663C237.146 65.8121 229.712 70.1322 222.679 70.1322C215.646 70.1322 208.212 65.8121 208.212 55.9663V9.44999H197.462V55.9663C197.462 71.1369 207.609 80.7818 222.679 80.7818ZM285.406 80.7818C299.772 80.7818 309.618 71.9406 310.522 57.9757H299.772C298.868 66.4149 291.936 70.1322 285.406 70.1322C278.373 70.1322 270.938 65.8121 270.938 55.9663V33.2607C270.938 23.4149 278.373 19.0948 285.406 19.0948C291.936 19.0948 298.868 22.8121 299.772 31.2514H310.522C309.719 17.186 299.772 8.44531 285.406 8.44531C270.336 8.44531 260.188 18.0902 260.188 33.2607V55.9663C260.188 71.1369 270.336 80.7818 285.406 80.7818ZM346.424 79.7771V20.0995H366.216V9.44999H315.882V20.0995H335.674V79.7771H346.424ZM373.987 79.7771L379.915 62.7981H406.237L412.165 79.7771H423.216L398.602 9.44999H387.55L362.936 79.7771H373.987ZM402.821 52.8518H383.331L393.076 24.9219L402.821 52.8518Z" fill="black"/>
<path d="M78.4402 0.479535L77.4097 0L51.7837 0.0249222L28.6154 0.0138191L22.8512 0L0 45.1513L22.8517 89.3199H77.4127L78.4343 88.8482C85.7538 85.4692 91.9947 79.5941 96.4268 72.0335C101.058 64.1342 103.548 54.6917 103.548 44.6597C103.548 34.4609 101.133 25.0375 96.5456 17.2116C92.1775 9.7602 85.95 3.97401 78.4402 0.479535ZM75.0971 10.1959L75.8533 10.5967C80.6787 13.2485 84.7353 17.2619 87.7222 22.357C91.3679 28.576 93.3268 36.2217 93.3268 44.6597C93.3268 52.9083 91.3055 60.5728 87.6033 66.8881L87.0823 67.7501C84.0761 72.5743 80.1653 76.3681 75.7283 78.7969L75.0996 79.1244L29.0748 79.1219L11.4738 45.0993L29.1347 10.2058L38.5652 10.2191L75.0971 10.1959Z" fill="black"/>
<line y1="79.4393" x2="430" y2="79.4393" stroke="#E4E4E4" stroke-width="0.790441"/>
<line y1="9.88066" x2="430" y2="9.88066" stroke="#E4E4E4" stroke-width="0.790441"/>
<line x1="100.782" y1="103.548" x2="100.782" y2="6.10151e-05" stroke="#E4E4E4" stroke-width="0.790441"/>
<line x1="3.55693" y1="103.548" x2="3.55693" y2="6.10151e-05" stroke="#E4E4E4" stroke-width="0.790441"/>
<line x1="133.98" y1="103.548" x2="133.98" y2="6.10151e-05" stroke="#E4E4E4" stroke-width="0.790441"/>
</svg>
