<?xml version="1.0" encoding="UTF-8" standalone="no"?>
<!DOCTYPE svg PUBLIC "-//W3C//DTD SVG 1.1//EN" "http://www.w3.org/Graphics/SVG/1.1/DTD/svg11.dtd">
<svg width="100%" height="100%" viewBox="0 0 153 201" version="1.1" xmlns="http://www.w3.org/2000/svg" xmlns:xlink="http://www.w3.org/1999/xlink" xml:space="preserve" xmlns:serif="http://www.serif.com/" style="fill-rule:evenodd;clip-rule:evenodd;">
    <path d="M82.511,171.692C100.69,171.692 120.193,161.436 123.155,138.054L150.938,138.054C149.502,156.66 142.216,171.806 130.56,182.356C118.679,193.111 102.181,199.16 82.511,199.16C61.877,199.16 44.698,192.56 32.683,180.853C20.671,169.148 13.733,152.253 13.733,131.494L13.733,68.666C13.733,47.907 20.671,31.012 32.683,19.308C44.698,7.6 61.877,1 82.511,1C102.185,1 118.752,6.982 130.666,17.701C142.357,28.219 149.643,43.366 150.946,62.106L123.155,62.106C120.193,38.724 100.69,28.468 82.511,28.468C72.59,28.468 62.341,31.513 54.553,38.086C46.74,44.681 41.479,54.766 41.479,68.666L41.479,131.494C41.479,145.394 46.74,155.479 54.553,162.074C62.341,168.647 72.59,171.692 82.511,171.692Z" style="fill:none;fill-rule:nonzero;stroke:rgb(158,158,158);stroke-width:2px;"/>
    <path d="M152.011,137.054L122.265,137.054C119.763,160.406 100.581,170.692 82.511,170.692C63.051,170.692 42.479,158.738 42.479,131.494L12.733,131.494C12.733,173.472 40.811,200.16 82.511,200.16C122.265,200.16 149.509,175.696 152.011,137.054Z" style="fill:url(#_Linear1);fill-rule:nonzero;"/>
    <path d="M44.807,140.38C47.016,140.38 48.807,138.589 48.807,136.38L48.807,134.83L49.713,134.83C50.818,134.83 51.713,133.935 51.713,132.83C51.713,131.726 50.818,130.83 49.713,130.83L48.807,130.83L48.807,129.281C48.807,127.072 47.016,125.281 44.807,125.281L9.321,125.281C7.112,125.281 5.321,127.072 5.321,129.281L5.321,130.317C4.524,129.778 4,128.865 4,127.83L4,124.321C4,122.953 4.925,121.759 6.249,121.416L25.628,116.409C28.718,115.61 30.876,112.823 30.876,109.631L30.876,108.86L34.613,108.86C35.718,108.86 36.613,107.965 36.613,106.86C36.613,105.756 35.718,104.86 34.613,104.86L32.166,104.86L32.951,83.527C33.035,81.262 31.221,79.38 28.954,79.38L28.798,79.38C26.532,79.38 24.718,81.262 24.801,83.527L25.586,104.86L23.138,104.86C22.034,104.86 21.138,105.756 21.138,106.86C21.138,107.965 22.034,108.86 23.138,108.86L26.876,108.86L26.876,109.631C26.876,110.999 25.951,112.194 24.627,112.536L5.249,117.544C2.159,118.342 0,121.13 0,124.321L0,127.83C0,131.117 2.266,133.876 5.321,134.628L5.321,136.38C5.321,138.589 7.112,140.38 9.322,140.38L44.807,140.38Z"/>
    <defs>
        <linearGradient id="_Linear1" x1="0" y1="0" x2="1" y2="0" gradientUnits="userSpaceOnUse" gradientTransform="matrix(96.0005,0,0,96.0005,33.9995,166.38)"><stop offset="0" style="stop-color:rgb(81,80,80);stop-opacity:1"/><stop offset="1" style="stop-color:rgb(184,184,184);stop-opacity:1"/></linearGradient>
    </defs>
</svg>
