<svg width="455" height="231" viewBox="0 0 455 231" fill="none" xmlns="http://www.w3.org/2000/svg">
<path d="M277.43 30.8219L275.464 29.9058L226.589 29.9534L182.402 29.9322L171.408 29.9058L127.825 116.168L171.409 200.553H275.47L277.419 199.652C291.379 193.196 303.281 181.972 311.735 167.527C320.567 152.436 325.316 134.395 325.316 115.229C325.316 95.7441 320.711 77.7405 311.961 62.7888C303.63 48.5528 291.753 37.4982 277.43 30.8219ZM271.054 49.3851L272.496 50.151C281.699 55.2174 289.436 62.8849 295.133 72.6192C302.086 84.5009 305.822 99.1081 305.822 115.229C305.822 130.988 301.967 145.631 294.906 157.697L293.912 159.344C288.179 168.561 280.72 175.809 272.258 180.449L271.058 181.075L183.278 181.07L149.708 116.069L183.392 49.4042L201.378 49.4296L271.054 49.3851Z" fill="black"/>
<path d="M70.0211 230.448L185.703 1.00045" stroke="#A8A8A8" stroke-width="0.713964"/>
<path d="M246.975 230.448L362.658 1.00045" stroke="#A8A8A8" stroke-width="0.713964"/>
<path d="M91.903 230.448L207.585 1.00045" stroke="#A8A8A8" stroke-width="0.713964"/>
<path d="M268.86 230.448L384.542 1.00045" stroke="#A8A8A8" stroke-width="0.713964"/>
<path d="M186.053 229.344L67.9446 1.00009" stroke="#A8A8A8" stroke-width="0.713964"/>
<path d="M365.009 229.344L246.901 1.00009" stroke="#A8A8A8" stroke-width="0.713964"/>
<path d="M207.98 229.344L89.8723 1.00009" stroke="#A8A8A8" stroke-width="0.713964"/>
<path d="M386.936 229.344L268.828 1.00009" stroke="#A8A8A8" stroke-width="0.713964"/>
<line x1="29.2725" y1="29.916" x2="417.669" y2="29.916" stroke="#A8A8A8" stroke-width="0.713964"/>
<line x1="29.2725" y1="49.1928" x2="417.669" y2="49.1928" stroke="#A8A8A8" stroke-width="0.713964"/>
<line x1="29.2725" y1="115.591" x2="417.669" y2="115.591" stroke="#A8A8A8" stroke-width="0.713964"/>
<line x1="29.2725" y1="200.553" x2="417.669" y2="200.553" stroke="#A8A8A8" stroke-width="0.713964"/>
<line x1="29.2725" y1="181.276" x2="417.669" y2="181.276" stroke="#A8A8A8" stroke-width="0.713964"/>
</svg>
