<svg width="412" height="412" viewBox="0 0 412 412" fill="none" xmlns="http://www.w3.org/2000/svg">
<circle cx="206" cy="206" r="205" transform="rotate(90 206 206)" fill="#4AFFA8" fill-opacity="0.12" stroke="white" stroke-width="2"/>
<circle cx="205" cy="133" r="132" transform="rotate(90 205 133)" fill="#4AFFA8" fill-opacity="0.12" stroke="white" stroke-width="2"/>
<circle cx="205" cy="64" r="63" transform="rotate(90 205 64)" fill="#4AFFA8" fill-opacity="0.12" stroke="white" stroke-width="2"/>
<path d="M205 66C187.341 66 173 51.4635 173 33.5C173 15.5365 187.341 1 205 1C222.659 1 237 15.5365 237 33.5C237 51.4635 222.659 66 205 66Z" fill="#4AFFA8" fill-opacity="0.12" stroke="white" stroke-width="2"/>
<path d="M181.233 36.0001V29.3501H182.041V36.0001H181.233Z" fill="black"/>
<path d="M185.532 36.0001V29.9011H186.33V36.0001H185.532ZM183.414 30.0816V29.3501H188.448V30.0816H183.414Z" fill="black"/>
<path d="M189.814 36.0001V29.3501H190.622V36.0001H189.814ZM190.527 36.0001V35.2686H193.766V36.0001H190.527ZM190.527 32.9506V32.2286H193.472V32.9506H190.527ZM190.527 30.0816V29.3501H193.747V30.0816H190.527Z" fill="black"/>
<path d="M196.576 33.3876V32.6466H198.096C198.337 32.6466 198.552 32.5928 198.742 32.4851C198.932 32.3711 199.084 32.2191 199.198 32.0291C199.319 31.8328 199.379 31.6111 199.379 31.3641C199.379 30.9841 199.246 30.6769 198.98 30.4426C198.72 30.2019 198.381 30.0816 197.963 30.0816H196.576V29.3501L197.982 29.3406C198.413 29.3343 198.793 29.4198 199.122 29.5971C199.458 29.7681 199.718 30.0088 199.901 30.3191C200.091 30.6231 200.186 30.9714 200.186 31.3641C200.186 31.7568 200.085 32.1051 199.882 32.4091C199.68 32.7131 199.404 32.9538 199.056 33.1311C198.707 33.3021 198.315 33.3876 197.878 33.3876H196.576ZM195.816 36.0001V29.3501H196.624V36.0001H195.816ZM199.569 36.0001L197.973 33.2736L198.609 32.8556L200.452 36.0001H199.569Z" fill="black"/>
<path d="M206.769 36.0001L204.1 29.3501H204.907L207.615 36.0001H206.769ZM201.364 36.0001L204.071 29.3501H204.888L202.219 36.0001H201.364ZM202.646 34.1096V33.3876H206.342V34.1096H202.646Z" fill="black"/>
<path d="M210.18 36.0001V29.9011H210.978V36.0001H210.18ZM208.062 30.0816V29.3501H213.097V30.0816H208.062Z" fill="black"/>
<path d="M214.463 36.0001V29.3501H215.27V36.0001H214.463Z" fill="black"/>
<path d="M220.253 36.1141C219.613 36.1141 219.046 35.9684 218.552 35.6771C218.058 35.3858 217.672 34.9804 217.393 34.4611C217.115 33.9418 216.975 33.3464 216.975 32.6751C216.975 31.9974 217.111 31.4021 217.384 30.8891C217.662 30.3698 218.046 29.9644 218.533 29.6731C219.021 29.3818 219.585 29.2361 220.224 29.2361C220.864 29.2361 221.428 29.3849 221.915 29.6826C222.409 29.9739 222.792 30.3793 223.065 30.8986C223.337 31.4116 223.473 32.0038 223.473 32.6751C223.473 33.3464 223.337 33.9418 223.065 34.4611C222.792 34.9804 222.412 35.3858 221.925 35.6771C221.443 35.9684 220.886 36.1141 220.253 36.1141ZM220.253 35.3826C220.728 35.3826 221.146 35.2686 221.507 35.0406C221.868 34.8063 222.15 34.4864 222.352 34.0811C222.561 33.6758 222.666 33.2071 222.666 32.6751C222.666 32.1494 222.561 31.6839 222.352 31.2786C222.143 30.8669 221.855 30.5471 221.488 30.3191C221.127 30.0848 220.706 29.9676 220.224 29.9676C219.749 29.9676 219.328 30.0848 218.961 30.3191C218.593 30.5471 218.305 30.8669 218.096 31.2786C217.887 31.6839 217.783 32.1494 217.783 32.6751C217.783 33.2071 217.887 33.6758 218.096 34.0811C218.305 34.4864 218.597 34.8063 218.97 35.0406C219.344 35.2686 219.771 35.3826 220.253 35.3826Z" fill="black"/>
<path d="M229.956 36.0001L225.367 29.7966L225.994 29.3501L230.583 35.5441L229.956 36.0001ZM225.177 36.0001V29.3501H225.994L225.985 29.9866V36.0001H225.177ZM229.956 36.0001V29.3501H230.763V36.0001H229.956Z" fill="black"/>
<path d="M160.796 90.5586V89.8271H162.411C162.759 89.8271 163.044 89.7004 163.266 89.4471C163.494 89.1874 163.608 88.8581 163.608 88.4591C163.608 88.1868 163.548 87.9461 163.428 87.7371C163.307 87.5281 163.139 87.3666 162.924 87.2526C162.715 87.1323 162.471 87.0753 162.193 87.0816H160.796V86.3501L162.202 86.3406C162.633 86.3406 163.013 86.4324 163.342 86.6161C163.678 86.7934 163.937 87.0404 164.121 87.3571C164.311 87.6738 164.406 88.0411 164.406 88.4591C164.406 88.8644 164.321 89.2254 164.15 89.5421C163.979 89.8588 163.744 90.1089 163.447 90.2926C163.149 90.4699 162.804 90.5586 162.411 90.5586H160.796ZM160.036 93.0001V86.3501H160.844V93.0001H160.036Z" fill="black"/>
<path d="M166.678 90.3876V89.6466H168.198C168.438 89.6466 168.654 89.5928 168.844 89.4851C169.034 89.3711 169.186 89.2191 169.3 89.0291C169.42 88.8328 169.48 88.6111 169.48 88.3641C169.48 87.9841 169.347 87.6769 169.081 87.4426C168.821 87.2019 168.483 87.0816 168.065 87.0816H166.678V86.3501L168.084 86.3406C168.514 86.3343 168.894 86.4198 169.224 86.5971C169.559 86.7681 169.819 87.0088 170.003 87.3191C170.193 87.6231 170.288 87.9714 170.288 88.3641C170.288 88.7568 170.186 89.1051 169.984 89.4091C169.781 89.7131 169.505 89.9538 169.157 90.1311C168.809 90.3021 168.416 90.3876 167.979 90.3876H166.678ZM165.918 93.0001V86.3501H166.725V93.0001H165.918ZM169.67 93.0001L168.074 90.2736L168.711 89.8556L170.554 93.0001H169.67Z" fill="black"/>
<path d="M175.075 93.1141C174.436 93.1141 173.869 92.9684 173.375 92.6771C172.881 92.3858 172.495 91.9804 172.216 91.4611C171.937 90.9418 171.798 90.3464 171.798 89.6751C171.798 88.9974 171.934 88.4021 172.206 87.8891C172.485 87.3698 172.868 86.9644 173.356 86.6731C173.844 86.3818 174.407 86.2361 175.047 86.2361C175.687 86.2361 176.25 86.3849 176.738 86.6826C177.232 86.9739 177.615 87.3793 177.887 87.8986C178.16 88.4116 178.296 89.0038 178.296 89.6751C178.296 90.3464 178.16 90.9418 177.887 91.4611C177.615 91.9804 177.235 92.3858 176.747 92.6771C176.266 92.9684 175.709 93.1141 175.075 93.1141ZM175.075 92.3826C175.55 92.3826 175.968 92.2686 176.329 92.0406C176.69 91.8063 176.972 91.4864 177.175 91.0811C177.384 90.6758 177.488 90.2071 177.488 89.6751C177.488 89.1494 177.384 88.6839 177.175 88.2786C176.966 87.8669 176.678 87.5471 176.31 87.3191C175.949 87.0848 175.528 86.9676 175.047 86.9676C174.572 86.9676 174.151 87.0848 173.783 87.3191C173.416 87.5471 173.128 87.8669 172.919 88.2786C172.71 88.6839 172.605 89.1494 172.605 89.6751C172.605 90.2071 172.71 90.6758 172.919 91.0811C173.128 91.4864 173.419 91.8063 173.793 92.0406C174.167 92.2686 174.594 92.3826 175.075 92.3826Z" fill="black"/>
<path d="M182.023 93.0001V92.2591C182.359 92.2591 182.669 92.1958 182.954 92.0691C183.239 91.9361 183.49 91.7493 183.705 91.5086C183.927 91.2679 184.098 90.9924 184.218 90.6821C184.345 90.3654 184.408 90.0298 184.408 89.6751C184.408 89.3204 184.345 88.9879 184.218 88.6776C184.098 88.3609 183.927 88.0823 183.705 87.8416C183.49 87.6009 183.239 87.4173 182.954 87.2906C182.669 87.1576 182.359 87.0911 182.023 87.0911V86.3501C182.65 86.3501 183.201 86.4926 183.676 86.7776C184.158 87.0563 184.535 87.4458 184.807 87.9461C185.079 88.4464 185.215 89.0228 185.215 89.6751C185.215 90.3211 185.079 90.8943 184.807 91.3946C184.535 91.8949 184.158 92.2876 183.676 92.5726C183.201 92.8576 182.65 93.0001 182.023 93.0001ZM180.646 93.0001V92.2591H182.023V93.0001H180.646ZM180 93.0001V86.3501H180.807V93.0001H180ZM180.646 87.0911V86.3501H182.023V87.0911H180.646Z" fill="black"/>
<path d="M189.371 93.1426C188.871 93.1426 188.428 93.0381 188.041 92.8291C187.661 92.6138 187.364 92.3193 187.148 91.9456C186.933 91.5656 186.825 91.1286 186.825 90.6346H187.633C187.633 90.9829 187.706 91.2933 187.851 91.5656C188.003 91.8316 188.212 92.0406 188.478 92.1926C188.744 92.3383 189.048 92.4111 189.39 92.4111C189.739 92.4111 190.046 92.3383 190.312 92.1926C190.584 92.0406 190.793 91.8316 190.939 91.5656C191.091 91.2933 191.167 90.9829 191.167 90.6346H191.965C191.965 91.1286 191.857 91.5656 191.642 91.9456C191.427 92.3193 191.123 92.6138 190.73 92.8291C190.337 93.0381 189.884 93.1426 189.371 93.1426ZM186.825 90.6346V86.3501H187.633V90.6346H186.825ZM191.167 90.6346V86.3501H191.965V90.6346H191.167Z" fill="black"/>
<path d="M196.82 93.1141C196.186 93.1141 195.626 92.9684 195.138 92.6771C194.651 92.3794 194.267 91.9741 193.989 91.4611C193.71 90.9418 193.571 90.3464 193.571 89.6751C193.571 89.0038 193.707 88.4116 193.979 87.8986C194.258 87.3793 194.638 86.9739 195.119 86.6826C195.607 86.3849 196.164 86.2361 196.791 86.2361C197.19 86.2361 197.573 86.3089 197.941 86.4546C198.308 86.5939 198.637 86.7934 198.929 87.0531C199.22 87.3064 199.445 87.6009 199.603 87.9366L198.91 88.2881C198.783 88.0221 198.609 87.7909 198.387 87.5946C198.166 87.3983 197.919 87.2463 197.646 87.1386C197.374 87.0246 197.089 86.9676 196.791 86.9676C196.329 86.9676 195.914 87.0848 195.547 87.3191C195.179 87.5471 194.891 87.8638 194.682 88.2691C194.48 88.6744 194.378 89.1431 194.378 89.6751C194.378 90.2071 194.483 90.6789 194.692 91.0906C194.901 91.5023 195.189 91.8253 195.556 92.0596C195.93 92.2876 196.351 92.4016 196.82 92.4016C197.124 92.4016 197.412 92.3414 197.684 92.2211C197.957 92.0944 198.2 91.9234 198.416 91.7081C198.637 91.4928 198.812 91.2458 198.938 90.9671L199.641 91.3186C199.477 91.6669 199.249 91.9773 198.957 92.2496C198.672 92.5219 198.343 92.7341 197.969 92.8861C197.602 93.0381 197.219 93.1141 196.82 93.1141Z" fill="black"/>
<path d="M202.583 93.0001V86.9011H203.381V93.0001H202.583ZM200.465 87.0816V86.3501H205.5V87.0816H200.465Z" fill="black"/>
<path d="M211.721 93.1141C211.353 93.1141 211.027 93.0761 210.742 93.0001C210.457 92.9178 210.21 92.8069 210.001 92.6676C209.792 92.5219 209.621 92.3636 209.488 92.1926C209.355 92.0153 209.257 91.8284 209.194 91.6321L209.963 91.3661C210.058 91.6448 210.248 91.8886 210.533 92.0976C210.825 92.3003 211.179 92.4016 211.597 92.4016C212.11 92.4016 212.512 92.3003 212.804 92.0976C213.095 91.8949 213.241 91.6258 213.241 91.2901C213.241 90.9798 213.111 90.7296 212.851 90.5396C212.592 90.3433 212.25 90.1913 211.825 90.0836L211.094 89.8936C210.796 89.8176 210.521 89.7068 210.267 89.5611C210.02 89.4091 209.821 89.2191 209.669 88.9911C209.523 88.7568 209.45 88.4781 209.45 88.1551C209.45 87.5534 209.643 87.0848 210.03 86.7491C210.422 86.4071 210.986 86.2361 211.721 86.2361C212.158 86.2361 212.535 86.3089 212.851 86.4546C213.168 86.5939 213.424 86.7744 213.621 86.9961C213.823 87.2114 213.966 87.4458 214.048 87.6991L213.288 87.9651C213.168 87.6484 212.965 87.4014 212.68 87.2241C212.395 87.0404 212.05 86.9486 211.645 86.9486C211.22 86.9486 210.882 87.0531 210.628 87.2621C210.381 87.4648 210.258 87.7434 210.258 88.0981C210.258 88.4021 210.356 88.6364 210.552 88.8011C210.749 88.9594 211.005 89.0766 211.322 89.1526L212.053 89.3331C212.699 89.4851 213.193 89.7384 213.535 90.0931C213.884 90.4414 214.058 90.8183 214.058 91.2236C214.058 91.5719 213.969 91.8918 213.792 92.1831C213.614 92.4681 213.352 92.6961 213.003 92.8671C212.661 93.0318 212.234 93.1141 211.721 93.1141Z" fill="black"/>
<path d="M215.808 93.0001V86.3501H216.616V93.0001H215.808ZM216.521 93.0001V92.2686H219.76V93.0001H216.521ZM216.521 89.9506V89.2286H219.466V89.9506H216.521ZM216.521 87.0816V86.3501H219.741V87.0816H216.521Z" fill="black"/>
<path d="M224.613 93.1141C223.979 93.1141 223.419 92.9684 222.931 92.6771C222.444 92.3794 222.06 91.9741 221.782 91.4611C221.503 90.9418 221.364 90.3464 221.364 89.6751C221.364 89.0038 221.5 88.4116 221.772 87.8986C222.051 87.3793 222.431 86.9739 222.912 86.6826C223.4 86.3849 223.957 86.2361 224.584 86.2361C224.983 86.2361 225.366 86.3089 225.734 86.4546C226.101 86.5939 226.43 86.7934 226.722 87.0531C227.013 87.3064 227.238 87.6009 227.396 87.9366L226.703 88.2881C226.576 88.0221 226.402 87.7909 226.18 87.5946C225.959 87.3983 225.712 87.2463 225.439 87.1386C225.167 87.0246 224.882 86.9676 224.584 86.9676C224.122 86.9676 223.707 87.0848 223.34 87.3191C222.972 87.5471 222.684 87.8638 222.475 88.2691C222.273 88.6744 222.171 89.1431 222.171 89.6751C222.171 90.2071 222.276 90.6789 222.485 91.0906C222.694 91.5023 222.982 91.8253 223.349 92.0596C223.723 92.2876 224.144 92.4016 224.613 92.4016C224.917 92.4016 225.205 92.3414 225.477 92.2211C225.75 92.0944 225.993 91.9234 226.209 91.7081C226.43 91.4928 226.605 91.2458 226.731 90.9671L227.434 91.3186C227.27 91.6669 227.042 91.9773 226.75 92.2496C226.465 92.5219 226.136 92.7341 225.762 92.8861C225.395 93.0381 225.012 93.1141 224.613 93.1141Z" fill="black"/>
<path d="M230.376 93.0001V86.9011H231.174V93.0001H230.376ZM228.258 87.0816V86.3501H233.293V87.0816H228.258Z" fill="black"/>
<path d="M234.659 93.0001V86.3501H235.466V93.0001H234.659Z" fill="black"/>
<path d="M240.449 93.1141C239.809 93.1141 239.242 92.9684 238.748 92.6771C238.254 92.3858 237.868 91.9804 237.589 91.4611C237.311 90.9418 237.171 90.3464 237.171 89.6751C237.171 88.9974 237.307 88.4021 237.58 87.8891C237.858 87.3698 238.242 86.9644 238.729 86.6731C239.217 86.3818 239.781 86.2361 240.42 86.2361C241.06 86.2361 241.624 86.3849 242.111 86.6826C242.605 86.9739 242.988 87.3793 243.261 87.8986C243.533 88.4116 243.669 89.0038 243.669 89.6751C243.669 90.3464 243.533 90.9418 243.261 91.4611C242.988 91.9804 242.608 92.3858 242.121 92.6771C241.639 92.9684 241.082 93.1141 240.449 93.1141ZM240.449 92.3826C240.924 92.3826 241.342 92.2686 241.703 92.0406C242.064 91.8063 242.346 91.4864 242.548 91.0811C242.757 90.6758 242.862 90.2071 242.862 89.6751C242.862 89.1494 242.757 88.6839 242.548 88.2786C242.339 87.8669 242.051 87.5471 241.684 87.3191C241.323 87.0848 240.902 86.9676 240.42 86.9676C239.945 86.9676 239.524 87.0848 239.157 87.3191C238.789 87.5471 238.501 87.8669 238.292 88.2786C238.083 88.6839 237.979 89.1494 237.979 89.6751C237.979 90.2071 238.083 90.6758 238.292 91.0811C238.501 91.4864 238.793 91.8063 239.166 92.0406C239.54 92.2686 239.967 92.3826 240.449 92.3826Z" fill="black"/>
<path d="M250.152 93.0001L245.563 86.7966L246.19 86.3501L250.779 92.5441L250.152 93.0001ZM245.373 93.0001V86.3501H246.19L246.181 86.9866V93.0001H245.373ZM250.152 93.0001V86.3501H250.959V93.0001H250.152Z" fill="black"/>
<path d="M163.971 190V183.35H164.778V190H163.971ZM164.683 190V189.269H167.923V190H164.683ZM164.683 186.951V186.229H167.628V186.951H164.683ZM164.683 184.082V183.35H167.904V184.082H164.683Z" fill="black"/>
<path d="M174.751 190L170.163 183.797L170.79 183.35L175.378 189.544L174.751 190ZM169.973 190V183.35H170.79L170.78 183.987V190H169.973ZM174.751 190V183.35H175.559V190H174.751Z" fill="black"/>
<path d="M179.049 190V183.901H179.847V190H179.049ZM176.931 184.082V183.35H181.966V184.082H176.931Z" fill="black"/>
<path d="M183.331 190V183.35H184.139V190H183.331Z" fill="black"/>
<path d="M187.051 187.388V186.647H188.571C188.811 186.647 189.027 186.593 189.217 186.485C189.407 186.371 189.559 186.219 189.673 186.029C189.793 185.833 189.853 185.611 189.853 185.364C189.853 184.984 189.72 184.677 189.454 184.443C189.194 184.202 188.856 184.082 188.438 184.082H187.051V183.35L188.457 183.341C188.887 183.334 189.267 183.42 189.597 183.597C189.932 183.768 190.192 184.009 190.376 184.319C190.566 184.623 190.661 184.971 190.661 185.364C190.661 185.757 190.559 186.105 190.357 186.409C190.154 186.713 189.878 186.954 189.53 187.131C189.182 187.302 188.789 187.388 188.352 187.388H187.051ZM186.291 190V183.35H187.098V190H186.291ZM190.043 190L188.447 187.274L189.084 186.856L190.927 190H190.043Z" fill="black"/>
<path d="M192.617 190V183.35H193.425V190H192.617ZM193.33 190V189.269H196.569V190H193.33ZM193.33 186.951V186.229H196.275V186.951H193.33ZM193.33 184.082V183.35H196.55V184.082H193.33Z" fill="black"/>
<path d="M202.107 187.559V186.827H203.722C204.07 186.827 204.355 186.7 204.577 186.447C204.805 186.187 204.919 185.858 204.919 185.459C204.919 185.187 204.858 184.946 204.738 184.737C204.618 184.528 204.45 184.367 204.235 184.253C204.026 184.132 203.782 184.075 203.503 184.082H202.107V183.35L203.513 183.341C203.943 183.341 204.323 183.432 204.653 183.616C204.988 183.793 205.248 184.04 205.432 184.357C205.622 184.674 205.717 185.041 205.717 185.459C205.717 185.864 205.631 186.225 205.46 186.542C205.289 186.859 205.055 187.109 204.757 187.293C204.459 187.47 204.114 187.559 203.722 187.559H202.107ZM201.347 190V183.35H202.154V190H201.347Z" fill="black"/>
<path d="M207.988 187.388V186.647H209.508C209.749 186.647 209.964 186.593 210.154 186.485C210.344 186.371 210.496 186.219 210.61 186.029C210.73 185.833 210.79 185.611 210.79 185.364C210.79 184.984 210.657 184.677 210.391 184.443C210.132 184.202 209.793 184.082 209.375 184.082H207.988V183.35L209.394 183.341C209.825 183.334 210.205 183.42 210.534 183.597C210.87 183.768 211.129 184.009 211.313 184.319C211.503 184.623 211.598 184.971 211.598 185.364C211.598 185.757 211.497 186.105 211.294 186.409C211.091 186.713 210.816 186.954 210.467 187.131C210.119 187.302 209.726 187.388 209.289 187.388H207.988ZM207.228 190V183.35H208.035V190H207.228ZM210.98 190L209.384 187.274L210.021 186.856L211.864 190H210.98Z" fill="black"/>
<path d="M216.386 190.114C215.746 190.114 215.179 189.968 214.685 189.677C214.191 189.386 213.805 188.98 213.526 188.461C213.248 187.942 213.108 187.346 213.108 186.675C213.108 185.997 213.244 185.402 213.517 184.889C213.795 184.37 214.179 183.964 214.666 183.673C215.154 183.382 215.718 183.236 216.357 183.236C216.997 183.236 217.561 183.385 218.048 183.683C218.542 183.974 218.925 184.379 219.198 184.899C219.47 185.412 219.606 186.004 219.606 186.675C219.606 187.346 219.47 187.942 219.198 188.461C218.925 188.98 218.545 189.386 218.058 189.677C217.576 189.968 217.019 190.114 216.386 190.114ZM216.386 189.383C216.861 189.383 217.279 189.269 217.64 189.041C218.001 188.806 218.283 188.486 218.485 188.081C218.694 187.676 218.799 187.207 218.799 186.675C218.799 186.149 218.694 185.684 218.485 185.279C218.276 184.867 217.988 184.547 217.621 184.319C217.26 184.085 216.839 183.968 216.357 183.968C215.882 183.968 215.461 184.085 215.094 184.319C214.726 184.547 214.438 184.867 214.229 185.279C214.02 185.684 213.916 186.149 213.916 186.675C213.916 187.207 214.02 187.676 214.229 188.081C214.438 188.486 214.73 188.806 215.103 189.041C215.477 189.269 215.904 189.383 216.386 189.383Z" fill="black"/>
<path d="M223.334 190V189.259C223.669 189.259 223.98 189.196 224.265 189.069C224.55 188.936 224.8 188.749 225.015 188.509C225.237 188.268 225.408 187.992 225.528 187.682C225.655 187.365 225.718 187.03 225.718 186.675C225.718 186.32 225.655 185.988 225.528 185.678C225.408 185.361 225.237 185.082 225.015 184.842C224.8 184.601 224.55 184.417 224.265 184.291C223.98 184.158 223.669 184.091 223.334 184.091V183.35C223.961 183.35 224.512 183.493 224.987 183.778C225.468 184.056 225.845 184.446 226.117 184.946C226.39 185.446 226.526 186.023 226.526 186.675C226.526 187.321 226.39 187.894 226.117 188.395C225.845 188.895 225.468 189.288 224.987 189.573C224.512 189.858 223.961 190 223.334 190ZM221.956 190V189.259H223.334V190H221.956ZM221.31 190V183.35H222.118V190H221.31ZM221.956 184.091V183.35H223.334V184.091H221.956Z" fill="black"/>
<path d="M230.682 190.143C230.181 190.143 229.738 190.038 229.352 189.829C228.972 189.614 228.674 189.319 228.459 188.946C228.243 188.566 228.136 188.129 228.136 187.635H228.943C228.943 187.983 229.016 188.293 229.162 188.566C229.314 188.832 229.523 189.041 229.789 189.193C230.055 189.338 230.359 189.411 230.701 189.411C231.049 189.411 231.356 189.338 231.622 189.193C231.895 189.041 232.104 188.832 232.249 188.566C232.401 188.293 232.477 187.983 232.477 187.635H233.275C233.275 188.129 233.168 188.566 232.952 188.946C232.737 189.319 232.433 189.614 232.04 189.829C231.648 190.038 231.195 190.143 230.682 190.143ZM228.136 187.635V183.35H228.943V187.635H228.136ZM232.477 187.635V183.35H233.275V187.635H232.477Z" fill="black"/>
<path d="M238.13 190.114C237.497 190.114 236.936 189.968 236.449 189.677C235.961 189.379 235.578 188.974 235.299 188.461C235.02 187.942 234.881 187.346 234.881 186.675C234.881 186.004 235.017 185.412 235.29 184.899C235.568 184.379 235.948 183.974 236.43 183.683C236.917 183.385 237.475 183.236 238.102 183.236C238.501 183.236 238.884 183.309 239.251 183.455C239.618 183.594 239.948 183.793 240.239 184.053C240.53 184.306 240.755 184.601 240.914 184.937L240.22 185.288C240.093 185.022 239.919 184.791 239.698 184.595C239.476 184.398 239.229 184.246 238.957 184.139C238.684 184.025 238.399 183.968 238.102 183.968C237.639 183.968 237.224 184.085 236.857 184.319C236.49 184.547 236.202 184.864 235.993 185.269C235.79 185.674 235.689 186.143 235.689 186.675C235.689 187.207 235.793 187.679 236.002 188.091C236.211 188.502 236.499 188.825 236.867 189.06C237.24 189.288 237.661 189.402 238.13 189.402C238.434 189.402 238.722 189.341 238.995 189.221C239.267 189.094 239.511 188.923 239.726 188.708C239.948 188.493 240.122 188.246 240.249 187.967L240.952 188.319C240.787 188.667 240.559 188.977 240.268 189.25C239.983 189.522 239.653 189.734 239.28 189.886C238.912 190.038 238.529 190.114 238.13 190.114Z" fill="black"/>
<path d="M243.894 190V183.901H244.692V190H243.894ZM241.775 184.082V183.35H246.81V184.082H241.775Z" fill="black"/>
<path d="M194.299 331V324.901H195.097V331H194.299ZM192.181 325.082V324.35H197.216V325.082H192.181Z" fill="black"/>
<path d="M198.581 331V324.35H199.389V331H198.581ZM199.294 331V330.269H202.533V331H199.294ZM199.294 327.951V327.229H202.239V327.951H199.294ZM199.294 325.082V324.35H202.514V325.082H199.294Z" fill="black"/>
<path d="M209.191 331L206.521 324.35H207.329L210.036 331H209.191ZM203.785 331L206.493 324.35H207.31L204.64 331H203.785ZM205.068 329.11V328.388H208.763V329.11H205.068Z" fill="black"/>
<path d="M214.528 329.11L211.526 324.673L211.849 324.502L212.229 324.35L214.917 328.331L214.528 329.11ZM211.393 331V324.35H212.2V331H211.393ZM214.528 329.11L214.138 328.331L216.827 324.35L217.207 324.502L217.52 324.664L214.528 329.11ZM216.855 331V324.35H217.653V331H216.855Z" fill="black"/>
<path d="M204 308C204 308.276 204.224 308.5 204.5 308.5C204.776 308.5 205 308.276 205 308L204 308ZM205 308L205 204L204 204L204 308L205 308Z" fill="black"/>
<path d="M204 173C204 173.276 204.224 173.5 204.5 173.5C204.776 173.5 205 173.276 205 173L204 173ZM205 173L205 104L204 104L204 173L205 173Z" fill="black"/>
<path d="M203.5 75C203.5 75.2761 203.724 75.5 204 75.5C204.276 75.5 204.5 75.2761 204.5 75L203.5 75ZM204.354 46.6464C204.158 46.4512 203.842 46.4512 203.646 46.6464L200.464 49.8284C200.269 50.0237 200.269 50.3403 200.464 50.5355C200.66 50.7308 200.976 50.7308 201.172 50.5355L204 47.7071L206.828 50.5355C207.024 50.7308 207.34 50.7308 207.536 50.5355C207.731 50.3403 207.731 50.0237 207.536 49.8284L204.354 46.6464ZM204.5 75L204.5 47L203.5 47L203.5 75L204.5 75Z" fill="black"/>
</svg>
