<svg width="83" height="13" viewBox="0 0 83 13" fill="none" xmlns="http://www.w3.org/2000/svg">
<g clip-path="url(#clip0_838_2973)">
<path d="M0.351672 6.12105C0.644732 4.60536 1.99281 3.55603 3.86839 3.55603C6.03703 3.55603 7.73678 4.48877 7.73678 7.40356V12.8251H5.8612L5.62675 11.6592C4.98202 12.4753 4.10284 13 2.81337 13C1.23085 13 0 12.0089 0 10.2018C0 8.3946 1.64113 7.22868 3.927 7.22868H5.45091V6.8206C5.45091 5.77128 4.68896 5.4798 3.80978 5.4798C3.16505 5.4798 2.52031 5.71298 2.22725 6.52912L0.351672 6.12105ZM3.34088 11.0762C4.3959 11.0762 5.45091 10.3767 5.45091 9.21074V9.03585H3.98561C2.98921 8.97755 2.40309 9.38563 2.40309 10.2018C2.40309 10.6098 2.75476 11.0762 3.34088 11.0762Z" fill="white"/>
<path d="M44.5451 6.12105C44.8382 4.60536 46.1862 3.55603 48.0618 3.55603C50.2305 3.55603 51.9302 4.48877 51.9302 7.40356V12.8251H50.0546L49.8202 11.6592C49.1754 12.4753 48.2963 13 47.0068 13C45.4243 13 44.1934 12.0089 44.1934 10.2018C44.1934 8.3946 45.8346 7.22868 48.1204 7.22868H49.6443V6.8206C49.6443 5.77128 48.8824 5.4798 48.0032 5.4798C47.3585 5.4798 46.7137 5.71298 46.4207 6.52912L44.5451 6.12105ZM47.5343 11.0762C48.5893 11.0762 49.6443 10.3767 49.6443 9.21074V9.03585H48.1204C47.124 9.03585 46.5379 9.38563 46.5379 10.2018C46.5965 10.6098 46.9482 11.0762 47.5343 11.0762Z" fill="white"/>
<path d="M53.9816 12.8834V3.67262H56.2675V5.18832C56.9122 4.08069 57.9672 3.55603 58.9636 3.55603C59.3739 3.55603 59.7256 3.61433 60.0773 3.73092L59.667 5.82957C59.3739 5.65469 59.0809 5.53809 58.7292 5.53809C57.3811 5.53809 56.2675 6.64572 56.2675 9.56051V12.8251L53.9816 12.8834Z" fill="white"/>
<path d="M64.942 3.55605C65.8798 3.55605 66.759 4.02242 67.1693 4.54709V0H69.4552V12.8834H67.1693V11.9507C66.8762 12.417 66.0557 13.0583 64.942 13.0583C62.1873 13.0583 60.7806 11.1345 60.7806 8.33632C60.7806 5.53812 62.1873 3.55605 64.942 3.55605ZM65.2937 11.0762C66.466 11.0762 67.4037 10.0852 67.4037 8.27803C67.4037 6.47085 66.466 5.47982 65.2937 5.47982C64.1215 5.47982 63.1837 6.47085 63.1837 8.27803C63.1837 10.0852 64.1215 11.0762 65.2937 11.0762Z" fill="white"/>
<path d="M77.6608 5.01344L76.3128 6.23766C75.9025 5.6547 75.2578 5.42152 74.7889 5.42152C74.32 5.42152 73.9097 5.713 73.9097 6.17936C73.9097 6.58744 74.2614 6.87892 74.7889 7.0538C76.0783 7.52017 78.1297 7.92824 78.1297 9.85201C78.1297 11.5426 76.8403 12.8834 74.8475 12.8834C72.9133 12.8834 71.6238 11.5426 71.2135 10.435L73.0305 9.44394C73.3822 10.3184 73.9683 10.9596 74.9061 10.9596C75.6094 10.9596 76.0783 10.6099 76.0783 9.9686C76.0783 9.21075 74.9061 9.03587 73.7925 8.5695C72.7961 8.16143 71.9169 7.52017 71.9169 6.12107C71.9169 4.72196 73.0891 3.43945 74.8475 3.43945C76.0197 3.49775 77.1333 4.139 77.6608 5.01344Z" fill="white"/>
<path d="M30.4196 3.67267L28.7785 10.0269L27.196 3.67267H25.0859L23.562 10.0269L22.2726 6.35428L22.0967 6.76235L21.3934 9.15249L22.5656 12.8834H24.5584L26.1409 6.93724L27.7235 12.8834H29.7749L32.7055 3.67267H30.4196Z" fill="white"/>
<path d="M41.38 3.67267L39.7389 10.0269L38.1564 3.67267H36.0463L34.5224 10.0269L33.233 6.35428L33.0571 6.76235L32.2952 9.15249L33.526 12.8834H35.5188L37.1014 6.93724L38.6839 12.8834H40.6767L43.6659 3.67267H41.38Z" fill="white"/>
<path d="M21.745 3.67267L18.8144 12.8251H16.8216L15.2391 6.93724L13.6566 12.8834H11.6638L8.73318 3.73096H11.0191L12.6602 10.0269L14.2427 3.73096H16.3527L17.9353 10.0269L19.5764 3.73096L21.745 3.67267Z" fill="white"/>
<path d="M81.1189 9.91034C81.9981 9.91034 82.6429 10.5516 82.6429 11.426C82.6429 12.3005 81.9981 12.9417 81.1189 12.9417C80.2398 12.9417 79.595 12.3005 79.595 11.426C79.595 10.5516 80.2398 9.91034 81.1189 9.91034Z" fill="white"/>
</g>
<defs>
<clipPath id="clip0_838_2973">
<rect width="82.6429" height="13" fill="white"/>
</clipPath>
</defs>
</svg>
