<svg width="106" height="14" viewBox="0 0 106 14" fill="none" xmlns="http://www.w3.org/2000/svg">
<g clip-path="url(#clip0_838_2941)">
<path d="M95.1271 3.1796V5.60806H94.0929C93.1497 5.60806 92.7545 6.02041 92.7545 7.00287V10.9214H90.0909V3.21651H91.8751L92.2911 4.07141C92.8363 3.44298 93.5012 3.1796 94.4216 3.1796H95.1271ZM83.1663 6.22877H86.2928C86.0589 5.45877 85.5017 5.04328 84.6983 5.04328C83.9212 5.04328 83.3818 5.46363 83.1663 6.22877ZM88.862 7.69863H83.1189C83.2932 8.58271 83.8568 9.03942 84.6983 9.03942C85.3205 9.03942 85.8402 8.76789 86.0967 8.31645H88.7478C88.2035 10.0749 86.6386 11.1737 84.6983 11.1737C82.2851 11.1737 80.4964 9.41662 80.4964 7.06247C80.4964 4.70079 82.2706 2.96405 84.6983 2.96405C87.191 2.96405 88.9171 4.73579 88.9171 6.99562C88.9171 7.22791 88.8968 7.46033 88.862 7.69863ZM76.8829 6.84449C76.8829 5.87167 76.1962 5.16531 75.2375 5.16531C74.2808 5.16531 73.5865 5.87167 73.5865 6.84449C73.5865 7.82648 74.2726 8.53255 75.2371 8.53255C76.1939 8.53255 76.8829 7.82646 76.8829 6.84449ZM79.3741 3.21651V10.0653C79.3741 12.486 77.7825 13.9861 75.2279 13.9861C73.0335 13.9861 71.4972 12.884 71.1407 11.0579H73.7113C73.8964 11.573 74.5563 11.8504 75.2032 11.8504C76.096 11.8504 76.8136 11.2851 76.8136 10.3687V10.1391C76.232 10.5066 75.5421 10.7179 74.795 10.7179C72.5779 10.7179 70.9296 9.07417 70.9296 6.84449C70.9296 4.64776 72.5779 2.96981 74.795 2.96981C75.7315 2.96981 76.5793 3.30456 77.2348 3.86285L77.5729 3.21651H79.3741ZM66.8585 2.98887C65.8586 2.98887 64.9996 3.37155 64.4239 4.01092L64.0578 3.21651H62.1893V10.9214H64.8533V6.80662C64.8533 5.82607 65.3308 5.24824 66.1616 5.24824C66.8323 5.24824 67.1707 5.69318 67.1707 6.58959V10.9215H69.8349V6.22303C69.8349 4.26023 68.6549 2.98887 66.8585 2.98887ZM57.8872 3.21604H60.5512V10.921H57.8872V3.21604ZM57.9075 0H60.5305V2.25264H57.9075V0ZM56.1673 3.1796C55.2463 3.1796 54.582 3.44298 54.0368 4.07141L53.6213 3.21651H51.8361V10.9214H54.5006V7.00287C54.5006 6.02041 54.8958 5.60806 55.839 5.60806H56.8728V3.1796H56.1673ZM48.0245 7.06822C48.0245 6.05657 47.2909 5.30537 46.293 5.30537C45.2951 5.30537 44.5614 6.05657 44.5614 7.06822C44.5614 8.08062 45.2951 8.83203 46.293 8.83203C47.2846 8.83203 48.0245 8.08063 48.0245 7.06822ZM50.705 7.0687C50.705 9.46921 49.0143 11.1819 46.6493 11.1819C45.9502 11.1819 45.3096 10.9986 44.7639 10.6701V13.7033H42.1304V3.21651H43.9417L44.2753 3.82861C44.9116 3.2807 45.7303 2.9638 46.6493 2.9638C49.0143 2.96379 50.705 4.66806 50.705 7.0687ZM37.5745 11.1737C39.6304 11.1737 40.9943 10.1199 40.9943 8.50986C40.9943 6.55581 39.3699 6.30281 38.1482 6.08651C37.4132 5.9565 36.8215 5.85403 36.8215 5.41563C36.8215 5.05873 37.1086 4.84791 37.5357 4.84791C38.0185 4.84791 38.3506 5.07678 38.3506 5.56875H40.8452C40.8152 4.00749 39.5383 2.96379 37.5687 2.96379C35.5869 2.96379 34.2659 3.96095 34.2659 5.50505C34.2659 7.37379 35.8555 7.73431 37.055 7.92819C37.7982 8.05069 38.3836 8.17757 38.3836 8.62176C38.3836 9.02016 38.0141 9.21792 37.6248 9.21792C37.1193 9.21792 36.7257 8.95843 36.7257 8.39509H34.1613C34.1855 10.0648 35.4668 11.1737 37.5745 11.1737ZM27.3089 10.9214H29.973V0.434294H27.3089V10.9214ZM20.3838 6.22877H23.5108C23.277 5.45877 22.7196 5.04328 21.9159 5.04328C21.1393 5.04328 20.5993 5.46363 20.3838 6.22877ZM26.0805 7.69863H20.3369C20.5112 8.58271 21.0748 9.03942 21.9159 9.03942C22.5386 9.03942 23.0581 8.76789 23.3142 8.31645H25.9657C25.421 10.0749 23.8565 11.1737 21.9159 11.1737C19.5027 11.1737 17.7149 9.41662 17.7149 7.06247C17.7149 4.70079 19.4885 2.96405 21.9159 2.96405C24.409 2.96405 26.1352 4.73579 26.1352 6.99562C26.1352 7.22791 26.1149 7.46033 26.0805 7.69863ZM17.8942 10.9214L15.3239 6.85412L17.7208 3.21651H14.8214L13.6525 5.15662L12.5355 3.21651H9.59445L11.9718 6.92378L9.40654 10.9214H12.3485L13.6457 8.63913L14.9172 10.9214H17.8942ZM6.1571 7.06658C6.1571 6.06676 5.42354 5.31556 4.42556 5.31556C3.42182 5.31556 2.69457 6.06676 2.69457 7.06658C2.69457 8.0729 3.42813 8.82384 4.42556 8.82384C5.42354 8.82382 6.1571 8.0729 6.1571 7.06658ZM8.69089 3.2081V10.9127H6.63159L6.40354 10.3677C5.76969 10.879 4.96786 11.1737 4.06965 11.1737C1.70434 11.1737 0.0140381 9.4547 0.0140381 7.06028C0.0140381 4.67426 1.70434 2.97581 4.06965 2.97581C4.98048 2.97581 5.7944 3.27919 6.43304 3.80398L6.70521 3.2081H8.69089Z" fill="white"/>
<path d="M96.6818 10.9118H105.411V8.95941H96.6818V9.93559V10.9118Z" fill="white"/>
</g>
<defs>
<clipPath id="clip0_838_2941">
<rect width="105.412" height="14" fill="white"/>
</clipPath>
</defs>
</svg>
