<svg width="109" height="18" viewBox="0 0 109 18" fill="none" xmlns="http://www.w3.org/2000/svg">
<g opacity="0.7">
<path fill-rule="evenodd" clip-rule="evenodd" d="M106.991 0.60557V3.83593C105.321 3.20414 103.834 2.8847 102.532 2.8847C101.761 2.8847 101.147 3.02774 100.686 3.30429C100.224 3.58321 99.9885 3.92654 99.9885 4.33182C99.9885 4.87061 100.51 5.34977 101.559 5.77894L104.59 7.25704C107.041 8.42761 108.257 9.98197 108.257 11.9345C108.257 13.558 107.612 14.8526 106.311 15.8109C105.019 16.7789 103.279 17.2581 101.114 17.2581C100.115 17.2581 99.2177 17.2152 98.4206 17.1246C97.6235 17.0388 96.7074 16.8623 95.6914 16.6096V13.2291C97.5545 13.8608 99.251 14.1803 100.778 14.1803C102.601 14.1803 103.508 13.651 103.508 12.583C103.508 12.0513 103.136 11.6222 102.382 11.286L99.0154 9.84846C97.7734 9.28584 96.8502 8.60401 96.2458 7.79583C95.651 6.98049 95.3488 6.04595 95.3488 4.9779C95.3488 3.48307 95.9769 2.27913 97.2189 1.36366C98.4705 0.455328 100.131 0 102.197 0C102.868 0 103.641 0.0595766 104.497 0.169252C105.361 0.286077 106.192 0.429114 106.991 0.60557Z" fill="white"/>
<path fill-rule="evenodd" clip-rule="evenodd" d="M11.6352 0.60557V3.83593C9.96481 3.20414 8.48009 2.8847 7.17856 2.8847C6.40526 2.8847 5.79379 3.02774 5.33217 3.30429C4.87059 3.58321 4.63502 3.92654 4.63502 4.33182C4.63502 4.87061 5.16324 5.34977 6.21255 5.77894L9.24388 7.25704C11.6851 8.42761 12.9034 9.98197 12.9034 11.9345C12.9034 13.558 12.2562 14.8526 10.9642 15.8109C9.66264 16.7789 7.93284 17.2581 5.7605 17.2581C4.76113 17.2581 3.86172 17.2152 3.06463 17.1246C2.26754 17.0388 1.36099 16.8623 0.337896 16.6096V13.2291C2.20808 13.8608 3.90458 14.1803 5.4226 14.1803C7.24521 14.1803 8.15176 13.651 8.15176 12.583C8.15176 12.0513 7.78295 11.6222 7.0358 11.286L3.66901 9.84846C2.41743 9.28584 1.49423 8.60401 0.899415 7.79583C0.29503 6.98049 0 6.04595 0 4.9779C0 3.48307 0.623413 2.27913 1.87256 1.36366C3.11463 0.455328 4.77778 0 6.8431 0C7.52122 0 8.28501 0.0595766 9.15107 0.169252C10.0077 0.286077 10.8381 0.429114 11.6352 0.60557Z" fill="white"/>
<path fill-rule="evenodd" clip-rule="evenodd" d="M15.1089 0.302765H20.0462V16.9553H15.1089V0.302765Z" fill="white"/>
<path fill-rule="evenodd" clip-rule="evenodd" d="M35.9524 0.302765V3.38061H28.6168V7.07344H34.9793V9.84846H28.6168V13.725H36.1023V16.9553H23.8652V0.302765H35.9524Z" fill="white"/>
<path fill-rule="evenodd" clip-rule="evenodd" d="M59.0013 0.302765V16.9553H54.3922V5.97203L49.61 17.1079H46.7643L42.1649 5.97203V16.9553H38.8314V0.302765H44.8583L48.9723 10.4969L53.2766 0.302765H59.0013Z" fill="white"/>
<path fill-rule="evenodd" clip-rule="evenodd" d="M74.9006 0.302765V3.38061H67.6051V7.07344H73.9675V9.84846H67.6051V13.725H75.0505V16.9553H62.8135V0.302765H74.9006Z" fill="white"/>
<path fill-rule="evenodd" clip-rule="evenodd" d="M92.2246 0.302765V16.9553H86.9877L81.1109 6.27479V16.9553H77.7795V0.302765H83.1691L88.8938 10.7997V0.302765H92.2246Z" fill="white"/>
</g>
</svg>
