<svg width="244" height="54" viewBox="0 0 244 54" fill="none" xmlns="http://www.w3.org/2000/svg">
<path d="M17.5658 15.2148C23.0933 15.2148 28.0433 18.7623 28.0433 25.8573V26.5998C20.8658 27.0948 14.7608 27.5898 9.89332 28.9923C2.46832 31.1373 0.65332 36.9123 0.65332 41.2023C0.65332 49.9473 7.50082 53.8248 14.7608 53.8248C20.5358 53.8248 25.3208 52.1749 28.0433 48.6273V52.9998H34.2308V25.9398C34.2308 13.3998 25.4858 9.27484 17.5658 9.27484C10.1408 9.27484 2.05582 12.8223 0.983321 23.4648H7.33582C8.32582 17.9373 12.6983 15.2148 17.5658 15.2148ZM28.0433 37.6548C28.0433 44.3373 22.7633 47.8848 16.0808 47.8848C9.81082 47.8848 6.84082 44.9148 6.84082 41.0373C6.84082 38.5623 7.41832 36.6648 10.5533 34.9323C13.4408 33.3648 18.7208 32.7873 28.0433 32.1273V37.6548Z" fill="black"/>
<path d="M58.5967 53.8248C62.2267 53.8248 66.6817 52.0098 68.8267 48.6273V52.9998H75.0142V10.4298H68.8267V37.2423C68.8267 44.2548 63.7942 47.8848 58.5967 47.8848C53.5642 47.8848 48.3667 44.5848 48.3667 36.9948V10.4298H42.1792V37.4073C42.1792 50.0298 51.5842 53.8248 58.5967 53.8248Z" fill="black"/>
<path d="M99.6005 9.27484C91.6805 9.27484 82.9355 13.3998 82.9355 25.9398V37.1598C82.9355 49.7823 91.6805 53.8248 99.6005 53.8248C107.108 53.8248 115.275 50.1948 116.183 39.2223H109.913C109.088 44.9973 104.55 47.8848 99.6005 47.8848C94.073 47.8848 89.123 44.3373 89.123 37.2423V25.8573C89.123 18.7623 94.073 15.2148 99.6005 15.2148C104.55 15.2148 109.088 18.1023 109.913 23.8773H116.183C115.275 12.9048 107.108 9.27484 99.6005 9.27484Z" fill="black"/>
<path d="M131.416 16.3698H141.894V10.4298H131.416V0.777344H125.229V10.4298H119.206V16.3698H125.229V42.8523C125.229 50.1124 127.456 52.9998 135.376 52.9998H141.894V47.0598H135.376C132.406 47.0598 131.416 46.0698 131.416 43.3473V16.3698Z" fill="black"/>
<path d="M163.082 15.2148C168.609 15.2148 173.559 18.7623 173.559 25.8573V26.5998C166.382 27.0948 160.277 27.5898 155.409 28.9923C147.984 31.1373 146.169 36.9123 146.169 41.2023C146.169 49.9473 153.017 53.8248 160.277 53.8248C166.052 53.8248 170.837 52.1749 173.559 48.6273V52.9998H179.747V25.9398C179.747 13.3998 171.002 9.27484 163.082 9.27484C155.657 9.27484 147.572 12.8223 146.499 23.4648H152.852C153.842 17.9373 158.214 15.2148 163.082 15.2148ZM173.559 37.6548C173.559 44.3373 168.279 47.8848 161.597 47.8848C155.327 47.8848 152.357 44.9148 152.357 41.0373C152.357 38.5623 152.934 36.6648 156.069 34.9323C158.957 33.3648 164.237 32.7873 173.559 32.1273V37.6548Z" fill="black"/>
<path d="M194.46 10.4298H188.272V52.9998H194.46V26.2698C194.46 19.1748 199.41 15.6273 204.937 15.6273H207.66V9.68734H204.937C201.06 9.68734 196.605 11.4198 194.46 14.8848V10.4298Z" fill="black"/>
<path d="M227.311 47.8848C221.784 47.8848 216.834 44.3373 216.834 37.2423V33.1173H243.976V25.9398C243.976 13.3998 235.231 9.27484 227.311 9.27484C219.391 9.27484 210.646 13.3998 210.646 25.9398V37.1598C210.646 49.6998 219.391 53.8248 227.311 53.8248C234.736 53.8248 242.821 50.2773 243.894 39.6348H237.541C236.551 45.1623 232.179 47.8848 227.311 47.8848ZM237.789 27.4248H216.834V25.8573C216.834 18.7623 221.784 15.2148 227.311 15.2148C232.839 15.2148 237.789 18.7623 237.789 25.8573V27.4248Z" fill="black"/>
</svg>
