<svg width="412" height="412" viewBox="0 0 412 412" fill="none" xmlns="http://www.w3.org/2000/svg">
<circle cx="206" cy="206" r="205" transform="rotate(90 206 206)" fill="#4AFFA8" fill-opacity="0.12" stroke="white" stroke-width="2"/>
<circle cx="205" cy="133" r="132" transform="rotate(90 205 133)" fill="#4AFFA8" fill-opacity="0.12" stroke="white" stroke-width="2"/>
<circle cx="205" cy="64" r="63" transform="rotate(90 205 64)" fill="#4AFFA8" fill-opacity="0.12" stroke="white" stroke-width="2"/>
<path d="M205 66C187.341 66 173 51.4635 173 33.5C173 15.5365 187.341 1 205 1C222.659 1 237 15.5365 237 33.5C237 51.4635 222.659 66 205 66Z" fill="#4AFFA8" fill-opacity="0.12" stroke="white" stroke-width="2"/>
<path d="M181.233 36V29.35H182.041V36H181.233ZM185.532 36V29.901H186.33V36H185.532ZM183.413 30.0815V29.35H188.448V30.0815H183.413ZM189.814 36V29.35H190.621V36H189.814ZM190.526 36V35.2685H193.766V36H190.526ZM190.526 32.9505V32.2285H193.471V32.9505H190.526ZM190.526 30.0815V29.35H193.747V30.0815H190.526ZM196.576 33.3875V32.6465H198.096C198.337 32.6465 198.552 32.5927 198.742 32.485C198.932 32.371 199.084 32.219 199.198 32.029C199.318 31.8327 199.379 31.611 199.379 31.364C199.379 30.984 199.246 30.6768 198.98 30.4425C198.72 30.2018 198.381 30.0815 197.963 30.0815H196.576V29.35L197.982 29.3405C198.413 29.3342 198.793 29.4197 199.122 29.597C199.458 29.768 199.717 30.0087 199.901 30.319C200.091 30.623 200.186 30.9713 200.186 31.364C200.186 31.7567 200.085 32.105 199.882 32.409C199.679 32.713 199.404 32.9537 199.056 33.131C198.707 33.302 198.314 33.3875 197.877 33.3875H196.576ZM195.816 36V29.35H196.623V36H195.816ZM199.569 36L197.973 33.2735L198.609 32.8555L200.452 36H199.569ZM206.769 36L204.099 29.35H204.907L207.614 36H206.769ZM201.363 36L204.071 29.35H204.888L202.218 36H201.363ZM202.646 34.1095V33.3875H206.341V34.1095H202.646ZM210.18 36V29.901H210.978V36H210.18ZM208.062 30.0815V29.35H213.097V30.0815H208.062ZM214.462 36V29.35H215.27V36H214.462ZM220.252 36.114C219.613 36.114 219.046 35.9683 218.552 35.677C218.058 35.3857 217.672 34.9803 217.393 34.461C217.114 33.9417 216.975 33.3463 216.975 32.675C216.975 31.9973 217.111 31.402 217.383 30.889C217.662 30.3697 218.045 29.9643 218.533 29.673C219.021 29.3817 219.584 29.236 220.224 29.236C220.864 29.236 221.427 29.3848 221.915 29.6825C222.409 29.9738 222.792 30.3792 223.064 30.8985C223.337 31.4115 223.473 32.0037 223.473 32.675C223.473 33.3463 223.337 33.9417 223.064 34.461C222.792 34.9803 222.412 35.3857 221.924 35.677C221.443 35.9683 220.886 36.114 220.252 36.114ZM220.252 35.3825C220.727 35.3825 221.145 35.2685 221.506 35.0405C221.867 34.8062 222.149 34.4863 222.352 34.081C222.561 33.6757 222.665 33.207 222.665 32.675C222.665 32.1493 222.561 31.6838 222.352 31.2785C222.143 30.8668 221.855 30.547 221.487 30.319C221.126 30.0847 220.705 29.9675 220.224 29.9675C219.749 29.9675 219.328 30.0847 218.96 30.319C218.593 30.547 218.305 30.8668 218.096 31.2785C217.887 31.6838 217.782 32.1493 217.782 32.675C217.782 33.207 217.887 33.6757 218.096 34.081C218.305 34.4863 218.596 34.8062 218.97 35.0405C219.344 35.2685 219.771 35.3825 220.252 35.3825ZM229.955 36L225.367 29.7965L225.994 29.35L230.582 35.544L229.955 36ZM225.177 36V29.35H225.994L225.984 29.9865V36H225.177ZM229.955 36V29.35H230.763V36H229.955Z" fill="black"/>
<path d="M160.796 90.5585V89.827H162.411C162.76 89.827 163.045 89.7003 163.266 89.447C163.494 89.1873 163.608 88.858 163.608 88.459C163.608 88.1867 163.548 87.946 163.428 87.737C163.308 87.528 163.14 87.3665 162.924 87.2525C162.715 87.1322 162.472 87.0752 162.193 87.0815H160.796V86.35L162.202 86.3405C162.633 86.3405 163.013 86.4323 163.342 86.616C163.678 86.7933 163.938 87.0403 164.121 87.357C164.311 87.6737 164.406 88.041 164.406 88.459C164.406 88.8643 164.321 89.2253 164.15 89.542C163.979 89.8587 163.745 90.1088 163.447 90.2925C163.149 90.4698 162.804 90.5585 162.411 90.5585H160.796ZM160.036 93V86.35H160.844V93H160.036ZM166.678 90.3875V89.6465H168.198C168.439 89.6465 168.654 89.5927 168.844 89.485C169.034 89.371 169.186 89.219 169.3 89.029C169.42 88.8327 169.48 88.611 169.48 88.364C169.48 87.984 169.347 87.6768 169.081 87.4425C168.822 87.2018 168.483 87.0815 168.065 87.0815H166.678V86.35L168.084 86.3405C168.515 86.3342 168.895 86.4197 169.224 86.597C169.56 86.768 169.819 87.0087 170.003 87.319C170.193 87.623 170.288 87.9713 170.288 88.364C170.288 88.7567 170.187 89.105 169.984 89.409C169.781 89.713 169.506 89.9537 169.157 90.131C168.809 90.302 168.416 90.3875 167.979 90.3875H166.678ZM165.918 93V86.35H166.725V93H165.918ZM169.67 93L168.074 90.2735L168.711 89.8555L170.554 93H169.67ZM175.076 93.114C174.436 93.114 173.869 92.9683 173.375 92.677C172.881 92.3857 172.495 91.9803 172.216 91.461C171.938 90.9417 171.798 90.3463 171.798 89.675C171.798 88.9973 171.934 88.402 172.207 87.889C172.485 87.3697 172.869 86.9643 173.356 86.673C173.844 86.3817 174.408 86.236 175.047 86.236C175.687 86.236 176.251 86.3848 176.738 86.6825C177.232 86.9738 177.615 87.3792 177.888 87.8985C178.16 88.4115 178.296 89.0037 178.296 89.675C178.296 90.3463 178.16 90.9417 177.888 91.461C177.615 91.9803 177.235 92.3857 176.748 92.677C176.266 92.9683 175.709 93.114 175.076 93.114ZM175.076 92.3825C175.551 92.3825 175.969 92.2685 176.33 92.0405C176.691 91.8062 176.973 91.4863 177.175 91.081C177.384 90.6757 177.489 90.207 177.489 89.675C177.489 89.1493 177.384 88.6838 177.175 88.2785C176.966 87.8668 176.678 87.547 176.311 87.319C175.95 87.0847 175.529 86.9675 175.047 86.9675C174.572 86.9675 174.151 87.0847 173.784 87.319C173.416 87.547 173.128 87.8668 172.919 88.2785C172.71 88.6838 172.606 89.1493 172.606 89.675C172.606 90.207 172.71 90.6757 172.919 91.081C173.128 91.4863 173.42 91.8062 173.793 92.0405C174.167 92.2685 174.594 92.3825 175.076 92.3825ZM182.024 93V92.259C182.359 92.259 182.67 92.1957 182.955 92.069C183.24 91.936 183.49 91.7492 183.705 91.5085C183.927 91.2678 184.098 90.9923 184.218 90.682C184.345 90.3653 184.408 90.0297 184.408 89.675C184.408 89.3203 184.345 88.9878 184.218 88.6775C184.098 88.3608 183.927 88.0822 183.705 87.8415C183.49 87.6008 183.24 87.4172 182.955 87.2905C182.67 87.1575 182.359 87.091 182.024 87.091V86.35C182.651 86.35 183.202 86.4925 183.677 86.7775C184.158 87.0562 184.535 87.4457 184.807 87.946C185.08 88.4463 185.216 89.0227 185.216 89.675C185.216 90.321 185.08 90.8942 184.807 91.3945C184.535 91.8948 184.158 92.2875 183.677 92.5725C183.202 92.8575 182.651 93 182.024 93ZM180.646 93V92.259H182.024V93H180.646ZM180 93V86.35H180.808V93H180ZM180.646 87.091V86.35H182.024V87.091H180.646ZM189.372 93.1425C188.871 93.1425 188.428 93.038 188.042 92.829C187.662 92.6137 187.364 92.3192 187.149 91.9455C186.933 91.5655 186.826 91.1285 186.826 90.6345H187.633C187.633 90.9828 187.706 91.2932 187.852 91.5655C188.004 91.8315 188.213 92.0405 188.479 92.1925C188.745 92.3382 189.049 92.411 189.391 92.411C189.739 92.411 190.046 92.3382 190.312 92.1925C190.585 92.0405 190.794 91.8315 190.939 91.5655C191.091 91.2932 191.167 90.9828 191.167 90.6345H191.965C191.965 91.1285 191.858 91.5655 191.642 91.9455C191.427 92.3192 191.123 92.6137 190.73 92.829C190.338 93.038 189.885 93.1425 189.372 93.1425ZM186.826 90.6345V86.35H187.633V90.6345H186.826ZM191.167 90.6345V86.35H191.965V90.6345H191.167ZM196.82 93.114C196.187 93.114 195.626 92.9683 195.139 92.677C194.651 92.3793 194.268 91.974 193.989 91.461C193.71 90.9417 193.571 90.3463 193.571 89.675C193.571 89.0037 193.707 88.4115 193.98 87.8985C194.258 87.3792 194.638 86.9738 195.12 86.6825C195.607 86.3848 196.165 86.236 196.792 86.236C197.191 86.236 197.574 86.3088 197.941 86.4545C198.308 86.5938 198.638 86.7933 198.929 87.053C199.22 87.3063 199.445 87.6008 199.604 87.9365L198.91 88.288C198.783 88.022 198.609 87.7908 198.388 87.5945C198.166 87.3982 197.919 87.2462 197.647 87.1385C197.374 87.0245 197.089 86.9675 196.792 86.9675C196.329 86.9675 195.914 87.0847 195.547 87.319C195.18 87.547 194.892 87.8637 194.683 88.269C194.48 88.6743 194.379 89.143 194.379 89.675C194.379 90.207 194.483 90.6788 194.692 91.0905C194.901 91.5022 195.189 91.8252 195.557 92.0595C195.93 92.2875 196.351 92.4015 196.82 92.4015C197.124 92.4015 197.412 92.3413 197.685 92.221C197.957 92.0943 198.201 91.9233 198.416 91.708C198.638 91.4927 198.812 91.2457 198.939 90.967L199.642 91.3185C199.477 91.6668 199.249 91.9772 198.958 92.2495C198.673 92.5218 198.343 92.734 197.97 92.886C197.602 93.038 197.219 93.114 196.82 93.114ZM202.584 93V86.901H203.382V93H202.584ZM200.465 87.0815V86.35H205.5V87.0815H200.465ZM211.721 93.114C211.354 93.114 211.028 93.076 210.743 93C210.458 92.9177 210.211 92.8068 210.002 92.6675C209.793 92.5218 209.622 92.3635 209.489 92.1925C209.356 92.0152 209.257 91.8283 209.194 91.632L209.964 91.366C210.059 91.6447 210.249 91.8885 210.534 92.0975C210.825 92.3002 211.18 92.4015 211.598 92.4015C212.111 92.4015 212.513 92.3002 212.804 92.0975C213.095 91.8948 213.241 91.6257 213.241 91.29C213.241 90.9797 213.111 90.7295 212.852 90.5395C212.592 90.3432 212.25 90.1912 211.826 90.0835L211.094 89.8935C210.796 89.8175 210.521 89.7067 210.268 89.561C210.021 89.409 209.821 89.219 209.669 88.991C209.523 88.7567 209.451 88.478 209.451 88.155C209.451 87.5533 209.644 87.0847 210.03 86.749C210.423 86.407 210.986 86.236 211.721 86.236C212.158 86.236 212.535 86.3088 212.852 86.4545C213.168 86.5938 213.425 86.7743 213.621 86.996C213.824 87.2113 213.966 87.4457 214.049 87.699L213.289 87.965C213.168 87.6483 212.966 87.4013 212.681 87.224C212.396 87.0403 212.05 86.9485 211.645 86.9485C211.221 86.9485 210.882 87.053 210.629 87.262C210.382 87.4647 210.258 87.7433 210.258 88.098C210.258 88.402 210.356 88.6363 210.553 88.801C210.749 88.9593 211.005 89.0765 211.322 89.1525L212.054 89.333C212.7 89.485 213.194 89.7383 213.536 90.093C213.884 90.4413 214.058 90.8182 214.058 91.2235C214.058 91.5718 213.969 91.8917 213.792 92.183C213.615 92.468 213.352 92.696 213.004 92.867C212.662 93.0317 212.234 93.114 211.721 93.114ZM215.809 93V86.35H216.616V93H215.809ZM216.521 93V92.2685H219.761V93H216.521ZM216.521 89.9505V89.2285H219.466V89.9505H216.521ZM216.521 87.0815V86.35H219.742V87.0815H216.521ZM224.613 93.114C223.98 93.114 223.419 92.9683 222.932 92.677C222.444 92.3793 222.061 91.974 221.782 91.461C221.503 90.9417 221.364 90.3463 221.364 89.675C221.364 89.0037 221.5 88.4115 221.773 87.8985C222.051 87.3792 222.431 86.9738 222.913 86.6825C223.4 86.3848 223.958 86.236 224.585 86.236C224.984 86.236 225.367 86.3088 225.734 86.4545C226.101 86.5938 226.431 86.7933 226.722 87.053C227.013 87.3063 227.238 87.6008 227.397 87.9365L226.703 88.288C226.576 88.022 226.402 87.7908 226.181 87.5945C225.959 87.3982 225.712 87.2462 225.44 87.1385C225.167 87.0245 224.882 86.9675 224.585 86.9675C224.122 86.9675 223.707 87.0847 223.34 87.319C222.973 87.547 222.685 87.8637 222.476 88.269C222.273 88.6743 222.172 89.143 222.172 89.675C222.172 90.207 222.276 90.6788 222.485 91.0905C222.694 91.5022 222.982 91.8252 223.35 92.0595C223.723 92.2875 224.144 92.4015 224.613 92.4015C224.917 92.4015 225.205 92.3413 225.478 92.221C225.75 92.0943 225.994 91.9233 226.209 91.708C226.431 91.4927 226.605 91.2457 226.732 90.967L227.435 91.3185C227.27 91.6668 227.042 91.9772 226.751 92.2495C226.466 92.5218 226.136 92.734 225.763 92.886C225.395 93.038 225.012 93.114 224.613 93.114ZM230.377 93V86.901H231.175V93H230.377ZM228.258 87.0815V86.35H233.293V87.0815H228.258ZM234.659 93V86.35H235.466V93H234.659ZM240.449 93.114C239.809 93.114 239.243 92.9683 238.749 92.677C238.255 92.3857 237.868 91.9803 237.59 91.461C237.311 90.9417 237.172 90.3463 237.172 89.675C237.172 88.9973 237.308 88.402 237.58 87.889C237.859 87.3697 238.242 86.9643 238.73 86.673C239.217 86.3817 239.781 86.236 240.421 86.236C241.06 86.236 241.624 86.3848 242.112 86.6825C242.606 86.9738 242.989 87.3792 243.261 87.8985C243.533 88.4115 243.67 89.0037 243.67 89.675C243.67 90.3463 243.533 90.9417 243.261 91.461C242.989 91.9803 242.609 92.3857 242.121 92.677C241.64 92.9683 241.082 93.114 240.449 93.114ZM240.449 92.3825C240.924 92.3825 241.342 92.2685 241.703 92.0405C242.064 91.8062 242.346 91.4863 242.549 91.081C242.758 90.6757 242.862 90.207 242.862 89.675C242.862 89.1493 242.758 88.6838 242.549 88.2785C242.34 87.8668 242.051 87.547 241.684 87.319C241.323 87.0847 240.902 86.9675 240.421 86.9675C239.946 86.9675 239.524 87.0847 239.157 87.319C238.79 87.547 238.502 87.8668 238.293 88.2785C238.084 88.6838 237.979 89.1493 237.979 89.675C237.979 90.207 238.084 90.6757 238.293 91.081C238.502 91.4863 238.793 91.8062 239.167 92.0405C239.54 92.2685 239.968 92.3825 240.449 92.3825ZM250.152 93L245.564 86.7965L246.191 86.35L250.779 92.544L250.152 93ZM245.374 93V86.35H246.191L246.181 86.9865V93H245.374ZM250.152 93V86.35H250.96V93H250.152Z" fill="black"/>
<path d="M163.971 190V183.35H164.778V190H163.971ZM164.683 190V189.268H167.923V190H164.683ZM164.683 186.95V186.228H167.628V186.95H164.683ZM164.683 184.081V183.35H167.904V184.081H164.683ZM174.751 190L170.163 183.796L170.79 183.35L175.378 189.544L174.751 190ZM169.973 190V183.35H170.79L170.78 183.986V190H169.973ZM174.751 190V183.35H175.559V190H174.751ZM179.049 190V183.901H179.847V190H179.049ZM176.931 184.081V183.35H181.966V184.081H176.931ZM183.332 190V183.35H184.139V190H183.332ZM187.051 187.387V186.646H188.571C188.811 186.646 189.027 186.593 189.217 186.485C189.407 186.371 189.559 186.219 189.673 186.029C189.793 185.833 189.853 185.611 189.853 185.364C189.853 184.984 189.72 184.677 189.454 184.442C189.195 184.202 188.856 184.081 188.438 184.081H187.051V183.35L188.457 183.34C188.887 183.334 189.267 183.42 189.597 183.597C189.932 183.768 190.192 184.009 190.376 184.319C190.566 184.623 190.661 184.971 190.661 185.364C190.661 185.757 190.559 186.105 190.357 186.409C190.154 186.713 189.879 186.954 189.53 187.131C189.182 187.302 188.789 187.387 188.352 187.387H187.051ZM186.291 190V183.35H187.098V190H186.291ZM190.043 190L188.447 187.273L189.084 186.855L190.927 190H190.043ZM192.617 190V183.35H193.425V190H192.617ZM193.33 190V189.268H196.569V190H193.33ZM193.33 186.95V186.228H196.275V186.95H193.33ZM193.33 184.081V183.35H196.55V184.081H193.33ZM202.107 187.559V186.827H203.722C204.07 186.827 204.355 186.7 204.577 186.447C204.805 186.187 204.919 185.858 204.919 185.459C204.919 185.187 204.859 184.946 204.738 184.737C204.618 184.528 204.45 184.366 204.235 184.252C204.026 184.132 203.782 184.075 203.503 184.081H202.107V183.35L203.513 183.34C203.943 183.34 204.323 183.432 204.653 183.616C204.988 183.793 205.248 184.04 205.432 184.357C205.622 184.674 205.717 185.041 205.717 185.459C205.717 185.864 205.631 186.225 205.46 186.542C205.289 186.859 205.055 187.109 204.757 187.292C204.46 187.47 204.114 187.559 203.722 187.559H202.107ZM201.347 190V183.35H202.154V190H201.347ZM207.988 187.387V186.646H209.508C209.749 186.646 209.964 186.593 210.154 186.485C210.344 186.371 210.496 186.219 210.61 186.029C210.73 185.833 210.791 185.611 210.791 185.364C210.791 184.984 210.658 184.677 210.392 184.442C210.132 184.202 209.793 184.081 209.375 184.081H207.988V183.35L209.394 183.34C209.825 183.334 210.205 183.42 210.534 183.597C210.87 183.768 211.129 184.009 211.313 184.319C211.503 184.623 211.598 184.971 211.598 185.364C211.598 185.757 211.497 186.105 211.294 186.409C211.091 186.713 210.816 186.954 210.468 187.131C210.119 187.302 209.727 187.387 209.29 187.387H207.988ZM207.228 190V183.35H208.036V190H207.228ZM210.981 190L209.385 187.273L210.021 186.855L211.864 190H210.981ZM216.386 190.114C215.746 190.114 215.179 189.968 214.685 189.677C214.191 189.386 213.805 188.98 213.526 188.461C213.248 187.942 213.108 187.346 213.108 186.675C213.108 185.997 213.245 185.402 213.517 184.889C213.796 184.37 214.179 183.964 214.666 183.673C215.154 183.382 215.718 183.236 216.357 183.236C216.997 183.236 217.561 183.385 218.048 183.682C218.542 183.974 218.926 184.379 219.198 184.898C219.47 185.411 219.606 186.004 219.606 186.675C219.606 187.346 219.47 187.942 219.198 188.461C218.926 188.98 218.546 189.386 218.058 189.677C217.577 189.968 217.019 190.114 216.386 190.114ZM216.386 189.382C216.861 189.382 217.279 189.268 217.64 189.04C218.001 188.806 218.283 188.486 218.485 188.081C218.694 187.676 218.799 187.207 218.799 186.675C218.799 186.149 218.694 185.684 218.485 185.278C218.276 184.867 217.988 184.547 217.621 184.319C217.26 184.085 216.839 183.967 216.357 183.967C215.882 183.967 215.461 184.085 215.094 184.319C214.727 184.547 214.438 184.867 214.229 185.278C214.02 185.684 213.916 186.149 213.916 186.675C213.916 187.207 214.02 187.676 214.229 188.081C214.438 188.486 214.73 188.806 215.103 189.04C215.477 189.268 215.905 189.382 216.386 189.382ZM223.334 190V189.259C223.67 189.259 223.98 189.196 224.265 189.069C224.55 188.936 224.8 188.749 225.015 188.508C225.237 188.268 225.408 187.992 225.528 187.682C225.655 187.365 225.718 187.03 225.718 186.675C225.718 186.32 225.655 185.988 225.528 185.677C225.408 185.361 225.237 185.082 225.015 184.841C224.8 184.601 224.55 184.417 224.265 184.29C223.98 184.157 223.67 184.091 223.334 184.091V183.35C223.961 183.35 224.512 183.492 224.987 183.777C225.468 184.056 225.845 184.446 226.117 184.946C226.39 185.446 226.526 186.023 226.526 186.675C226.526 187.321 226.39 187.894 226.117 188.394C225.845 188.895 225.468 189.287 224.987 189.572C224.512 189.857 223.961 190 223.334 190ZM221.956 190V189.259H223.334V190H221.956ZM221.31 190V183.35H222.118V190H221.31ZM221.956 184.091V183.35H223.334V184.091H221.956ZM230.682 190.143C230.182 190.143 229.738 190.038 229.352 189.829C228.972 189.614 228.674 189.319 228.459 188.945C228.244 188.565 228.136 188.128 228.136 187.634H228.943C228.943 187.983 229.016 188.293 229.162 188.565C229.314 188.831 229.523 189.04 229.789 189.192C230.055 189.338 230.359 189.411 230.701 189.411C231.049 189.411 231.356 189.338 231.622 189.192C231.895 189.04 232.104 188.831 232.249 188.565C232.401 188.293 232.477 187.983 232.477 187.634H233.275C233.275 188.128 233.168 188.565 232.952 188.945C232.737 189.319 232.433 189.614 232.04 189.829C231.648 190.038 231.195 190.143 230.682 190.143ZM228.136 187.634V183.35H228.943V187.634H228.136ZM232.477 187.634V183.35H233.275V187.634H232.477ZM238.13 190.114C237.497 190.114 236.936 189.968 236.449 189.677C235.961 189.379 235.578 188.974 235.299 188.461C235.021 187.942 234.881 187.346 234.881 186.675C234.881 186.004 235.017 185.411 235.29 184.898C235.568 184.379 235.948 183.974 236.43 183.682C236.917 183.385 237.475 183.236 238.102 183.236C238.501 183.236 238.884 183.309 239.251 183.454C239.619 183.594 239.948 183.793 240.239 184.053C240.531 184.306 240.755 184.601 240.914 184.936L240.22 185.288C240.094 185.022 239.919 184.791 239.698 184.594C239.476 184.398 239.229 184.246 238.957 184.138C238.684 184.024 238.399 183.967 238.102 183.967C237.639 183.967 237.225 184.085 236.857 184.319C236.49 184.547 236.202 184.864 235.993 185.269C235.79 185.674 235.689 186.143 235.689 186.675C235.689 187.207 235.793 187.679 236.002 188.09C236.211 188.502 236.499 188.825 236.867 189.059C237.24 189.287 237.662 189.401 238.13 189.401C238.434 189.401 238.722 189.341 238.995 189.221C239.267 189.094 239.511 188.923 239.726 188.708C239.948 188.493 240.122 188.246 240.249 187.967L240.952 188.318C240.787 188.667 240.559 188.977 240.268 189.249C239.983 189.522 239.653 189.734 239.28 189.886C238.912 190.038 238.529 190.114 238.13 190.114ZM243.894 190V183.901H244.692V190H243.894ZM241.775 184.081V183.35H246.81V184.081H241.775Z" fill="black"/>
<path d="M194.299 331V324.901H195.097V331H194.299ZM192.181 325.081V324.35H197.216V325.081H192.181ZM198.582 331V324.35H199.389V331H198.582ZM199.294 331V330.268H202.534V331H199.294ZM199.294 327.95V327.228H202.239V327.95H199.294ZM199.294 325.081V324.35H202.515V325.081H199.294ZM209.191 331L206.522 324.35H207.329L210.037 331H209.191ZM203.786 331L206.493 324.35H207.31L204.641 331H203.786ZM205.068 329.109V328.387H208.764V329.109H205.068ZM214.528 329.109L211.526 324.673L211.849 324.502L212.229 324.35L214.917 328.33L214.528 329.109ZM211.393 331V324.35H212.2V331H211.393ZM214.528 329.109L214.138 328.33L216.827 324.35L217.207 324.502L217.52 324.663L214.528 329.109ZM216.855 331V324.35H217.653V331H216.855Z" fill="black"/>
<path d="M204 308C204 308.276 204.224 308.5 204.5 308.5C204.776 308.5 205 308.276 205 308L204 308ZM205 308L205 204L204 204L204 308L205 308Z" fill="black"/>
<path d="M204 173C204 173.276 204.224 173.5 204.5 173.5C204.776 173.5 205 173.276 205 173L204 173ZM205 173L205 104L204 104L204 173L205 173Z" fill="black"/>
<path d="M203.5 75C203.5 75.2761 203.724 75.5 204 75.5C204.276 75.5 204.5 75.2761 204.5 75L203.5 75ZM204.354 46.6464C204.158 46.4512 203.842 46.4512 203.646 46.6464L200.464 49.8284C200.269 50.0237 200.269 50.3403 200.464 50.5355C200.66 50.7308 200.976 50.7308 201.172 50.5355L204 47.7071L206.828 50.5355C207.024 50.7308 207.34 50.7308 207.536 50.5355C207.731 50.3403 207.731 50.0237 207.536 49.8284L204.354 46.6464ZM204.5 75L204.5 47L203.5 47L203.5 75L204.5 75Z" fill="black"/>
</svg>
