<svg width="244" height="54" viewBox="0 0 244 54" fill="none" xmlns="http://www.w3.org/2000/svg">
<path d="M17.5661 15.215C23.0936 15.215 28.0436 18.7625 28.0436 25.8575V26.6C20.8661 27.095 14.7611 27.59 9.89362 28.9925C2.46862 31.1375 0.653625 36.9125 0.653625 41.2025C0.653625 49.9475 7.50113 53.825 14.7611 53.825C20.5361 53.825 25.3211 52.175 28.0436 48.6275V53H34.2311V25.94C34.2311 13.4 25.4861 9.275 17.5661 9.275C10.1411 9.275 2.05613 12.8225 0.983625 23.465H7.33612C8.32613 17.9375 12.6986 15.215 17.5661 15.215ZM28.0436 37.655C28.0436 44.3375 22.7636 47.885 16.0811 47.885C9.81112 47.885 6.84112 44.915 6.84112 41.0375C6.84112 38.5625 7.41862 36.665 10.5536 34.9325C13.4411 33.365 18.7211 32.7875 28.0436 32.1275V37.655ZM58.597 53.825C62.227 53.825 66.682 52.01 68.827 48.6275V53H75.0145V10.43H68.827V37.2425C68.827 44.255 63.7945 47.885 58.597 47.885C53.5645 47.885 48.367 44.585 48.367 36.995V10.43H42.1795V37.4075C42.1795 50.03 51.5845 53.825 58.597 53.825ZM99.6008 9.275C91.6808 9.275 82.9358 13.4 82.9358 25.94V37.16C82.9358 49.7825 91.6808 53.825 99.6008 53.825C107.108 53.825 115.276 50.195 116.183 39.2225H109.913C109.088 44.9975 104.551 47.885 99.6008 47.885C94.0733 47.885 89.1233 44.3375 89.1233 37.2425V25.8575C89.1233 18.7625 94.0733 15.215 99.6008 15.215C104.551 15.215 109.088 18.1025 109.913 23.8775H116.183C115.276 12.905 107.108 9.275 99.6008 9.275ZM131.417 16.37H141.894V10.43H131.417V0.777499H125.229V10.43H119.207V16.37H125.229V42.8525C125.229 50.1125 127.457 53 135.377 53H141.894V47.06H135.377C132.407 47.06 131.417 46.07 131.417 43.3475V16.37ZM163.082 15.215C168.609 15.215 173.559 18.7625 173.559 25.8575V26.6C166.382 27.095 160.277 27.59 155.409 28.9925C147.984 31.1375 146.169 36.9125 146.169 41.2025C146.169 49.9475 153.017 53.825 160.277 53.825C166.052 53.825 170.837 52.175 173.559 48.6275V53H179.747V25.94C179.747 13.4 171.002 9.275 163.082 9.275C155.657 9.275 147.572 12.8225 146.499 23.465H152.852C153.842 17.9375 158.214 15.215 163.082 15.215ZM173.559 37.655C173.559 44.3375 168.279 47.885 161.597 47.885C155.327 47.885 152.357 44.915 152.357 41.0375C152.357 38.5625 152.934 36.665 156.069 34.9325C158.957 33.365 164.237 32.7875 173.559 32.1275V37.655ZM194.46 10.43H188.273V53H194.46V26.27C194.46 19.175 199.41 15.6275 204.938 15.6275H207.66V9.6875H204.938C201.06 9.6875 196.605 11.42 194.46 14.885V10.43ZM227.311 47.885C221.784 47.885 216.834 44.3375 216.834 37.2425V33.1175H243.976V25.94C243.976 13.4 235.231 9.275 227.311 9.275C219.391 9.275 210.646 13.4 210.646 25.94V37.16C210.646 49.7 219.391 53.825 227.311 53.825C234.736 53.825 242.821 50.2775 243.894 39.635H237.541C236.551 45.1625 232.179 47.885 227.311 47.885ZM237.789 27.425H216.834V25.8575C216.834 18.7625 221.784 15.215 227.311 15.215C232.839 15.215 237.789 18.7625 237.789 25.8575V27.425Z" fill="black"/>
</svg>
