<?xml version="1.0" standalone="no"?>
<!DOCTYPE svg PUBLIC "-//W3C//DTD SVG 20010904//EN"
 "http://www.w3.org/TR/2001/REC-SVG-20010904/DTD/svg10.dtd">
<svg version="1.0" xmlns="http://www.w3.org/2000/svg"
 width="512.000000pt" height="512.000000pt" viewBox="0 0 512.000000 512.000000"
 preserveAspectRatio="xMidYMid meet">
<metadata>
Created by potrace 1.14, written by Peter Selinger 2001-2017
</metadata>
<g transform="translate(0.000000,512.000000) scale(0.100000,-0.100000)"
fill="#000000" stroke="none">
<path d="M2455 4759 c9 -13 -65 -25 -145 -22 -55 2 -98 -2 -121 -12 -20 -8
-39 -11 -43 -8 -5 5 -66 -17 -221 -79 -27 -11 -57 -28 -67 -39 -9 -11 -23 -17
-32 -13 -9 3 -16 1 -16 -5 0 -5 -18 -16 -40 -22 -23 -7 -52 -23 -66 -36 -14
-13 -28 -23 -33 -23 -4 0 -20 -14 -37 -31 -16 -17 -41 -37 -56 -45 -15 -8 -38
-24 -51 -37 -45 -41 -79 -67 -88 -67 -6 0 -6 -7 0 -18 10 -18 -3 -33 -103
-117 -20 -16 -36 -38 -36 -47 0 -10 -4 -18 -9 -18 -15 0 -51 -83 -51 -117 0
-17 -7 -49 -15 -72 -11 -33 -14 -95 -14 -278 0 -228 1 -240 26 -312 26 -74 45
-113 70 -139 23 -24 15 -50 -21 -67 -54 -26 -68 -56 -67 -142 0 -42 7 -98 15
-127 8 -28 26 -98 39 -156 34 -146 121 -341 179 -401 l44 -46 -23 -49 c-77
-166 -115 -272 -123 -349 -11 -100 -15 -110 -50 -125 -16 -7 -40 -22 -52 -34
-26 -26 -52 -40 -163 -92 -44 -20 -91 -45 -105 -55 -14 -9 -42 -20 -62 -24
-21 -4 -42 -13 -49 -21 -6 -8 -23 -14 -38 -14 -15 0 -37 -7 -50 -16 -21 -15
-30 -15 -79 -3 -140 33 -214 14 -367 -96 -53 -39 -191 -107 -237 -119 -33 -8
-34 -10 -7 -89 181 -540 648 -979 1190 -1117 199 -51 208 -52 727 -57 270 -3
492 -1 492 4 0 4 -9 84 -20 178 -11 94 -20 187 -20 209 0 33 2 37 15 26 8 -7
26 -10 40 -8 19 4 25 1 25 -13 0 -23 13 -24 30 -4 14 17 40 20 40 5 0 -5 8
-10 18 -9 9 0 12 3 5 5 -8 4 -6 10 6 22 29 29 55 48 47 35 -4 -8 -2 -13 7 -13
8 0 17 9 20 20 3 11 2 18 -2 16 -4 -3 -7 4 -7 14 0 13 5 16 16 11 13 -7 22 -7
48 -2 4 1 0 6 -8 11 -13 9 -13 11 0 19 12 8 10 13 -10 32 -14 12 -18 20 -9 16
17 -5 51 26 46 42 -1 5 7 17 18 26 16 13 16 15 3 11 -12 -3 -16 1 -15 15 1 19
2 19 20 0 21 -20 16 -41 -10 -41 -11 0 -7 -7 13 -25 22 -19 26 -27 16 -37 -17
-17 -15 -45 5 -52 14 -6 15 -9 4 -15 -9 -6 -10 -14 -5 -22 14 -23 13 -38 -2
-32 -10 4 -12 0 -8 -11 3 -9 1 -16 -5 -16 -6 0 -11 -4 -11 -10 0 -5 7 -7 15
-4 11 5 13 2 9 -10 -10 -26 43 -21 57 5 8 15 14 18 22 10 6 -6 16 -11 21 -11
6 0 4 5 -4 10 -13 8 -13 12 3 27 10 10 17 14 16 8 -3 -21 1 -25 15 -13 8 7 12
16 9 21 -2 4 0 7 6 7 5 0 13 -4 16 -10 9 -15 28 -12 22 4 -5 14 10 36 25 36 4
0 8 -7 8 -15 0 -8 -4 -15 -10 -15 -5 0 -7 -6 -4 -14 3 -8 -2 -16 -13 -19 -12
-3 -13 -5 -3 -6 17 -1 49 26 93 78 15 19 30 31 33 29 13 -14 -17 -88 -49 -123
-20 -22 -37 -43 -37 -47 0 -10 -164 -217 -208 -263 -21 -22 -49 -53 -62 -68
l-25 -29 420 5 c441 5 469 8 657 58 438 117 824 416 1052 815 57 99 56 103
-20 147 -135 77 -277 131 -371 142 -32 3 -67 10 -78 15 -27 12 -209 60 -265
70 -25 5 -64 18 -87 29 -23 12 -46 21 -51 21 -4 0 -27 9 -50 20 -22 11 -50 20
-61 20 -11 0 -23 5 -27 11 -3 6 -25 20 -48 30 -40 17 -42 21 -68 106 -31 102
-57 254 -63 368 -3 44 -9 103 -15 131 -21 99 -122 224 -222 275 -64 32 -67 39
-42 112 l16 47 28 -30 c32 -34 65 -38 110 -15 30 16 82 83 95 123 7 23 7 24
-12 5 -11 -10 -18 -21 -17 -24 2 -4 -3 -12 -11 -19 -8 -7 -15 -19 -15 -26 0
-8 -11 -16 -25 -20 -14 -3 -25 -10 -25 -14 0 -5 -12 -5 -27 -1 -24 6 -28 13
-28 42 0 30 5 36 43 54 40 19 41 21 22 33 -25 16 -25 32 1 76 12 20 18 36 14
36 -4 0 -2 7 5 15 7 8 23 15 36 15 13 0 24 6 24 13 0 7 9 18 20 25 12 7 17 18
13 28 -8 23 18 96 33 90 8 -3 15 12 19 47 4 29 15 77 25 107 10 30 21 91 25
134 5 66 3 85 -11 112 -18 33 -18 34 4 54 25 23 27 35 10 46 -8 5 -7 10 3 18
8 6 21 25 29 41 9 17 29 34 45 40 17 6 36 14 43 18 19 12 14 51 -8 67 -11 8
-20 20 -20 28 0 7 -4 10 -10 7 -6 -3 -10 5 -10 19 0 27 -18 45 -29 28 -13 -21
-33 -17 -38 8 -2 14 -6 30 -7 37 -1 7 -5 16 -9 19 -12 13 -7 88 8 114 18 31
18 41 3 37 -8 -1 -12 7 -11 18 1 11 -2 22 -7 25 -13 8 -23 107 -11 115 6 3 11
2 11 -2 0 -5 6 -18 14 -29 12 -15 14 -16 12 -3 -1 10 -8 25 -16 34 -11 13 -11
21 -2 36 7 10 12 33 11 51 0 33 0 33 -11 8 -10 -24 -11 -24 -22 17 -11 43 -57
103 -78 103 -6 0 -2 -9 10 -20 23 -22 29 -40 12 -40 -5 0 -10 7 -10 15 0 8 -4
15 -10 15 -5 0 -19 23 -32 50 -13 28 -26 50 -30 50 -5 0 -8 7 -8 15 0 8 -9 19
-19 25 -20 10 -37 45 -32 68 3 20 -24 41 -47 36 -21 -6 -63 40 -76 82 -7 23
-39 64 -50 64 -10 0 -7 -48 4 -55 19 -12 10 -26 -12 -19 -27 8 -115 51 -177
86 -42 24 -54 42 -28 44 24 1 132 -45 130 -55 -2 -6 2 -11 9 -11 6 0 20 -7 30
-17 10 -9 21 -13 26 -9 15 16 -159 123 -179 110 -5 -3 -9 1 -9 9 0 11 -19 13
-92 11 -51 -1 -118 -5 -148 -9 -52 -6 -57 -5 -88 24 -19 17 -38 29 -43 26 -5
-4 -9 -1 -9 4 0 6 -8 11 -17 11 -10 0 -29 6 -43 13 -70 36 -150 58 -222 60
-42 1 -75 0 -73 -4z m1175 -554 c0 -5 -5 -3 -10 5 -5 8 -10 20 -10 25 0 6 5 3
10 -5 5 -8 10 -19 10 -25z m50 -75 c4 0 6 -9 3 -20 l-6 -21 -18 20 c-23 25
-24 35 -3 27 9 -3 19 -6 24 -6z m-2283 -72 c-3 -8 -6 -5 -6 6 -1 11 2 17 5 13
3 -3 4 -12 1 -19z m1734 -220 c11 -11 19 -25 19 -30 0 -4 5 -8 11 -8 6 0 9 6
6 13 -4 10 2 13 19 9 13 -2 23 -7 22 -11 0 -3 1 -9 2 -13 5 -17 8 -29 9 -49 0
-11 6 -17 11 -14 6 3 10 -3 10 -14 0 -11 8 -25 18 -30 9 -6 14 -11 10 -11 -4
0 -4 -10 1 -22 6 -16 4 -26 -7 -34 -12 -9 -11 -11 9 -10 13 1 28 6 32 11 5 6
7 4 4 -5 -2 -8 -11 -14 -21 -12 -11 2 -16 -4 -16 -23 0 -31 26 -34 35 -4 4 11
9 18 12 15 3 -3 -2 -17 -11 -31 -9 -14 -12 -25 -7 -25 5 0 13 5 16 10 3 6 11
10 17 10 5 0 0 -16 -11 -36 -12 -20 -22 -47 -23 -60 -3 -27 -20 -31 -38 -9
-14 16 -35 21 -25 5 3 -5 -1 -20 -10 -34 -11 -17 -13 -26 -5 -31 6 -4 9 -13 6
-20 -7 -18 29 -11 50 9 20 20 21 20 27 -3 3 -14 0 -17 -13 -14 -10 3 -21 0
-24 -6 -4 -6 -1 -11 6 -11 9 -1 7 -5 -4 -14 -20 -15 -14 -28 10 -19 10 4 13 2
8 -6 -10 -15 2 -64 13 -56 5 3 7 -5 3 -17 -3 -14 -1 -19 6 -14 7 4 9 -1 7 -15
-3 -13 1 -29 7 -36 7 -9 8 -17 1 -24 -13 -13 -101 10 -126 32 -14 13 -27 15
-55 9 -45 -9 -153 -7 -169 3 -6 4 -15 2 -19 -4 -5 -8 -8 -8 -14 1 -5 9 -11 8
-21 -2 -8 -7 -27 -13 -44 -13 -16 0 -41 -7 -55 -15 -16 -10 -22 -11 -17 -2 5
7 3 12 -7 12 -9 0 -16 -5 -16 -11 0 -5 -13 -15 -29 -20 -20 -7 -28 -15 -24
-25 3 -8 -1 -14 -10 -14 -8 0 -18 -6 -21 -12 -4 -7 -4 -3 -2 10 2 12 0 22 -5
22 -5 0 -9 -8 -9 -17 -1 -16 -2 -16 -11 1 -8 13 -13 15 -19 6 -5 -8 -10 -3
-14 14 -3 14 -11 26 -17 26 -6 0 -8 -4 -5 -9 3 -4 -6 -13 -20 -20 -31 -14 -47
-14 -39 0 4 5 4 22 1 35 -6 21 -9 24 -21 14 -8 -7 -15 -17 -15 -22 0 -7 5 -6
13 1 10 8 14 7 14 -4 0 -8 -5 -15 -10 -15 -5 0 -7 -6 -4 -13 2 -6 -1 -17 -8
-23 -9 -9 -14 -4 -23 18 -10 27 -9 28 5 16 14 -11 15 -11 11 2 -2 8 -18 21
-34 29 -20 10 -24 16 -14 19 8 3 20 11 25 18 16 21 108 65 123 59 7 -2 10 0 7
5 -3 6 -1 10 6 10 6 0 29 16 50 35 22 19 42 35 47 35 4 0 21 20 37 45 17 24
36 45 43 45 6 0 11 3 10 8 -4 11 64 196 75 203 5 4 5 9 -2 13 -14 9 -15 56 -1
56 6 0 10 9 10 19 0 22 95 121 116 121 9 0 13 -4 9 -9 -3 -5 0 -13 6 -17 8 -4
9 -3 5 4 -4 7 -5 12 -2 12 2 0 12 3 22 7 12 4 15 3 10 -5 -5 -8 0 -12 13 -12
12 0 21 7 21 15 0 21 9 19 31 -7z m-1521 -232 c-11 -30 -20 -35 -15 -8 2 9 4
28 5 42 0 21 2 22 10 8 7 -11 7 -25 0 -42z m1132 16 c-2 -12 -14 -30 -26 -40
-11 -9 -30 -34 -41 -56 -11 -21 -28 -43 -37 -50 -10 -6 -18 -17 -18 -24 0 -7
-4 -10 -10 -7 -5 3 -10 3 -10 -2 0 -4 -14 -16 -31 -26 -34 -19 -34 -36 0 -18
17 9 20 9 15 -3 -3 -8 -13 -16 -22 -19 -9 -3 -26 -8 -36 -13 -14 -5 -17 -4
-12 4 5 8 1 10 -10 5 -11 -4 -13 -8 -6 -11 7 -2 12 -9 12 -15 -1 -16 -36 -57
-49 -57 -6 0 -11 -4 -11 -8 0 -9 -62 -34 -69 -27 -7 8 29 34 79 57 39 18 42
22 25 29 -28 11 -43 10 -25 -1 12 -7 10 -11 -10 -18 -14 -5 -26 -6 -28 -2 -6
16 38 90 63 106 14 9 25 23 25 31 0 9 8 13 23 11 17 -2 23 3 25 21 2 13 12 26
23 28 10 3 21 14 24 24 4 10 19 26 36 36 31 19 36 29 17 36 -8 4 -7 6 3 6 9 1
21 7 27 14 6 6 21 12 34 12 20 0 23 -4 20 -23z m-1445 -74 c-3 -7 -5 -2 -5 12
0 14 2 19 5 13 2 -7 2 -19 0 -25z m1358 -88 c-3 -5 -11 -10 -16 -10 -6 0 -7 5
-4 10 3 6 11 10 16 10 6 0 7 -4 4 -10z m-35 -40 c0 -5 -5 -10 -11 -10 -5 0 -7
5 -4 10 3 6 8 10 11 10 2 0 4 -4 4 -10z m-1320 -58 c0 -19 -5 -29 -15 -29 -8
0 -15 6 -15 14 0 7 5 13 10 13 6 0 10 7 10 15 0 8 2 15 5 15 3 0 5 -13 5 -28z
m1325 -17 c-32 -27 -45 -31 -45 -15 0 6 6 10 14 10 7 0 19 7 26 15 7 8 18 15
24 15 6 -1 -2 -12 -19 -25z m-264 -18 c-6 -8 -8 -17 -4 -20 3 -4 -1 -7 -9 -7
-9 0 -18 -5 -20 -12 -3 -8 -7 -6 -11 5 -4 12 2 21 21 31 34 19 37 19 23 3z
m42 -2 c-3 -9 -8 -14 -10 -11 -3 3 -2 9 2 15 9 16 15 13 8 -4z m97 -98 c0 -4
-8 -4 -17 1 -14 7 -38 -1 -95 -34 -43 -23 -78 -39 -78 -34 0 5 10 15 22 21 13
7 29 18 36 25 7 8 30 18 50 24 20 5 44 14 52 19 14 10 29 -2 30 -22z m30 23
c0 -5 -5 -10 -11 -10 -5 0 -7 5 -4 10 3 6 8 10 11 10 2 0 4 -4 4 -10z m-310
-48 c0 -15 -38 -44 -49 -37 -7 4 -8 0 -4 -12 6 -15 5 -16 -9 -3 -22 21 -12 48
18 44 13 -1 24 2 24 7 0 5 5 9 10 9 6 0 10 -4 10 -8z m-125 -52 c3 -5 1 -10
-4 -10 -6 0 -11 5 -11 10 0 6 2 10 4 10 3 0 8 -4 11 -10z m-35 -9 c0 -5 -6
-13 -13 -19 -10 -8 -13 -6 -13 9 0 10 6 19 13 19 7 0 13 -4 13 -9z m-136 -36
c3 -8 1 -15 -3 -15 -5 0 -11 7 -15 15 -3 8 -1 15 3 15 5 0 11 -7 15 -15z m681
-17 c0 -18 5 -36 10 -40 6 -5 3 -8 -6 -8 -23 0 -30 10 -19 31 7 12 6 19 -3 22
-9 4 -8 8 3 16 8 6 15 11 15 11 1 0 1 -15 0 -32z m-763 -26 c-12 -29 -41 -66
-47 -60 -11 10 24 78 39 78 11 0 13 -5 8 -18z m-467 -10 c-3 -3 -11 0 -18 7
-9 10 -8 11 6 5 10 -3 15 -9 12 -12z m2339 -34 c9 -34 7 -41 -8 -35 -8 3 -17
1 -19 -6 -2 -7 -7 -9 -11 -6 -4 4 0 14 9 23 10 9 14 23 11 31 -3 8 -2 15 3 15
5 0 11 -10 15 -22z m-2324 2 c0 -5 -2 -10 -4 -10 -3 0 -8 5 -11 10 -3 6 -1 10
4 10 6 0 11 -4 11 -10z m1218 2 c9 9 15 9 25 -1 10 -11 10 -13 0 -7 -7 4 -13
2 -13 -3 0 -6 6 -11 13 -11 20 0 45 -50 50 -100 6 -61 36 -161 53 -178 8 -7
14 -18 14 -23 0 -5 4 -9 10 -9 5 0 7 7 4 15 -12 30 25 26 78 -9 29 -20 71 -41
93 -47 21 -6 45 -18 53 -27 12 -15 13 -13 7 13 l-6 30 19 -23 c16 -21 21 -22
45 -11 19 8 24 15 15 20 -7 4 -17 0 -25 -9 -10 -14 -12 -14 -13 -2 0 8 14 23
31 32 27 16 32 16 45 3 19 -19 25 -19 18 0 -4 10 0 13 14 10 14 -2 26 5 38 23
l17 26 10 -25 9 -24 9 23 c5 13 7 28 3 33 -3 5 6 14 20 20 14 7 22 17 19 23
-4 6 0 5 9 -2 13 -10 17 -10 22 3 6 17 41 20 51 5 3 -5 4 -10 1 -10 -2 0 -13
-3 -23 -6 -15 -5 -15 -4 -3 5 9 7 10 11 3 11 -17 0 -25 -17 -13 -25 7 -5 5
-12 -7 -20 -10 -7 -15 -17 -10 -21 4 -4 7 -2 7 5 0 7 4 9 10 6 5 -3 21 6 34
20 14 14 33 25 43 23 14 -2 17 3 15 22 -2 20 0 22 8 10 9 -13 12 -12 25 4 17
22 20 61 5 51 -15 -9 -12 14 4 30 12 12 15 11 20 -11 4 -14 11 -22 16 -19 6 4
7 -6 4 -23 -3 -16 -1 -39 5 -51 9 -16 9 -21 -1 -21 -11 0 -11 -2 0 -8 9 -6 7
-13 -10 -28 -22 -19 -22 -19 -8 0 14 18 14 19 -7 7 -19 -9 -22 -9 -17 3 3 8 1
17 -5 21 -7 4 -11 -4 -11 -19 0 -13 -3 -32 -7 -42 -5 -13 -3 -15 8 -9 11 7 12
6 4 -6 -6 -8 -10 -34 -10 -59 0 -25 -4 -48 -9 -52 -5 -3 -10 -17 -12 -30 -1
-12 -3 -26 -3 -30 -1 -5 -8 -8 -17 -8 -9 0 -14 -6 -12 -12 7 -18 -27 -74 -42
-70 -7 2 -10 -3 -7 -12 3 -8 1 -16 -4 -18 -6 -2 -11 -10 -13 -18 -6 -33 -29
-68 -41 -64 -7 3 -16 0 -21 -7 -5 -8 -3 -10 6 -4 9 5 11 4 6 -4 -5 -7 -16 -9
-28 -5 -15 4 -18 3 -13 -7 6 -8 4 -11 -7 -7 -8 4 -20 -2 -27 -14 -7 -11 -8
-17 -2 -13 6 3 11 2 11 -3 0 -6 -7 -12 -15 -16 -8 -3 -15 -10 -15 -15 0 -6 7
-8 15 -5 8 4 15 1 15 -6 0 -6 -4 -8 -10 -5 -5 3 -10 -1 -10 -10 0 -9 -5 -13
-10 -10 -6 4 -8 11 -5 16 4 5 1 9 -5 9 -7 0 -9 7 -6 16 3 8 2 13 -3 10 -4 -3
-16 3 -26 14 -10 11 -24 20 -30 20 -7 0 -16 7 -19 16 -3 9 -11 14 -18 12 -6
-2 -23 8 -37 22 -14 15 -42 35 -61 46 -19 10 -45 29 -57 42 -26 26 -35 28 -27
7 5 -11 2 -13 -10 -9 -9 3 -16 1 -16 -5 0 -6 11 -13 25 -17 14 -3 25 -11 25
-17 0 -14 89 -94 156 -140 23 -15 47 -39 54 -52 14 -26 21 -115 9 -115 -4 0
-5 -9 -2 -20 3 -11 0 -20 -6 -20 -6 0 -11 -7 -11 -15 0 -8 -5 -15 -10 -15 -7
0 -7 6 0 19 13 26 13 34 -2 25 -10 -6 -10 -4 -2 7 17 22 14 51 -5 45 -13 -5
-13 -3 1 6 15 11 15 14 -3 40 -12 16 -25 25 -31 22 -7 -4 -6 -9 2 -14 7 -4 9
-16 5 -29 -7 -24 -23 -28 -31 -6 -5 12 -8 12 -20 0 -8 -7 -14 -19 -14 -26 0
-8 -7 -6 -20 6 -28 25 -54 4 -45 -37 4 -17 2 -28 -4 -28 -6 0 -11 9 -11 20 0
11 -4 20 -9 20 -5 0 -7 -9 -4 -20 5 -18 1 -20 -41 -18 -26 0 -49 5 -52 10 -3
4 -10 6 -15 3 -5 -4 -9 -2 -9 3 0 5 -10 7 -23 5 -17 -3 -24 0 -24 11 0 8 3 14
6 13 17 -4 91 15 91 24 0 5 4 8 8 5 4 -2 13 -1 20 3 9 5 7 13 -8 31 -11 13
-20 29 -20 37 0 7 -7 16 -15 19 -8 4 -12 10 -9 15 3 5 10 6 16 3 6 -4 8 -3 5
3 -3 5 3 27 14 48 42 78 42 82 -3 81 -22 -1 -45 -8 -51 -16 -7 -8 -17 -16 -22
-17 -6 -1 -30 -10 -55 -19 -29 -10 -65 -14 -101 -12 -47 3 -65 11 -108 43 -39
30 -61 39 -97 42 -26 1 -49 4 -51 7 -7 7 29 65 43 70 7 3 15 -6 18 -20 9 -35
23 -30 36 14 7 20 16 41 20 46 5 5 6 14 4 20 -2 6 5 22 17 35 11 12 18 25 15
28 -3 4 6 21 20 40 14 18 20 33 15 33 -6 0 -11 5 -11 11 0 5 5 7 12 3 8 -5 9
-2 4 12 -14 33 -24 84 -17 84 3 0 6 12 7 28 1 48 16 132 25 138 5 3 9 21 9 40
0 26 3 33 13 28 8 -5 8 -2 -2 9 -9 12 -10 17 -2 17 7 0 9 5 6 10 -4 6 -11 7
-17 4 -7 -4 -8 -2 -4 4 5 8 13 9 25 2 12 -6 22 -5 29 2z m-1251 -63 c3 -18 14
-34 27 -39 12 -5 17 -9 12 -9 -4 -1 -1 -12 8 -26 20 -31 5 -42 -37 -26 -15 6
-27 7 -27 2 0 -5 -7 -11 -14 -14 -11 -4 -13 -1 -9 10 4 11 2 14 -5 9 -7 -4
-12 -13 -12 -21 0 -8 -4 -16 -9 -19 -5 -4 -5 10 0 32 5 20 12 51 16 67 14 68
39 86 50 34z m2370 -8 c-1 -15 -4 -17 -14 -9 -7 5 -10 14 -7 19 10 16 23 9 21
-10z m-1967 -51 c0 -5 -2 -10 -4 -10 -3 0 -8 5 -11 10 -3 6 -1 10 4 10 6 0 11
-4 11 -10z m-86 -15 c3 -8 1 -15 -4 -15 -6 0 -10 7 -10 15 0 8 2 15 4 15 2 0
6 -7 10 -15z m79 -62 c-1 -32 -2 -62 -2 -67 -1 -4 -8 -5 -17 -2 -8 3 -12 2 -9
-4 3 -6 18 -11 33 -11 17 -1 21 -3 10 -6 -10 -2 -18 -14 -18 -25 0 -14 5 -18
16 -14 8 3 25 1 36 -5 15 -8 19 -8 14 0 -4 6 -2 11 3 11 6 0 11 -6 11 -14 0
-21 17 -28 24 -10 3 8 2 12 -4 9 -6 -3 -10 1 -10 9 0 10 6 13 15 10 8 -4 15
-10 15 -15 0 -5 4 -9 9 -9 5 0 8 12 5 26 -4 22 -3 23 10 12 7 -7 13 -15 11
-18 -2 -3 4 -12 13 -20 14 -13 15 -12 10 2 -9 21 27 31 43 12 6 -8 18 -14 25
-14 8 0 14 -4 14 -10 0 -5 14 -10 30 -10 17 0 30 -5 30 -12 0 -9 2 -10 8 -2 9
15 64 15 55 1 -4 -6 -1 -7 7 -2 29 18 130 37 130 24 0 -5 10 -5 23 -1 12 5 34
8 50 7 15 0 27 3 27 7 0 4 5 8 10 8 14 0 13 -37 -1 -46 -6 -3 -9 -22 -7 -40 4
-31 -2 -39 -24 -35 -13 2 -9 -24 4 -37 10 -10 10 -15 0 -21 -8 -5 -13 -11 -12
-15 1 -3 -1 -19 -5 -35 -5 -22 -22 -37 -89 -75 -46 -26 -95 -57 -107 -70 -33
-32 -65 -47 -83 -40 -13 5 -15 2 -9 -12 6 -17 5 -17 -10 -5 -9 7 -17 10 -17 6
0 -4 -10 5 -22 21 -27 36 -44 54 -33 35 5 -9 3 -12 -6 -9 -8 3 -13 12 -11 22
2 9 -4 16 -13 16 -8 0 -15 9 -15 20 0 13 -7 20 -19 20 -24 0 -52 31 -33 37 15
6 16 33 1 33 -5 0 -8 -4 -5 -9 3 -5 -1 -11 -9 -14 -11 -5 -12 -1 -5 18 6 15 6
27 0 30 -6 4 -10 1 -10 -4 0 -6 -4 -11 -10 -11 -5 0 -10 12 -10 28 0 19 -3 23
-9 13 -11 -17 -32 -5 -24 14 3 8 0 15 -6 15 -6 0 -10 -3 -9 -7 3 -12 -29 -68
-38 -66 -4 2 -7 -17 -7 -41 0 -30 -3 -43 -11 -40 -7 3 -11 18 -10 34 1 17 -2
30 -7 30 -5 0 -9 17 -9 38 0 20 -7 50 -15 65 -8 15 -12 34 -8 42 3 9 -1 15 -8
15 -9 1 -6 6 6 13 13 8 20 23 20 42 0 44 -19 46 -23 3 -3 -38 -22 -54 -22 -19
0 10 -7 25 -16 32 -13 10 -15 25 -11 64 9 88 62 148 77 88 6 -26 30 -17 34 11
1 10 9 22 17 27 8 5 14 9 14 9 0 0 -1 -26 -2 -57z m1842 -40 c14 -31 16 -55 4
-48 -6 4 -10 1 -8 -6 4 -31 -2 -50 -20 -68 -11 -11 -21 -27 -24 -38 -2 -10 -3
11 -2 47 5 102 4 97 15 80 6 -9 10 -10 10 -3 0 6 -4 14 -10 18 -12 8 -1 35 15
35 7 0 16 -8 20 -17z m-2081 -97 c-4 -18 -11 -25 -20 -22 -9 3 -14 -1 -14 -12
0 -13 -2 -14 -9 -3 -5 7 -14 10 -20 7 -7 -5 -11 1 -11 13 0 12 7 21 15 21 8 0
15 -4 15 -10 0 -16 29 1 36 22 9 29 16 15 8 -16z m-160 -59 c11 -26 24 -41 46
-48 31 -11 42 -39 16 -39 -36 0 -97 97 -95 150 0 16 6 5 33 -63z m2106 49 c0
-3 -4 -8 -10 -11 -5 -3 -10 -1 -10 4 0 6 5 11 10 11 6 0 10 -2 10 -4z m-18
-48 c-7 -7 -12 -8 -12 -2 0 6 3 14 7 17 3 4 9 5 12 2 2 -3 -1 -11 -7 -17z
m-1957 -98 c0 -16 8 -28 23 -35 12 -5 20 -15 18 -22 -3 -7 2 -10 12 -7 9 2 6
-1 -7 -8 -19 -10 -25 -10 -29 0 -2 6 -10 12 -17 12 -7 0 -16 6 -18 13 -4 9 -8
8 -16 -3 -9 -12 -11 -4 -9 33 2 42 4 48 22 45 15 -2 21 -10 21 -28z m-30 -90
c8 0 18 -7 23 -15 4 -9 18 -17 31 -20 32 -6 49 -22 46 -43 -1 -9 0 -11 2 -4 3
6 12 12 21 12 15 0 15 -2 2 -10 -8 -5 -10 -10 -4 -10 5 0 15 5 22 12 9 9 12 8
12 -5 0 -10 -11 -23 -25 -29 -19 -8 -22 -14 -13 -20 8 -5 -6 -7 -34 -6 -26 1
-45 5 -42 10 3 4 0 8 -5 8 -7 0 -10 16 -9 38 2 20 -1 37 -7 37 -5 0 -9 -3 -7
-7 1 -5 -2 -8 -8 -8 -14 0 -13 13 2 28 9 9 5 11 -20 8 -18 -2 -35 1 -39 7 -3
6 -1 7 5 3 7 -4 12 -2 12 3 0 6 -6 11 -12 12 -7 0 -4 4 7 8 11 5 22 4 23 0 2
-5 10 -9 17 -9z m455 -70 c0 -5 -4 -10 -10 -10 -5 0 -10 5 -10 10 0 6 5 10 10
10 6 0 10 -4 10 -10z m-158 -80 c-2 -16 -9 -30 -15 -30 -5 0 -2 -9 8 -20 17
-19 17 -21 0 -46 -9 -15 -12 -23 -6 -20 7 5 11 -5 11 -28 0 -43 10 -72 20 -56
4 6 7 -16 6 -49 0 -34 -3 -58 -7 -53 -9 8 -60 176 -64 212 -2 13 2 28 8 32 8
5 5 8 -7 8 -18 0 -18 2 4 25 25 27 39 72 18 59 -7 -4 -8 -3 -4 5 13 21 33 -6
28 -39z m534 -35 c-20 -15 -21 -29 -2 -22 10 4 14 -5 13 -39 0 -30 -5 -44 -14
-44 -7 0 -13 10 -13 23 -1 19 -3 18 -14 -8 -10 -25 -10 -32 1 -44 8 -7 12 -15
9 -18 -4 -5 -46 33 -46 42 0 3 0 10 0 16 0 5 -5 7 -10 4 -6 -4 -8 -10 -5 -15
3 -5 0 -12 -6 -16 -8 -4 -9 -3 -5 4 5 8 -2 12 -22 12 -19 0 -29 5 -29 15 0 8
7 15 15 15 7 0 19 13 25 29 12 33 52 59 85 56 18 -1 21 2 17 19 -6 20 -5 20 6
2 10 -16 9 -21 -5 -31z m-109 -20 c0 -9 -5 -14 -11 -12 -21 7 -76 -105 -82
-166 -1 -10 5 -21 12 -24 8 -3 14 -13 14 -22 0 -10 8 -17 20 -17 11 0 20 3 20
6 0 4 7 7 15 7 29 0 95 -77 95 -110 0 -8 9 -22 21 -33 11 -10 18 -26 16 -34
-2 -9 2 -17 9 -17 7 0 10 5 7 11 -4 6 1 5 10 -3 9 -7 15 -17 12 -21 -2 -4 7
-17 20 -28 14 -12 25 -17 25 -12 0 6 14 -3 32 -20 17 -17 34 -26 37 -22 4 6
26 4 53 -3 26 -6 45 -8 42 -3 -7 12 10 10 23 -3 7 -7 27 -6 68 5 32 8 62 13
67 10 4 -3 8 0 8 5 0 6 7 11 15 11 8 0 15 5 15 10 0 6 8 10 18 10 21 0 72 52
72 74 0 9 7 19 16 23 15 5 14 7 -1 16 -14 7 -15 11 -4 18 8 5 17 3 21 -4 5 -8
8 -6 8 6 0 9 5 17 10 17 6 0 10 7 10 15 0 8 7 15 15 15 8 0 15 5 15 11 0 6 6
9 13 6 7 -3 19 4 26 14 13 22 28 17 41 -15 7 -17 9 -17 9 -3 1 22 21 23 21 1
0 -13 3 -14 14 -5 21 17 30 -4 10 -24 -9 -9 -17 -28 -18 -43 -2 -25 -16 -63
-38 -105 -5 -11 -7 -22 -4 -25 3 -3 6 0 6 6 0 19 20 14 21 -5 0 -14 2 -14 9 3
10 25 30 41 30 25 0 -6 -5 -11 -11 -11 -7 0 -10 -13 -7 -34 3 -27 1 -33 -13
-31 -12 3 -15 -3 -11 -22 3 -18 1 -24 -7 -19 -6 4 -11 2 -11 -4 0 -7 8 -9 20
-5 24 7 27 -10 4 -23 -8 -5 -16 -16 -18 -26 -1 -9 -9 -25 -17 -34 -9 -10 -13
-24 -11 -32 3 -9 -1 -11 -12 -7 -9 4 -16 2 -16 -3 0 -19 -74 -81 -95 -79 -20
2 -72 -9 -90 -20 -5 -3 -20 -4 -32 -2 -13 1 -23 -2 -23 -8 0 -6 -5 -11 -11
-11 -5 0 -7 5 -3 12 4 6 3 8 -3 5 -18 -11 -132 -16 -139 -6 -3 6 -12 8 -20 5
-8 -3 -14 -2 -14 2 0 4 -11 8 -25 8 -14 1 -25 -3 -25 -8 0 -7 -5 -6 -13 1 -8
6 -17 8 -20 4 -4 -3 -7 2 -7 11 0 12 -5 16 -14 13 -8 -3 -20 1 -27 9 -7 8 -21
13 -33 12 -17 -2 -20 2 -18 22 2 20 1 22 -7 10 -7 -10 -11 -11 -11 -2 0 16
-15 15 -34 -3 -9 -9 -17 -11 -21 -5 -3 5 0 10 7 11 10 0 10 2 0 6 -6 2 -10 9
-6 14 3 5 0 9 -5 9 -6 0 -11 -7 -11 -15 0 -8 -5 -15 -11 -15 -5 0 -7 5 -3 11
4 8 -1 9 -17 5 -13 -3 -19 -3 -13 0 15 6 6 44 -10 44 -15 1 -50 50 -35 50 6 0
9 7 5 15 -3 9 0 15 8 15 8 0 16 -6 19 -14 7 -17 47 -41 47 -28 0 6 -10 12 -22
15 -18 5 -19 8 -8 22 9 11 16 12 25 5 21 -17 25 -48 7 -55 -14 -5 -14 -7 -2
-15 8 -6 22 -10 30 -10 11 0 12 2 3 8 -9 6 -10 17 -4 39 7 24 6 31 -4 27 -17
-7 -31 24 -34 75 -1 19 -5 22 -25 17 -30 -7 -40 3 -18 20 16 12 16 13 -3 14
-17 0 -17 2 -5 10 12 7 12 10 1 10 -7 0 -11 6 -8 14 4 11 1 13 -10 9 -11 -4
-14 -2 -9 5 5 8 -1 12 -16 12 -18 0 -20 2 -8 10 12 7 12 10 1 10 -7 0 -11 6
-7 15 3 8 1 15 -4 15 -14 0 -62 108 -55 120 3 6 2 10 -3 10 -6 0 -12 16 -14
35 -2 20 0 35 7 35 5 0 4 4 -3 9 -31 19 63 161 107 161 10 0 18 -7 18 -15z
m1192 -109 c-9 -8 -10 -7 -5 7 3 10 7 26 7 35 1 9 4 6 6 -7 3 -13 -1 -28 -8
-35z m-1592 -1 c0 -8 -4 -15 -9 -15 -10 0 -11 14 -1 23 9 10 10 9 10 -8z
m1577 -84 c-9 -34 -21 -64 -27 -68 -6 -4 -8 0 -4 11 4 10 7 34 7 54 0 24 3 32
9 24 6 -10 10 -4 15 19 3 18 9 30 12 26 3 -3 -2 -33 -12 -66z m-809 8 c4 -6 5
-12 2 -15 -7 -7 -37 7 -37 17 0 13 27 11 35 -2z m748 -13 c4 -10 1 -13 -9 -9
-15 6 -19 23 -5 23 5 0 11 -7 14 -14z m-828 -117 c8 -8 -34 -19 -59 -15 -11 1
-21 7 -23 12 -4 11 71 13 82 3z m330 -8 c-3 -6 -12 -8 -20 -4 -9 3 -15 -1 -15
-9 0 -25 -34 -43 -88 -46 -29 -1 -61 2 -71 7 -12 7 -22 6 -29 -1 -8 -8 -23 -6
-57 6 -65 25 -53 41 33 41 38 0 73 3 77 6 11 11 177 10 170 0z m-682 -208 c-3
-7 -9 -13 -13 -13 -4 0 -10 6 -13 13 -3 7 3 13 13 13 10 0 16 -6 13 -13z
m1166 -270 c24 -24 67 -94 69 -113 11 -107 12 -161 5 -175 -7 -11 -13 10 -21
73 -11 83 -41 174 -61 186 -9 6 -22 46 -15 46 3 0 13 -8 23 -17z m-314 -343
c3 -5 1 -10 -4 -10 -6 0 -11 5 -11 10 0 6 2 10 4 10 3 0 8 -4 11 -10z m-55
-15 c0 -8 -2 -15 -4 -15 -2 0 -6 7 -10 15 -3 8 -1 15 4 15 6 0 10 -7 10 -15z
m10 -35 c0 -5 -5 -10 -11 -10 -5 0 -7 5 -4 10 3 6 8 10 11 10 2 0 4 -4 4 -10z
m-23 -38 c18 -11 27 -59 12 -67 -8 -6 -10 -4 -4 5 6 10 3 12 -14 7 -26 -6 -51
1 -51 14 0 5 8 10 18 10 15 1 15 2 -1 6 -18 5 -18 5 0 19 21 16 24 16 40 6z
m68 -15 c3 -4 2 -5 -1 -2 -4 2 -15 0 -25 -6 -15 -7 -19 -6 -19 6 0 15 34 16
45 2z m-121 -53 c14 -5 24 -34 12 -34 -2 0 -13 -3 -23 -6 -17 -6 -16 -5 1 8
19 15 19 15 0 26 -21 12 -15 16 10 6z m65 -30 c24 -27 22 -54 -4 -54 -8 0 -15
-4 -15 -10 0 -5 -7 -7 -15 -4 -8 4 -15 2 -15 -4 0 -5 7 -13 16 -16 14 -5 14
-9 3 -22 -7 -8 -21 -13 -31 -11 -10 3 -22 -2 -27 -11 -16 -29 -22 -6 -6 24 8
16 15 23 15 17 0 -8 12 -13 28 -13 27 0 27 0 -7 17 -19 9 -29 19 -23 21 6 2 8
10 5 19 -4 10 -2 14 4 10 13 -8 46 39 38 53 -13 21 12 9 34 -16z m-75 -146
c-6 -10 -4 -10 8 0 14 11 18 11 25 -1 4 -8 15 -17 23 -20 8 -3 -4 -5 -27 -2
-24 2 -43 -1 -43 -5 0 -15 18 -21 23 -8 6 18 17 5 23 -26 4 -22 1 -26 -18 -25
-22 0 -22 1 -3 9 19 7 18 9 -8 19 -38 15 -44 14 -56 -6 -6 -10 -11 -13 -11 -6
0 6 14 27 32 47 32 37 45 46 32 24z m-63 -121 c-6 -8 -7 -18 -3 -22 4 -5 1 -5
-6 -1 -10 6 -10 11 -1 22 6 8 14 14 16 14 3 0 0 -6 -6 -13z m247 -109 c-2 -6
-10 -13 -16 -14 -7 -1 -8 0 -2 3 5 2 8 9 4 14 -3 5 0 9 6 9 7 0 10 -5 8 -12z
m-542 -60 c4 -6 3 -8 -4 -4 -6 3 -13 -2 -15 -11 -4 -14 -5 -13 -6 5 -1 23 13
30 25 10z m521 6 c-3 -3 -12 -4 -19 -1 -8 3 -5 6 6 6 11 1 17 -2 13 -5z m-490
-40 c-3 -3 -12 -4 -19 -1 -8 3 -5 6 6 6 11 1 17 -2 13 -5z m63 -14 c0 -5 -5
-10 -11 -10 -5 0 -7 5 -4 10 3 6 8 10 11 10 2 0 4 -4 4 -10z"/>
<path d="M3253 3518 c-1 -18 1 -27 3 -20 3 6 15 13 27 13 18 1 19 2 4 6 -11 3
-16 11 -13 19 3 8 0 14 -7 14 -7 0 -13 -14 -14 -32z"/>
<path d="M2668 3183 c7 -3 16 -2 19 1 4 3 -2 6 -13 5 -11 0 -14 -3 -6 -6z"/>
<path d="M2615 3170 c3 -5 8 -10 11 -10 2 0 4 5 4 10 0 6 -5 10 -11 10 -5 0
-7 -4 -4 -10z"/>
<path d="M3364 2755 c-9 -22 1 -29 15 -11 8 10 9 16 1 21 -5 3 -13 -1 -16 -10z"/>
<path d="M2766 2647 c3 -10 9 -15 12 -12 3 3 0 11 -7 18 -10 9 -11 8 -5 -6z"/>
<path d="M2800 2455 c0 -8 4 -15 10 -15 5 0 7 7 4 15 -4 8 -8 15 -10 15 -2 0
-4 -7 -4 -15z"/>
<path d="M3165 2280 c-3 -5 -1 -10 4 -10 6 0 11 5 11 10 0 6 -2 10 -4 10 -3 0
-8 -4 -11 -10z"/>
<path d="M2825 2070 c-3 -5 -2 -10 4 -10 5 0 13 5 16 10 3 6 2 10 -4 10 -5 0
-13 -4 -16 -10z"/>
<path d="M1702 2720 c0 -14 2 -19 5 -12 2 6 2 18 0 25 -3 6 -5 1 -5 -13z"/>
<path d="M1755 2649 c-11 -17 1 -21 15 -4 8 9 8 15 2 15 -6 0 -14 -5 -17 -11z"/>
<path d="M1815 2639 c-9 -14 -2 -20 14 -10 8 6 9 11 3 15 -6 3 -14 1 -17 -5z"/>
<path d="M1846 2611 c-5 -7 -3 -18 3 -24 14 -14 20 -6 11 17 -5 15 -9 16 -14
7z"/>
<path d="M1720 2523 c0 -14 19 -38 25 -32 8 8 -5 39 -16 39 -5 0 -9 -3 -9 -7z"/>
<path d="M2285 1530 c-3 -5 -1 -10 4 -10 6 0 11 5 11 10 0 6 -2 10 -4 10 -3 0
-8 -4 -11 -10z"/>
<path d="M2880 979 c0 -5 5 -7 10 -4 6 3 10 8 10 11 0 2 -4 4 -10 4 -5 0 -10
-5 -10 -11z"/>
<path d="M3660 4403 c-8 -4 -20 -12 -27 -19 -7 -7 -18 -15 -25 -17 -10 -4 -10
-8 2 -16 18 -13 73 17 78 42 4 18 -2 20 -28 10z"/>
<path d="M3800 3878 c0 -16 5 -28 10 -28 13 0 13 20 0 40 -8 12 -10 9 -10 -12z"/>
<path d="M3732 2790 c0 -14 2 -19 5 -12 2 6 2 18 0 25 -3 6 -5 1 -5 -13z"/>
<path d="M3688 2664 c-31 -35 -38 -70 -13 -60 10 3 15 -1 16 -12 0 -9 7 1 15
23 8 22 13 49 12 60 -3 19 -6 18 -30 -11z"/>
<path d="M3595 2540 c-3 -5 -2 -10 4 -10 5 0 13 5 16 10 3 6 2 10 -4 10 -5 0
-13 -4 -16 -10z"/>
<path d="M3630 2526 c0 -2 7 -9 15 -16 9 -7 15 -8 15 -2 0 5 -7 12 -15 16 -8
3 -15 4 -15 2z"/>
</g>
</svg>
