<svg width="82" height="90" viewBox="0 0 82 90" fill="none" xmlns="http://www.w3.org/2000/svg">
<g clip-path="url(#clip0_838_3820)">
<path d="M60.6818 65.9545C60.6818 68.5274 60.6818 72.2999 60.6818 77.857C60.6818 80.7439 58.4762 82.0885 56.5672 82.0885C50.7854 82.0885 46.449 82.0885 43.5581 82.0885" stroke="#676767" stroke-linecap="round" stroke-linejoin="round"/>
<path fill-rule="evenodd" clip-rule="evenodd" d="M27.04 71.9704C27.04 69.4249 27.04 67.4077 27.04 65.9545V71.9704Z" stroke="#676767" stroke-linecap="round" stroke-linejoin="round"/>
<path d="M27.04 18.6966C27.04 18.5406 27.04 18.3831 27.04 18.2241C27.04 15.3285 28.8451 13.24 31.5003 13.24C34.7505 13.24 37.1881 13.24 38.8132 13.24" stroke="#676767" stroke-linecap="round" stroke-linejoin="round"/>
<path d="M57.9834 65.9545C57.9834 68.2388 57.9834 71.441 57.9834 76.3379C58.0828 78.3624 57.1103 79.4108 55.0657 79.4832L54.8341 79.4872C49.8263 79.4872 46.0703 79.4872 43.5664 79.4872" stroke="#676767" stroke-linecap="round" stroke-linejoin="round"/>
<path d="M29.394 71.9704C29.394 69.4705 29.394 67.4652 29.394 65.9545" stroke="#676767" stroke-linecap="round" stroke-linejoin="round"/>
<path d="M60.6816 20.6094C60.6816 23.6649 60.6816 25.8833 60.6816 27.6255" stroke="#676767" stroke-linecap="round" stroke-linejoin="round"/>
<path d="M29.394 18.6729C29.394 18.577 29.394 18.4803 29.394 18.383C29.394 16.6883 30.326 15.7563 32.19 15.5871H36.2441C36.2779 16.8955 36.9321 17.5497 38.2066 17.5497C38.5466 17.5497 38.8016 17.5497 38.9716 17.5497" stroke="#676767" stroke-linecap="round" stroke-linejoin="round"/>
<path d="M57.9834 20.6225C57.9834 23.695 57.9834 25.9037 57.9834 27.6471" stroke="#676767" stroke-linecap="round" stroke-linejoin="round"/>
<path fill-rule="evenodd" clip-rule="evenodd" d="M44.1025 33.4L55.285 39.8563V52.7687L44.1025 59.225L32.9199 52.7687V39.8563L44.1025 33.4Z" stroke="#676767" stroke-linecap="round" stroke-linejoin="round"/>
<path d="M55.285 40.0679L44.1025 46.5242L32.9199 40.0679" stroke="#676767" stroke-linecap="round" stroke-linejoin="round"/>
<path d="M44.1025 46.7358V59.225" stroke="#676767" stroke-linecap="round" stroke-linejoin="round"/>
<path d="M23.6802 39.28V37.1023" stroke="#676767" stroke-linecap="round" stroke-linejoin="round"/>
<path d="M64 39.28V30.04H54.76" stroke="#676767" stroke-linecap="round" stroke-linejoin="round"/>
<path d="M23.6802 54.4V63.64H32.9202" stroke="#676767" stroke-linecap="round" stroke-linejoin="round"/>
<path d="M64 54.4V63.64H54.76" stroke="#676767" stroke-linecap="round" stroke-linejoin="round"/>
<path fill-rule="evenodd" clip-rule="evenodd" d="M76.9306 4C79.378 4 81.3621 5.98405 81.3621 8.4315V16.1139C81.3621 18.5613 79.378 20.5454 76.9306 20.5454H52.7369L46.0774 25.541L46.0763 20.5454H43.2313C40.7839 20.5454 38.7998 18.5613 38.7998 16.1139V8.4315C38.7998 5.98405 40.7839 4 43.2313 4H76.9306Z" stroke="#676767" stroke-linecap="round" stroke-linejoin="round"/>
<path fill-rule="evenodd" clip-rule="evenodd" d="M13.8317 88.541C11.3843 88.541 9.40021 86.5569 9.40021 84.1095V76.4271C9.40021 73.9796 11.3843 71.9956 13.8317 71.9956H29.3942L36.2849 67L36.286 71.9956H39.131C41.5784 71.9956 43.5625 73.9796 43.5625 76.4271V84.1095C43.5625 86.5569 41.5784 88.541 39.131 88.541H13.8317Z" stroke="#676767" stroke-linecap="round" stroke-linejoin="round"/>
<path fill-rule="evenodd" clip-rule="evenodd" d="M5.43132 18.7C2.98386 18.7 0.999813 20.6841 0.999813 23.1315V30.8139C0.999813 33.2614 2.98386 35.2454 5.43132 35.2454H21.225L27.8846 40.241L27.8856 35.2454H30.7306C33.1781 35.2454 35.1621 33.2614 35.1621 30.8139V23.1315C35.1621 20.6841 33.1781 18.7 30.7306 18.7H5.43132Z" stroke="#676767" stroke-linecap="round" stroke-linejoin="round"/>
<path d="M48.2498 16.6C50.5694 16.6 52.4498 14.7196 52.4498 12.4C52.4498 10.0804 50.5694 8.20001 48.2498 8.20001C45.9302 8.20001 44.0498 10.0804 44.0498 12.4C44.0498 14.7196 45.9302 16.6 48.2498 16.6Z" stroke="#676767" stroke-linecap="round" stroke-linejoin="round"/>
<path d="M55.6001 9.79742H74.5001" stroke="#676767" stroke-linecap="round" stroke-linejoin="round"/>
<path d="M55.6001 13.9974H66.1001" stroke="#676767" stroke-linecap="round" stroke-linejoin="round"/>
<path d="M14.6499 78.0474H37.7499" stroke="#676767" stroke-linecap="round" stroke-linejoin="round"/>
<path d="M14.6499 82.2474H29.3499" stroke="#676767" stroke-linecap="round" stroke-linejoin="round"/>
<path d="M10.45 31.3C12.7696 31.3 14.65 29.4196 14.65 27.1C14.65 24.7804 12.7696 22.9 10.45 22.9C8.1304 22.9 6.25 24.7804 6.25 27.1C6.25 29.4196 8.1304 31.3 10.45 31.3Z" stroke="#676767" stroke-linecap="round" stroke-linejoin="round"/>
<path d="M17.7998 24.4974H28.2998" stroke="#676767" stroke-linecap="round" stroke-linejoin="round"/>
<path d="M17.7998 28.6974H28.2998" stroke="#676767" stroke-linecap="round" stroke-linejoin="round"/>
<path d="M21.25 72C21.25 70.7574 20.2426 69.75 19 69.75C17.7574 69.75 16.75 70.7574 16.75 72C16.75 73.2426 17.7574 74.25 19 74.25C20.2426 74.25 21.25 73.2426 21.25 72Z" fill="white" stroke="#1B1B1B" stroke-width="1.5"/>
<path d="M22 72C22 70.3431 20.6569 69 19 69C17.3431 69 16 70.3431 16 72C16 73.6569 17.3431 75 19 75C20.6569 75 22 73.6569 22 72Z" stroke="#1B1B1B"/>
<path d="M66.25 63C66.25 61.7574 65.2426 60.75 64 60.75C62.7574 60.75 61.75 61.7574 61.75 63C61.75 64.2426 62.7574 65.25 64 65.25C65.2426 65.25 66.25 64.2426 66.25 63Z" fill="white" stroke="#1B1B1B" stroke-width="1.5"/>
<path d="M67 63C67 61.3431 65.6569 60 64 60C62.3431 60 61 61.3431 61 63C61 64.6569 62.3431 66 64 66C65.6569 66 67 64.6569 67 63Z" stroke="#1B1B1B"/>
<path d="M46.25 47C46.25 45.7574 45.2426 44.75 44 44.75C42.7574 44.75 41.75 45.7574 41.75 47C41.75 48.2426 42.7574 49.25 44 49.25C45.2426 49.25 46.25 48.2426 46.25 47Z" fill="white" stroke="#1B1B1B" stroke-width="1.5"/>
<path d="M47 47C47 45.3431 45.6569 44 44 44C42.3431 44 41 45.3431 41 47C41 48.6569 42.3431 50 44 50C45.6569 50 47 48.6569 47 47Z" stroke="#1B1B1B"/>
<path d="M10.25 19C10.25 17.7574 9.24264 16.75 8 16.75C6.75736 16.75 5.75 17.7574 5.75 19C5.75 20.2426 6.75736 21.25 8 21.25C9.24264 21.25 10.25 20.2426 10.25 19Z" fill="white" stroke="#1B1B1B" stroke-width="1.5"/>
<path d="M11 19C11 17.3431 9.65685 16 8 16C6.34315 16 5 17.3431 5 19C5 20.6569 6.34315 22 8 22C9.65685 22 11 20.6569 11 19Z" stroke="#1B1B1B"/>
<path d="M71.25 4C71.25 2.75736 70.2426 1.75 69 1.75C67.7574 1.75 66.75 2.75736 66.75 4C66.75 5.24264 67.7574 6.25 69 6.25C70.2426 6.25 71.25 5.24264 71.25 4Z" fill="white" stroke="#1B1B1B" stroke-width="1.5"/>
<path d="M72 4C72 2.34315 70.6569 1 69 1C67.3431 1 66 2.34315 66 4C66 5.65685 67.3431 7 69 7C70.6569 7 72 5.65685 72 4Z" stroke="#1B1B1B"/>
</g>
<defs>
<clipPath id="clip0_838_3820">
<rect width="82" height="90" fill="white"/>
</clipPath>
</defs>
</svg>
