<svg width="102" height="81" viewBox="0 0 102 81" fill="none" xmlns="http://www.w3.org/2000/svg">
<g clip-path="url(#clip0_838_4354)">
<path fill-rule="evenodd" clip-rule="evenodd" d="M41.6668 41.9006L40.3794 45.8105L37.8718 48.5927L37.1197 51.0157V56.0592L34.0335 58.0272L33.5726 61.1305L30.7671 64.482H27.0179L25.5023 60.3907L24.487 53.1913L23.9814 48.138L22.2289 44.1542H18.87L14.4329 45.8105L11.7734 40.1828L12.6986 36.2286L14.4329 33.1312L18.87 29.5589L24.487 30.0142L25.5023 31.2915L30.7671 31.7123L34.0335 35.2194L36.3529 40.1828L39.3876 41.9006H41.6668Z" stroke="#676767" stroke-linecap="round" stroke-linejoin="round"/>
<path d="M70.2645 34.6622L71.3885 32.5387L69.7799 29.8869V27.79H72.6773L74.06 24.628L72.6773 20.6783L70.5981 19.6203L71.3885 17.728L75.9564 17.0165L80.7229 16.4518V13.9641L71.7992 13.0263L66.7113 11.937L63.2239 10.2789L59.2501 11.0687L55.3374 10.2789H51.002H48.0697L44.2908 11.937L40.1443 13.5529L35.022 13.9641L30.2874 13.0263L26.7201 12.2784H22.0891L19.5663 13.9641L18.7135 16.4518L19.9738 18.4592L22.6002 17.0165H24.5399L26.7201 17.728V18.4592L22.6002 20.6783H20.7788L17.9444 22.4705V24.1875L15.7349 24.628L14.7632 26.2073L15.1752 27.79L17.9444 28.4339L19.9738 27.79L20.7788 25.4414L23.0935 24.628L24.8871 27.79H26.7201L25.8073 25.4414H28.104L30.2874 26.7745L29.8461 28.4339L31.7811 28.9982H33.5164H34.4345V29.8869L33.5164 30.9135L30.7671 31.7123" stroke="#676767" stroke-linecap="round" stroke-linejoin="round"/>
<path d="M33.8545 30.8799L37.1604 34.6622V37.3636L40.3218 39.115L44.7931 37.3636V35.8525L43.789 33.6326L40.6764 32.1002L44.4335 30.8799L47.0349 32.1002L49.5489 34.9974L51.5877 38.5642L53.2899 42.4366L54.8958 41.0036V39.6411L55.9171 37.9985L57.4037 36.6582H60.0118L62.6922 38.5642V42.4366L64.5739 44.8821V42.8565V41.0036H65.7269L66.8651 40.2798L66.1417 37.881L68.0264 35.8525L70.6378 36.2164V34.6622" stroke="#676767" stroke-linecap="round" stroke-linejoin="round"/>
<path fill-rule="evenodd" clip-rule="evenodd" d="M80.7225 56.1649L77.996 53.3588L76.176 53.9202L72.6719 56.1649L69.7664 58.3511L68.4682 61.0851V63.5935L68.1396 65.221L70.6377 64.482L74.4311 63.5935L76.5961 64.482L77.996 66.9087L80.7225 67.5114L82.3705 65.8467L85.043 63.5935V62.1347L84.2929 57.9201L82.3705 54.3042L80.7225 56.1649Z" stroke="#676767" stroke-linecap="round" stroke-linejoin="round"/>
<path fill-rule="evenodd" clip-rule="evenodd" d="M70.6381 44.8821L68.6977 46.3194L67.4609 47.035L68.14 50.2732H71.3988L72.236 48.4118L73.4434 47.0205L72.236 45.8808L70.6381 44.8821Z" stroke="#676767" stroke-linecap="round" stroke-linejoin="round"/>
<path fill-rule="evenodd" clip-rule="evenodd" d="M77.889 47.5776H80.191L83.8272 48.5901L85.0434 50.7398L85.5323 52.404H84.678L82.3031 51.3615L80.191 50.7398H78.4843L76.1987 49.9908L77.889 47.5776Z" stroke="#676767" stroke-linecap="round" stroke-linejoin="round"/>
<path fill-rule="evenodd" clip-rule="evenodd" d="M38.935 1C44.4732 1 63.8267 1 68.635 1C73.4433 1 101.356 15.3268 101.356 37.881C101.356 60.4351 75.1829 77.23 68.635 77.23C62.0871 77.23 43.6817 77.23 37.945 77.23C32.2084 77.23 3.70136 60.4351 4.00237 37.2577C4.30337 14.0804 33.3968 1 38.935 1Z" stroke="#676767" stroke-linecap="round" stroke-linejoin="round"/>
<path d="M37.1196 51.0157H48.736" stroke="#676767" stroke-linecap="round" stroke-linejoin="round"/>
<path d="M46.3301 77.23C48.4761 62.4302 49.5491 48.3527 49.5491 34.9975C49.5491 34.9975 50.5921 33.6249 52.6781 30.8799L52.2463 28.6394L54.775 25.983L57.0951 23.8322L60.5353 25.983H64.9572L67.2441 23.8322L68.14 24.6281L71.9667 23.8322L74.0599 24.6281" stroke="#676767" stroke-linecap="round" stroke-linejoin="round"/>
<path d="M11.7731 40.1829H4.20605" stroke="#676767" stroke-linecap="round" stroke-linejoin="round"/>
<path d="M74.0601 24.6281H97.8632" stroke="#676767" stroke-linecap="round" stroke-linejoin="round"/>
<path d="M54.775 25.983L50.298 23.8322L46.3301 22.4706H42.9277L38.716 24.2268L36.3238 24.6281L34.4414 29.5589" stroke="#676767" stroke-linecap="round" stroke-linejoin="round"/>
<path d="M48.25 77C48.25 75.7574 47.2426 74.75 46 74.75C44.7574 74.75 43.75 75.7574 43.75 77C43.75 78.2426 44.7574 79.25 46 79.25C47.2426 79.25 48.25 78.2426 48.25 77Z" fill="white" stroke="#1B1B1B" stroke-width="1.5"/>
<path d="M49 77C49 75.3431 47.6569 74 46 74C44.3431 74 43 75.3431 43 77C43 78.6569 44.3431 80 46 80C47.6569 80 49 78.6569 49 77Z" stroke="#1B1B1B"/>
<path d="M64.25 26C64.25 24.7574 63.2426 23.75 62 23.75C60.7574 23.75 59.75 24.7574 59.75 26C59.75 27.2426 60.7574 28.25 62 28.25C63.2426 28.25 64.25 27.2426 64.25 26Z" fill="white" stroke="#1B1B1B" stroke-width="1.5"/>
<path d="M65 26C65 24.3431 63.6569 23 62 23C60.3431 23 59 24.3431 59 26C59 27.6569 60.3431 29 62 29C63.6569 29 65 27.6569 65 26Z" stroke="#1B1B1B"/>
<path d="M51.25 51C51.25 49.7574 50.2426 48.75 49 48.75C47.7574 48.75 46.75 49.7574 46.75 51C46.75 52.2426 47.7574 53.25 49 53.25C50.2426 53.25 51.25 52.2426 51.25 51Z" fill="white" stroke="#1B1B1B" stroke-width="1.5"/>
<path d="M52 51C52 49.3431 50.6569 48 49 48C47.3431 48 46 49.3431 46 51C46 52.6569 47.3431 54 49 54C50.6569 54 52 52.6569 52 51Z" stroke="#1B1B1B"/>
<path d="M41.25 24C41.25 22.7574 40.2426 21.75 39 21.75C37.7574 21.75 36.75 22.7574 36.75 24C36.75 25.2426 37.7574 26.25 39 26.25C40.2426 26.25 41.25 25.2426 41.25 24Z" fill="white" stroke="#1B1B1B" stroke-width="1.5"/>
<path d="M42 24C42 22.3431 40.6569 21 39 21C37.3431 21 36 22.3431 36 24C36 25.6569 37.3431 27 39 27C40.6569 27 42 25.6569 42 24Z" stroke="#1B1B1B"/>
<path d="M99.25 25C99.25 23.7574 98.2426 22.75 97 22.75C95.7574 22.75 94.75 23.7574 94.75 25C94.75 26.2426 95.7574 27.25 97 27.25C98.2426 27.25 99.25 26.2426 99.25 25Z" fill="white" stroke="#1B1B1B" stroke-width="1.5"/>
<path d="M100 25C100 23.3431 98.6569 22 97 22C95.3431 22 94 23.3431 94 25C94 26.6569 95.3431 28 97 28C98.6569 28 100 26.6569 100 25Z" stroke="#1B1B1B"/>
<path d="M6.25 40C6.25 38.7574 5.24264 37.75 4 37.75C2.75736 37.75 1.75 38.7574 1.75 40C1.75 41.2426 2.75736 42.25 4 42.25C5.24264 42.25 6.25 41.2426 6.25 40Z" fill="white" stroke="#1B1B1B" stroke-width="1.5"/>
<path d="M7 40C7 38.3431 5.65685 37 4 37C2.34315 37 1 38.3431 1 40C1 41.6569 2.34315 43 4 43C5.65685 43 7 41.6569 7 40Z" stroke="#1B1B1B"/>
</g>
<defs>
<clipPath id="clip0_838_4354">
<rect width="102" height="81" fill="white"/>
</clipPath>
</defs>
</svg>
