<svg width="72" height="88" viewBox="0 0 72 88" fill="none" xmlns="http://www.w3.org/2000/svg">
<g clip-path="url(#clip0_838_3895)">
<path d="M14.236 78.0873C11.3646 78.0577 9.59677 77.7829 8.93251 77.263C8.34134 76.8003 8.16507 76.0088 7.94971 75.0015" stroke="#676767" stroke-linecap="round" stroke-linejoin="round"/>
<path d="M7.95009 75.0015C7.62988 73.7716 7.32416 72.791 7.03291 72.0598C6.59603 70.9631 3.50967 67.2341 2.68242 64.6569C2.48684 64.0477 2.33202 63.4193 2.21875 62.7857" stroke="#676767" stroke-linecap="round" stroke-linejoin="round"/>
<path d="M2.21852 62.7953C2.07868 62.0104 2.00583 60.9752 2 59.6898C2.05062 58.4519 2.27582 57.2852 2.68219 56.3036C3.61996 54.0384 5.90896 49 14.2362 49" stroke="#676767" stroke-linecap="round" stroke-linejoin="round"/>
<path d="M14.2988 78.0948C17.1702 78.0652 18.9381 77.7904 19.6023 77.2705C20.1935 76.8077 20.3698 76.0163 20.5851 75.009" stroke="#676767" stroke-linecap="round" stroke-linejoin="round"/>
<path d="M20.585 75.0089C20.9052 73.779 21.2109 72.7985 21.5021 72.0673C21.939 70.9705 25.0254 67.2415 25.8526 64.6644C26.0482 64.0551 26.203 63.4267 26.3163 62.7932" stroke="#676767" stroke-linecap="round" stroke-linejoin="round"/>
<path d="M26.3165 62.8027C26.4563 62.0178 26.5292 60.9827 26.535 59.6973C26.4844 58.4593 26.2592 57.2926 25.8528 56.311C24.915 54.0458 22.626 49.0074 14.2988 49.0074" stroke="#676767" stroke-linecap="round" stroke-linejoin="round"/>
<path d="M19.8496 77.1767V78.9684C19.8496 79.6 19.1642 80.112 18.3187 80.112H10.1539C9.30845 80.112 8.62305 79.6 8.62305 78.9684V77.8248V77.0502" stroke="#676767" stroke-linecap="round" stroke-linejoin="round"/>
<path d="M19.8496 79.2178V81.0096C19.8496 81.6412 19.1642 82.1532 18.3187 82.1532H10.1539C9.30845 82.1532 8.62305 81.6412 8.62305 81.0096V79.866V79.0914" stroke="#676767" stroke-linecap="round" stroke-linejoin="round"/>
<path d="M19.8496 81.259V83.0508C19.8496 83.6824 19.1642 84.1944 18.3187 84.1944H10.1539C9.30845 84.1944 8.62305 83.6824 8.62305 83.0508V81.9072V81.1326" stroke="#676767" stroke-linecap="round" stroke-linejoin="round"/>
<path d="M10.2407 84.2107C10.8755 85.9117 12.2136 86.7622 14.2549 86.7622C16.2962 86.7622 17.6798 85.9117 18.4055 84.2107" stroke="#676767" stroke-linecap="round" stroke-linejoin="round"/>
<path d="M35.8493 31.0873C32.9779 31.0577 31.2101 30.7829 30.5458 30.263C29.9546 29.8003 29.7784 29.0088 29.563 28.0015" stroke="#676767" stroke-linecap="round" stroke-linejoin="round"/>
<path d="M29.5629 28.0015C29.2427 26.7716 28.9369 25.791 28.6457 25.0598C28.2088 23.963 25.1225 20.2341 24.2952 17.6569C24.0996 17.0476 23.9448 16.4193 23.8315 15.7857" stroke="#676767" stroke-linecap="round" stroke-linejoin="round"/>
<path d="M23.8318 15.7953C23.692 15.0104 23.6191 13.9752 23.6133 12.6898C23.6639 11.4519 23.8891 10.2852 24.2955 9.30358C25.2332 7.03837 27.5222 2 35.8494 2" stroke="#676767" stroke-linecap="round" stroke-linejoin="round"/>
<path d="M35.9121 31.0948C38.7835 31.0652 40.5513 30.7904 41.2156 30.2705C41.8068 29.8077 41.983 29.0163 42.1984 28.009" stroke="#676767" stroke-linecap="round" stroke-linejoin="round"/>
<path d="M42.1982 28.009C42.5184 26.779 42.8242 25.7985 43.1154 25.0673C43.5523 23.9705 46.6387 20.2415 47.4659 17.6644C47.6615 17.0551 47.8163 16.4267 47.9296 15.7932" stroke="#676767" stroke-linecap="round" stroke-linejoin="round"/>
<path d="M47.9298 15.8027C48.0696 15.0178 48.1424 13.9827 48.1483 12.6973C48.0977 11.4593 47.8725 10.2926 47.4661 9.31103C46.5283 7.04582 44.2393 2.00745 35.9121 2.00745" stroke="#676767" stroke-linecap="round" stroke-linejoin="round"/>
<path d="M41.4624 30.1766V31.9684C41.4624 32.6 40.777 33.112 39.9315 33.112H31.7667C30.9212 33.112 30.2358 32.6 30.2358 31.9684V30.8248V30.0502" stroke="#676767" stroke-linecap="round" stroke-linejoin="round"/>
<path d="M41.4624 32.2178V34.0096C41.4624 34.6412 40.777 35.1532 39.9315 35.1532H31.7667C30.9212 35.1532 30.2358 34.6412 30.2358 34.0096V32.866V32.0914" stroke="#676767" stroke-linecap="round" stroke-linejoin="round"/>
<path d="M41.4624 34.259V36.0508C41.4624 36.6824 40.777 37.1944 39.9315 37.1944H31.7667C30.9212 37.1944 30.2358 36.6824 30.2358 36.0508V34.9072V34.1326" stroke="#676767" stroke-linecap="round" stroke-linejoin="round"/>
<path d="M31.854 37.2107C32.4888 38.9117 33.8269 39.7622 35.8682 39.7622C37.9095 39.7622 39.293 38.9117 40.0188 37.2107" stroke="#676767" stroke-linecap="round" stroke-linejoin="round"/>
<path d="M58.236 77.0873C55.3646 77.0577 53.5968 76.7829 52.9325 76.263C52.3413 75.8003 52.1651 75.0088 51.9497 74.0015" stroke="#676767" stroke-linecap="round" stroke-linejoin="round"/>
<path d="M51.9501 74.0015C51.6299 72.7716 51.3242 71.791 51.0329 71.0598C50.596 69.9631 47.5097 66.2341 46.6824 63.6569C46.4868 63.0477 46.332 62.4193 46.2188 61.7857" stroke="#676767" stroke-linecap="round" stroke-linejoin="round"/>
<path d="M46.2185 61.7953C46.0787 61.0104 46.0058 59.9752 46 58.6898C46.0506 57.4519 46.2758 56.2852 46.6822 55.3036C47.62 53.0384 49.909 48 58.2362 48" stroke="#676767" stroke-linecap="round" stroke-linejoin="round"/>
<path d="M58.2988 77.0948C61.1702 77.0652 62.9381 76.7904 63.6023 76.2705C64.1935 75.8077 64.3698 75.0163 64.5851 74.009" stroke="#676767" stroke-linecap="round" stroke-linejoin="round"/>
<path d="M64.585 74.0089C64.9052 72.779 65.2109 71.7985 65.5021 71.0673C65.939 69.9705 69.0254 66.2415 69.8526 63.6644C70.0482 63.0551 70.203 62.4267 70.3163 61.7932" stroke="#676767" stroke-linecap="round" stroke-linejoin="round"/>
<path d="M70.3165 61.8027C70.4563 61.0178 70.5292 59.9827 70.535 58.6973C70.4844 57.4593 70.2592 56.2926 69.8528 55.311C68.915 53.0458 66.626 48.0074 58.2988 48.0074" stroke="#676767" stroke-linecap="round" stroke-linejoin="round"/>
<path d="M63.8496 76.1767V77.9684C63.8496 78.6 63.1642 79.112 62.3187 79.112H54.1539C53.3085 79.112 52.623 78.6 52.623 77.9684V76.8248V76.0502" stroke="#676767" stroke-linecap="round" stroke-linejoin="round"/>
<path d="M63.8496 78.2178V80.0096C63.8496 80.6412 63.1642 81.1532 62.3187 81.1532H54.1539C53.3085 81.1532 52.623 80.6412 52.623 80.0096V78.866V78.0914" stroke="#676767" stroke-linecap="round" stroke-linejoin="round"/>
<path d="M63.8496 80.259V82.0508C63.8496 82.6824 63.1642 83.1944 62.3187 83.1944H54.1539C53.3085 83.1944 52.623 82.6824 52.623 82.0508V80.9072V80.1326" stroke="#676767" stroke-linecap="round" stroke-linejoin="round"/>
<path d="M54.2407 83.2107C54.8755 84.9117 56.2136 85.7622 58.2549 85.7622C60.2962 85.7622 61.6798 84.9117 62.4055 83.2107" stroke="#676767" stroke-linecap="round" stroke-linejoin="round"/>
<path d="M36 48.0074V39.7622" stroke="#676767" stroke-linecap="round" stroke-linejoin="round"/>
<path d="M39.0181 51.8178L46.9823 53.9518" stroke="#676767" stroke-linecap="round" stroke-linejoin="round"/>
<path d="M32.9823 51.8178L25.0181 53.9518" stroke="#676767" stroke-linecap="round" stroke-linejoin="round"/>
<path d="M68.25 70C68.25 68.7574 67.2426 67.75 66 67.75C64.7574 67.75 63.75 68.7574 63.75 70C63.75 71.2426 64.7574 72.25 66 72.25C67.2426 72.25 68.25 71.2426 68.25 70Z" fill="white" stroke="#1B1B1B" stroke-width="1.5"/>
<path d="M69 70C69 68.3431 67.6569 67 66 67C64.3431 67 63 68.3431 63 70C63 71.6569 64.3431 73 66 73C67.6569 73 69 71.6569 69 70Z" stroke="#1B1B1B"/>
<path d="M45.25 4C45.25 2.75736 44.2426 1.75 43 1.75C41.7574 1.75 40.75 2.75736 40.75 4C40.75 5.24264 41.7574 6.25 43 6.25C44.2426 6.25 45.25 5.24264 45.25 4Z" fill="white" stroke="#1B1B1B" stroke-width="1.5"/>
<path d="M46 4C46 2.34315 44.6569 1 43 1C41.3431 1 40 2.34315 40 4C40 5.65685 41.3431 7 43 7C44.6569 7 46 5.65685 46 4Z" stroke="#1B1B1B"/>
<path d="M38.25 51C38.25 49.7574 37.2426 48.75 36 48.75C34.7574 48.75 33.75 49.7574 33.75 51C33.75 52.2426 34.7574 53.25 36 53.25C37.2426 53.25 38.25 52.2426 38.25 51Z" fill="white" stroke="#1B1B1B" stroke-width="1.5"/>
<path d="M39 51C39 49.3431 37.6569 48 36 48C34.3431 48 33 49.3431 33 51C33 52.6569 34.3431 54 36 54C37.6569 54 39 52.6569 39 51Z" stroke="#1B1B1B"/>
<path d="M6.25 53C6.25 51.7574 5.24264 50.75 4 50.75C2.75736 50.75 1.75 51.7574 1.75 53C1.75 54.2426 2.75736 55.25 4 55.25C5.24264 55.25 6.25 54.2426 6.25 53Z" fill="white" stroke="#1B1B1B" stroke-width="1.5"/>
<path d="M7 53C7 51.3431 5.65685 50 4 50C2.34315 50 1 51.3431 1 53C1 54.6569 2.34315 56 4 56C5.65685 56 7 54.6569 7 53Z" stroke="#1B1B1B"/>
</g>
<defs>
<clipPath id="clip0_838_3895">
<rect width="72" height="88" fill="white"/>
</clipPath>
</defs>
</svg>
