<svg width="77" height="65" viewBox="0 0 77 65" fill="none" xmlns="http://www.w3.org/2000/svg">
<path d="M61.4678 23.8555H7.46777C5.81092 23.8555 4.46777 25.1987 4.46777 26.8555V58.8555C4.46777 60.5124 5.81092 61.8555 7.46777 61.8555H61.4678C63.1246 61.8555 64.4678 60.5124 64.4678 58.8555V26.8555C64.4678 25.1987 63.1246 23.8555 61.4678 23.8555Z" stroke="#676767" stroke-linecap="round" stroke-linejoin="round"/>
<path d="M9.8346 23.8455L8.61923 19.3097C8.19041 17.7093 9.14015 16.0643 10.7406 15.6355L62.9005 1.65924C64.5009 1.23041 66.146 2.18016 66.5748 3.78056L74.857 34.6902C75.2858 36.2906 74.3361 37.9356 72.7357 38.3644L64.6522 40.5304" stroke="#676767" stroke-linecap="round" stroke-linejoin="round"/>
<path d="M48.4678 56.8555C51.2292 56.8555 53.4678 54.617 53.4678 51.8555C53.4678 49.0941 51.2292 46.8555 48.4678 46.8555C45.7063 46.8555 43.4678 49.0941 43.4678 51.8555C43.4678 54.617 45.7063 56.8555 48.4678 56.8555Z" stroke="#676767" stroke-linecap="round" stroke-linejoin="round"/>
<path d="M54.4678 56.8555C57.2292 56.8555 59.4678 54.617 59.4678 51.8555C59.4678 49.0941 57.2292 46.8555 54.4678 46.8555C51.7063 46.8555 49.4678 49.0941 49.4678 51.8555C49.4678 54.617 51.7063 56.8555 54.4678 56.8555Z" stroke="#676767" stroke-linecap="round" stroke-linejoin="round"/>
<path d="M10.4473 50.339H34.4681" stroke="#676767" stroke-linecap="round" stroke-linejoin="round"/>
<path d="M10.4473 55.339H20.4681" stroke="#676767" stroke-linecap="round" stroke-linejoin="round"/>
<path d="M22.4678 29.8555H10.4678V37.8555H22.4678V29.8555Z" stroke="#676767" stroke-linecap="round" stroke-linejoin="round"/>
<path d="M13.4678 31.8555H10.4678V35.8555H13.4678V31.8555Z" stroke="#676767" stroke-linecap="round" stroke-linejoin="round"/>
<path d="M19.4678 32.8555H13.4678V34.8555H19.4678V32.8555Z" stroke="#676767" stroke-linecap="round" stroke-linejoin="round"/>
<path d="M22.4678 31.8555H19.4678V35.8555H22.4678V31.8555Z" stroke="#676767" stroke-linecap="round" stroke-linejoin="round"/>
<path d="M9.396 22.2075L67.3515 6.67838L68.9045 12.4739L26.6677 23.7912" stroke="#676767" stroke-linecap="round" stroke-linejoin="round"/>
<path d="M6.60742 51C6.60742 49.7574 5.60006 48.75 4.35742 48.75C3.11478 48.75 2.10742 49.7574 2.10742 51C2.10742 52.2426 3.11478 53.25 4.35742 53.25C5.60006 53.25 6.60742 52.2426 6.60742 51Z" fill="white" stroke="#1B1B1B" stroke-width="1.5"/>
<path d="M7.35742 51C7.35742 49.3431 6.01428 48 4.35742 48C2.70057 48 1.35742 49.3431 1.35742 51C1.35742 52.6569 2.70057 54 4.35742 54C6.01428 54 7.35742 52.6569 7.35742 51Z" stroke="#1B1B1B"/>
<path d="M66.5034 40.199C66.5034 38.9564 65.4961 37.949 64.2534 37.949C63.0108 37.949 62.0034 38.9564 62.0034 40.199C62.0034 41.4417 63.0108 42.449 64.2534 42.449C65.4961 42.449 66.5034 41.4417 66.5034 40.199Z" fill="white" stroke="#1B1B1B" stroke-width="1.5"/>
<path d="M67.2534 40.199C67.2534 38.5422 65.9103 37.199 64.2534 37.199C62.5966 37.199 61.2534 38.5422 61.2534 40.199C61.2534 41.8559 62.5966 43.199 64.2534 43.199C65.9103 43.199 67.2534 41.8559 67.2534 40.199Z" stroke="#1B1B1B"/>
<path d="M44.25 7C44.25 5.75736 43.2426 4.75 42 4.75C40.7574 4.75 39.75 5.75736 39.75 7C39.75 8.24264 40.7574 9.25 42 9.25C43.2426 9.25 44.25 8.24264 44.25 7Z" fill="white" stroke="#1B1B1B" stroke-width="1.5"/>
<path d="M45 7C45 5.34315 43.6569 4 42 4C40.3431 4 39 5.34315 39 7C39 8.65685 40.3431 10 42 10C43.6569 10 45 8.65685 45 7Z" stroke="#1B1B1B"/>
<path d="M70.4302 12.704C70.4302 11.4613 69.4228 10.454 68.1802 10.454C66.9375 10.454 65.9302 11.4613 65.9302 12.704C65.9302 13.9466 66.9375 14.954 68.1802 14.954C69.4228 14.954 70.4302 13.9466 70.4302 12.704Z" fill="white" stroke="#1B1B1B" stroke-width="1.5"/>
<path d="M71.1802 12.704C71.1802 11.0471 69.837 9.70398 68.1802 9.70398C66.5233 9.70398 65.1802 11.0471 65.1802 12.704C65.1802 14.3608 66.5233 15.704 68.1802 15.704C69.837 15.704 71.1802 14.3608 71.1802 12.704Z" stroke="#1B1B1B"/>
<path d="M29.25 61C29.25 59.7574 28.2426 58.75 27 58.75C25.7574 58.75 24.75 59.7574 24.75 61C24.75 62.2426 25.7574 63.25 27 63.25C28.2426 63.25 29.25 62.2426 29.25 61Z" fill="white" stroke="#1B1B1B" stroke-width="1.5"/>
<path d="M30 61C30 59.3431 28.6569 58 27 58C25.3431 58 24 59.3431 24 61C24 62.6569 25.3431 64 27 64C28.6569 64 30 62.6569 30 61Z" stroke="#1B1B1B"/>
</svg>
