<svg width="108" height="81" viewBox="0 0 108 81" fill="none" xmlns="http://www.w3.org/2000/svg">
<g clip-path="url(#clip0_838_3632)">
<path fill-rule="evenodd" clip-rule="evenodd" d="M22.3413 19.2602C20.7343 18.3324 18.6793 18.883 17.7515 20.4901C16.8237 22.0971 17.3743 24.1521 18.9813 25.0799C20.5884 26.0078 22.6433 25.4571 23.5712 23.8501C24.499 22.243 23.9484 20.1881 22.3413 19.2602Z" stroke="#676767" stroke-linecap="round" stroke-linejoin="round"/>
<path fill-rule="evenodd" clip-rule="evenodd" d="M15.6216 30.8996C14.0146 29.9718 11.9596 30.5224 11.0318 32.1295C10.1039 33.7365 10.6546 35.7915 12.2616 36.7193C13.8687 37.6472 15.9236 37.0965 16.8515 35.4895C17.7793 33.8824 17.2287 31.8275 15.6216 30.8996Z" stroke="#676767" stroke-linecap="round" stroke-linejoin="round"/>
<path fill-rule="evenodd" clip-rule="evenodd" d="M29.0616 7.62088C27.4545 6.69304 25.3996 7.24366 24.4717 8.85073C23.5439 10.4578 24.0945 12.5127 25.7016 13.4406C27.3086 14.3684 29.3636 13.8178 30.2914 12.2107C31.2192 10.6037 30.6686 8.54872 29.0616 7.62088Z" stroke="#676767" stroke-linecap="round" stroke-linejoin="round"/>
<path d="M25.0245 29.2618L17.2119 32.9331" stroke="#676767" stroke-linecap="round" stroke-linejoin="round"/>
<path d="M28.9781 22.3386L28.2529 13.7831" stroke="#676767" stroke-linecap="round" stroke-linejoin="round"/>
<path d="M10.5579 33.6064L2.31787 33.1118" stroke="#676767" stroke-linecap="round" stroke-linejoin="round"/>
<path d="M7.51367 24.0743L12.0804 30.9909" stroke="#676767" stroke-linecap="round" stroke-linejoin="round"/>
<path d="M9.02734 21.4718L17.2942 21.968" stroke="#676767" stroke-linecap="round" stroke-linejoin="round"/>
<path d="M14.2373 12.4406L18.7969 19.3464" stroke="#676767" stroke-linecap="round" stroke-linejoin="round"/>
<path d="M15.7407 9.83197L24.0178 10.3288" stroke="#676767" stroke-linecap="round" stroke-linejoin="round"/>
<path d="M20.9536 0.795044L25.5202 7.7115" stroke="#676767" stroke-linecap="round" stroke-linejoin="round"/>
<path d="M26.481 25.5301L23.5566 23.8417" stroke="#676767" stroke-linecap="round" stroke-linejoin="round"/>
<path fill-rule="evenodd" clip-rule="evenodd" d="M17.4555 55.5003C15.8484 56.4281 15.2978 58.4831 16.2256 60.0901C17.1535 61.6972 19.2084 62.2478 20.8155 61.32C22.4225 60.3921 22.9731 58.3372 22.0453 56.7301C21.1175 55.1231 19.0625 54.5724 17.4555 55.5003Z" stroke="#676767" stroke-linecap="round" stroke-linejoin="round"/>
<path fill-rule="evenodd" clip-rule="evenodd" d="M24.1752 67.1396C22.5681 68.0675 22.0175 70.1224 22.9453 71.7295C23.8732 73.3365 25.9281 73.8871 27.5352 72.9593C29.1423 72.0315 29.6929 69.9765 28.765 68.3695C27.8372 66.7624 25.7823 66.2118 24.1752 67.1396Z" stroke="#676767" stroke-linecap="round" stroke-linejoin="round"/>
<path fill-rule="evenodd" clip-rule="evenodd" d="M10.7352 43.8609C9.12819 44.7887 8.57756 46.8437 9.5054 48.4507C10.4332 50.0578 12.4882 50.6084 14.0952 49.6806C15.7023 48.7527 16.2529 46.6978 15.3251 45.0907C14.3973 43.4837 12.3423 42.933 10.7352 43.8609Z" stroke="#676767" stroke-linecap="round" stroke-linejoin="round"/>
<path d="M27.4212 58.6233L26.7319 66.7788" stroke="#676767" stroke-linecap="round" stroke-linejoin="round"/>
<path d="M23.8801 51.4987L15.668 47.6422" stroke="#676767" stroke-linecap="round" stroke-linejoin="round"/>
<path d="M23.9878 72.8783L19.4395 79.7671" stroke="#676767" stroke-linecap="round" stroke-linejoin="round"/>
<path d="M14.2104 70.7484L22.4837 70.2518" stroke="#676767" stroke-linecap="round" stroke-linejoin="round"/>
<path d="M12.7139 68.1363L17.277 61.225" stroke="#676767" stroke-linecap="round" stroke-linejoin="round"/>
<path d="M7.49756 59.1087L15.758 58.6129" stroke="#676767" stroke-linecap="round" stroke-linejoin="round"/>
<path d="M5.98975 56.5026L10.5585 49.5829" stroke="#676767" stroke-linecap="round" stroke-linejoin="round"/>
<path d="M0.77002 47.4697L9.04316 46.9731" stroke="#676767" stroke-linecap="round" stroke-linejoin="round"/>
<path d="M24.9551 55.0501L22.0308 56.7385" stroke="#676767" stroke-linecap="round" stroke-linejoin="round"/>
<path fill-rule="evenodd" clip-rule="evenodd" d="M85.1185 19.2817C86.7256 18.3539 88.7806 18.9045 89.7084 20.5116C90.6362 22.1186 90.0856 24.1736 88.4785 25.1014C86.8715 26.0292 84.8165 25.4786 83.8887 23.8716C82.9609 22.2645 83.5115 20.2095 85.1185 19.2817Z" stroke="#676767" stroke-linecap="round" stroke-linejoin="round"/>
<path fill-rule="evenodd" clip-rule="evenodd" d="M91.8383 30.9211C93.4453 29.9933 95.5003 30.5439 96.4281 32.151C97.356 33.758 96.8053 35.813 95.1983 36.7408C93.5912 37.6686 91.5363 37.118 90.6084 35.511C89.6806 33.9039 90.2312 31.849 91.8383 30.9211Z" stroke="#676767" stroke-linecap="round" stroke-linejoin="round"/>
<path fill-rule="evenodd" clip-rule="evenodd" d="M78.3983 7.64237C80.0054 6.71453 82.0603 7.26515 82.9882 8.87221C83.916 10.4793 83.3654 12.5342 81.7583 13.4621C80.1513 14.3899 78.0963 13.8393 77.1685 12.2322C76.2407 10.6251 76.7913 8.5702 78.3983 7.64237Z" stroke="#676767" stroke-linecap="round" stroke-linejoin="round"/>
<path d="M82.4351 29.2833L90.2477 32.9546" stroke="#676767" stroke-linecap="round" stroke-linejoin="round"/>
<path d="M78.4819 22.36L79.2071 13.8046" stroke="#676767" stroke-linecap="round" stroke-linejoin="round"/>
<path d="M96.9019 33.6279L105.142 33.1333" stroke="#676767" stroke-linecap="round" stroke-linejoin="round"/>
<path d="M99.9461 24.0958L95.3794 31.0124" stroke="#676767" stroke-linecap="round" stroke-linejoin="round"/>
<path d="M98.4324 21.4933L90.1655 21.9895" stroke="#676767" stroke-linecap="round" stroke-linejoin="round"/>
<path d="M93.2222 12.4621L88.6626 19.3679" stroke="#676767" stroke-linecap="round" stroke-linejoin="round"/>
<path d="M91.7195 9.85345L83.4424 10.3503" stroke="#676767" stroke-linecap="round" stroke-linejoin="round"/>
<path d="M86.5066 0.816528L81.9399 7.73299" stroke="#676767" stroke-linecap="round" stroke-linejoin="round"/>
<path d="M80.9785 25.5516L83.9029 23.8632" stroke="#676767" stroke-linecap="round" stroke-linejoin="round"/>
<path fill-rule="evenodd" clip-rule="evenodd" d="M90.0044 55.5218C91.6115 56.4496 92.1621 58.5045 91.2343 60.1116C90.3064 61.7187 88.2515 62.2693 86.6444 61.3415C85.0374 60.4136 84.4867 58.3587 85.4146 56.7516C86.3424 55.1445 88.3974 54.5939 90.0044 55.5218Z" stroke="#676767" stroke-linecap="round" stroke-linejoin="round"/>
<path fill-rule="evenodd" clip-rule="evenodd" d="M83.2847 67.1611C84.8918 68.0889 85.4424 70.1439 84.5145 71.7509C83.5867 73.358 81.5318 73.9086 79.9247 72.9808C78.3176 72.053 77.767 69.998 78.6949 68.3909C79.6227 66.7839 81.6776 66.2333 83.2847 67.1611Z" stroke="#676767" stroke-linecap="round" stroke-linejoin="round"/>
<path fill-rule="evenodd" clip-rule="evenodd" d="M96.7246 43.8824C98.3317 44.8102 98.8823 46.8651 97.9545 48.4722C97.0267 50.0793 94.9717 50.6299 93.3646 49.702C91.7576 48.7742 91.207 46.7193 92.1348 45.1122C93.0626 43.5051 95.1176 42.9545 96.7246 43.8824Z" stroke="#676767" stroke-linecap="round" stroke-linejoin="round"/>
<path d="M80.0391 58.6447L80.7283 66.8003" stroke="#676767" stroke-linecap="round" stroke-linejoin="round"/>
<path d="M83.5801 51.5202L91.7922 47.6637" stroke="#676767" stroke-linecap="round" stroke-linejoin="round"/>
<path d="M83.4722 72.8997L88.0205 79.7885" stroke="#676767" stroke-linecap="round" stroke-linejoin="round"/>
<path d="M93.2494 70.7699L84.9761 70.2733" stroke="#676767" stroke-linecap="round" stroke-linejoin="round"/>
<path d="M94.7463 68.1577L90.1831 61.2465" stroke="#676767" stroke-linecap="round" stroke-linejoin="round"/>
<path d="M99.9626 59.1301L91.7021 58.6343" stroke="#676767" stroke-linecap="round" stroke-linejoin="round"/>
<path d="M101.47 56.5241L96.9014 49.6044" stroke="#676767" stroke-linecap="round" stroke-linejoin="round"/>
<path d="M106.69 47.4912L98.4165 46.9946" stroke="#676767" stroke-linecap="round" stroke-linejoin="round"/>
<path d="M82.5049 55.0716L85.4292 56.76" stroke="#676767" stroke-linecap="round" stroke-linejoin="round"/>
<path d="M38.0742 62.8884C42.4503 66.1089 47.856 68.0117 53.706 68.0117C68.2864 68.0117 80.106 56.192 80.106 41.6117C80.106 27.0314 68.2864 15.2117 53.706 15.2117C48.43 15.2117 43.5155 16.7594 39.3917 19.4256" stroke="#676767" stroke-linecap="round" stroke-linejoin="round"/>
<path d="M53.706 62.0117C64.9727 62.0117 74.106 52.8783 74.106 41.6117C74.106 30.3451 64.9727 21.2117 53.706 21.2117C49.7301 21.2117 46.0198 22.3492 42.8828 24.3164" stroke="#676767" stroke-linecap="round" stroke-linejoin="round"/>
<path d="M53.7063 72.8117C70.9376 72.8117 84.9063 58.843 84.9063 41.6117C84.9063 24.3805 70.9376 10.4117 53.7063 10.4117C36.4751 10.4117 22.5063 24.3805 22.5063 41.6117C22.5063 58.843 36.4751 72.8117 53.7063 72.8117Z" stroke="#676767" stroke-linecap="round" stroke-linejoin="round"/>
<path d="M39.8545 50.9911L45.2132 41.7609L50.6365 48.5492L58.0199 35.4984L62.3697 42.3609L68.4514 32.741" stroke="#676767" stroke-linecap="round" stroke-linejoin="round"/>
<path d="M42.3064 57.2118C43.3005 57.2118 44.1063 56.4059 44.1063 55.4118C44.1063 54.4176 43.3005 53.6118 42.3064 53.6118C41.3122 53.6118 40.5063 54.4176 40.5063 55.4118C40.5063 56.4059 41.3122 57.2118 42.3064 57.2118Z" stroke="#676767" stroke-linecap="round" stroke-linejoin="round"/>
<path d="M47.1062 34.4117C48.1003 34.4117 48.9062 33.6058 48.9062 32.6117C48.9062 31.6176 48.1003 30.8117 47.1062 30.8117C46.112 30.8117 45.3062 31.6176 45.3062 32.6117C45.3062 33.6058 46.112 34.4117 47.1062 34.4117Z" stroke="#676767" stroke-linecap="round" stroke-linejoin="round"/>
<path d="M62.7062 48.8117C63.7004 48.8117 64.5062 48.0058 64.5062 47.0117C64.5062 46.0176 63.7004 45.2117 62.7062 45.2117C61.7121 45.2117 60.9062 46.0176 60.9062 47.0117C60.9062 48.0058 61.7121 48.8117 62.7062 48.8117Z" stroke="#676767" stroke-linecap="round" stroke-linejoin="round"/>
<path d="M40.25 20C40.25 18.7574 39.2426 17.75 38 17.75C36.7574 17.75 35.75 18.7574 35.75 20C35.75 21.2426 36.7574 22.25 38 22.25C39.2426 22.25 40.25 21.2426 40.25 20Z" fill="white" stroke="#1B1B1B" stroke-width="1.5"/>
<path d="M41 20C41 18.3431 39.6569 17 38 17C36.3431 17 35 18.3431 35 20C35 21.6569 36.3431 23 38 23C39.6569 23 41 21.6569 41 20Z" stroke="#1B1B1B"/>
<path d="M45.25 25C45.25 23.7574 44.2426 22.75 43 22.75C41.7574 22.75 40.75 23.7574 40.75 25C40.75 26.2426 41.7574 27.25 43 27.25C44.2426 27.25 45.25 26.2426 45.25 25Z" fill="white" stroke="#1B1B1B" stroke-width="1.5"/>
<path d="M46 25C46 23.3431 44.6569 22 43 22C41.3431 22 40 23.3431 40 25C40 26.6569 41.3431 28 43 28C44.6569 28 46 26.6569 46 25Z" stroke="#1B1B1B"/>
<path d="M56.2217 61.9407C56.2217 60.698 55.2143 59.6907 53.9717 59.6907C52.729 59.6907 51.7217 60.698 51.7217 61.9407C51.7217 63.1833 52.729 64.1907 53.9717 64.1907C55.2143 64.1907 56.2217 63.1833 56.2217 61.9407Z" fill="white" stroke="#1B1B1B" stroke-width="1.5"/>
<path d="M56.9717 61.9407C56.9717 60.2838 55.6285 58.9407 53.9717 58.9407C52.3148 58.9407 50.9717 60.2838 50.9717 61.9407C50.9717 63.5975 52.3148 64.9407 53.9717 64.9407C55.6285 64.9407 56.9717 63.5975 56.9717 61.9407Z" stroke="#1B1B1B"/>
<path d="M40.25 62C40.25 60.7574 39.2426 59.75 38 59.75C36.7574 59.75 35.75 60.7574 35.75 62C35.75 63.2426 36.7574 64.25 38 64.25C39.2426 64.25 40.25 63.2426 40.25 62Z" fill="white" stroke="#1B1B1B" stroke-width="1.5"/>
<path d="M41 62C41 60.3431 39.6569 59 38 59C36.3431 59 35 60.3431 35 62C35 63.6569 36.3431 65 38 65C39.6569 65 41 63.6569 41 62Z" stroke="#1B1B1B"/>
</g>
<defs>
<clipPath id="clip0_838_3632">
<rect width="108" height="81" fill="white"/>
</clipPath>
</defs>
</svg>
