<svg width="103" height="93" viewBox="0 0 103 93" fill="none" xmlns="http://www.w3.org/2000/svg">
<path d="M57.6984 67.3704C54.7342 69.3773 52.4416 70.3808 50.8206 70.3808C49.1997 70.3808 46.8097 69.3773 43.6509 67.3704" stroke="#676767" stroke-linecap="round" stroke-linejoin="round"/>
<path d="M43.6509 67.3693C44.6 67.5868 45.6658 67.5868 46.8481 67.3693C48.0304 67.1518 49.3311 67.1548 50.7501 67.3783" stroke="#676767" stroke-linecap="round" stroke-linejoin="round"/>
<path d="M57.6983 67.3693C56.7491 67.5868 55.6834 67.5868 54.501 67.3693C53.3187 67.1518 52.0683 67.1548 50.75 67.3783" stroke="#676767" stroke-linecap="round" stroke-linejoin="round"/>
<path d="M43.6509 67.3704C45.676 65.9667 46.6885 65.265 46.6885 65.265C46.6885 65.265 47.987 64.1625 50.0562 65.265C50.0562 65.265 50.5958 65.5099 51.1242 65.265" stroke="#676767" stroke-linecap="round" stroke-linejoin="round"/>
<path d="M57.6982 67.3704C55.6355 65.9667 54.6041 65.265 54.6041 65.265C54.6041 65.265 53.1932 64.1625 51.124 65.265" stroke="#676767" stroke-linecap="round" stroke-linejoin="round"/>
<path d="M72.5195 47.4128C73.5121 45.9133 75.1011 46.3358 76.2223 47.4128C77.6355 48.9174 76.8309 52.5574 76.4696 53.7186C76.1084 54.8797 74.9493 56.22 74.3635 57.0017C73.7777 57.7833 73.7777 60.1296 72.6675 60.4945C71.9274 60.7377 71.2391 60.669 70.6026 60.2883C69.3747 65.6353 67.0095 69.9179 63.507 73.136C58.2532 77.9631 57.0386 79.3484 50.8423 79.3484" stroke="#676767" stroke-linecap="round" stroke-linejoin="round"/>
<path d="M74.0204 35.9717C73.2327 30.7672 72.4784 25.7337 68.424 20.776C65.0691 16.6736 60.1172 13.7778 50.75 13.7778" stroke="#676767" stroke-linecap="round" stroke-linejoin="round"/>
<path d="M28.7904 46.8084C27.8585 46.0759 26.7076 46.5189 25.7771 47.4128C24.3638 48.9174 25.1685 52.5574 25.5297 53.7186C25.8909 54.8797 27.05 56.22 27.6358 57.0017C28.2217 57.7833 28.2217 60.1296 29.3319 60.4945C30.072 60.7377 30.7603 60.669 31.3968 60.2883C32.6246 65.6353 34.9898 69.9179 38.4923 73.136C43.7461 77.9631 44.554 79.3484 50.7503 79.3484" stroke="#676767" stroke-linecap="round" stroke-linejoin="round"/>
<path d="M27.7852 34.8591C28.5728 29.6546 29.5204 25.7337 33.5749 20.776C36.9298 16.6736 41.3828 13.7778 50.75 13.7778" stroke="#676767" stroke-linecap="round" stroke-linejoin="round"/>
<path d="M50.6556 53.5368C49.4688 53.5368 47.8539 55.2825 47.5202 55.5988C47.1864 55.915 44.8973 58.661 38.0232 56.3386C31.149 54.0162 27.9664 46.4376 27.4895 41.1147C27.1715 37.566 27.5159 34.817 28.5228 32.8675C30.5575 29.6052 37.9351 28.1055 50.6556 28.3685" stroke="#676767" stroke-linecap="round" stroke-linejoin="round"/>
<path d="M50.6553 53.5368C51.842 53.5368 53.7209 55.2825 54.0546 55.5988C54.3884 55.915 56.6775 58.661 63.5516 56.3386C70.4258 54.0162 73.6084 46.4376 74.0853 41.1147C74.4033 37.566 74.0588 34.817 73.052 32.8675C70.8413 29.6052 63.3757 28.1055 50.6553 28.3685" stroke="#676767" stroke-linecap="round" stroke-linejoin="round"/>
<path d="M35.7383 29.1735C38.6834 25.8502 43.6558 24.1886 50.6555 24.1886C57.6552 24.1886 62.4521 25.8502 65.0462 29.1735" stroke="#676767" stroke-linecap="round" stroke-linejoin="round"/>
<path fill-rule="evenodd" clip-rule="evenodd" d="M69.3847 39.5679L66.4626 39.4685C64.8059 39.4119 63.4922 38.0525 63.4922 36.3948C63.4922 34.8746 64.7246 33.6422 66.2448 33.6422C66.3152 33.6422 66.3855 33.6449 66.4556 33.6503L69.3453 33.8722C70.9139 33.9927 72.1252 35.3006 72.1252 36.8738C72.1252 38.3123 70.9979 39.4876 69.5786 39.5643L69.3847 39.5679Z" stroke="#676767" stroke-linecap="round" stroke-linejoin="round"/>
<path d="M50.9195 39.3266C52.6533 39.3266 54.0588 37.9211 54.0588 36.1873C54.0588 34.4535 52.6533 33.048 50.9195 33.048C49.1858 33.048 47.7803 34.4535 47.7803 36.1873C47.7803 37.9211 49.1858 39.3266 50.9195 39.3266Z" stroke="#676767" stroke-linecap="round" stroke-linejoin="round"/>
<path d="M50.9192 37.7569C51.7861 37.7569 52.4889 37.0542 52.4889 36.1873C52.4889 35.3204 51.7861 34.6177 50.9192 34.6177C50.0524 34.6177 49.3496 35.3204 49.3496 36.1873C49.3496 37.0542 50.0524 37.7569 50.9192 37.7569Z" stroke="#676767" stroke-linecap="round" stroke-linejoin="round"/>
<path d="M65.9463 39.3738C67.4634 39.3738 68.5779 38.0968 68.5779 36.5797C68.5779 35.0627 67.3481 33.6956 65.8311 33.6956" stroke="#676767" stroke-linecap="round" stroke-linejoin="round"/>
<path fill-rule="evenodd" clip-rule="evenodd" d="M32.4699 39.5679L35.3921 39.4685C37.0487 39.4119 38.3625 38.0525 38.3625 36.3948C38.3625 34.8746 37.1301 33.6422 35.6099 33.6422C35.5395 33.6422 35.4692 33.6449 35.3991 33.6503L32.5094 33.8722C30.9408 33.9927 29.7295 35.3006 29.7295 36.8738C29.7295 38.3123 30.8568 39.4876 32.2761 39.5643L32.4699 39.5679Z" stroke="#676767" stroke-linecap="round" stroke-linejoin="round"/>
<path d="M35.9084 39.3738C34.3914 39.3738 33.2769 38.0968 33.2769 36.5797C33.2769 35.0627 34.5067 33.6956 36.0237 33.6956" stroke="#676767" stroke-linecap="round" stroke-linejoin="round"/>
<path d="M27.5737 41.586C37.8737 41.2828 45.6557 41.1312 50.9196 41.1312C56.1836 41.1312 63.8839 41.2828 74.0206 41.586" stroke="#676767" stroke-linecap="round" stroke-linejoin="round"/>
<path d="M57.9827 41.3586C57.9827 43.9592 55.9854 46.3899 53.5216 46.3899H48.317C45.8532 46.3899 43.856 43.9592 43.856 41.3586" stroke="#676767" stroke-linecap="round" stroke-linejoin="round"/>
<path d="M28.1455 44.0355L44.8208 44.4825" stroke="#676767" stroke-linecap="round" stroke-linejoin="round"/>
<path d="M73.3104 44.0225L57.0376 44.4825" stroke="#676767" stroke-linecap="round" stroke-linejoin="round"/>
<path d="M54.4469 4.21005L51.098 0.861115L47.749 4.21005" stroke="#676767" stroke-linecap="round" stroke-linejoin="round"/>
<path d="M51.064 13.7778V0.947235" stroke="#676767" stroke-linecap="round" stroke-linejoin="round"/>
<path d="M47.749 88.6851L51.098 92.034L54.4469 88.6851" stroke="#676767" stroke-linecap="round" stroke-linejoin="round"/>
<path d="M77.677 62.8176L74.9604 66.6972L78.84 69.4137" stroke="#676767" stroke-linecap="round" stroke-linejoin="round"/>
<path d="M15.5766 52.8877L18.2932 49.0081L14.4136 46.2916" stroke="#676767" stroke-linecap="round" stroke-linejoin="round"/>
<path d="M51.064 79.5667V91.8805" stroke="#676767" stroke-linecap="round" stroke-linejoin="round"/>
<path d="M17.8033 49.1219C7.41218 51.099 0.861328 53.9877 0.861328 57.2052C0.861328 61.8847 14.5605 65.8488 33.9352 67.3445" stroke="#676767" stroke-linecap="round" stroke-linejoin="round"/>
<path d="M75.2788 66.6604C90.772 64.8232 101.267 61.2776 101.267 57.2052C101.267 53.271 91.2574 49.7723 76.6245 47.8867" stroke="#676767" stroke-linecap="round" stroke-linejoin="round"/>
<path d="M90.6323 49.9445C90.6323 48.8744 89.7649 48.007 88.6948 48.007C87.6248 48.007 86.7573 48.8744 86.7573 49.9445C86.7573 51.0145 87.6248 51.882 88.6948 51.882C89.7649 51.882 90.6323 51.0145 90.6323 49.9445Z" fill="white" stroke="#1B1B1B" stroke-width="1.5"/>
<path d="M91.278 49.9444C91.278 48.5177 90.1214 47.3611 88.6947 47.3611C87.2679 47.3611 86.1113 48.5177 86.1113 49.9444C86.1113 51.3712 87.2679 52.5278 88.6947 52.5278C90.1214 52.5278 91.278 51.3712 91.278 49.9444Z" stroke="#1B1B1B"/>
<path d="M52.7983 36.189C52.7983 35.119 51.9309 34.2515 50.8608 34.2515C49.7908 34.2515 48.9233 35.119 48.9233 36.189C48.9233 37.2591 49.7908 38.1265 50.8608 38.1265C51.9309 38.1265 52.7983 37.2591 52.7983 36.189Z" fill="white" stroke="#1B1B1B" stroke-width="1.5"/>
<path d="M53.444 36.189C53.444 34.7623 52.2874 33.6057 50.8607 33.6057C49.4339 33.6057 48.2773 34.7623 48.2773 36.189C48.2773 37.6157 49.4339 38.7723 50.8607 38.7723C52.2874 38.7723 53.444 37.6157 53.444 36.189Z" stroke="#1B1B1B"/>
<path d="M52.9209 13.7778C52.9209 12.7078 52.0535 11.8403 50.9834 11.8403C49.9133 11.8403 49.0459 12.7078 49.0459 13.7778C49.0459 14.8479 49.9133 15.7153 50.9834 15.7153C52.0535 15.7153 52.9209 14.8479 52.9209 13.7778Z" fill="white" stroke="#1B1B1B" stroke-width="1.5"/>
<path d="M53.5666 13.7778C53.5666 12.3511 52.41 11.1945 50.9832 11.1945C49.5565 11.1945 48.3999 12.3511 48.3999 13.7778C48.3999 15.2045 49.5565 16.3611 50.9832 16.3611C52.41 16.3611 53.5666 15.2045 53.5666 13.7778Z" stroke="#1B1B1B"/>
<path d="M52.9761 80.0693C52.9761 78.9992 52.1086 78.1318 51.0386 78.1318C49.9685 78.1318 49.1011 78.9992 49.1011 80.0693C49.1011 81.1393 49.9685 82.0068 51.0386 82.0068C52.1086 82.0068 52.9761 81.1393 52.9761 80.0693Z" fill="white" stroke="#1B1B1B" stroke-width="1.5"/>
<path d="M53.6217 80.0693C53.6217 78.6425 52.4651 77.4859 51.0384 77.4859C49.6117 77.4859 48.4551 78.6425 48.4551 80.0693C48.4551 81.496 49.6117 82.6526 51.0384 82.6526C52.4651 82.6526 53.6217 81.496 53.6217 80.0693Z" stroke="#1B1B1B"/>
<path d="M20.8823 65.4445C20.8823 64.3744 20.0149 63.507 18.9448 63.507C17.8748 63.507 17.0073 64.3744 17.0073 65.4445C17.0073 66.5145 17.8748 67.382 18.9448 67.382C20.0149 67.382 20.8823 66.5145 20.8823 65.4445Z" fill="white" stroke="#1B1B1B" stroke-width="1.5"/>
<path d="M21.528 65.4444C21.528 64.0177 20.3714 62.8611 18.9447 62.8611C17.5179 62.8611 16.3613 64.0177 16.3613 65.4444C16.3613 66.8712 17.5179 68.0278 18.9447 68.0278C20.3714 68.0278 21.528 66.8712 21.528 65.4444Z" stroke="#1B1B1B"/>
</svg>
