<svg width="107" height="72" viewBox="0 0 107 72" fill="none" xmlns="http://www.w3.org/2000/svg">
<g clip-path="url(#clip0_838_4559)">
<path fill-rule="evenodd" clip-rule="evenodd" d="M4 65.6306C4 63.6879 7.21567 46.507 7.21567 39.9325C7.21567 37.0588 9.03202 32.8784 10.7143 28.622C12.8809 23.1404 15.1095 17.6497 15.9415 15.8946C17.4195 12.7767 31.736 5.60748 33.9697 5.60748C35.7653 5.60748 36.6009 6.12618 37.0455 6.95101C37.5545 7.89515 36.9314 9.72478 35.475 10.6512C32.7464 12.387 25.8696 16.3002 24.8695 17.662C23.8693 19.0239 21.3412 23.7679 20.6415 26.6646C19.9419 29.5614 24.4908 42.8623 27.4106 43.513C30.3304 44.1636 39.2944 41.4855 42.5799 39.9325C45.8654 38.3794 51.8916 36.352 53.4746 39.9325C55.0575 43.513 40.7448 48.2388 39.4551 49.3886C38.1653 50.5384 28.5521 57.3519 27.4106 58.7972C26.2691 60.2426 24.2267 65.801 24.8695 67.5733C25.5122 69.3456 18.6443 71.2056 14.4089 71.2056C10.1735 71.2056 4 67.5733 4 65.6306Z" stroke="#676767" stroke-linecap="round" stroke-linejoin="round"/>
<path d="M9.86279 30.4019C9.93833 24.692 10.2275 21.2876 10.7303 20.1888C11.2332 19.09 12.9703 17.6586 15.9417 15.8947" stroke="#676767" stroke-linecap="round" stroke-linejoin="round"/>
<path d="M34.6446 11.1579C34.0818 13.4127 33.3212 14.7659 32.3627 15.2174C31.4042 15.6689 28.6352 16.937 24.0557 19.0216" stroke="#676767" stroke-linecap="round" stroke-linejoin="round"/>
<path d="M23.0876 20.9594C27.5924 19.6676 30.3197 19.0217 31.2697 19.0217C32.6946 19.0217 34.5005 21.5063 31.9253 23.1482C29.3501 24.7902 23.5588 26.5206 22.6066 27.1799C21.9717 27.6194 21.3962 27.9334 20.8799 28.1219" stroke="#676767" stroke-linecap="round" stroke-linejoin="round"/>
<path d="M21.1221 30.5097C23.3763 29.7086 25.1062 29.3081 26.3117 29.3081C27.0503 29.3081 28.5949 29.2254 28.5949 30.7371C28.5949 32.2488 26.9633 32.3283 25.7819 33.2289C25.4019 33.5186 24.3054 34.2004 22.4926 35.2743" stroke="#676767" stroke-linecap="round" stroke-linejoin="round"/>
<path d="M101.544 49.055C103.158 47.688 103.897 46.7069 103.761 46.1116C103.681 45.7617 101.775 43.4672 100.254 40.2834C97.8936 35.3421 95.4116 28.5454 94.0217 25.7687C91.7361 21.2029 89.7902 20.6791 87.8543 17.8793C85.9184 15.0795 82.3295 8.85163 79.5345 7.08557C76.7395 5.31952 64.4276 0.608342 63.0337 1.02609C61.6398 1.44384 60.7097 3.02492 63.2266 5.05525C65.7436 7.08557 75.1125 11.489 76.0321 12.5159C76.9518 13.5427 78.7932 19.5488 79.5345 21.2108" stroke="#676767" stroke-linecap="round" stroke-linejoin="round"/>
<path d="M63.0188 4.94319C59.6921 3.37099 57.6703 2.94146 56.9533 3.65461C55.8778 4.72433 56.0144 6.67375 59.1198 7.9674C62.2251 9.26106 69.0376 12.4833 70.9269 13.9261C72.1865 14.888 73.0954 16.5294 73.6535 18.8503C70.0268 16.7921 67.6799 15.4569 66.613 14.8446C65.8506 14.4071 63.1239 13.5743 60.2899 12.8043M62.9008 18.6246C64.1667 19.035 65.11 19.3926 65.3985 19.6646C66.4562 20.6615 72.6358 24.2239 73.1446 25.5222C73.6535 26.8205 72.3777 27.1172 71.3893 27.1172C70.4009 27.1172 67.3233 25.7464 65.3985 25.5222C64.8308 25.4561 63.7612 25.3635 62.4643 25.2658M60.3714 29.4609C62.5753 29.7479 64.6523 30.0916 65.3985 30.3074C66.3822 30.5919 67.6589 31.2119 69.2287 32.1674" stroke="#676767" stroke-linecap="round" stroke-linejoin="round"/>
<path d="M83.771 26.4861L85.2822 34.5986C81.137 32.9522 78.5281 31.8646 77.4556 31.3357C75.8467 30.5424 71.0978 28.7378 69.2289 32.1673C67.3601 35.5969 75.6421 37.6567 79.2888 39.8189C80.8191 40.7263 81.2917 43.518 83.771 45.4002C86.2504 47.2823 86.0604 46.7433 87.8632 48.6066" stroke="#676767" stroke-linecap="round" stroke-linejoin="round"/>
<path d="M87.8628 48.6067C88.8894 49.5692 88.8514 50.3512 90.5795 51.9877C92.429 53.7391 94.8737 53.7391 101.544 49.055" stroke="#676767" stroke-linecap="round" stroke-linejoin="round"/>
<path d="M49.1536 35.0955C56.7875 35.0955 62.9761 28.907 62.9761 21.273C62.9761 13.639 56.7875 7.4505 49.1536 7.4505C41.5196 7.4505 35.3311 13.639 35.3311 21.273C35.3311 28.907 41.5196 35.0955 49.1536 35.0955Z" stroke="#676767" stroke-linecap="round" stroke-linejoin="round"/>
<path d="M42.25 32C42.25 30.7574 41.2426 29.75 40 29.75C38.7574 29.75 37.75 30.7574 37.75 32C37.75 33.2426 38.7574 34.25 40 34.25C41.2426 34.25 42.25 33.2426 42.25 32Z" fill="white" stroke="#1B1B1B" stroke-width="1.5"/>
<path d="M43 32C43 30.3431 41.6569 29 40 29C38.3431 29 37 30.3431 37 32C37 33.6569 38.3431 35 40 35C41.6569 35 43 33.6569 43 32Z" stroke="#1B1B1B"/>
<path d="M105.25 46C105.25 44.7574 104.243 43.75 103 43.75C101.757 43.75 100.75 44.7574 100.75 46C100.75 47.2426 101.757 48.25 103 48.25C104.243 48.25 105.25 47.2426 105.25 46Z" fill="white" stroke="#1B1B1B" stroke-width="1.5"/>
<path d="M106 46C106 44.3431 104.657 43 103 43C101.343 43 100 44.3431 100 46C100 47.6569 101.343 49 103 49C104.657 49 106 47.6569 106 46Z" stroke="#1B1B1B"/>
<path d="M6.25 66C6.25 64.7574 5.24264 63.75 4 63.75C2.75736 63.75 1.75 64.7574 1.75 66C1.75 67.2426 2.75736 68.25 4 68.25C5.24264 68.25 6.25 67.2426 6.25 66Z" fill="white" stroke="#1B1B1B" stroke-width="1.5"/>
<path d="M7 66C7 64.3431 5.65685 63 4 63C2.34315 63 1 64.3431 1 66C1 67.6569 2.34315 69 4 69C5.65685 69 7 67.6569 7 66Z" stroke="#1B1B1B"/>
<path d="M52.25 8C52.25 6.75736 51.2426 5.75 50 5.75C48.7574 5.75 47.75 6.75736 47.75 8C47.75 9.24264 48.7574 10.25 50 10.25C51.2426 10.25 52.25 9.24264 52.25 8Z" fill="white" stroke="#1B1B1B" stroke-width="1.5"/>
<path d="M53 8C53 6.34315 51.6569 5 50 5C48.3431 5 47 6.34315 47 8C47 9.65685 48.3431 11 50 11C51.6569 11 53 9.65685 53 8Z" stroke="#1B1B1B"/>
</g>
<defs>
<clipPath id="clip0_838_4559">
<rect width="107" height="72" fill="white"/>
</clipPath>
</defs>
</svg>
