<svg width="62" height="91" viewBox="0 0 62 91" fill="none" xmlns="http://www.w3.org/2000/svg">
<g clip-path="url(#clip0_838_3372)">
<path d="M49.9983 84.0042C49.8728 81.456 49.8638 78.7516 50.324 76.7403C51.134 73.2007 51.5554 66.309 51.4668 64.1901C51.3783 62.0711 51.6766 56.9606 51.3795 55.4319C50.7054 51.9639 50.2952 49.3847 48.5304 49.0835C47.3539 48.8828 46.3916 49.1896 45.6436 50.0041" stroke="#676767" stroke-linecap="round" stroke-linejoin="round"/>
<path d="M50 16C53.3137 16 56 13.3137 56 10C56 6.68629 53.3137 4 50 4C46.6863 4 44 6.68629 44 10C44 13.3137 46.6863 16 50 16Z" stroke="#676767" stroke-linecap="round" stroke-linejoin="round"/>
<path d="M7 32C10.3137 32 13 29.3137 13 26C13 22.6863 10.3137 20 7 20C3.68629 20 1 22.6863 1 26C1 29.3137 3.68629 32 7 32Z" stroke="#676767" stroke-linecap="round" stroke-linejoin="round"/>
<path d="M55 38C58.3137 38 61 35.3137 61 32C61 28.6863 58.3137 26 55 26C51.6863 26 49 28.6863 49 32C49 35.3137 51.6863 38 55 38Z" stroke="#676767" stroke-linecap="round" stroke-linejoin="round"/>
<path d="M24 16C27.3137 16 30 13.3137 30 10C30 6.68629 27.3137 4 24 4C20.6863 4 18 6.68629 18 10C18 13.3137 20.6863 16 24 16Z" stroke="#676767" stroke-linecap="round" stroke-linejoin="round"/>
<path d="M45.6391 50.002C45.6391 50.002 44.8147 48.2452 43.0036 48.1307C41.7963 48.0543 40.7786 48.451 39.9505 49.3209C39.2695 48.4877 38.4364 48.0702 37.4512 48.0686C36.466 48.067 35.6095 48.5655 34.8818 49.564" stroke="#676767" stroke-linecap="round" stroke-linejoin="round"/>
<path d="M34.8814 49.564C33.6607 35.786 32.8445 28.3662 32.433 27.3046C31.8156 25.7122 29.591 25.7779 29.0441 27.6009C28.4972 29.424 28.1717 34.5026 28.0128 39.4483C27.8538 44.394 28.5577 51.9404 27.7361 54.2816C26.9145 56.6227 26.0144 58.2215 25.5806 59.1647" stroke="#676767" stroke-linecap="round" stroke-linejoin="round"/>
<path d="M26.5357 57.023C24.2501 52.3378 22.4696 49.5009 21.1942 48.5121C19.2811 47.0291 16.3582 46.6156 16.0239 48.0989C15.6896 49.5821 18.9713 54.8087 19.3164 56.584C19.6615 58.3592 21.3521 67.4864 23.7183 70.5781C26.0844 73.6699 30.1689 76.9593 30.6256 78.064C31.0823 79.1686 32.201 82.5492 31.5487 85.7934C30.8964 89.0375 39.0735 90.2546 42.1664 89.6534C44.2283 89.2526 48.9555 86.2285 49.4641 85.556C49.8031 85.1077 49.9812 84.5904 49.9984 84.0042" stroke="#676767" stroke-linecap="round" stroke-linejoin="round"/>
<path d="M33.0465 30.7631C34.5111 29.9786 35.5073 28.4337 35.5073 26.656C35.5073 24.0846 33.4228 22 30.8513 22C28.2799 22 26.1953 24.0846 26.1953 26.656C26.1953 28.378 27.1301 29.8816 28.5199 30.6871" stroke="#676767" stroke-linecap="round" stroke-linejoin="round"/>
<path fill-rule="evenodd" clip-rule="evenodd" d="M45.4679 13.7866L34.1245 23.2647L45.4679 13.7866Z" stroke="#676767" stroke-linecap="round" stroke-linejoin="round"/>
<path fill-rule="evenodd" clip-rule="evenodd" d="M49.1366 30.5432L35.4658 27.1465L49.1366 30.5432Z" stroke="#676767" stroke-linecap="round" stroke-linejoin="round"/>
<path fill-rule="evenodd" clip-rule="evenodd" d="M26.3887 15.6368L29.1378 22.1246L26.3887 15.6368Z" stroke="#676767" stroke-linecap="round" stroke-linejoin="round"/>
<path fill-rule="evenodd" clip-rule="evenodd" d="M12.9976 26H26.1483H12.9976Z" stroke="#676767" stroke-linecap="round" stroke-linejoin="round"/>
<path d="M57.25 38C57.25 36.7574 56.2426 35.75 55 35.75C53.7574 35.75 52.75 36.7574 52.75 38C52.75 39.2426 53.7574 40.25 55 40.25C56.2426 40.25 57.25 39.2426 57.25 38Z" fill="white" stroke="#1B1B1B" stroke-width="1.5"/>
<path d="M58 38C58 36.3431 56.6569 35 55 35C53.3431 35 52 36.3431 52 38C52 39.6569 53.3431 41 55 41C56.6569 41 58 39.6569 58 38Z" stroke="#1B1B1B"/>
<path d="M33.1982 26.6278C33.1982 25.3852 32.1909 24.3778 30.9482 24.3778C29.7056 24.3778 28.6982 25.3852 28.6982 26.6278C28.6982 27.8704 29.7056 28.8778 30.9482 28.8778C32.1909 28.8778 33.1982 27.8704 33.1982 26.6278Z" fill="white" stroke="#1B1B1B" stroke-width="1.5"/>
<path d="M33.9482 26.6278C33.9482 24.971 32.6051 23.6278 30.9482 23.6278C29.2914 23.6278 27.9482 24.971 27.9482 26.6278C27.9482 28.2847 29.2914 29.6278 30.9482 29.6278C32.6051 29.6278 33.9482 28.2847 33.9482 26.6278Z" stroke="#1B1B1B"/>
<path d="M53.25 4C53.25 2.75736 52.2426 1.75 51 1.75C49.7574 1.75 48.75 2.75736 48.75 4C48.75 5.24264 49.7574 6.25 51 6.25C52.2426 6.25 53.25 5.24264 53.25 4Z" fill="white" stroke="#1B1B1B" stroke-width="1.5"/>
<path d="M54 4C54 2.34315 52.6569 1 51 1C49.3431 1 48 2.34315 48 4C48 5.65685 49.3431 7 51 7C52.6569 7 54 5.65685 54 4Z" stroke="#1B1B1B"/>
<path d="M7.25 20C7.25 18.7574 6.24264 17.75 5 17.75C3.75736 17.75 2.75 18.7574 2.75 20C2.75 21.2426 3.75736 22.25 5 22.25C6.24264 22.25 7.25 21.2426 7.25 20Z" fill="white" stroke="#1B1B1B" stroke-width="1.5"/>
<path d="M8 20C8 18.3431 6.65685 17 5 17C3.34315 17 2 18.3431 2 20C2 21.6569 3.34315 23 5 23C6.65685 23 8 21.6569 8 20Z" stroke="#1B1B1B"/>
<path d="M28.25 5C28.25 3.75736 27.2426 2.75 26 2.75C24.7574 2.75 23.75 3.75736 23.75 5C23.75 6.24264 24.7574 7.25 26 7.25C27.2426 7.25 28.25 6.24264 28.25 5Z" fill="white" stroke="#1B1B1B" stroke-width="1.5"/>
<path d="M29 5C29 3.34315 27.6569 2 26 2C24.3431 2 23 3.34315 23 5C23 6.65685 24.3431 8 26 8C27.6569 8 29 6.65685 29 5Z" stroke="#1B1B1B"/>
</g>
<defs>
<clipPath id="clip0_838_3372">
<rect width="62" height="91" fill="white"/>
</clipPath>
</defs>
</svg>
