<svg width="72" height="76" viewBox="0 0 72 76" fill="none" xmlns="http://www.w3.org/2000/svg">
<g clip-path="url(#clip0_838_3404)">
<path fill-rule="evenodd" clip-rule="evenodd" d="M1 1H71.29V75.25H1V1Z" stroke="#676767" stroke-linecap="round" stroke-linejoin="round"/>
<path fill-rule="evenodd" clip-rule="evenodd" d="M6.93994 9.90997H21.7899V24.76H6.93994V9.90997Z" stroke="#676767" stroke-linecap="round" stroke-linejoin="round"/>
<path fill-rule="evenodd" clip-rule="evenodd" d="M18.8202 12.88V15.85H12.8802V21.79H9.91016V12.88H18.8202Z" stroke="#676767" stroke-linecap="round" stroke-linejoin="round"/>
<path fill-rule="evenodd" clip-rule="evenodd" d="M34.6599 12.88V21.79H31.6899V12.88H34.6599Z" stroke="#676767" stroke-linecap="round" stroke-linejoin="round"/>
<path fill-rule="evenodd" clip-rule="evenodd" d="M40.5999 14.86V19.81H37.6299V14.86H40.5999Z" stroke="#676767" stroke-linecap="round" stroke-linejoin="round"/>
<path fill-rule="evenodd" clip-rule="evenodd" d="M53.4702 12.88H62.3802V15.85H58.4202V17.83H53.4702V12.88Z" stroke="#676767" stroke-linecap="round" stroke-linejoin="round"/>
<path fill-rule="evenodd" clip-rule="evenodd" d="M62.3799 22.78H58.4199V19.81H62.3799V22.78Z" stroke="#676767" stroke-linecap="round" stroke-linejoin="round"/>
<path fill-rule="evenodd" clip-rule="evenodd" d="M28.7202 9.90997H43.5702V24.76H28.7202V9.90997Z" stroke="#676767" stroke-linecap="round" stroke-linejoin="round"/>
<path fill-rule="evenodd" clip-rule="evenodd" d="M50.5 9.90997H65.35V24.76H50.5V9.90997Z" stroke="#676767" stroke-linecap="round" stroke-linejoin="round"/>
<path fill-rule="evenodd" clip-rule="evenodd" d="M43.5702 46.54H28.7202V31.69H43.5702V46.54Z" stroke="#676767" stroke-linecap="round" stroke-linejoin="round"/>
<path fill-rule="evenodd" clip-rule="evenodd" d="M31.6899 43.57V40.6H37.6299V34.66H40.5999V43.57H31.6899Z" stroke="#676767" stroke-linecap="round" stroke-linejoin="round"/>
<path fill-rule="evenodd" clip-rule="evenodd" d="M59.4102 43.57V34.66H62.3802V43.57H59.4102Z" stroke="#676767" stroke-linecap="round" stroke-linejoin="round"/>
<path fill-rule="evenodd" clip-rule="evenodd" d="M53.4702 41.59V36.64H56.4402V41.59H53.4702Z" stroke="#676767" stroke-linecap="round" stroke-linejoin="round"/>
<path fill-rule="evenodd" clip-rule="evenodd" d="M18.8202 43.57H9.91016V40.6H13.8702V38.62H18.8202V43.57Z" stroke="#676767" stroke-linecap="round" stroke-linejoin="round"/>
<path fill-rule="evenodd" clip-rule="evenodd" d="M9.91016 33.67H13.8702V36.64H9.91016V33.67Z" stroke="#676767" stroke-linecap="round" stroke-linejoin="round"/>
<path fill-rule="evenodd" clip-rule="evenodd" d="M65.35 46.54H50.5V31.69H65.35V46.54Z" stroke="#676767" stroke-linecap="round" stroke-linejoin="round"/>
<path fill-rule="evenodd" clip-rule="evenodd" d="M21.7899 46.54H6.93994V31.69H21.7899V46.54Z" stroke="#676767" stroke-linecap="round" stroke-linejoin="round"/>
<path fill-rule="evenodd" clip-rule="evenodd" d="M6.93994 66.34V51.49H21.7899V66.34H6.93994Z" stroke="#676767" stroke-linecap="round" stroke-linejoin="round"/>
<path fill-rule="evenodd" clip-rule="evenodd" d="M9.91016 54.46H12.8802V60.4H18.8202V63.37H9.91016V54.46Z" stroke="#676767" stroke-linecap="round" stroke-linejoin="round"/>
<path fill-rule="evenodd" clip-rule="evenodd" d="M40.5999 57.43H31.6899V54.46H40.5999V57.43Z" stroke="#676767" stroke-linecap="round" stroke-linejoin="round"/>
<path fill-rule="evenodd" clip-rule="evenodd" d="M38.6199 63.37H33.6699V60.4H38.6199V63.37Z" stroke="#676767" stroke-linecap="round" stroke-linejoin="round"/>
<path fill-rule="evenodd" clip-rule="evenodd" d="M53.4702 63.37V54.46H56.4402V58.42H58.4202V63.37H53.4702Z" stroke="#676767" stroke-linecap="round" stroke-linejoin="round"/>
<path fill-rule="evenodd" clip-rule="evenodd" d="M63.3699 54.46V58.42H60.3999V54.46H63.3699Z" stroke="#676767" stroke-linecap="round" stroke-linejoin="round"/>
<path fill-rule="evenodd" clip-rule="evenodd" d="M43.5702 51.49V66.34H28.7202V51.49H43.5702Z" stroke="#676767" stroke-linecap="round" stroke-linejoin="round"/>
<path fill-rule="evenodd" clip-rule="evenodd" d="M50.5 66.34V51.49H65.35V66.34H50.5Z" stroke="#676767" stroke-linecap="round" stroke-linejoin="round"/>
<path d="M35.25 36C35.25 34.7574 34.2426 33.75 33 33.75C31.7574 33.75 30.75 34.7574 30.75 36C30.75 37.2426 31.7574 38.25 33 38.25C34.2426 38.25 35.25 37.2426 35.25 36Z" fill="white" stroke="#1B1B1B" stroke-width="1.5"/>
<path d="M36 36C36 34.3431 34.6569 33 33 33C31.3431 33 30 34.3431 30 36C30 37.6569 31.3431 39 33 39C34.6569 39 36 37.6569 36 36Z" stroke="#1B1B1B"/>
<path d="M19.25 56C19.25 54.7574 18.2426 53.75 17 53.75C15.7574 53.75 14.75 54.7574 14.75 56C14.75 57.2426 15.7574 58.25 17 58.25C18.2426 58.25 19.25 57.2426 19.25 56Z" fill="white" stroke="#1B1B1B" stroke-width="1.5"/>
<path d="M20 56C20 54.3431 18.6569 53 17 53C15.3431 53 14 54.3431 14 56C14 57.6569 15.3431 59 17 59C18.6569 59 20 57.6569 20 56Z" stroke="#1B1B1B"/>
<path d="M38.25 62C38.25 60.7574 37.2426 59.75 36 59.75C34.7574 59.75 33.75 60.7574 33.75 62C33.75 63.2426 34.7574 64.25 36 64.25C37.2426 64.25 38.25 63.2426 38.25 62Z" fill="white" stroke="#1B1B1B" stroke-width="1.5"/>
<path d="M39 62C39 60.3431 37.6569 59 36 59C34.3431 59 33 60.3431 33 62C33 63.6569 34.3431 65 36 65C37.6569 65 39 63.6569 39 62Z" stroke="#1B1B1B"/>
<path d="M19.25 20C19.25 18.7574 18.2426 17.75 17 17.75C15.7574 17.75 14.75 18.7574 14.75 20C14.75 21.2426 15.7574 22.25 17 22.25C18.2426 22.25 19.25 21.2426 19.25 20Z" fill="white" stroke="#1B1B1B" stroke-width="1.5"/>
<path d="M20 20C20 18.3431 18.6569 17 17 17C15.3431 17 14 18.3431 14 20C14 21.6569 15.3431 23 17 23C18.6569 23 20 21.6569 20 20Z" stroke="#1B1B1B"/>
<path d="M57.25 39C57.25 37.7574 56.2426 36.75 55 36.75C53.7574 36.75 52.75 37.7574 52.75 39C52.75 40.2426 53.7574 41.25 55 41.25C56.2426 41.25 57.25 40.2426 57.25 39Z" fill="white" stroke="#1B1B1B" stroke-width="1.5"/>
<path d="M58 39C58 37.3431 56.6569 36 55 36C53.3431 36 52 37.3431 52 39C52 40.6569 53.3431 42 55 42C56.6569 42 58 40.6569 58 39Z" stroke="#1B1B1B"/>
</g>
<defs>
<clipPath id="clip0_838_3404">
<rect width="72" height="76" fill="white"/>
</clipPath>
</defs>
</svg>
