<svg width="69" height="83" viewBox="0 0 69 83" fill="none" xmlns="http://www.w3.org/2000/svg">
<g clip-path="url(#clip0_838_3448)">
<path fill-rule="evenodd" clip-rule="evenodd" d="M2.40122 46.1933C7.11366 51.0281 15.7917 62.4459 20.0153 69.6952C24.2389 76.9446 30.7155 82.4 41.3931 82.4C52.0707 82.4 59.372 77.1242 61.0606 69.6952C62.7492 62.2663 64.4908 41.5983 67.7768 27.1854C69.0481 21.6097 66.2492 20.7387 64.9147 20.7387C63.5803 20.7387 62.2966 21.6097 60.7 27.8441C59.1033 34.0785 56.8108 41.6646 56.0928 41.7475C55.3748 41.8304 55.0853 41.7907 56.0928 29.1656C56.7979 20.3304 57.101 16.575 57.4258 13.0586C57.7506 9.54222 55.4605 7.69323 53.4347 7.69323C51.4088 7.69323 49.7431 8.83246 49.3837 13.0305C49.0244 17.2286 46.1458 36.5183 46.1235 38.3831C46.1012 40.248 45.43 40.1687 44.7926 39.8747C44.1553 39.5807 44.0084 37.3664 44.1553 35.8121C44.3022 34.2579 43.9164 13.8417 44.3022 6.438C44.5495 1.69348 40.9225 0.966088 39.5976 1.00117C38.2727 1.03626 35.3348 1.61605 35.2888 6.13486C35.2429 10.6537 34.8543 32.7311 34.5637 35.5383C34.273 38.3455 34.114 38.3831 33.2491 38.3831C32.3841 38.3831 32.2125 37.1294 32.0769 35.8743C31.9413 34.6192 30.8398 15.5302 30.2683 10.8515C29.6968 6.17284 25.909 5.98191 24.5689 6.438C23.2288 6.89408 21.1214 7.72638 21.56 13.5277C21.9986 19.329 22.6633 42.369 22.718 46.1933C22.7728 50.0175 20.6684 50.3663 18.8889 49.2609C17.1094 48.1556 13.5009 45.1268 11.2228 43.0735C8.46317 40.5862 4.0649 40.4279 2.40122 41.6973C0.155013 43.4113 0.952972 44.7074 2.40122 46.1933Z" stroke="#676767" stroke-linecap="round" stroke-linejoin="round"/>
<path d="M53.2501 14.2C54.1614 14.2 54.9001 13.4613 54.9001 12.55C54.9001 11.6388 54.1614 10.9 53.2501 10.9C52.3388 10.9 51.6001 11.6388 51.6001 12.55C51.6001 13.4613 52.3388 14.2 53.2501 14.2Z" stroke="#676767" stroke-linecap="round" stroke-linejoin="round"/>
<path d="M51.6002 29.6C52.5115 29.6 53.2502 28.8613 53.2502 27.95C53.2502 27.0387 52.5115 26.3 51.6002 26.3C50.6889 26.3 49.9502 27.0387 49.9502 27.95C49.9502 28.8613 50.6889 29.6 51.6002 29.6Z" stroke="#676767" stroke-linecap="round" stroke-linejoin="round"/>
<path d="M49.9498 46.1C50.8611 46.1 51.5998 45.3613 51.5998 44.45C51.5998 43.5387 50.8611 42.8 49.9498 42.8C49.0385 42.8 48.2998 43.5387 48.2998 44.45C48.2998 45.3613 49.0385 46.1 49.9498 46.1Z" stroke="#676767" stroke-linecap="round" stroke-linejoin="round"/>
<path d="M64.7999 27.4C65.7112 27.4 66.4499 26.6612 66.4499 25.75C66.4499 24.8387 65.7112 24.1 64.7999 24.1C63.8886 24.1 63.1499 24.8387 63.1499 25.75C63.1499 26.6612 63.8886 27.4 64.7999 27.4Z" stroke="#676767" stroke-linecap="round" stroke-linejoin="round"/>
<path d="M62.0499 38.4C62.9612 38.4 63.6999 37.6612 63.6999 36.75C63.6999 35.8387 62.9612 35.1 62.0499 35.1C61.1386 35.1 60.3999 35.8387 60.3999 36.75C60.3999 37.6612 61.1386 38.4 62.0499 38.4Z" stroke="#676767" stroke-linecap="round" stroke-linejoin="round"/>
<path d="M58.7501 49.4C59.6614 49.4 60.4001 48.6612 60.4001 47.75C60.4001 46.8387 59.6614 46.1 58.7501 46.1C57.8388 46.1 57.1001 46.8387 57.1001 47.75C57.1001 48.6612 57.8388 49.4 58.7501 49.4Z" stroke="#676767" stroke-linecap="round" stroke-linejoin="round"/>
<path d="M39.5001 7.59999C40.4114 7.59999 41.1501 6.86126 41.1501 5.94999C41.1501 5.03872 40.4114 4.29999 39.5001 4.29999C38.5888 4.29999 37.8501 5.03872 37.8501 5.94999C37.8501 6.86126 38.5888 7.59999 39.5001 7.59999Z" stroke="#676767" stroke-linecap="round" stroke-linejoin="round"/>
<path d="M39.5001 23C40.4114 23 41.1501 22.2613 41.1501 21.35C41.1501 20.4387 40.4114 19.7 39.5001 19.7C38.5888 19.7 37.8501 20.4387 37.8501 21.35C37.8501 22.2613 38.5888 23 39.5001 23Z" stroke="#676767" stroke-linecap="round" stroke-linejoin="round"/>
<path d="M39.5001 43.9C40.4114 43.9 41.1501 43.1612 41.1501 42.25C41.1501 41.3387 40.4114 40.6 39.5001 40.6C38.5888 40.6 37.8501 41.3387 37.8501 42.25C37.8501 43.1612 38.5888 43.9 39.5001 43.9Z" stroke="#676767" stroke-linecap="round" stroke-linejoin="round"/>
<path d="M25.7501 13.1C26.6614 13.1 27.4001 12.3613 27.4001 11.45C27.4001 10.5387 26.6614 9.79999 25.7501 9.79999C24.8388 9.79999 24.1001 10.5387 24.1001 11.45C24.1001 12.3613 24.8388 13.1 25.7501 13.1Z" stroke="#676767" stroke-linecap="round" stroke-linejoin="round"/>
<path d="M26.2999 28.5C27.2112 28.5 27.9499 27.7613 27.9499 26.85C27.9499 25.9387 27.2112 25.2 26.2999 25.2C25.3886 25.2 24.6499 25.9387 24.6499 26.85C24.6499 27.7613 25.3886 28.5 26.2999 28.5Z" stroke="#676767" stroke-linecap="round" stroke-linejoin="round"/>
<path d="M28.5001 43.9C29.4114 43.9 30.1501 43.1612 30.1501 42.25C30.1501 41.3387 29.4114 40.6 28.5001 40.6C27.5888 40.6 26.8501 41.3387 26.8501 42.25C26.8501 43.1612 27.5888 43.9 28.5001 43.9Z" stroke="#676767" stroke-linecap="round" stroke-linejoin="round"/>
<path d="M7.0499 47.2C7.96117 47.2 8.6999 46.4613 8.6999 45.55C8.6999 44.6388 7.96117 43.9 7.0499 43.9C6.13863 43.9 5.3999 44.6388 5.3999 45.55C5.3999 46.4613 6.13863 47.2 7.0499 47.2Z" stroke="#676767" stroke-linecap="round" stroke-linejoin="round"/>
<path d="M18.0499 59.3C18.9612 59.3 19.6999 58.5613 19.6999 57.65C19.6999 56.7387 18.9612 56 18.0499 56C17.1386 56 16.3999 56.7387 16.3999 57.65C16.3999 58.5613 17.1386 59.3 18.0499 59.3Z" stroke="#676767" stroke-linecap="round" stroke-linejoin="round"/>
<path d="M29.0499 73.6C29.9612 73.6 30.6999 72.8613 30.6999 71.95C30.6999 71.0387 29.9612 70.3 29.0499 70.3C28.1386 70.3 27.3999 71.0387 27.3999 71.95C27.3999 72.8613 28.1386 73.6 29.0499 73.6Z" stroke="#676767" stroke-linecap="round" stroke-linejoin="round"/>
<path d="M51.0499 74.7C51.9612 74.7 52.6999 73.9613 52.6999 73.05C52.6999 72.1388 51.9612 71.4 51.0499 71.4C50.1386 71.4 49.3999 72.1388 49.3999 73.05C49.3999 73.9613 50.1386 74.7 51.0499 74.7Z" stroke="#676767" stroke-linecap="round" stroke-linejoin="round"/>
<path d="M49.4002 73.05L30.7002 71.95" stroke="#676767" stroke-linecap="round" stroke-linejoin="round"/>
<path d="M51.6001 71.4L58.7501 49.4" stroke="#676767" stroke-linecap="round" stroke-linejoin="round"/>
<path d="M59.4502 46.1L61.5679 38.4" stroke="#676767" stroke-linecap="round" stroke-linejoin="round"/>
<path d="M62.5889 35.4011L64.4956 27.4" stroke="#676767" stroke-linecap="round" stroke-linejoin="round"/>
<path d="M57.1001 47.75L51.6001 44.8902" stroke="#676767" stroke-linecap="round" stroke-linejoin="round"/>
<path d="M48.2999 43.9L41.1499 42.25" stroke="#676767" stroke-linecap="round" stroke-linejoin="round"/>
<path d="M37.8499 42.25H30.1499" stroke="#676767" stroke-linecap="round" stroke-linejoin="round"/>
<path d="M27.4002 43.9L19.7002 57.65" stroke="#676767" stroke-linecap="round" stroke-linejoin="round"/>
<path d="M8.29248 46.7195L16.4001 56.7933" stroke="#676767" stroke-linecap="round" stroke-linejoin="round"/>
<path d="M18.5454 59.3L27.4001 71.95" stroke="#676767" stroke-linecap="round" stroke-linejoin="round"/>
<path d="M26.5283 28.5L28.4998 40.6" stroke="#676767" stroke-linecap="round" stroke-linejoin="round"/>
<path d="M26.3 25.2L25.75 13.1" stroke="#676767" stroke-linecap="round" stroke-linejoin="round"/>
<path d="M39.5 7.59998V19.7" stroke="#676767" stroke-linecap="round" stroke-linejoin="round"/>
<path d="M39.5 23V40.6" stroke="#676767" stroke-linecap="round" stroke-linejoin="round"/>
<path d="M51.6001 29.6L50.5684 42.8" stroke="#676767" stroke-linecap="round" stroke-linejoin="round"/>
<path d="M51.8755 26.3L53.2499 14.2" stroke="#676767" stroke-linecap="round" stroke-linejoin="round"/>
<path d="M31.25 42C31.25 40.7574 30.2426 39.75 29 39.75C27.7574 39.75 26.75 40.7574 26.75 42C26.75 43.2426 27.7574 44.25 29 44.25C30.2426 44.25 31.25 43.2426 31.25 42Z" fill="white" stroke="#1B1B1B" stroke-width="1.5"/>
<path d="M32 42C32 40.3431 30.6569 39 29 39C27.3431 39 26 40.3431 26 42C26 43.6569 27.3431 45 29 45C30.6569 45 32 43.6569 32 42Z" stroke="#1B1B1B"/>
<path d="M52.25 73C52.25 71.7574 51.2426 70.75 50 70.75C48.7574 70.75 47.75 71.7574 47.75 73C47.75 74.2426 48.7574 75.25 50 75.25C51.2426 75.25 52.25 74.2426 52.25 73Z" fill="white" stroke="#1B1B1B" stroke-width="1.5"/>
<path d="M53 73C53 71.3431 51.6569 70 50 70C48.3431 70 47 71.3431 47 73C47 74.6569 48.3431 76 50 76C51.6569 76 53 74.6569 53 73Z" stroke="#1B1B1B"/>
<path d="M28.25 11C28.25 9.75736 27.2426 8.75 26 8.75C24.7574 8.75 23.75 9.75736 23.75 11C23.75 12.2426 24.7574 13.25 26 13.25C27.2426 13.25 28.25 12.2426 28.25 11Z" fill="white" stroke="#1B1B1B" stroke-width="1.5"/>
<path d="M29 11C29 9.34315 27.6569 8 26 8C24.3431 8 23 9.34315 23 11C23 12.6569 24.3431 14 26 14C27.6569 14 29 12.6569 29 11Z" stroke="#1B1B1B"/>
<path d="M41.8398 6.14105C41.8398 4.89841 40.8325 3.89105 39.5898 3.89105C38.3472 3.89105 37.3398 4.89841 37.3398 6.14105C37.3398 7.38369 38.3472 8.39105 39.5898 8.39105C40.8325 8.39105 41.8398 7.38369 41.8398 6.14105Z" fill="white" stroke="#1B1B1B" stroke-width="1.5"/>
<path d="M42.5898 6.14105C42.5898 4.4842 41.2467 3.14105 39.5898 3.14105C37.933 3.14105 36.5898 4.4842 36.5898 6.14105C36.5898 7.79791 37.933 9.14105 39.5898 9.14105C41.2467 9.14105 42.5898 7.79791 42.5898 6.14105Z" stroke="#1B1B1B"/>
<path d="M31.25 72C31.25 70.7574 30.2426 69.75 29 69.75C27.7574 69.75 26.75 70.7574 26.75 72C26.75 73.2426 27.7574 74.25 29 74.25C30.2426 74.25 31.25 73.2426 31.25 72Z" fill="white" stroke="#1B1B1B" stroke-width="1.5"/>
<path d="M32 72C32 70.3431 30.6569 69 29 69C27.3431 69 26 70.3431 26 72C26 73.6569 27.3431 75 29 75C30.6569 75 32 73.6569 32 72Z" stroke="#1B1B1B"/>
<path d="M55.7075 12.6289C55.7075 11.3863 54.7002 10.3789 53.4575 10.3789C52.2149 10.3789 51.2075 11.3863 51.2075 12.6289C51.2075 13.8715 52.2149 14.8789 53.4575 14.8789C54.7002 14.8789 55.7075 13.8715 55.7075 12.6289Z" fill="white" stroke="#1B1B1B" stroke-width="1.5"/>
<path d="M56.4575 12.6289C56.4575 10.9721 55.1144 9.62891 53.4575 9.62891C51.8007 9.62891 50.4575 10.9721 50.4575 12.6289C50.4575 14.2858 51.8007 15.6289 53.4575 15.6289C55.1144 15.6289 56.4575 14.2858 56.4575 12.6289Z" stroke="#1B1B1B"/>
</g>
<defs>
<clipPath id="clip0_838_3448">
<rect width="69" height="83" fill="white"/>
</clipPath>
</defs>
</svg>
