<svg width="74" height="80" viewBox="0 0 74 80" fill="none" xmlns="http://www.w3.org/2000/svg">
<path fill-rule="evenodd" clip-rule="evenodd" d="M19.253 34.5859C36.2295 39.5556 57.9374 36.6063 67.7388 27.9985C77.5402 19.3907 71.7236 8.38388 54.747 3.41414C37.7705 -1.55559 16.0626 1.39367 6.26123 10.0015C-3.54019 18.6093 2.27641 29.6161 19.253 34.5859Z" stroke="#676767" stroke-linecap="round" stroke-linejoin="round"/>
<path fill-rule="evenodd" clip-rule="evenodd" d="M26.0018 28.5247C36.5225 31.5617 49.9753 29.7594 56.0494 24.4991C62.1235 19.2387 58.5188 12.5124 47.9982 9.47531C37.4775 6.43825 24.0247 8.24058 17.9506 13.5009C11.8765 18.7613 15.4812 25.4876 26.0018 28.5247Z" stroke="#676767" stroke-linecap="round" stroke-linejoin="round"/>
<path fill-rule="evenodd" clip-rule="evenodd" d="M26.0018 70.5247C36.5225 73.5617 49.9753 71.7594 56.0494 66.4991C62.1235 61.2387 58.5188 54.5124 47.9982 51.4753C37.4775 48.4383 24.0247 50.2406 17.9506 55.5009C11.8765 60.7613 15.4812 67.4876 26.0018 70.5247Z" stroke="#676767" stroke-linecap="round" stroke-linejoin="round"/>
<path fill-rule="evenodd" clip-rule="evenodd" d="M19.253 76.5859C36.2295 81.5556 57.9374 78.6063 67.7388 69.9985C77.5402 61.3907 71.7236 50.3839 54.747 45.4141C37.7705 40.4444 16.0626 43.3937 6.26123 52.0015C-3.54019 60.6093 2.27641 71.6161 19.253 76.5859Z" stroke="#676767" stroke-linecap="round" stroke-linejoin="round"/>
<path d="M72.5 19V61" stroke="#676767" stroke-linecap="round" stroke-linejoin="round"/>
<path d="M1.5 19V61" stroke="#676767" stroke-linecap="round" stroke-linejoin="round"/>
<path d="M59 19V61" stroke="#676767" stroke-linecap="round" stroke-linejoin="round"/>
<path d="M15 19V61" stroke="#676767" stroke-linecap="round" stroke-linejoin="round"/>
<path d="M37 19V61.8435" stroke="#676767" stroke-linecap="round" stroke-linejoin="round"/>
<path d="M39.25 19C39.25 17.7574 38.2426 16.75 37 16.75C35.7574 16.75 34.75 17.7574 34.75 19C34.75 20.2426 35.7574 21.25 37 21.25C38.2426 21.25 39.25 20.2426 39.25 19Z" fill="white" stroke="#1B1B1B" stroke-width="1.5"/>
<path d="M40 19C40 17.3431 38.6569 16 37 16C35.3431 16 34 17.3431 34 19C34 20.6569 35.3431 22 37 22C38.6569 22 40 20.6569 40 19Z" stroke="#1B1B1B"/>
<path d="M39.25 63C39.25 61.7574 38.2426 60.75 37 60.75C35.7574 60.75 34.75 61.7574 34.75 63C34.75 64.2426 35.7574 65.25 37 65.25C38.2426 65.25 39.25 64.2426 39.25 63Z" fill="white" stroke="#1B1B1B" stroke-width="1.5"/>
<path d="M40 63C40 61.3431 38.6569 60 37 60C35.3431 60 34 61.3431 34 63C34 64.6569 35.3431 66 37 66C38.6569 66 40 64.6569 40 63Z" stroke="#1B1B1B"/>
</svg>
