<svg width="59" height="88" viewBox="0 0 59 88" fill="none" xmlns="http://www.w3.org/2000/svg">
<g clip-path="url(#clip0_838_3944)">
<path d="M54 1H1V83H54V1Z" stroke="#676767" stroke-linecap="round" stroke-linejoin="round"/>
<path d="M54 5H58V87H5V83.0569" stroke="#676767" stroke-linecap="round" stroke-linejoin="round"/>
<path d="M15 12H10V17H15V12Z" stroke="#676767" stroke-linecap="round" stroke-linejoin="round"/>
<path d="M19.7896 13H39.9482" stroke="#676767" stroke-linecap="round" stroke-linejoin="round"/>
<path d="M19.7896 16H29.7896" stroke="#676767" stroke-linecap="round" stroke-linejoin="round"/>
<path d="M15 22H10V27H15V22Z" stroke="#676767" stroke-linecap="round" stroke-linejoin="round"/>
<path d="M19.7896 23H39.9482" stroke="#676767" stroke-linecap="round" stroke-linejoin="round"/>
<path d="M19.7896 26H29.7896" stroke="#676767" stroke-linecap="round" stroke-linejoin="round"/>
<path d="M15 32H10V37H15V32Z" stroke="#676767" stroke-linecap="round" stroke-linejoin="round"/>
<path d="M19.7896 33H39.9482" stroke="#676767" stroke-linecap="round" stroke-linejoin="round"/>
<path d="M19.7896 36H29.7896" stroke="#676767" stroke-linecap="round" stroke-linejoin="round"/>
<path d="M10 53H23" stroke="#676767" stroke-linecap="round" stroke-linejoin="round"/>
<path d="M29 53H42" stroke="#676767" stroke-linecap="round" stroke-linejoin="round"/>
<path d="M10 49H23" stroke="#676767" stroke-linecap="round" stroke-linejoin="round"/>
<path d="M29 49H42" stroke="#676767" stroke-linecap="round" stroke-linejoin="round"/>
<path d="M10 57H23" stroke="#676767" stroke-linecap="round" stroke-linejoin="round"/>
<path d="M29 57H42" stroke="#676767" stroke-linecap="round" stroke-linejoin="round"/>
<path d="M10 61H23" stroke="#676767" stroke-linecap="round" stroke-linejoin="round"/>
<path d="M29 61H38" stroke="#676767" stroke-linecap="round" stroke-linejoin="round"/>
<path d="M10 65H19" stroke="#676767" stroke-linecap="round" stroke-linejoin="round"/>
<path d="M21.25 65C21.25 63.7574 20.2426 62.75 19 62.75C17.7574 62.75 16.75 63.7574 16.75 65C16.75 66.2426 17.7574 67.25 19 67.25C20.2426 67.25 21.25 66.2426 21.25 65Z" fill="white" stroke="#1B1B1B" stroke-width="1.5"/>
<path d="M22 65C22 63.3431 20.6569 62 19 62C17.3431 62 16 63.3431 16 65C16 66.6569 17.3431 68 19 68C20.6569 68 22 66.6569 22 65Z" stroke="#1B1B1B"/>
<path d="M40.25 33C40.25 31.7574 39.2426 30.75 38 30.75C36.7574 30.75 35.75 31.7574 35.75 33C35.75 34.2426 36.7574 35.25 38 35.25C39.2426 35.25 40.25 34.2426 40.25 33Z" fill="white" stroke="#1B1B1B" stroke-width="1.5"/>
<path d="M41 33C41 31.3431 39.6569 30 38 30C36.3431 30 35 31.3431 35 33C35 34.6569 36.3431 36 38 36C39.6569 36 41 34.6569 41 33Z" stroke="#1B1B1B"/>
<path d="M39.25 61C39.25 59.7574 38.2426 58.75 37 58.75C35.7574 58.75 34.75 59.7574 34.75 61C34.75 62.2426 35.7574 63.25 37 63.25C38.2426 63.25 39.25 62.2426 39.25 61Z" fill="white" stroke="#1B1B1B" stroke-width="1.5"/>
<path d="M40 61C40 59.3431 38.6569 58 37 58C35.3431 58 34 59.3431 34 61C34 62.6569 35.3431 64 37 64C38.6569 64 40 62.6569 40 61Z" stroke="#1B1B1B"/>
<path d="M42.25 13C42.25 11.7574 41.2426 10.75 40 10.75C38.7574 10.75 37.75 11.7574 37.75 13C37.75 14.2426 38.7574 15.25 40 15.25C41.2426 15.25 42.25 14.2426 42.25 13Z" fill="white" stroke="#1B1B1B" stroke-width="1.5"/>
<path d="M43 13C43 11.3431 41.6569 10 40 10C38.3431 10 37 11.3431 37 13C37 14.6569 38.3431 16 40 16C41.6569 16 43 14.6569 43 13Z" stroke="#1B1B1B"/>
</g>
<defs>
<clipPath id="clip0_838_3944">
<rect width="59" height="88" fill="white"/>
</clipPath>
</defs>
</svg>
