<svg width="67" height="86" viewBox="0 0 67 86" fill="none" xmlns="http://www.w3.org/2000/svg">
<g clip-path="url(#clip0_838_4064)">
<path fill-rule="evenodd" clip-rule="evenodd" d="M1.79395 35.0372C8.02098 29.2752 15.1383 27.2628 23.146 29C23.146 29 35.2452 24.5969 42.4217 34.1657C42.4217 34.1657 34.7957 31.971 31.4795 40.3339C31.4795 40.3339 25.6433 35.5533 20.0778 39.8055C20.0778 39.8055 16.887 32.8983 7.79134 36.9403C7.79134 36.9403 5.79221 36.306 1.79395 35.0372Z" stroke="#676767" stroke-linecap="round" stroke-linejoin="round"/>
<path fill-rule="evenodd" clip-rule="evenodd" d="M1 74.6093C6.04478 81.1963 10.6029 84.3403 14.6742 84.0414C20.7812 83.5931 19.9436 83.406 22.5755 83.406C25.2074 83.406 26.6113 84.6407 31.2832 84.6407C35.9551 84.6407 40.7101 77.6346 41.7855 75.0141C41.7855 75.0141 37.1145 79.0018 33.5177 79.0018C31.1199 79.0018 28.9689 77.9883 27.0649 75.9614C25.5246 78.2662 23.3712 79.2797 20.6046 79.0018C17.838 78.7239 15.8612 77.2597 14.6742 74.6093C13.2562 76.3501 11.0547 77.2205 8.06976 77.2205C5.08484 77.2205 2.72825 76.3501 1 74.6093Z" stroke="#676767" stroke-linecap="round" stroke-linejoin="round"/>
<path d="M35.5056 35.2483C31.9891 43.702 30.3772 49.1615 30.67 51.6268C30.9751 54.1962 31.4488 55.8857 32.091 56.6955C29.7391 61.8303 29.5756 65.8247 31.6006 68.6787C33.6257 71.5328 36.5659 73.9562 40.4214 75.9491" stroke="#676767" stroke-linecap="round" stroke-linejoin="round"/>
<path d="M7.79117 36.9403C12.6363 42.2897 15.2072 46.6163 15.2072 50.1021C15.2072 53.6961 14.2765 55.9446 12.4151 56.8476C14.4372 59.7347 15.1995 63.0199 14.702 66.7033C14.2044 70.3867 10.6838 73.6582 4.14014 76.5178" stroke="#676767" stroke-linecap="round" stroke-linejoin="round"/>
<path fill-rule="evenodd" clip-rule="evenodd" d="M25.585 65.4985C25.7718 65.395 25.9393 65.2695 26.0863 65.1265C26.5947 64.6322 26.8585 63.9292 26.8308 63.2036C26.8147 62.7826 26.7004 62.354 26.4788 61.9542C26.0028 61.0954 24.412 59.9445 21.7066 58.5015L21.683 58.8633C21.5078 61.7155 21.6487 63.5538 22.1057 64.3782C22.8197 65.6663 24.3774 66.1679 25.585 65.4985Z" stroke="#676767" stroke-linecap="round" stroke-linejoin="round"/>
<path fill-rule="evenodd" clip-rule="evenodd" d="M20.2947 49.7639C20.1219 49.8895 19.971 50.0344 19.8425 50.1942C19.3981 50.7468 19.222 51.4767 19.3379 52.1935C19.4052 52.6094 19.5709 53.0209 19.8396 53.3908C20.4167 54.1851 22.1358 55.1335 24.997 56.2361L24.9763 55.8741C24.8026 53.0218 24.4387 51.2144 23.8847 50.4518C23.019 49.2604 21.4117 48.9524 20.2947 49.7639Z" stroke="#676767" stroke-linecap="round" stroke-linejoin="round"/>
<path d="M23.146 29C26.146 21.5284 26.896 14.5284 25.396 8" stroke="#676767" stroke-linecap="round" stroke-linejoin="round"/>
<path fill-rule="evenodd" clip-rule="evenodd" d="M23.1356 29C23.2098 22.9343 22.8825 18.9388 22.1537 17.0133C20.4581 12.5339 14.8968 10.6841 12.146 10C12.146 10 12.106 18.9279 15.1369 22.5983C17.1575 25.0452 19.8237 27.1791 23.1356 29Z" stroke="#676767" stroke-linecap="round" stroke-linejoin="round"/>
<path d="M12.146 10C18.1258 17.1399 21.7925 23.2798 23.146 28.4196" stroke="#676767" stroke-linecap="round" stroke-linejoin="round"/>
<path d="M29.7642 6.28812C30.1341 5.64396 30.7588 4.55634 31.6381 3.02525C32.7475 1.09365 35.2127 0.427095 37.1443 1.53646C37.7636 1.89216 38.2774 2.40593 38.6331 3.02525L49.5054 21.9559" stroke="#676767" stroke-linecap="round" stroke-linejoin="round"/>
<path d="M55.1471 31.7788L65.9484 50.5858C67.0578 52.5174 66.3912 54.9826 64.4596 56.092C63.8484 56.4431 63.1558 56.6278 62.4509 56.6278H40.8315" stroke="#676767" stroke-linecap="round" stroke-linejoin="round"/>
<path d="M46.8321 62.2743L40.3789 56.6278L46.8321 50.9812" stroke="#676767" stroke-linecap="round" stroke-linejoin="round"/>
<path d="M51.2377 13.6174L49.5742 22.0294L41.4575 19.264" stroke="#676767" stroke-linecap="round" stroke-linejoin="round"/>
<path d="M16.25 22C16.25 20.7574 15.2426 19.75 14 19.75C12.7574 19.75 11.75 20.7574 11.75 22C11.75 23.2426 12.7574 24.25 14 24.25C15.2426 24.25 16.25 23.2426 16.25 22Z" fill="white" stroke="#1B1B1B" stroke-width="1.5"/>
<path d="M17 22C17 20.3431 15.6569 19 14 19C12.3431 19 11 20.3431 11 22C11 23.6569 12.3431 25 14 25C15.6569 25 17 23.6569 17 22Z" stroke="#1B1B1B"/>
<path d="M32.25 6C32.25 4.75736 31.2426 3.75 30 3.75C28.7574 3.75 27.75 4.75736 27.75 6C27.75 7.24264 28.7574 8.25 30 8.25C31.2426 8.25 32.25 7.24264 32.25 6Z" fill="white" stroke="#1B1B1B" stroke-width="1.5"/>
<path d="M33 6C33 4.34315 31.6569 3 30 3C28.3431 3 27 4.34315 27 6C27 7.65685 28.3431 9 30 9C31.6569 9 33 7.65685 33 6Z" stroke="#1B1B1B"/>
<path d="M62.25 41C62.25 39.7574 61.2426 38.75 60 38.75C58.7574 38.75 57.75 39.7574 57.75 41C57.75 42.2426 58.7574 43.25 60 43.25C61.2426 43.25 62.25 42.2426 62.25 41Z" fill="white" stroke="#1B1B1B" stroke-width="1.5"/>
<path d="M63 41C63 39.3431 61.6569 38 60 38C58.3431 38 57 39.3431 57 41C57 42.6569 58.3431 44 60 44C61.6569 44 63 42.6569 63 41Z" stroke="#1B1B1B"/>
<path d="M33.25 46C33.25 44.7574 32.2426 43.75 31 43.75C29.7574 43.75 28.75 44.7574 28.75 46C28.75 47.2426 29.7574 48.25 31 48.25C32.2426 48.25 33.25 47.2426 33.25 46Z" fill="white" stroke="#1B1B1B" stroke-width="1.5"/>
<path d="M34 46C34 44.3431 32.6569 43 31 43C29.3431 43 28 44.3431 28 46C28 47.6569 29.3431 49 31 49C32.6569 49 34 47.6569 34 46Z" stroke="#1B1B1B"/>
<path d="M16.25 68C16.25 66.7574 15.2426 65.75 14 65.75C12.7574 65.75 11.75 66.7574 11.75 68C11.75 69.2426 12.7574 70.25 14 70.25C15.2426 70.25 16.25 69.2426 16.25 68Z" fill="white" stroke="#1B1B1B" stroke-width="1.5"/>
<path d="M17 68C17 66.3431 15.6569 65 14 65C12.3431 65 11 66.3431 11 68C11 69.6569 12.3431 71 14 71C15.6569 71 17 69.6569 17 68Z" stroke="#1B1B1B"/>
</g>
<defs>
<clipPath id="clip0_838_4064">
<rect width="67" height="86" fill="white"/>
</clipPath>
</defs>
</svg>
