<svg width="99" height="61" viewBox="0 0 99 61" fill="none" xmlns="http://www.w3.org/2000/svg">
<g clip-path="url(#clip0_838_4249)">
<path d="M12 31.3524C13.8212 32.5798 15.0215 33.259 15.6009 33.3901C22.3933 33.8538 28.4326 34.0857 33.7188 34.0857C41.6481 34.0857 62.093 33.3976 74.0687 32.5754C82.0525 32.0273 87.777 31.2667 91.242 30.2935L81.9553 27.2228C77.8648 25.1766 74.841 23.8984 72.8839 23.3883C69.9482 22.623 65.0089 22.158 61.4301 22.5311C57.8514 22.9042 50.001 24.4353 48.0216 24.6492C47.1643 24.7418 42.3024 25.2777 33.4359 26.2567" stroke="#676767" stroke-linecap="round" stroke-linejoin="round"/>
<path d="M18.6057 27.8949C17.6283 28.0029 16.6267 28.1136 15.6009 28.2269L12 29.5661V31.3524" stroke="#676767" stroke-linecap="round" stroke-linejoin="round"/>
<path d="M81.3709 27.047L75.156 27.6498L60.1595 25.5413L58.916 22.9624" stroke="#676767" stroke-linecap="round" stroke-linejoin="round"/>
<path d="M67.4712 22.5773L69.8417 26.82" stroke="#676767" stroke-linecap="round" stroke-linejoin="round"/>
<path d="M75.5585 24.4713L75.1558 27.6498" stroke="#676767" stroke-linecap="round" stroke-linejoin="round"/>
<path fill-rule="evenodd" clip-rule="evenodd" d="M60.1595 25.5413C44.802 27.045 35.6125 27.9455 32.5909 28.2428C29.5694 28.54 24.0855 29.096 16.1392 29.9108L60.1595 25.5413Z" stroke="#676767" stroke-linecap="round" stroke-linejoin="round"/>
<path d="M56.2684 26.0605L54.8673 31.2678H41.1963L38.896 27.726" stroke="#676767" stroke-linecap="round" stroke-linejoin="round"/>
<path d="M34.8025 27.8917L23.5988 16.3083H18.6118V29.5797" stroke="#676767" stroke-linecap="round" stroke-linejoin="round"/>
<path d="M84.6909 33.3446C85.8217 35.6899 88.2218 37.3083 90.9999 37.3083C94.8659 37.3083 97.9999 34.1743 97.9999 30.3083C97.9999 26.4423 94.8659 23.3083 90.9999 23.3083C89.6118 23.3083 88.3181 23.7123 87.2299 24.4092" stroke="#676767" stroke-linecap="round" stroke-linejoin="round"/>
<path d="M86.4539 26.8758C85.012 22.4815 80.8766 19.3083 76.0001 19.3083C73.809 19.3083 71.7675 19.9489 70.0527 21.0531" stroke="#676767" stroke-linecap="round" stroke-linejoin="round"/>
<path d="M65.9858 34.8665C67.7184 38.6668 71.5507 41.3083 75.9999 41.3083C81.1466 41.3083 85.4677 37.7738 86.6683 32.9996" stroke="#676767" stroke-linecap="round" stroke-linejoin="round"/>
<path d="M68.5559 19.5961C65.577 16.181 61.1932 14.0231 56.3055 14.0231C49.8125 14.0231 44.2089 17.8312 41.6064 23.3359" stroke="#676767" stroke-linecap="round" stroke-linejoin="round"/>
<path d="M41.1006 36.0198C43.4219 42.1583 49.3538 46.5231 56.3052 46.5231C63.7835 46.5231 70.0819 41.4715 71.9743 34.5946" stroke="#676767" stroke-linecap="round" stroke-linejoin="round"/>
<path d="M50.528 22.0136C47.1516 12.8463 38.3393 6.30829 28 6.30829C14.7452 6.30829 4 17.0535 4 30.3083C4 43.5631 14.7452 54.3083 28 54.3083C39.3433 54.3083 48.8486 46.4388 51.3543 35.8615" stroke="#676767" stroke-linecap="round" stroke-linejoin="round"/>
<path d="M92.2383 23.4029L12 1" stroke="#676767" stroke-linecap="round" stroke-linejoin="round"/>
<path d="M92.5059 37.1478L12 59.6166" stroke="#676767" stroke-linecap="round" stroke-linejoin="round"/>
<path d="M62.25 46C62.25 44.7574 61.2426 43.75 60 43.75C58.7574 43.75 57.75 44.7574 57.75 46C57.75 47.2426 58.7574 48.25 60 48.25C61.2426 48.25 62.25 47.2426 62.25 46Z" fill="white" stroke="#1B1B1B" stroke-width="1.5"/>
<path d="M63 46C63 44.3431 61.6569 43 60 43C58.3431 43 57 44.3431 57 46C57 47.6569 58.3431 49 60 49C61.6569 49 63 47.6569 63 46Z" stroke="#1B1B1B"/>
<path d="M62.25 15C62.25 13.7574 61.2426 12.75 60 12.75C58.7574 12.75 57.75 13.7574 57.75 15C57.75 16.2426 58.7574 17.25 60 17.25C61.2426 17.25 62.25 16.2426 62.25 15Z" fill="white" stroke="#1B1B1B" stroke-width="1.5"/>
<path d="M63 15C63 13.3431 61.6569 12 60 12C58.3431 12 57 13.3431 57 15C57 16.6569 58.3431 18 60 18C61.6569 18 63 16.6569 63 15Z" stroke="#1B1B1B"/>
<path d="M94.25 24C94.25 22.7574 93.2426 21.75 92 21.75C90.7574 21.75 89.75 22.7574 89.75 24C89.75 25.2426 90.7574 26.25 92 26.25C93.2426 26.25 94.25 25.2426 94.25 24Z" fill="white" stroke="#1B1B1B" stroke-width="1.5"/>
<path d="M95 24C95 22.3431 93.6569 21 92 21C90.3431 21 89 22.3431 89 24C89 25.6569 90.3431 27 92 27C93.6569 27 95 25.6569 95 24Z" stroke="#1B1B1B"/>
<path d="M80.25 41C80.25 39.7574 79.2426 38.75 78 38.75C76.7574 38.75 75.75 39.7574 75.75 41C75.75 42.2426 76.7574 43.25 78 43.25C79.2426 43.25 80.25 42.2426 80.25 41Z" fill="white" stroke="#1B1B1B" stroke-width="1.5"/>
<path d="M81 41C81 39.3431 79.6569 38 78 38C76.3431 38 75 39.3431 75 41C75 42.6569 76.3431 44 78 44C79.6569 44 81 42.6569 81 41Z" stroke="#1B1B1B"/>
<path d="M80.25 19C80.25 17.7574 79.2426 16.75 78 16.75C76.7574 16.75 75.75 17.7574 75.75 19C75.75 20.2426 76.7574 21.25 78 21.25C79.2426 21.25 80.25 20.2426 80.25 19Z" fill="white" stroke="#1B1B1B" stroke-width="1.5"/>
<path d="M81 19C81 17.3431 79.6569 16 78 16C76.3431 16 75 17.3431 75 19C75 20.6569 76.3431 22 78 22C79.6569 22 81 20.6569 81 19Z" stroke="#1B1B1B"/>
<path d="M94.25 37C94.25 35.7574 93.2426 34.75 92 34.75C90.7574 34.75 89.75 35.7574 89.75 37C89.75 38.2426 90.7574 39.25 92 39.25C93.2426 39.25 94.25 38.2426 94.25 37Z" fill="white" stroke="#1B1B1B" stroke-width="1.5"/>
<path d="M95 37C95 35.3431 93.6569 34 92 34C90.3431 34 89 35.3431 89 37C89 38.6569 90.3431 40 92 40C93.6569 40 95 38.6569 95 37Z" stroke="#1B1B1B"/>
<path d="M6.25 31C6.25 29.7574 5.24264 28.75 4 28.75C2.75736 28.75 1.75 29.7574 1.75 31C1.75 32.2426 2.75736 33.25 4 33.25C5.24264 33.25 6.25 32.2426 6.25 31Z" fill="white" stroke="#1B1B1B" stroke-width="1.5"/>
<path d="M7 31C7 29.3431 5.65685 28 4 28C2.34315 28 1 29.3431 1 31C1 32.6569 2.34315 34 4 34C5.65685 34 7 32.6569 7 31Z" stroke="#1B1B1B"/>
<path d="M35.25 54C35.25 52.7574 34.2426 51.75 33 51.75C31.7574 51.75 30.75 52.7574 30.75 54C30.75 55.2426 31.7574 56.25 33 56.25C34.2426 56.25 35.25 55.2426 35.25 54Z" fill="white" stroke="#1B1B1B" stroke-width="1.5"/>
<path d="M36 54C36 52.3431 34.6569 51 33 51C31.3431 51 30 52.3431 30 54C30 55.6569 31.3431 57 33 57C34.6569 57 36 55.6569 36 54Z" stroke="#1B1B1B"/>
<path d="M35.25 7C35.25 5.75736 34.2426 4.75 33 4.75C31.7574 4.75 30.75 5.75736 30.75 7C30.75 8.24264 31.7574 9.25 33 9.25C34.2426 9.25 35.25 8.24264 35.25 7Z" fill="white" stroke="#1B1B1B" stroke-width="1.5"/>
<path d="M36 7C36 5.34315 34.6569 4 33 4C31.3431 4 30 5.34315 30 7C30 8.65685 31.3431 10 33 10C34.6569 10 36 8.65685 36 7Z" stroke="#1B1B1B"/>
</g>
<defs>
<clipPath id="clip0_838_4249">
<rect width="99" height="61" fill="white"/>
</clipPath>
</defs>
</svg>
