<svg width="89" height="76" viewBox="0 0 89 76" fill="none" xmlns="http://www.w3.org/2000/svg">
<g clip-path="url(#clip0_838_4388)">
<path d="M1 30.1794H3.30207C4.40664 30.1794 5.30207 31.0749 5.30207 32.1794V74.9476" stroke="#676767" stroke-linecap="round" stroke-linejoin="round"/>
<path d="M5.40381 34.7291H12.9557L17.1718 30.5129C20.447 30.5129 22.9074 30.5129 24.5532 30.5129" stroke="#676767" stroke-linecap="round" stroke-linejoin="round"/>
<path d="M28.7471 30.5162C34.3645 30.5205 45.6245 30.5293 62.5272 30.5426" stroke="#676767" stroke-linecap="round" stroke-linejoin="round"/>
<path d="M67.3052 30.5433C74.1984 30.9102 79.3412 34.6076 82.7337 41.6355H85.5821C88.8235 48.1006 88.7011 54.5113 85.215 60.8675C81.7288 67.2238 75.8095 70.7411 67.4572 71.4195C39.8749 71.4195 19.1881 71.4195 5.39697 71.4195" stroke="#676767" stroke-linecap="round" stroke-linejoin="round"/>
<path d="M40.6128 30.5426L47.7329 37.6627H55.7496" stroke="#676767" stroke-linecap="round" stroke-linejoin="round"/>
<path d="M63.0512 35.0733C54.9472 35.858 48.6123 42.6883 48.6123 50.9981C48.6123 59.8347 55.7757 66.9981 64.6123 66.9981C73.4489 66.9981 80.6123 59.8347 80.6123 50.9981C80.6123 42.7702 74.4017 35.9929 66.4127 35.0983" stroke="#676767" stroke-linecap="round" stroke-linejoin="round"/>
<path d="M63.0606 46.2435C61.0588 46.8964 59.6123 48.7783 59.6123 50.9981C59.6123 53.7595 61.8509 55.9981 64.6123 55.9981C67.3737 55.9981 69.6123 53.7595 69.6123 50.9981C69.6123 48.8077 68.2039 46.9463 66.2432 46.2701" stroke="#676767" stroke-linecap="round" stroke-linejoin="round"/>
<path d="M63.1638 55.9981C63.1014 61.6265 64.4304 65.2155 67.1509 66.7651" stroke="#676767" stroke-linecap="round" stroke-linejoin="round"/>
<path d="M59.6685 49.2175C53.8202 48.1552 50.2131 49.5163 48.8472 53.3008" stroke="#676767" stroke-linecap="round" stroke-linejoin="round"/>
<path d="M69.6121 51.9464C74.3687 53.4074 77.8527 51.9666 80.064 47.624" stroke="#676767" stroke-linecap="round" stroke-linejoin="round"/>
<path d="M62.1165 46.6418C59.6275 42.1692 56.0475 40.6432 51.3765 42.0639" stroke="#676767" stroke-linecap="round" stroke-linejoin="round"/>
<path d="M67.1235 55.5577C70.4601 59.4403 73.9533 61.034 77.6032 60.3389" stroke="#676767" stroke-linecap="round" stroke-linejoin="round"/>
<path d="M59.8576 53.2347C55.2515 55.4642 53.6655 58.9849 55.0996 63.797" stroke="#676767" stroke-linecap="round" stroke-linejoin="round"/>
<path d="M68.7827 48.1686C73.1954 45.8221 74.652 42.3279 73.1524 37.6861" stroke="#676767" stroke-linecap="round" stroke-linejoin="round"/>
<path d="M24.6898 35.1124C16.7597 36.062 10.6123 42.8122 10.6123 50.9981C10.6123 59.8346 17.7757 66.9981 26.6123 66.9981C35.4489 66.9981 42.6123 59.8346 42.6123 50.9981C42.6123 42.7682 36.3987 35.9896 28.4069 35.0976" stroke="#676767" stroke-linecap="round" stroke-linejoin="round"/>
<path d="M24.9272 46.2892C22.9948 46.9807 21.6123 48.828 21.6123 50.9981C21.6123 53.7595 23.8509 55.9981 26.6123 55.9981C29.3737 55.9981 31.6123 53.7595 31.6123 50.9981C31.6123 48.8203 30.22 46.9678 28.277 46.2819" stroke="#676767" stroke-linecap="round" stroke-linejoin="round"/>
<path d="M25.1642 55.9981C24.188 61.2357 25.5233 64.8283 29.1699 66.7758" stroke="#676767" stroke-linecap="round" stroke-linejoin="round"/>
<path d="M21.6688 49.2175C16.0494 48.3609 12.4329 49.7388 10.8193 53.3514" stroke="#676767" stroke-linecap="round" stroke-linejoin="round"/>
<path d="M31.6121 51.9464C36.3687 53.4074 39.8527 51.9666 42.064 47.624" stroke="#676767" stroke-linecap="round" stroke-linejoin="round"/>
<path d="M24.0932 46.6001C21.6052 42.1597 18.033 40.6476 13.3765 42.0639" stroke="#676767" stroke-linecap="round" stroke-linejoin="round"/>
<path d="M29.1235 55.5577C31.9121 59.6561 35.412 61.248 39.6229 60.3334" stroke="#676767" stroke-linecap="round" stroke-linejoin="round"/>
<path d="M21.8577 53.2347C17.3003 55.726 15.7377 59.3262 17.17 64.0353" stroke="#676767" stroke-linecap="round" stroke-linejoin="round"/>
<path d="M30.7827 48.1686C35.1954 45.8221 36.652 42.3279 35.1524 37.6861" stroke="#676767" stroke-linecap="round" stroke-linejoin="round"/>
<path d="M5.19397 38.9981H1.6123V46.0732H5.19397" stroke="#676767" stroke-linecap="round" stroke-linejoin="round"/>
<path d="M5.19397 48.9981H1.6123V66.9981H5.19397" stroke="#676767" stroke-linecap="round" stroke-linejoin="round"/>
<path d="M18.6123 71.4164V74.9981H25.6874V71.4164" stroke="#676767" stroke-linecap="round" stroke-linejoin="round"/>
<path d="M28.6123 71.4164V74.9981H56.6123V71.4164" stroke="#676767" stroke-linecap="round" stroke-linejoin="round"/>
<path d="M5.3916 64.0223H17.2094" stroke="#676767" stroke-linecap="round" stroke-linejoin="round"/>
<path d="M36.0366 64.0223H45.3077L52.6713 71.3859" stroke="#676767" stroke-linecap="round" stroke-linejoin="round"/>
<path d="M64.7116 1C60.3436 2.82457 55.9756 7.09524 55.9756 11.92C55.9756 16.7448 60.3436 21.803 64.7116 25.024" stroke="#676767" stroke-linecap="round" stroke-linejoin="round"/>
<path d="M64.7114 1C69.0794 2.82457 73.4474 7.09524 73.4474 11.92C73.4474 16.7448 69.0794 21.803 64.7114 25.024" stroke="#676767" stroke-linecap="round" stroke-linejoin="round"/>
<path d="M64.7113 19.0795L60.3433 14.7115" stroke="#676767" stroke-linecap="round" stroke-linejoin="round"/>
<path d="M64.7113 12.5275L60.3433 8.15948" stroke="#676767" stroke-linecap="round" stroke-linejoin="round"/>
<path d="M64.7114 19.0795L69.0794 14.7115" stroke="#676767" stroke-linecap="round" stroke-linejoin="round"/>
<path d="M64.7114 12.5275L69.0794 8.15948" stroke="#676767" stroke-linecap="round" stroke-linejoin="round"/>
<path d="M64.7114 1V50.9681" stroke="#676767" stroke-linecap="round" stroke-linejoin="round"/>
<path d="M26.7116 1C22.3436 2.82457 17.9756 7.09524 17.9756 11.92C17.9756 16.7448 22.3436 21.803 26.7116 25.024" stroke="#676767" stroke-linecap="round" stroke-linejoin="round"/>
<path d="M26.7114 1C31.0794 2.82457 35.4474 7.09524 35.4474 11.92C35.4474 16.7448 31.0794 21.803 26.7114 25.024" stroke="#676767" stroke-linecap="round" stroke-linejoin="round"/>
<path d="M26.7113 19.0795L22.3433 14.7115" stroke="#676767" stroke-linecap="round" stroke-linejoin="round"/>
<path d="M26.7113 12.5275L22.3433 8.15948" stroke="#676767" stroke-linecap="round" stroke-linejoin="round"/>
<path d="M26.7114 19.0795L31.0794 14.7115" stroke="#676767" stroke-linecap="round" stroke-linejoin="round"/>
<path d="M26.7114 12.5275L31.0794 8.15948" stroke="#676767" stroke-linecap="round" stroke-linejoin="round"/>
<path d="M26.7114 1V50.9681" stroke="#676767" stroke-linecap="round" stroke-linejoin="round"/>
<path d="M43.2876 30.571C43.2876 29.3283 42.2802 28.321 41.0376 28.321C39.795 28.321 38.7876 29.3283 38.7876 30.571C38.7876 31.8136 39.795 32.821 41.0376 32.821C42.2802 32.821 43.2876 31.8136 43.2876 30.571Z" fill="white" stroke="#1B1B1B" stroke-width="1.5"/>
<path d="M44.0376 30.571C44.0376 28.9141 42.6945 27.571 41.0376 27.571C39.3807 27.571 38.0376 28.9141 38.0376 30.571C38.0376 32.2278 39.3807 33.571 41.0376 33.571C42.6945 33.571 44.0376 32.2278 44.0376 30.571Z" stroke="#1B1B1B"/>
<path d="M62.25 66C62.25 64.7574 61.2426 63.75 60 63.75C58.7574 63.75 57.75 64.7574 57.75 66C57.75 67.2426 58.7574 68.25 60 68.25C61.2426 68.25 62.25 67.2426 62.25 66Z" fill="white" stroke="#1B1B1B" stroke-width="1.5"/>
<path d="M63 66C63 64.3431 61.6569 63 60 63C58.3431 63 57 64.3431 57 66C57 67.6569 58.3431 69 60 69C61.6569 69 63 67.6569 63 66Z" stroke="#1B1B1B"/>
<path d="M14.1377 71.5236C14.1377 70.281 13.1303 69.2736 11.8877 69.2736C10.6451 69.2736 9.6377 70.281 9.6377 71.5236C9.6377 72.7663 10.6451 73.7736 11.8877 73.7736C13.1303 73.7736 14.1377 72.7663 14.1377 71.5236Z" fill="white" stroke="#1B1B1B" stroke-width="1.5"/>
<path d="M14.8877 71.5236C14.8877 69.8668 13.5445 68.5236 11.8877 68.5236C10.2308 68.5236 8.8877 69.8668 8.8877 71.5236C8.8877 73.1805 10.2308 74.5236 11.8877 74.5236C13.5445 74.5236 14.8877 73.1805 14.8877 71.5236Z" stroke="#1B1B1B"/>
<path d="M15.25 35C15.25 33.7574 14.2426 32.75 13 32.75C11.7574 32.75 10.75 33.7574 10.75 35C10.75 36.2426 11.7574 37.25 13 37.25C14.2426 37.25 15.25 36.2426 15.25 35Z" fill="white" stroke="#1B1B1B" stroke-width="1.5"/>
<path d="M16 35C16 33.3431 14.6569 32 13 32C11.3431 32 10 33.3431 10 35C10 36.6569 11.3431 38 13 38C14.6569 38 16 36.6569 16 35Z" stroke="#1B1B1B"/>
<path d="M80.25 43C80.25 41.7574 79.2426 40.75 78 40.75C76.7574 40.75 75.75 41.7574 75.75 43C75.75 44.2426 76.7574 45.25 78 45.25C79.2426 45.25 80.25 44.2426 80.25 43Z" fill="white" stroke="#1B1B1B" stroke-width="1.5"/>
<path d="M81 43C81 41.3431 79.6569 40 78 40C76.3431 40 75 41.3431 75 43C75 44.6569 76.3431 46 78 46C79.6569 46 81 44.6569 81 43Z" stroke="#1B1B1B"/>
</g>
<defs>
<clipPath id="clip0_838_4388">
<rect width="89" height="76" fill="white"/>
</clipPath>
</defs>
</svg>
