<svg width="100" height="78" viewBox="0 0 100 78" fill="none" xmlns="http://www.w3.org/2000/svg">
<g clip-path="url(#clip0_838_4585)">
<path d="M97.8415 60.6295C96.6572 58.9096 96.155 57.9686 95.7041 56.8006C94.4209 53.4771 90.9826 47.6402 89.748 45.9653C88.5135 44.2903 81.8181 35.7083 80.9873 34.6787C80.1812 33.6797 78.4852 31.9284 76.8776 33.0948C75.8058 33.8724 75.9228 35.3812 77.2283 37.6213" stroke="#676767" stroke-linecap="round" stroke-linejoin="round"/>
<path d="M77.2366 37.6553C75.17 34.735 73.4137 33.7656 71.9679 34.7471C69.7992 36.2194 72.0033 39.6708 72.2222 40.1893C64.5349 31.1705 59.7943 25.3704 58.3792 23.9552C56.2564 21.8325 55.0676 21.3916 54.1049 22.0719C53.1422 22.7523 53.5211 24.2994 54.9002 26.4139C55.8195 27.8235 60.3169 33.6919 68.3923 44.0191" stroke="#676767" stroke-linecap="round" stroke-linejoin="round"/>
<path d="M55.2639 27.0113C54.049 26.4225 52.2063 26.6843 52.646 28.668C53.0857 30.6518 55.3142 34.4923 57.8984 38.6023C60.4825 42.7123 64.3929 48.5703 65.009 50.9253C65.6252 53.2803 65.7702 55.0747 65.9348 56.0799" stroke="#676767" stroke-linecap="round" stroke-linejoin="round"/>
<path d="M65.5368 53.814C61.1072 51.257 58.1025 49.9263 56.5226 49.8218C54.1529 49.6651 51.5485 50.9325 52.0904 52.3223C52.6322 53.7122 58.1692 56.163 59.4238 57.4177C60.6785 58.6723 67.0612 65.1688 70.6821 66.3854C74.303 67.6021 79.43 68.0368 80.4075 68.6847C81.3851 69.3327 83.1685 69.9339 84.4178 72.9305C85.6671 75.9272 92.9163 71.8996 95.1023 69.7137C97.2882 67.5277 98.815 63.6961 98.7428 62.7945C98.6947 62.1934 98.3942 61.4717 97.8414 60.6295" stroke="#676767" stroke-linecap="round" stroke-linejoin="round"/>
<path d="M58.6592 24.2202C59.9796 21.9961 59.6833 19.0787 57.7704 17.1658C55.5069 14.9023 51.8371 14.9023 49.5736 17.1658C48.0654 18.674 47.5622 20.8065 48.0638 22.7314C48.0724 22.7646 48.0814 22.7977 48.0906 22.8308" stroke="#676767" stroke-linecap="round" stroke-linejoin="round"/>
<path d="M48.0477 22.8592C46.2998 25.132 46.4668 28.4037 48.5487 30.4856C50.0338 31.9707 52.1243 32.4814 54.0258 32.0177" stroke="#676767" stroke-linecap="round" stroke-linejoin="round"/>
<path d="M22.0006 19.1195C20.8543 19.3949 18.7997 22.0637 15.8369 27.1259C14.7859 28.9218 13.2122 30.5229 12.414 32.8979C9.8373 40.5652 9.12168 50.4257 8.19105 51.8809C6.97214 53.7869 5.5853 56.1524 4.25068 57.5402C2.91606 58.9281 7.25862 64.6539 9.08033 66.0401C10.902 67.4263 16.236 70.8205 17.0968 69.3084C17.9577 67.7963 17.7106 66.6058 22.357 63.0929C27.0034 59.58 29.0729 53.194 29.5997 48.0287" stroke="#676767" stroke-linecap="round" stroke-linejoin="round"/>
<path d="M19.4624 40.4377C23.5573 37.672 26.5691 34.953 28.4979 32.2808C31.391 28.2725 35.6826 23.6968 37.1353 25.6292C38.5881 27.5617 37.8981 31.0835 36.1578 33.7626C34.4175 36.4416 30.1527 39.4997 28.9679 43.3797C27.7831 47.2596 28.5888 50.6065 27.4117 53.1685C26.2347 55.7304 22.388 59.9996 19.4624 61.582" stroke="#676767" stroke-linecap="round" stroke-linejoin="round"/>
<path d="M35.1754 47.8207C36.2356 51.3383 36.5451 53.4322 36.1039 54.1023C35.442 55.1076 33.8415 54.0941 32.5885 52.6486C31.7531 51.6849 30.8953 50.0756 30.0151 47.8207" stroke="#676767" stroke-linecap="round" stroke-linejoin="round"/>
<path d="M63.5311 47.746H28.2314" stroke="#676767" stroke-linecap="round" stroke-linejoin="round"/>
<path d="M22.2627 38.3541V3.646C22.2627 2.18465 23.4474 1 24.9087 1H80.4747C81.936 1 83.1207 2.18465 83.1207 3.646V37.2146" stroke="#676767" stroke-linecap="round" stroke-linejoin="round"/>
<path d="M61.973 45.1H28.6069" stroke="#676767" stroke-linecap="round" stroke-linejoin="round"/>
<path d="M24.9087 36.1186V4.528C24.9087 4.04088 25.3036 3.646 25.7907 3.646H79.5927C80.0798 3.646 80.4747 4.04088 80.4747 4.528V34.0287" stroke="#676767" stroke-linecap="round" stroke-linejoin="round"/>
<path d="M89.25 74C89.25 72.7574 88.2426 71.75 87 71.75C85.7574 71.75 84.75 72.7574 84.75 74C84.75 75.2426 85.7574 76.25 87 76.25C88.2426 76.25 89.25 75.2426 89.25 74Z" fill="white" stroke="#1B1B1B" stroke-width="1.5"/>
<path d="M90 74C90 72.3431 88.6569 71 87 71C85.3431 71 84 72.3431 84 74C84 75.6569 85.3431 77 87 77C88.6569 77 90 75.6569 90 74Z" stroke="#1B1B1B"/>
<path d="M90.25 44C90.25 42.7574 89.2426 41.75 88 41.75C86.7574 41.75 85.75 42.7574 85.75 44C85.75 45.2426 86.7574 46.25 88 46.25C89.2426 46.25 90.25 45.2426 90.25 44Z" fill="white" stroke="#1B1B1B" stroke-width="1.5"/>
<path d="M91 44C91 42.3431 89.6569 41 88 41C86.3431 41 85 42.3431 85 44C85 45.6569 86.3431 47 88 47C89.6569 47 91 45.6569 91 44Z" stroke="#1B1B1B"/>
<path d="M6.25 57C6.25 55.7574 5.24264 54.75 4 54.75C2.75736 54.75 1.75 55.7574 1.75 57C1.75 58.2426 2.75736 59.25 4 59.25C5.24264 59.25 6.25 58.2426 6.25 57Z" fill="white" stroke="#1B1B1B" stroke-width="1.5"/>
<path d="M7 57C7 55.3431 5.65685 54 4 54C2.34315 54 1 55.3431 1 57C1 58.6569 2.34315 60 4 60C5.65685 60 7 58.6569 7 57Z" stroke="#1B1B1B"/>
<path d="M59.25 17C59.25 15.7574 58.2426 14.75 57 14.75C55.7574 14.75 54.75 15.7574 54.75 17C54.75 18.2426 55.7574 19.25 57 19.25C58.2426 19.25 59.25 18.2426 59.25 17Z" fill="white" stroke="#1B1B1B" stroke-width="1.5"/>
<path d="M60 17C60 15.3431 58.6569 14 57 14C55.3431 14 54 15.3431 54 17C54 18.6569 55.3431 20 57 20C58.6569 20 60 18.6569 60 17Z" stroke="#1B1B1B"/>
</g>
<defs>
<clipPath id="clip0_838_4585">
<rect width="100" height="78" fill="white"/>
</clipPath>
</defs>
</svg>
