<svg width="95" height="83" viewBox="0 0 95 83" fill="none" xmlns="http://www.w3.org/2000/svg">
<g clip-path="url(#clip0_838_3980)">
<path d="M41 25H25C22.7909 25 21 26.7909 21 29C21 31.2091 22.7909 33 25 33H41C43.2091 33 45 31.2091 45 29C45 26.7909 43.2091 25 41 25Z" stroke="#676767" stroke-linecap="round" stroke-linejoin="round"/>
<path d="M72 45H56C53.7909 45 52 46.7909 52 49C52 51.2091 53.7909 53 56 53H72C74.2091 53 76 51.2091 76 49C76 46.7909 74.2091 45 72 45Z" stroke="#676767" stroke-linecap="round" stroke-linejoin="round"/>
<path d="M82 58H66C63.7909 58 62 59.7909 62 62C62 64.2091 63.7909 66 66 66H82C84.2091 66 86 64.2091 86 62C86 59.7909 84.2091 58 82 58Z" stroke="#676767" stroke-linecap="round" stroke-linejoin="round"/>
<path d="M32 67H16C13.7909 67 12 68.7909 12 71C12 73.2091 13.7909 75 16 75H32C34.2091 75 36 73.2091 36 71C36 68.7909 34.2091 67 32 67Z" stroke="#676767" stroke-linecap="round" stroke-linejoin="round"/>
<path d="M80 33H64C61.7909 33 60 34.7909 60 37C60 39.2091 61.7909 41 64 41H80C82.2091 41 84 39.2091 84 37C84 34.7909 82.2091 33 80 33Z" stroke="#676767" stroke-linecap="round" stroke-linejoin="round"/>
<path d="M90 22H74C71.7909 22 70 23.7909 70 26C70 28.2091 71.7909 30 74 30H90C92.2091 30 94 28.2091 94 26C94 23.7909 92.2091 22 90 22Z" stroke="#676767" stroke-linecap="round" stroke-linejoin="round"/>
<path d="M21 38H5C2.79086 38 1 39.7909 1 42C1 44.2091 2.79086 46 5 46H21C23.2091 46 25 44.2091 25 42C25 39.7909 23.2091 38 21 38Z" stroke="#676767" stroke-linecap="round" stroke-linejoin="round"/>
<path d="M30 12H13C10.7909 12 9 13.7909 9 16C9 18.2091 10.7909 20 13 20H30C32.2091 20 34 18.2091 34 16C34 13.7909 32.2091 12 30 12Z" stroke="#676767" stroke-linecap="round" stroke-linejoin="round"/>
<path d="M82.2254 21.9165C75.6688 10.0434 63.0245 2 48.4998 2C38.5503 2 29.4821 5.77535 22.6489 11.971" stroke="#676767" stroke-linecap="round" stroke-linejoin="round"/>
<path d="M15.866 20.0651C12.5646 25.3257 10.4999 31.4409 10.0796 38.0026" stroke="#676767" stroke-linecap="round" stroke-linejoin="round"/>
<path d="M10.395 46.0379C11.5553 54.0951 15.2097 61.3447 20.5502 66.9797" stroke="#676767" stroke-linecap="round" stroke-linejoin="round"/>
<path d="M31.4038 75.0063C36.5547 77.5628 42.3595 79 48.4999 79C59.9701 79 70.2676 73.9868 77.3204 66.0309" stroke="#676767" stroke-linecap="round" stroke-linejoin="round"/>
<path d="M82.7944 58.0185C85.4833 52.764 87.0001 46.8097 87.0001 40.5C87.0001 36.8813 86.5008 33.3791 85.5672 30.0585" stroke="#676767" stroke-linecap="round" stroke-linejoin="round"/>
<path d="M30.419 33.1847C29.5039 35.4438 29 37.9131 29 40.5C29 51.2725 37.7309 60 48.5 60C54.5208 60 59.9037 57.2728 63.4805 52.9858" stroke="#676767" stroke-linecap="round" stroke-linejoin="round"/>
<path d="M67.5068 44.879C67.7909 43.6403 67.957 42.3567 67.9928 41.0403" stroke="#676767" stroke-linecap="round" stroke-linejoin="round"/>
<path d="M66.4783 32.936C63.5244 25.9239 56.5877 21 48.4999 21C44.0984 21 40.0375 22.4587 36.7739 24.9189" stroke="#676767" stroke-linecap="round" stroke-linejoin="round"/>
<path d="M39.25 4C39.25 2.75736 38.2426 1.75 37 1.75C35.7574 1.75 34.75 2.75736 34.75 4C34.75 5.24264 35.7574 6.25 37 6.25C38.2426 6.25 39.25 5.24264 39.25 4Z" fill="white" stroke="#1B1B1B" stroke-width="1.5"/>
<path d="M40 4C40 2.34315 38.6569 1 37 1C35.3431 1 34 2.34315 34 4C34 5.65685 35.3431 7 37 7C38.6569 7 40 5.65685 40 4Z" stroke="#1B1B1B"/>
<path d="M88.25 48C88.25 46.7574 87.2426 45.75 86 45.75C84.7574 45.75 83.75 46.7574 83.75 48C83.75 49.2426 84.7574 50.25 86 50.25C87.2426 50.25 88.25 49.2426 88.25 48Z" fill="white" stroke="#1B1B1B" stroke-width="1.5"/>
<path d="M89 48C89 46.3431 87.6569 45 86 45C84.3431 45 83 46.3431 83 48C83 49.6569 84.3431 51 86 51C87.6569 51 89 49.6569 89 48Z" stroke="#1B1B1B"/>
<path d="M62.25 25C62.25 23.7574 61.2426 22.75 60 22.75C58.7574 22.75 57.75 23.7574 57.75 25C57.75 26.2426 58.7574 27.25 60 27.25C61.2426 27.25 62.25 26.2426 62.25 25Z" fill="white" stroke="#1B1B1B" stroke-width="1.5"/>
<path d="M63 25C63 23.3431 61.6569 22 60 22C58.3431 22 57 23.3431 57 25C57 26.6569 58.3431 28 60 28C61.6569 28 63 26.6569 63 25Z" stroke="#1B1B1B"/>
<path d="M34.25 51C34.25 49.7574 33.2426 48.75 32 48.75C30.7574 48.75 29.75 49.7574 29.75 51C29.75 52.2426 30.7574 53.25 32 53.25C33.2426 53.25 34.25 52.2426 34.25 51Z" fill="white" stroke="#1B1B1B" stroke-width="1.5"/>
<path d="M35 51C35 49.3431 33.6569 48 32 48C30.3431 48 29 49.3431 29 51C29 52.6569 30.3431 54 32 54C33.6569 54 35 52.6569 35 51Z" stroke="#1B1B1B"/>
<path d="M56.25 79C56.25 77.7574 55.2426 76.75 54 76.75C52.7574 76.75 51.75 77.7574 51.75 79C51.75 80.2426 52.7574 81.25 54 81.25C55.2426 81.25 56.25 80.2426 56.25 79Z" fill="white" stroke="#1B1B1B" stroke-width="1.5"/>
<path d="M57 79C57 77.3431 55.6569 76 54 76C52.3431 76 51 77.3431 51 79C51 80.6569 52.3431 82 54 82C55.6569 82 57 80.6569 57 79Z" stroke="#1B1B1B"/>
</g>
<defs>
<clipPath id="clip0_838_3980">
<rect width="95" height="83" fill="white"/>
</clipPath>
</defs>
</svg>
