<svg width="59" height="91" viewBox="0 0 59 91" fill="none" xmlns="http://www.w3.org/2000/svg">
<g clip-path="url(#clip0_838_4536)">
<path d="M47.4123 24.6477C47.4764 24.6499 47.5408 24.651 47.6055 24.651C50.643 24.651 53.1055 22.1886 53.1055 19.151C53.1055 16.1134 50.643 13.651 47.6055 13.651C44.5679 13.651 42.1055 16.1134 42.1055 19.151C42.1055 19.8481 42.2352 20.5149 42.4717 21.1286" stroke="#676767" stroke-linecap="round" stroke-linejoin="round"/>
<path d="M15.1275 38.485H5.2932C4.0267 38.485 3 37.4583 3 36.1918V3.2932C3 2.0267 4.0267 1 5.2932 1H52.5243C53.7908 1 54.8175 2.0267 54.8175 3.2932V36.1918C54.8175 37.4583 53.7908 38.485 52.5243 38.485H38.9672" stroke="#676767" stroke-linecap="round" stroke-linejoin="round"/>
<path d="M25.0576 89.1932C26.8492 86.5549 28.8747 83.8483 30.8472 82.1867C34.3185 79.2624 39.9236 72.6995 41.4292 70.5175C42.9348 68.3356 47.0771 63.4582 47.9305 61.7086C49.8664 57.7394 51.3971 54.856 49.862 53.2278C48.8385 52.1423 47.647 51.7248 46.2875 51.9751" stroke="#676767" stroke-linecap="round" stroke-linejoin="round"/>
<path d="M46.2844 51.9694C46.2844 51.9694 46.783 49.5955 45.0612 48.1187C43.9134 47.1342 42.599 46.7646 41.1179 47.0101C41.0649 45.666 40.5472 44.6226 39.5649 43.8798C38.5826 43.137 37.3526 42.9904 35.875 43.4398" stroke="#676767" stroke-linecap="round" stroke-linejoin="round"/>
<path d="M35.8749 43.4398C45.021 28.7671 49.788 20.746 50.1757 19.3766C50.7573 17.3225 48.4871 15.7145 46.5697 17.123C44.6523 18.5315 40.5069 23.3567 36.6277 28.1744C32.7486 32.9921 27.7743 41.0551 25.1929 42.7742C22.6116 44.4933 20.5102 45.4122 19.3677 46.0274" stroke="#676767" stroke-linecap="round" stroke-linejoin="round"/>
<path d="M21.9324 44.6077C23.1752 38.2111 23.5319 34.0396 23.0025 32.0931C22.2084 29.1734 19.6014 26.5619 18.1519 27.7911C16.7023 29.0203 16.0467 36.7068 15.0557 38.7386C14.0648 40.7704 8.88645 51.1538 8.92269 56.0203C8.95893 60.8867 10.562 67.2432 10.1869 68.6895C9.81184 70.1358 8.38548 74.3522 5.29381 77.1001C2.20215 79.848 9.4497 87.2144 12.9896 88.9409C15.3496 90.092 22.3436 90.6291 23.3572 90.3403C24.033 90.1478 24.5999 89.7654 25.058 89.1932" stroke="#676767" stroke-linecap="round" stroke-linejoin="round"/>
<path d="M29.0559 38.485H22.9932" stroke="#676767" stroke-linecap="round" stroke-linejoin="round"/>
<path d="M6.25 38C6.25 36.7574 5.24264 35.75 4 35.75C2.75736 35.75 1.75 36.7574 1.75 38C1.75 39.2426 2.75736 40.25 4 40.25C5.24264 40.25 6.25 39.2426 6.25 38Z" fill="white" stroke="#1B1B1B" stroke-width="1.5"/>
<path d="M7 38C7 36.3431 5.65685 35 4 35C2.34315 35 1 36.3431 1 38C1 39.6569 2.34315 41 4 41C5.65685 41 7 39.6569 7 38Z" stroke="#1B1B1B"/>
<path d="M12.25 69C12.25 67.7574 11.2426 66.75 10 66.75C8.75736 66.75 7.75 67.7574 7.75 69C7.75 70.2426 8.75736 71.25 10 71.25C11.2426 71.25 12.25 70.2426 12.25 69Z" fill="white" stroke="#1B1B1B" stroke-width="1.5"/>
<path d="M13 69C13 67.3431 11.6569 66 10 66C8.34315 66 7 67.3431 7 69C7 70.6569 8.34315 72 10 72C11.6569 72 13 70.6569 13 69Z" stroke="#1B1B1B"/>
<path d="M48.25 65C48.25 63.7574 47.2426 62.75 46 62.75C44.7574 62.75 43.75 63.7574 43.75 65C43.75 66.2426 44.7574 67.25 46 67.25C47.2426 67.25 48.25 66.2426 48.25 65Z" fill="white" stroke="#1B1B1B" stroke-width="1.5"/>
<path d="M49 65C49 63.3431 47.6569 62 46 62C44.3431 62 43 63.3431 43 65C43 66.6569 44.3431 68 46 68C47.6569 68 49 66.6569 49 65Z" stroke="#1B1B1B"/>
<path d="M57.25 9C57.25 7.75736 56.2426 6.75 55 6.75C53.7574 6.75 52.75 7.75736 52.75 9C52.75 10.2426 53.7574 11.25 55 11.25C56.2426 11.25 57.25 10.2426 57.25 9Z" fill="white" stroke="#1B1B1B" stroke-width="1.5"/>
<path d="M58 9C58 7.34315 56.6569 6 55 6C53.3431 6 52 7.34315 52 9C52 10.6569 53.3431 12 55 12C56.6569 12 58 10.6569 58 9Z" stroke="#1B1B1B"/>
</g>
<defs>
<clipPath id="clip0_838_4536">
<rect width="59" height="91" fill="white"/>
</clipPath>
</defs>
</svg>
