<svg width="76" height="74" viewBox="0 0 76 74" fill="none" xmlns="http://www.w3.org/2000/svg">
<g clip-path="url(#clip0_838_3703)">
<path d="M13 12C15.2091 12 17 10.2091 17 8C17 5.79086 15.2091 4 13 4C10.7909 4 9 5.79086 9 8C9 10.2091 10.7909 12 13 12Z" stroke="#676767" stroke-linecap="round" stroke-linejoin="round"/>
<path d="M23 22C25.2091 22 27 20.2091 27 18C27 15.7909 25.2091 14 23 14C20.7909 14 19 15.7909 19 18C19 20.2091 20.7909 22 23 22Z" stroke="#676767" stroke-linecap="round" stroke-linejoin="round"/>
<path d="M9 32C11.2091 32 13 30.2091 13 28C13 25.7909 11.2091 24 9 24C6.79086 24 5 25.7909 5 28C5 30.2091 6.79086 32 9 32Z" stroke="#676767" stroke-linecap="round" stroke-linejoin="round"/>
<path d="M46 46C47.6569 46 49 44.6569 49 43C49 41.3431 47.6569 40 46 40C44.3431 40 43 41.3431 43 43C43 44.6569 44.3431 46 46 46Z" stroke="#676767" stroke-linecap="round" stroke-linejoin="round"/>
<path d="M32 60C33.6569 60 35 58.6569 35 57C35 55.3431 33.6569 54 32 54C30.3431 54 29 55.3431 29 57C29 58.6569 30.3431 60 32 60Z" stroke="#676767" stroke-linecap="round" stroke-linejoin="round"/>
<path d="M51.5 29C52.8807 29 54 27.8807 54 26.5C54 25.1193 52.8807 24 51.5 24C50.1193 24 49 25.1193 49 26.5C49 27.8807 50.1193 29 51.5 29Z" stroke="#676767" stroke-linecap="round" stroke-linejoin="round"/>
<path d="M61.5 20C62.8807 20 64 18.8807 64 17.5C64 16.1193 62.8807 15 61.5 15C60.1193 15 59 16.1193 59 17.5C59 18.8807 60.1193 20 61.5 20Z" stroke="#676767" stroke-linecap="round" stroke-linejoin="round"/>
<path d="M32.5 48C33.8807 48 35 46.8807 35 45.5C35 44.1193 33.8807 43 32.5 43C31.1193 43 30 44.1193 30 45.5C30 46.8807 31.1193 48 32.5 48Z" stroke="#676767" stroke-linecap="round" stroke-linejoin="round"/>
<path d="M49.5 68C50.8807 68 52 66.8807 52 65.5C52 64.1193 50.8807 63 49.5 63C48.1193 63 47 64.1193 47 65.5C47 66.8807 48.1193 68 49.5 68Z" stroke="#676767" stroke-linecap="round" stroke-linejoin="round"/>
<path d="M43 22C45.2091 22 47 20.2091 47 18C47 15.7909 45.2091 14 43 14C40.7909 14 39 15.7909 39 18C39 20.2091 40.7909 22 43 22Z" stroke="#676767" stroke-linecap="round" stroke-linejoin="round"/>
<path d="M43 22C45.2091 22 47 20.2091 47 18C47 15.7909 45.2091 14 43 14C40.7909 14 39 15.7909 39 18C39 20.2091 40.7909 22 43 22Z" stroke="#676767" stroke-linecap="round" stroke-linejoin="round"/>
<path d="M28 10C30.2091 10 32 8.20914 32 6C32 3.79086 30.2091 2 28 2C25.7909 2 24 3.79086 24 6C24 8.20914 25.7909 10 28 10Z" stroke="#676767" stroke-linecap="round" stroke-linejoin="round"/>
<path d="M63 12C65.2091 12 67 10.2091 67 8C67 5.79086 65.2091 4 63 4C60.7909 4 59 5.79086 59 8C59 10.2091 60.7909 12 63 12Z" stroke="#676767" stroke-linecap="round" stroke-linejoin="round"/>
<path d="M63 33C65.2091 33 67 31.2091 67 29C67 26.7909 65.2091 25 63 25C60.7909 25 59 26.7909 59 29C59 31.2091 60.7909 33 63 33Z" stroke="#676767" stroke-linecap="round" stroke-linejoin="round"/>
<path d="M63 63C65.2091 63 67 61.2091 67 59C67 56.7909 65.2091 55 63 55C60.7909 55 59 56.7909 59 59C59 61.2091 60.7909 63 63 63Z" stroke="#676767" stroke-linecap="round" stroke-linejoin="round"/>
<path d="M33 73C35.2091 73 37 71.2091 37 69C37 66.7909 35.2091 65 33 65C30.7909 65 29 66.7909 29 69C29 71.2091 30.7909 73 33 73Z" stroke="#676767" stroke-linecap="round" stroke-linejoin="round"/>
<path fill-rule="evenodd" clip-rule="evenodd" d="M17 44H26V50H17V44Z" stroke="#676767" stroke-linecap="round" stroke-linejoin="round"/>
<path fill-rule="evenodd" clip-rule="evenodd" d="M35 30H44V36H35V30Z" stroke="#676767" stroke-linecap="round" stroke-linejoin="round"/>
<path fill-rule="evenodd" clip-rule="evenodd" d="M66 41H75V47H66V41Z" stroke="#676767" stroke-linecap="round" stroke-linejoin="round"/>
<path fill-rule="evenodd" clip-rule="evenodd" d="M37 1H46V7H37V1Z" stroke="#676767" stroke-linecap="round" stroke-linejoin="round"/>
<path fill-rule="evenodd" clip-rule="evenodd" d="M6 60H15V66H6V60Z" stroke="#676767" stroke-linecap="round" stroke-linejoin="round"/>
<path fill-rule="evenodd" clip-rule="evenodd" d="M6.5 11.5V20.5H0.5V11.5H6.5Z" stroke="#676767" stroke-linecap="round" stroke-linejoin="round"/>
<path fill-rule="evenodd" clip-rule="evenodd" d="M28.5 29.5V38.5H22.5V29.5H28.5Z" stroke="#676767" stroke-linecap="round" stroke-linejoin="round"/>
<path fill-rule="evenodd" clip-rule="evenodd" d="M44.5 49.5V58.5H38.5V49.5H44.5Z" stroke="#676767" stroke-linecap="round" stroke-linejoin="round"/>
<path fill-rule="evenodd" clip-rule="evenodd" d="M5 39H14V45H5V39Z" stroke="#676767" stroke-linecap="round" stroke-linejoin="round"/>
<path fill-rule="evenodd" clip-rule="evenodd" d="M53 39H62V45H53V39Z" stroke="#676767" stroke-linecap="round" stroke-linejoin="round"/>
<path d="M54.2217 53.9407C54.2217 52.698 53.2143 51.6907 51.9717 51.6907C50.729 51.6907 49.7217 52.698 49.7217 53.9407C49.7217 55.1833 50.729 56.1907 51.9717 56.1907C53.2143 56.1907 54.2217 55.1833 54.2217 53.9407Z" fill="white" stroke="#1B1B1B" stroke-width="1.5"/>
<path d="M54.9717 53.9407C54.9717 52.2838 53.6285 50.9407 51.9717 50.9407C50.3148 50.9407 48.9717 52.2838 48.9717 53.9407C48.9717 55.5975 50.3148 56.9407 51.9717 56.9407C53.6285 56.9407 54.9717 55.5975 54.9717 53.9407Z" stroke="#1B1B1B"/>
<path d="M23.2217 55.9407C23.2217 54.698 22.2143 53.6907 20.9717 53.6907C19.729 53.6907 18.7217 54.698 18.7217 55.9407C18.7217 57.1833 19.729 58.1907 20.9717 58.1907C22.2143 58.1907 23.2217 57.1833 23.2217 55.9407Z" fill="white" stroke="#1B1B1B" stroke-width="1.5"/>
<path d="M23.9717 55.9407C23.9717 54.2838 22.6285 52.9407 20.9717 52.9407C19.3148 52.9407 17.9717 54.2838 17.9717 55.9407C17.9717 57.5975 19.3148 58.9407 20.9717 58.9407C22.6285 58.9407 23.9717 57.5975 23.9717 55.9407Z" stroke="#1B1B1B"/>
<path d="M54.25 13C54.25 11.7574 53.2426 10.75 52 10.75C50.7574 10.75 49.75 11.7574 49.75 13C49.75 14.2426 50.7574 15.25 52 15.25C53.2426 15.25 54.25 14.2426 54.25 13Z" fill="white" stroke="#1B1B1B" stroke-width="1.5"/>
<path d="M55 13C55 11.3431 53.6569 10 52 10C50.3431 10 49 11.3431 49 13C49 14.6569 50.3431 16 52 16C53.6569 16 55 14.6569 55 13Z" stroke="#1B1B1B"/>
<path d="M34.25 23C34.25 21.7574 33.2426 20.75 32 20.75C30.7574 20.75 29.75 21.7574 29.75 23C29.75 24.2426 30.7574 25.25 32 25.25C33.2426 25.25 34.25 24.2426 34.25 23Z" fill="white" stroke="#1B1B1B" stroke-width="1.5"/>
<path d="M35 23C35 21.3431 33.6569 20 32 20C30.3431 20 29 21.3431 29 23C29 24.6569 30.3431 26 32 26C33.6569 26 35 24.6569 35 23Z" stroke="#1B1B1B"/>
<path d="M14.25 18C14.25 16.7574 13.2426 15.75 12 15.75C10.7574 15.75 9.75 16.7574 9.75 18C9.75 19.2426 10.7574 20.25 12 20.25C13.2426 20.25 14.25 19.2426 14.25 18Z" fill="white" stroke="#1B1B1B" stroke-width="1.5"/>
<path d="M15 18C15 16.3431 13.6569 15 12 15C10.3431 15 9 16.3431 9 18C9 19.6569 10.3431 21 12 21C13.6569 21 15 19.6569 15 18Z" stroke="#1B1B1B"/>
</g>
<defs>
<clipPath id="clip0_838_3703">
<rect width="76" height="74" fill="white"/>
</clipPath>
</defs>
</svg>
