<svg width="63" height="93" viewBox="0 0 63 93" fill="none" xmlns="http://www.w3.org/2000/svg">
<g clip-path="url(#clip0_838_4096)">
<path d="M28.1622 7.50275C14.1014 9.01916 3.1543 20.926 3.1543 35.3897C3.1543 39.2942 3.95208 43.0125 5.39353 46.3902" stroke="#676767" stroke-linecap="round" stroke-linejoin="round"/>
<path d="M8.42578 51.7624C12.6563 57.6377 19.1039 61.8101 26.5433 63.0542" stroke="#676767" stroke-linecap="round" stroke-linejoin="round"/>
<path d="M35.7114 63.0795C43.0079 61.9009 49.3619 57.9078 53.6236 52.2498" stroke="#676767" stroke-linecap="round" stroke-linejoin="round"/>
<path d="M56.7786 46.928C58.3688 43.4087 59.254 39.5025 59.254 35.3897C59.254 20.9226 48.3018 9.01355 34.2363 7.50165" stroke="#676767" stroke-linecap="round" stroke-linejoin="round"/>
<path d="M31.2041 88.7397H33.9541C33.7489 76.5729 33.5639 67.5423 33.3991 61.4659C33.2343 55.3894 32.961 47.614 32.5791 38.1396" stroke="#676767" stroke-linecap="round" stroke-linejoin="round"/>
<path d="M31.2041 88.7397H28.4541C28.6593 76.5729 28.8443 67.5423 29.0091 61.4659C29.1739 55.3894 29.4473 47.614 29.8291 38.1396" stroke="#676767" stroke-linecap="round" stroke-linejoin="round"/>
<path fill-rule="evenodd" clip-rule="evenodd" d="M30.4509 32.6397H32.0478V1C29.0361 13.391 27.5303 21.1432 27.5303 24.2564C27.5303 27.3697 28.5038 30.1641 30.4509 32.6397Z" stroke="#676767" stroke-linecap="round" stroke-linejoin="round"/>
<path fill-rule="evenodd" clip-rule="evenodd" d="M29.1993 37.417L28.4008 36.034L1 51.8538C14.1151 47.6319 21.4915 44.9953 23.129 43.9439C25.5853 42.3669 27.5978 39.2671 29.1993 37.417Z" stroke="#676767" stroke-linecap="round" stroke-linejoin="round"/>
<path fill-rule="evenodd" clip-rule="evenodd" d="M33.9626 36.1123L33.1641 37.4953L60.5648 53.3152C51.9501 44.8006 45.9388 39.5274 42.5309 37.4953C39.875 35.9117 36.4828 36.1123 33.9626 36.1123Z" stroke="#676767" stroke-linecap="round" stroke-linejoin="round"/>
<path fill-rule="evenodd" clip-rule="evenodd" d="M16.354 88.7397H46.054V92.0397H16.354V88.7397Z" stroke="#676767" stroke-linecap="round" stroke-linejoin="round"/>
<path d="M2.11572 45.1561L5.39325 46.3902L6.73759 43.1155" stroke="#676767" stroke-linecap="round" stroke-linejoin="round"/>
<path d="M54.4512 55.153L53.9417 51.6881L50.4258 52.1" stroke="#676767" stroke-linecap="round" stroke-linejoin="round"/>
<path d="M36.5426 5.11383L34.082 7.60601L36.5269 10.1661" stroke="#676767" stroke-linecap="round" stroke-linejoin="round"/>
<path d="M18.25 12C18.25 10.7574 17.2426 9.75 16 9.75C14.7574 9.75 13.75 10.7574 13.75 12C13.75 13.2426 14.7574 14.25 16 14.25C17.2426 14.25 18.25 13.2426 18.25 12Z" fill="white" stroke="#1B1B1B" stroke-width="1.5"/>
<path d="M19 12C19 10.3431 17.6569 9 16 9C14.3431 9 13 10.3431 13 12C13 13.6569 14.3431 15 16 15C17.6569 15 19 13.6569 19 12Z" stroke="#1B1B1B"/>
<path d="M33.3398 35.1061C33.3398 33.8635 32.3325 32.8561 31.0898 32.8561C29.8472 32.8561 28.8398 33.8635 28.8398 35.1061C28.8398 36.3488 29.8472 37.3561 31.0898 37.3561C32.3325 37.3561 33.3398 36.3488 33.3398 35.1061Z" fill="white" stroke="#1B1B1B" stroke-width="1.5"/>
<path d="M34.0898 35.1061C34.0898 33.4493 32.7467 32.1061 31.0898 32.1061C29.433 32.1061 28.0898 33.4493 28.0898 35.1061C28.0898 36.763 29.433 38.1061 31.0898 38.1061C32.7467 38.1061 34.0898 36.763 34.0898 35.1061Z" stroke="#1B1B1B"/>
<path d="M61.25 36C61.25 34.7574 60.2426 33.75 59 33.75C57.7574 33.75 56.75 34.7574 56.75 36C56.75 37.2426 57.7574 38.25 59 38.25C60.2426 38.25 61.25 37.2426 61.25 36Z" fill="white" stroke="#1B1B1B" stroke-width="1.5"/>
<path d="M62 36C62 34.3431 60.6569 33 59 33C57.3431 33 56 34.3431 56 36C56 37.6569 57.3431 39 59 39C60.6569 39 62 37.6569 62 36Z" stroke="#1B1B1B"/>
<path d="M16.25 58C16.25 56.7574 15.2426 55.75 14 55.75C12.7574 55.75 11.75 56.7574 11.75 58C11.75 59.2426 12.7574 60.25 14 60.25C15.2426 60.25 16.25 59.2426 16.25 58Z" fill="white" stroke="#1B1B1B" stroke-width="1.5"/>
<path d="M17 58C17 56.3431 15.6569 55 14 55C12.3431 55 11 56.3431 11 58C11 59.6569 12.3431 61 14 61C15.6569 61 17 59.6569 17 58Z" stroke="#1B1B1B"/>
</g>
<defs>
<clipPath id="clip0_838_4096">
<rect width="63" height="93" fill="white"/>
</clipPath>
</defs>
</svg>
