<svg width="81" height="85" viewBox="0 0 81 85" fill="none" xmlns="http://www.w3.org/2000/svg">
<g clip-path="url(#clip0_838_4498)">
<path fill-rule="evenodd" clip-rule="evenodd" d="M46.7414 27.9026C49.6343 29.6409 53.3887 28.7048 55.1269 25.8119C56.8652 22.9189 55.9291 19.1646 53.0362 17.4263C50.1432 15.6881 46.3889 16.6241 44.6506 19.5171C42.9124 22.41 43.8484 26.1644 46.7414 27.9026Z" stroke="#676767" stroke-linecap="round" stroke-linejoin="round"/>
<path fill-rule="evenodd" clip-rule="evenodd" d="M48.7424 52.0115C48.3292 52.2598 47.793 52.1261 47.5447 51.7129C47.2964 51.2997 47.4301 50.7635 47.8433 50.5152C48.2565 50.2669 48.7928 50.4006 49.0411 50.8138C49.2893 51.227 49.1556 51.7632 48.7424 52.0115Z" stroke="#676767" stroke-linecap="round" stroke-linejoin="round"/>
<path fill-rule="evenodd" clip-rule="evenodd" d="M45.3927 30.1476C49.5255 32.6308 54.8889 31.2935 57.3721 27.1608C59.8553 23.028 58.5181 17.6646 54.3853 15.1814C50.2525 12.6982 44.8892 14.0354 42.406 18.1682C39.9227 22.301 41.26 27.6643 45.3927 30.1476Z" stroke="#676767" stroke-linecap="round" stroke-linejoin="round"/>
<path d="M57.372 27.1608C52.0279 40.4084 49.5105 47.3614 49.82 48.0197C50.2843 49.0072 53.1269 49.3656 50.7924 54.958C48.4579 60.5504 38.2051 81.6252 37.502 83.0003C36.799 84.3753 36.204 84.5988 35.7703 84.3382C35.3366 84.0777 35.1793 83.7543 35.4798 82.1821C35.6801 81.134 37.8277 73.8691 41.9224 60.3873C46.8148 46.2896 49.4831 38.473 49.9274 36.9375C50.5937 34.6342 50.2178 32.7027 47.7307 31.2083" stroke="#676767" stroke-linecap="round" stroke-linejoin="round"/>
<path d="M41.9224 60.3873C43.03 60.4726 43.4973 61.0871 43.3242 62.2309C43.1518 63.3695 41.0381 70.5619 36.9829 83.8081" stroke="#676767" stroke-linecap="round" stroke-linejoin="round"/>
<path fill-rule="evenodd" clip-rule="evenodd" d="M68.0334 40.6961C65.1404 38.9578 64.2044 35.2035 65.9426 32.3105C67.6809 29.4176 71.4352 28.4815 74.3282 30.2198C77.2211 31.958 78.1572 35.7124 76.4189 38.6053C74.6807 41.4983 70.9263 42.4343 68.0334 40.6961Z" stroke="#676767" stroke-linecap="round" stroke-linejoin="round"/>
<path fill-rule="evenodd" clip-rule="evenodd" d="M66.6842 42.9409C62.5515 40.4577 61.2142 35.0944 63.6975 30.9616C66.1807 26.8288 71.544 25.4916 75.6768 27.9748C79.8096 30.458 81.1468 35.8214 78.6636 39.9542C76.1804 44.0869 70.817 45.4242 66.6842 42.9409Z" stroke="#676767" stroke-linecap="round" stroke-linejoin="round"/>
<path d="M63.6974 30.9616C58.4263 37.2367 54.5476 41.7176 52.0613 44.4045L50.0649 46.5767" stroke="#676767" stroke-linecap="round" stroke-linejoin="round"/>
<path d="M46.5585 46.8843C45.5301 46.8945 44.1591 47.4838 42.2432 49.821C38.4014 54.5077 24.6068 73.4545 23.7228 74.7208C22.8388 75.9871 22.9208 76.6174 23.3545 76.878C23.7882 77.1386 24.1475 77.1256 25.3946 76.1222C26.226 75.4533 31.6323 70.1465 41.6136 60.2017C41.8098 59.9902 42.0044 59.7806 42.1973 59.5728" stroke="#676767" stroke-linecap="round" stroke-linejoin="round"/>
<path d="M51.6206 49.4476C55.558 45.2343 57.8712 42.7933 58.5603 42.1247C60.2812 40.455 62.1631 39.8802 64.6502 41.3745" stroke="#676767" stroke-linecap="round" stroke-linejoin="round"/>
<path d="M53.3638 37.3481L55.3234 40.7422" stroke="#676767" stroke-linecap="round" stroke-linejoin="round"/>
<path d="M28.6663 67.6528L1 19.8888V79.4974H35.527L30.6929 71.1518" stroke="#676767" stroke-linecap="round" stroke-linejoin="round"/>
<path fill-rule="evenodd" clip-rule="evenodd" d="M8.66748 47.9919V72.2419H22.2475L8.66748 47.9919Z" stroke="#676767" stroke-linecap="round" stroke-linejoin="round"/>
<path d="M1 27.4506H2.97664" stroke="#676767" stroke-linecap="round" stroke-linejoin="round"/>
<path d="M1 32.624H2.97664" stroke="#676767" stroke-linecap="round" stroke-linejoin="round"/>
<path d="M1 37.7973H2.97664" stroke="#676767" stroke-linecap="round" stroke-linejoin="round"/>
<path d="M1 42.9706H2.97664" stroke="#676767" stroke-linecap="round" stroke-linejoin="round"/>
<path d="M1 48.1439H2.97664" stroke="#676767" stroke-linecap="round" stroke-linejoin="round"/>
<path d="M1 53.3173H2.97664" stroke="#676767" stroke-linecap="round" stroke-linejoin="round"/>
<path d="M1 58.4906H2.97664" stroke="#676767" stroke-linecap="round" stroke-linejoin="round"/>
<path d="M1 63.6639H2.97664" stroke="#676767" stroke-linecap="round" stroke-linejoin="round"/>
<path d="M1 68.8373H2.97664" stroke="#676767" stroke-linecap="round" stroke-linejoin="round"/>
<path d="M1 74.0106H2.97664" stroke="#676767" stroke-linecap="round" stroke-linejoin="round"/>
<path fill-rule="evenodd" clip-rule="evenodd" d="M20.37 4.77903L25.3614 52.2688L28.799 59.6279L30.8393 51.6931L25.848 4.20327C25.6049 1.89054 24.5704 0.830139 22.7444 1.02206C20.9184 1.21398 20.1269 2.4663 20.37 4.77903Z" stroke="#676767" stroke-linecap="round" stroke-linejoin="round"/>
<path d="M25.3613 52.2688L30.8191 51.5012" stroke="#676767" stroke-linecap="round" stroke-linejoin="round"/>
<path d="M28.25 12C28.25 10.7574 27.2426 9.75 26 9.75C24.7574 9.75 23.75 10.7574 23.75 12C23.75 13.2426 24.7574 14.25 26 14.25C27.2426 14.25 28.25 13.2426 28.25 12Z" fill="white" stroke="#1B1B1B" stroke-width="1.5"/>
<path d="M29 12C29 10.3431 27.6569 9 26 9C24.3431 9 23 10.3431 23 12C23 13.6569 24.3431 15 26 15C27.6569 15 29 13.6569 29 12Z" stroke="#1B1B1B"/>
<path d="M15.25 40C15.25 38.7574 14.2426 37.75 13 37.75C11.7574 37.75 10.75 38.7574 10.75 40C10.75 41.2426 11.7574 42.25 13 42.25C14.2426 42.25 15.25 41.2426 15.25 40Z" fill="white" stroke="#1B1B1B" stroke-width="1.5"/>
<path d="M16 40C16 38.3431 14.6569 37 13 37C11.3431 37 10 38.3431 10 40C10 41.6569 11.3431 43 13 43C14.6569 43 16 41.6569 16 40Z" stroke="#1B1B1B"/>
<path d="M30.25 67C30.25 65.7574 29.2426 64.75 28 64.75C26.7574 64.75 25.75 65.7574 25.75 67C25.75 68.2426 26.7574 69.25 28 69.25C29.2426 69.25 30.25 68.2426 30.25 67Z" fill="white" stroke="#1B1B1B" stroke-width="1.5"/>
<path d="M31 67C31 65.3431 29.6569 64 28 64C26.3431 64 25 65.3431 25 67C25 68.6569 26.3431 70 28 70C29.6569 70 31 68.6569 31 67Z" stroke="#1B1B1B"/>
</g>
<defs>
<clipPath id="clip0_838_4498">
<rect width="81" height="85" fill="white"/>
</clipPath>
</defs>
</svg>
