<svg width="91" height="93" viewBox="0 0 91 93" fill="none" xmlns="http://www.w3.org/2000/svg">
<g clip-path="url(#clip0_838_3503)">
<path fill-rule="evenodd" clip-rule="evenodd" d="M21.7554 47.2146C21.7554 60.3094 32.3685 70.9184 45.4591 70.9184C58.5518 70.9184 69.1629 60.3094 69.1629 47.2146C69.1629 34.126 58.5518 23.5109 45.4591 23.5109C32.3685 23.5109 21.7554 34.126 21.7554 47.2146Z" stroke="#676767" stroke-linecap="round" stroke-linejoin="round"/>
<path fill-rule="evenodd" clip-rule="evenodd" d="M26.1655 47.2146C26.1655 57.8732 34.8041 66.5084 45.4593 66.5084C56.1161 66.5084 64.753 57.8732 64.753 47.2146C64.753 36.5611 56.1161 27.9209 45.4593 27.9209C34.8041 27.9209 26.1655 36.5611 26.1655 47.2146Z" stroke="#676767" stroke-linecap="round" stroke-linejoin="round"/>
<path fill-rule="evenodd" clip-rule="evenodd" d="M34.9854 47.2147C34.9854 53.0007 39.6749 57.6884 45.4591 57.6884C51.2443 57.6884 55.9328 53.0007 55.9328 47.2147C55.9328 41.4313 51.2443 36.7409 45.4591 36.7409C39.6749 36.7409 34.9854 41.4313 34.9854 47.2147Z" stroke="#676767" stroke-linecap="round" stroke-linejoin="round"/>
<path fill-rule="evenodd" clip-rule="evenodd" d="M38.293 47.2146C38.293 51.1735 41.5016 54.3809 45.4592 54.3809C49.4175 54.3809 52.6255 51.1735 52.6255 47.2146C52.6255 43.2576 49.4175 40.0484 45.4592 40.0484C41.5016 40.0484 38.293 43.2576 38.293 47.2146Z" stroke="#676767" stroke-linecap="round" stroke-linejoin="round"/>
<path d="M34.9854 25.6395V17.8019L42.3403 12.9334V6.89703" stroke="#676767" stroke-linecap="round" stroke-linejoin="round"/>
<path d="M42.5114 23.5109V18.1125L31.6777 11.3834" stroke="#676767" stroke-linecap="round" stroke-linejoin="round"/>
<path d="M62.7261 30.489V23.5109L66.9714 20.1977V14.8742" stroke="#676767" stroke-linecap="round" stroke-linejoin="round"/>
<path d="M22.1049 42.2534H13.3657" stroke="#676767" stroke-linecap="round" stroke-linejoin="round"/>
<path d="M21.7554 49.2631H13.3657L9.09972 53.1561H1" stroke="#676767" stroke-linecap="round" stroke-linejoin="round"/>
<path d="M33.5474 67.8109V73.1676L40.6149 80.2352V89.6609" stroke="#676767" stroke-linecap="round" stroke-linejoin="round"/>
<path d="M52.6253 70.2322V77.6807L47.1128 83.1932V92.3579" stroke="#676767" stroke-linecap="round" stroke-linejoin="round"/>
<path d="M67.7646 55.7429H76.4688L82.9487 49.2631H89.974" stroke="#676767" stroke-linecap="round" stroke-linejoin="round"/>
<path d="M47.1128 70.9184V76.6117L52.6253 82.1243V86.4576H58.3573" stroke="#676767" stroke-linecap="round" stroke-linejoin="round"/>
<path d="M29.9173 65.176V77.1288L25.0869 81.9592" stroke="#676767" stroke-linecap="round" stroke-linejoin="round"/>
<path d="M63.105 63.1428H70.8756L75.5436 67.8109H80.4799" stroke="#676767" stroke-linecap="round" stroke-linejoin="round"/>
<path d="M67.375 37.9504L71.7925 33.5329H77.0366L81.6006 28.9689" stroke="#676767" stroke-linecap="round" stroke-linejoin="round"/>
<path d="M27.5025 31.193L22.105 25.7955H14.2435L9.86279 21.4148" stroke="#676767" stroke-linecap="round" stroke-linejoin="round"/>
<path d="M26.1654 60.9504L22.2138 64.9019H16.3096L11.999 69.2125" stroke="#676767" stroke-linecap="round" stroke-linejoin="round"/>
<path d="M51.6616 24.3177L55.9328 20.0465V14.8742" stroke="#676767" stroke-linecap="round" stroke-linejoin="round"/>
<path d="M44.5684 3.79053C44.5684 2.54789 43.561 1.54053 42.3184 1.54053C41.0757 1.54053 40.0684 2.54789 40.0684 3.79053C40.0684 5.03317 41.0757 6.04053 42.3184 6.04053C43.561 6.04053 44.5684 5.03317 44.5684 3.79053Z" fill="white" stroke="#1B1B1B" stroke-width="1.5"/>
<path d="M45.3184 3.79053C45.3184 2.13367 43.9752 0.790527 42.3184 0.790527C40.6615 0.790527 39.3184 2.13367 39.3184 3.79053C39.3184 5.44738 40.6615 6.79053 42.3184 6.79053C43.9752 6.79053 45.3184 5.44738 45.3184 3.79053Z" stroke="#1B1B1B"/>
<path d="M12.5684 42.3585C12.5684 41.1158 11.561 40.1085 10.3184 40.1085C9.07572 40.1085 8.06836 41.1158 8.06836 42.3585C8.06836 43.6011 9.07572 44.6085 10.3184 44.6085C11.561 44.6085 12.5684 43.6011 12.5684 42.3585Z" fill="white" stroke="#1B1B1B" stroke-width="1.5"/>
<path d="M13.3184 42.3585C13.3184 40.7016 11.9752 39.3585 10.3184 39.3585C8.66151 39.3585 7.31836 40.7016 7.31836 42.3585C7.31836 44.0153 8.66151 45.3585 10.3184 45.3585C11.9752 45.3585 13.3184 44.0153 13.3184 42.3585Z" stroke="#1B1B1B"/>
<path d="M63.5161 86.2003C63.5161 84.9576 62.5088 83.9503 61.2661 83.9503C60.0235 83.9503 59.0161 84.9576 59.0161 86.2003C59.0161 87.4429 60.0235 88.4503 61.2661 88.4503C62.5088 88.4503 63.5161 87.4429 63.5161 86.2003Z" fill="white" stroke="#1B1B1B" stroke-width="1.5"/>
<path d="M64.2661 86.2003C64.2661 84.5434 62.923 83.2003 61.2661 83.2003C59.6093 83.2003 58.2661 84.5434 58.2661 86.2003C58.2661 87.8571 59.6093 89.2003 61.2661 89.2003C62.923 89.2003 64.2661 87.8571 64.2661 86.2003Z" stroke="#1B1B1B"/>
<path d="M46.25 44.9999C46.25 43.7572 45.2426 42.7499 44 42.7499C42.7574 42.7499 41.75 43.7572 41.75 44.9999C41.75 46.2425 42.7574 47.2499 44 47.2499C45.2426 47.2499 46.25 46.2425 46.25 44.9999Z" fill="white" stroke="#1B1B1B" stroke-width="1.5"/>
<path d="M47 44.9999C47 43.343 45.6569 41.9999 44 41.9999C42.3431 41.9999 41 43.343 41 44.9999C41 46.6567 42.3431 47.9999 44 47.9999C45.6569 47.9999 47 46.6567 47 44.9999Z" stroke="#1B1B1B"/>
<path d="M69.25 11.9999C69.25 10.7572 68.2426 9.74988 67 9.74988C65.7574 9.74988 64.75 10.7572 64.75 11.9999C64.75 13.2425 65.7574 14.2499 67 14.2499C68.2426 14.2499 69.25 13.2425 69.25 11.9999Z" fill="white" stroke="#1B1B1B" stroke-width="1.5"/>
<path d="M70 11.9999C70 10.343 68.6569 8.99988 67 8.99988C65.3431 8.99988 64 10.343 64 11.9999C64 13.6567 65.3431 14.9999 67 14.9999C68.6569 14.9999 70 13.6567 70 11.9999Z" stroke="#1B1B1B"/>
<path d="M85.4448 67.7104C85.4448 66.4677 84.4375 65.4604 83.1948 65.4604C81.9522 65.4604 80.9448 66.4677 80.9448 67.7104C80.9448 68.953 81.9522 69.9604 83.1948 69.9604C84.4375 69.9604 85.4448 68.953 85.4448 67.7104Z" fill="white" stroke="#1B1B1B" stroke-width="1.5"/>
<path d="M86.1948 67.7104C86.1948 66.0535 84.8517 64.7104 83.1948 64.7104C81.538 64.7104 80.1948 66.0535 80.1948 67.7104C80.1948 69.3672 81.538 70.7104 83.1948 70.7104C84.8517 70.7104 86.1948 69.3672 86.1948 67.7104Z" stroke="#1B1B1B"/>
</g>
<defs>
<clipPath id="clip0_838_3503">
<rect width="91" height="93" fill="white"/>
</clipPath>
</defs>
</svg>
