<svg width="88" height="88" viewBox="0 0 88 88" fill="none" xmlns="http://www.w3.org/2000/svg">
<g clip-path="url(#clip0_838_4015)">
<path d="M14.437 48.9821C14.437 53.0095 14.437 56.2414 14.437 56.683C14.437 57.9198 13.2283 58.4958 12.4658 58.4958C11.7033 58.4958 3.95746 58.4958 2.98075 58.4958C2.00404 58.4958 1 57.5714 1 56.5246C1 55.4778 1 32.3758 1 31.1353C1 29.8947 2.04868 29 3.1092 29C4.16971 29 11.2382 29 12.2783 29C13.3183 29 14.437 29.9549 14.437 31.1353C14.437 31.5649 14.437 34.9025 14.437 39.034" stroke="#676767" stroke-linecap="round" stroke-linejoin="round"/>
<path d="M1 34.3109C1 32.9683 1.72095 32 2.78147 32C3.84198 32 11.566 32 12.606 32C13.646 32 14.437 33.0335 14.437 34.3109" stroke="#676767" stroke-linecap="round" stroke-linejoin="round"/>
<path d="M74 34.3109C74 32.9683 74.721 32 75.7815 32C76.842 32 84.566 32 85.606 32C86.646 32 87.437 33.0335 87.437 34.3109" stroke="#676767" stroke-linecap="round" stroke-linejoin="round"/>
<path d="M74 38.9513C74 34.7722 74 31.5659 74 31.1115C74 29.8848 74.7211 29 75.7819 29C76.8426 29 84.5684 29 85.6086 29C86.6489 29 87.44 29.9443 87.44 31.1115C87.44 32.2788 87.44 55.1523 87.44 56.3754C87.44 57.5984 86.5589 58.1681 85.7962 58.1681C85.0335 58.1681 76.6303 58.1681 75.6534 58.1681C74.6765 58.1681 74 57.254 74 56.2188C74 55.8526 74 52.8822 74 48.9806" stroke="#676767" stroke-linecap="round" stroke-linejoin="round"/>
<path d="M19.54 41.8647L39.2499 22.6589" stroke="#676767" stroke-linecap="round" stroke-linejoin="round"/>
<path d="M18.2676 40.2323L39.5343 7.82996" stroke="#676767" stroke-linecap="round" stroke-linejoin="round"/>
<path d="M19.54 46.3135L39.2499 64.5498" stroke="#676767" stroke-linecap="round" stroke-linejoin="round"/>
<path d="M18.293 47.8232L39.3944 80.4935" stroke="#676767" stroke-linecap="round" stroke-linejoin="round"/>
<path d="M68.4277 41.8424L49.2498 22.6589" stroke="#676767" stroke-linecap="round" stroke-linejoin="round"/>
<path d="M69.9907 39.9906L48.9678 7.82996" stroke="#676767" stroke-linecap="round" stroke-linejoin="round"/>
<path d="M68.4277 46.3135L49.2498 64.5498" stroke="#676767" stroke-linecap="round" stroke-linejoin="round"/>
<path d="M68 44.012H52.9227" stroke="#676767" stroke-linecap="round" stroke-linejoin="round"/>
<path d="M35.4507 44.012H20" stroke="#676767" stroke-linecap="round" stroke-linejoin="round"/>
<path d="M70.0122 48.0243L49.0802 80.4935" stroke="#676767" stroke-linecap="round" stroke-linejoin="round"/>
<path d="M44.25 11C47.0114 11 49.25 8.76142 49.25 6C49.25 3.23858 47.0114 1 44.25 1C41.4886 1 39.25 3.23858 39.25 6C39.25 8.76142 41.4886 11 44.25 11Z" stroke="#676767" stroke-linecap="round" stroke-linejoin="round"/>
<path d="M44.25 27C47.0114 27 49.25 24.7614 49.25 22C49.25 19.2386 47.0114 17 44.25 17C41.4886 17 39.25 19.2386 39.25 22C39.25 24.7614 41.4886 27 44.25 27Z" stroke="#676767" stroke-linecap="round" stroke-linejoin="round"/>
<path d="M44.25 71C47.0114 71 49.25 68.7614 49.25 66C49.25 63.2386 47.0114 61 44.25 61C41.4886 61 39.25 63.2386 39.25 66C39.25 68.7614 41.4886 71 44.25 71Z" stroke="#676767" stroke-linecap="round" stroke-linejoin="round"/>
<path d="M44.25 87C47.0114 87 49.25 84.7614 49.25 82C49.25 79.2386 47.0114 77 44.25 77C41.4886 77 39.25 79.2386 39.25 82C39.25 84.7614 41.4886 87 44.25 87Z" stroke="#676767" stroke-linecap="round" stroke-linejoin="round"/>
<path d="M73 49C75.7614 49 78 46.7614 78 44C78 41.2386 75.7614 39 73 39C70.2386 39 68 41.2386 68 44C68 46.7614 70.2386 49 73 49Z" stroke="#676767" stroke-linecap="round" stroke-linejoin="round"/>
<path d="M15 49C17.7614 49 20 46.7614 20 44C20 41.2386 17.7614 39 15 39C12.2386 39 10 41.2386 10 44C10 46.7614 12.2386 49 15 49Z" stroke="#676767" stroke-linecap="round" stroke-linejoin="round"/>
<path d="M44.1867 32C39.8187 33.8246 35.4507 38.0952 35.4507 42.92C35.4507 47.7448 39.8187 52.803 44.1867 56.024" stroke="#676767" stroke-linecap="round" stroke-linejoin="round"/>
<path d="M44.1865 32C48.5545 33.8246 52.9225 38.0952 52.9225 42.92C52.9225 47.7448 48.5545 52.803 44.1865 56.024" stroke="#676767" stroke-linecap="round" stroke-linejoin="round"/>
<path d="M44.1868 50.0795L39.8188 45.7115" stroke="#676767" stroke-linecap="round" stroke-linejoin="round"/>
<path d="M44.1868 43.5275L39.8188 39.1595" stroke="#676767" stroke-linecap="round" stroke-linejoin="round"/>
<path d="M44.1865 50.0795L48.5545 45.7115" stroke="#676767" stroke-linecap="round" stroke-linejoin="round"/>
<path d="M44.1865 43.5275L48.5545 39.1595" stroke="#676767" stroke-linecap="round" stroke-linejoin="round"/>
<path d="M44.1865 32V55.8499" stroke="#676767" stroke-linecap="round" stroke-linejoin="round"/>
<path d="M46.4751 5.9527C46.4751 4.71006 45.4677 3.7027 44.2251 3.7027C42.9825 3.7027 41.9751 4.71006 41.9751 5.9527C41.9751 7.19534 42.9825 8.2027 44.2251 8.2027C45.4677 8.2027 46.4751 7.19534 46.4751 5.9527Z" fill="white" stroke="#1B1B1B" stroke-width="1.5"/>
<path d="M47.2251 5.9527C47.2251 4.29584 45.882 2.9527 44.2251 2.9527C42.5682 2.9527 41.2251 4.29584 41.2251 5.9527C41.2251 7.60955 42.5682 8.9527 44.2251 8.9527C45.882 8.9527 47.2251 7.60955 47.2251 5.9527Z" stroke="#1B1B1B"/>
<path d="M46.4751 21.9527C46.4751 20.7101 45.4677 19.7027 44.2251 19.7027C42.9825 19.7027 41.9751 20.7101 41.9751 21.9527C41.9751 23.1953 42.9825 24.2027 44.2251 24.2027C45.4677 24.2027 46.4751 23.1953 46.4751 21.9527Z" fill="white" stroke="#1B1B1B" stroke-width="1.5"/>
<path d="M47.2251 21.9527C47.2251 20.2958 45.882 18.9527 44.2251 18.9527C42.5682 18.9527 41.2251 20.2958 41.2251 21.9527C41.2251 23.6096 42.5682 24.9527 44.2251 24.9527C45.882 24.9527 47.2251 23.6096 47.2251 21.9527Z" stroke="#1B1B1B"/>
<path d="M46.4751 65.9527C46.4751 64.7101 45.4677 63.7027 44.2251 63.7027C42.9825 63.7027 41.9751 64.7101 41.9751 65.9527C41.9751 67.1953 42.9825 68.2027 44.2251 68.2027C45.4677 68.2027 46.4751 67.1953 46.4751 65.9527Z" fill="white" stroke="#1B1B1B" stroke-width="1.5"/>
<path d="M47.2251 65.9527C47.2251 64.2958 45.882 62.9527 44.2251 62.9527C42.5682 62.9527 41.2251 64.2958 41.2251 65.9527C41.2251 67.6096 42.5682 68.9527 44.2251 68.9527C45.882 68.9527 47.2251 67.6096 47.2251 65.9527Z" stroke="#1B1B1B"/>
<path d="M46.4751 81.9527C46.4751 80.7101 45.4677 79.7027 44.2251 79.7027C42.9825 79.7027 41.9751 80.7101 41.9751 81.9527C41.9751 83.1953 42.9825 84.2027 44.2251 84.2027C45.4677 84.2027 46.4751 83.1953 46.4751 81.9527Z" fill="white" stroke="#1B1B1B" stroke-width="1.5"/>
<path d="M47.2251 81.9527C47.2251 80.2958 45.882 78.9527 44.2251 78.9527C42.5682 78.9527 41.2251 80.2958 41.2251 81.9527C41.2251 83.6096 42.5682 84.9527 44.2251 84.9527C45.882 84.9527 47.2251 83.6096 47.2251 81.9527Z" stroke="#1B1B1B"/>
<path d="M75.25 44C75.25 42.7574 74.2426 41.75 73 41.75C71.7574 41.75 70.75 42.7574 70.75 44C70.75 45.2426 71.7574 46.25 73 46.25C74.2426 46.25 75.25 45.2426 75.25 44Z" fill="white" stroke="#1B1B1B" stroke-width="1.5"/>
<path d="M76 44C76 42.3431 74.6569 41 73 41C71.3431 41 70 42.3431 70 44C70 45.6569 71.3431 47 73 47C74.6569 47 76 45.6569 76 44Z" stroke="#1B1B1B"/>
<path d="M17.25 44C17.25 42.7574 16.2426 41.75 15 41.75C13.7574 41.75 12.75 42.7574 12.75 44C12.75 45.2426 13.7574 46.25 15 46.25C16.2426 46.25 17.25 45.2426 17.25 44Z" fill="white" stroke="#1B1B1B" stroke-width="1.5"/>
<path d="M18 44C18 42.3431 16.6569 41 15 41C13.3431 41 12 42.3431 12 44C12 45.6569 13.3431 47 15 47C16.6569 47 18 45.6569 18 44Z" stroke="#1B1B1B"/>
</g>
<defs>
<clipPath id="clip0_838_4015">
<rect width="88" height="88" fill="white"/>
</clipPath>
</defs>
</svg>
