<svg width="81" height="90" viewBox="0 0 81 90" fill="none" xmlns="http://www.w3.org/2000/svg">
<g clip-path="url(#clip0_838_4296)">
<path d="M40.3119 54.7508C45.8949 54.7508 50.4207 50.2249 50.4207 44.642C50.4207 39.0591 45.8949 34.5332 40.3119 34.5332C34.729 34.5332 30.2031 39.0591 30.2031 44.642C30.2031 50.2249 34.729 54.7508 40.3119 54.7508Z" stroke="#676767" stroke-linecap="round" stroke-linejoin="round"/>
<path d="M58.885 34.1234C55.2171 27.661 48.2738 23.3012 40.3122 23.3012C32.4188 23.3012 25.5264 27.5866 21.8345 33.9577" stroke="#676767" stroke-linecap="round" stroke-linejoin="round"/>
<path d="M51.0163 31.6298C48.4044 29.4774 45.1208 28.0892 41.4872 27.8351C36.9679 27.519 32.7405 29.0159 29.5171 31.7066" stroke="#676767" stroke-linecap="round" stroke-linejoin="round"/>
<path d="M27.2169 34.0392C25.1118 36.6345 23.7559 39.8802 23.5051 43.4668C23.1919 47.9453 24.6591 52.1372 27.3041 55.3494" stroke="#676767" stroke-linecap="round" stroke-linejoin="round"/>
<path d="M30.0049 57.9716C32.5492 59.9427 35.6851 61.2076 39.1367 61.449C43.6598 61.7653 47.8906 60.2656 51.115 57.5707" stroke="#676767" stroke-linecap="round" stroke-linejoin="round"/>
<path d="M53.5385 55.081C55.5686 52.5135 56.8734 49.3288 57.119 45.8173C57.4329 41.3284 55.9583 37.1275 53.3018 33.9125" stroke="#676767" stroke-linecap="round" stroke-linejoin="round"/>
<path d="M16.7632 13.1608C7.19288 20.3311 1 31.7634 1 44.642C1 52.24 3.15547 59.3345 6.88828 65.3474" stroke="#676767" stroke-linecap="round" stroke-linejoin="round"/>
<path d="M73.5643 65.6207C77.4024 59.5499 79.6238 52.3554 79.6238 44.642C79.6238 33.0178 74.5787 22.572 66.5586 15.3748C66.0938 14.9577 65.6191 14.5516 65.1348 14.1567" stroke="#676767" stroke-linecap="round" stroke-linejoin="round"/>
<path d="M58.9385 34.0835C59.826 33.5711 61.1574 32.8024 62.9325 31.7775" stroke="#676767" stroke-linecap="round" stroke-linejoin="round"/>
<path d="M51.208 26.2517C51.7122 25.3784 52.4685 24.0684 53.4769 22.3218" stroke="#676767" stroke-linecap="round" stroke-linejoin="round"/>
<path d="M40.5601 23.2606C40.5601 22.2829 40.5601 20.8162 40.5601 18.8607" stroke="#676767" stroke-linecap="round" stroke-linejoin="round"/>
<path d="M29.7368 25.9484C29.2715 25.1425 28.5736 23.9336 27.643 22.3218" stroke="#676767" stroke-linecap="round" stroke-linejoin="round"/>
<path d="M21.7793 33.8514C20.9811 33.3905 19.7837 32.6992 18.1872 31.7775" stroke="#676767" stroke-linecap="round" stroke-linejoin="round"/>
<path d="M38.0884 67.0903L40.5599 64.6188L43.0315 67.0903" stroke="#676767" stroke-linecap="round" stroke-linejoin="round"/>
<path d="M20.0946 70.4756H6.61621V76.0916H20.0946V70.4756Z" stroke="#676767" stroke-linecap="round" stroke-linejoin="round"/>
<path d="M20.0946 49.1348H9.98584V53.6276H20.0946V49.1348Z" stroke="#676767" stroke-linecap="round" stroke-linejoin="round"/>
<path d="M70.6386 49.1348H60.5298V53.6276H70.6386V49.1348Z" stroke="#676767" stroke-linecap="round" stroke-linejoin="round"/>
<path d="M38.0658 70.4756H24.5874V76.0916H38.0658V70.4756Z" stroke="#676767" stroke-linecap="round" stroke-linejoin="round"/>
<path d="M56.037 70.4756H42.5586V76.0916H56.037V70.4756Z" stroke="#676767" stroke-linecap="round" stroke-linejoin="round"/>
<path d="M74.0082 70.4756H60.5298V76.0916H74.0082V70.4756Z" stroke="#676767" stroke-linecap="round" stroke-linejoin="round"/>
<path fill-rule="evenodd" clip-rule="evenodd" d="M14.8373 22.178L11.7681 27.6557H17.9065L14.8373 22.178Z" stroke="#676767" stroke-linecap="round" stroke-linejoin="round"/>
<path fill-rule="evenodd" clip-rule="evenodd" d="M65.3812 22.178L62.312 27.6557H68.4504L65.3812 22.178Z" stroke="#676767" stroke-linecap="round" stroke-linejoin="round"/>
<path d="M25.8335 15.1804H31.4371" stroke="#676767" stroke-linecap="round" stroke-linejoin="round"/>
<path d="M33.6958 15.1804H39.2994" stroke="#676767" stroke-linecap="round" stroke-linejoin="round"/>
<path d="M41.5581 15.1804H47.1617" stroke="#676767" stroke-linecap="round" stroke-linejoin="round"/>
<path d="M49.4209 15.1804H55.0245" stroke="#676767" stroke-linecap="round" stroke-linejoin="round"/>
<path fill-rule="evenodd" clip-rule="evenodd" d="M38.1764 45.6295L35.3746 51.3812H25.3145L34.6961 45.6295H38.1764Z" stroke="#676767" stroke-linecap="round" stroke-linejoin="round"/>
<path fill-rule="evenodd" clip-rule="evenodd" d="M42.1626 45.6295L44.9644 51.3812H55.0245L45.6429 45.6295H42.1626Z" stroke="#676767" stroke-linecap="round" stroke-linejoin="round"/>
<path d="M6.61621 42.2503H74.0082" stroke="#676767" stroke-linecap="round" stroke-linejoin="round"/>
<path d="M11.7681 7.30078H68.4505" stroke="#676767" stroke-linecap="round" stroke-linejoin="round"/>
<path d="M18.5073 82.5552H61.7113" stroke="#676767" stroke-linecap="round" stroke-linejoin="round"/>
<path d="M26.3696 89.2944H53.8488" stroke="#676767" stroke-linecap="round" stroke-linejoin="round"/>
<path d="M26.3696 0.561584H53.8488" stroke="#676767" stroke-linecap="round" stroke-linejoin="round"/>
<path d="M17.25 42C17.25 40.7574 16.2426 39.75 15 39.75C13.7574 39.75 12.75 40.7574 12.75 42C12.75 43.2426 13.7574 44.25 15 44.25C16.2426 44.25 17.25 43.2426 17.25 42Z" fill="white" stroke="#1B1B1B" stroke-width="1.5"/>
<path d="M18 42C18 40.3431 16.6569 39 15 39C13.3431 39 12 40.3431 12 42C12 43.6569 13.3431 45 15 45C16.6569 45 18 43.6569 18 42Z" stroke="#1B1B1B"/>
<path d="M68.25 42C68.25 40.7574 67.2426 39.75 66 39.75C64.7574 39.75 63.75 40.7574 63.75 42C63.75 43.2426 64.7574 44.25 66 44.25C67.2426 44.25 68.25 43.2426 68.25 42Z" fill="white" stroke="#1B1B1B" stroke-width="1.5"/>
<path d="M69 42C69 40.3431 67.6569 39 66 39C64.3431 39 63 40.3431 63 42C63 43.6569 64.3431 45 66 45C67.6569 45 69 43.6569 69 42Z" stroke="#1B1B1B"/>
<path d="M79.25 58C79.25 56.7574 78.2426 55.75 77 55.75C75.7574 55.75 74.75 56.7574 74.75 58C74.75 59.2426 75.7574 60.25 77 60.25C78.2426 60.25 79.25 59.2426 79.25 58Z" fill="white" stroke="#1B1B1B" stroke-width="1.5"/>
<path d="M80 58C80 56.3431 78.6569 55 77 55C75.3431 55 74 56.3431 74 58C74 59.6569 75.3431 61 77 61C78.6569 61 80 59.6569 80 58Z" stroke="#1B1B1B"/>
<path d="M43.25 82C43.25 80.7574 42.2426 79.75 41 79.75C39.7574 79.75 38.75 80.7574 38.75 82C38.75 83.2426 39.7574 84.25 41 84.25C42.2426 84.25 43.25 83.2426 43.25 82Z" fill="white" stroke="#1B1B1B" stroke-width="1.5"/>
<path d="M44 82C44 80.3431 42.6569 79 41 79C39.3431 79 38 80.3431 38 82C38 83.6569 39.3431 85 41 85C42.6569 85 44 83.6569 44 82Z" stroke="#1B1B1B"/>
<path d="M24.25 7C24.25 5.75736 23.2426 4.75 22 4.75C20.7574 4.75 19.75 5.75736 19.75 7C19.75 8.24264 20.7574 9.25 22 9.25C23.2426 9.25 24.25 8.24264 24.25 7Z" fill="white" stroke="#1B1B1B" stroke-width="1.5"/>
<path d="M25 7C25 5.34315 23.6569 4 22 4C20.3431 4 19 5.34315 19 7C19 8.65685 20.3431 10 22 10C23.6569 10 25 8.65685 25 7Z" stroke="#1B1B1B"/>
<path d="M60.25 7C60.25 5.75736 59.2426 4.75 58 4.75C56.7574 4.75 55.75 5.75736 55.75 7C55.75 8.24264 56.7574 9.25 58 9.25C59.2426 9.25 60.25 8.24264 60.25 7Z" fill="white" stroke="#1B1B1B" stroke-width="1.5"/>
<path d="M61 7C61 5.34315 59.6569 4 58 4C56.3431 4 55 5.34315 55 7C55 8.65685 56.3431 10 58 10C59.6569 10 61 8.65685 61 7Z" stroke="#1B1B1B"/>
<path d="M9.25 24C9.25 22.7574 8.24264 21.75 7 21.75C5.75736 21.75 4.75 22.7574 4.75 24C4.75 25.2426 5.75736 26.25 7 26.25C8.24264 26.25 9.25 25.2426 9.25 24Z" fill="white" stroke="#1B1B1B" stroke-width="1.5"/>
<path d="M10 24C10 22.3431 8.65685 21 7 21C5.34315 21 4 22.3431 4 24C4 25.6569 5.34315 27 7 27C8.65685 27 10 25.6569 10 24Z" stroke="#1B1B1B"/>
</g>
<defs>
<clipPath id="clip0_838_4296">
<rect width="81" height="90" fill="white"/>
</clipPath>
</defs>
</svg>
