<svg width="75" height="66" viewBox="0 0 75 66" fill="none" xmlns="http://www.w3.org/2000/svg">
<g clip-path="url(#clip0_838_3588)">
<path fill-rule="evenodd" clip-rule="evenodd" d="M1 1H73.9V64.9H1V1Z" stroke="#676767" stroke-linecap="round" stroke-linejoin="round"/>
<path d="M37.4499 41.5C42.1719 41.5 45.9999 37.6721 45.9999 32.95C45.9999 28.228 42.1719 24.4 37.4499 24.4C32.7279 24.4 28.8999 28.228 28.8999 32.95C28.8999 37.6721 32.7279 41.5 37.4499 41.5Z" stroke="#676767" stroke-linecap="round" stroke-linejoin="round"/>
<path d="M37.4501 38.8C40.681 38.8 43.3001 36.1808 43.3001 32.95C43.3001 29.7191 40.681 27.1 37.4501 27.1C34.2192 27.1 31.6001 29.7191 31.6001 32.95C31.6001 36.1808 34.2192 38.8 37.4501 38.8Z" stroke="#676767" stroke-linecap="round" stroke-linejoin="round"/>
<path d="M37.4499 50.5C47.1425 50.5 54.9999 42.6426 54.9999 32.95C54.9999 23.2574 47.1425 15.4 37.4499 15.4C27.7573 15.4 19.8999 23.2574 19.8999 32.95C19.8999 42.6426 27.7573 50.5 37.4499 50.5Z" stroke="#676767" stroke-linecap="round" stroke-linejoin="round"/>
<path d="M37.4501 61.3C53.1074 61.3 65.8001 48.6073 65.8001 32.95C65.8001 17.2927 53.1074 4.59998 37.4501 4.59998C21.7928 4.59998 9.1001 17.2927 9.1001 32.95C9.1001 48.6073 21.7928 61.3 37.4501 61.3Z" stroke="#676767" stroke-linecap="round" stroke-linejoin="round"/>
<path d="M65.8001 8.19999C67.2913 8.19999 68.5001 6.99116 68.5001 5.49999C68.5001 4.00882 67.2913 2.79999 65.8001 2.79999C64.3089 2.79999 63.1001 4.00882 63.1001 5.49999C63.1001 6.99116 64.3089 8.19999 65.8001 8.19999Z" stroke="#676767" stroke-linecap="round" stroke-linejoin="round"/>
<path fill-rule="evenodd" clip-rule="evenodd" d="M65.7999 4.59998C66.297 4.59998 66.6999 5.00292 66.6999 5.49998C66.6999 5.99703 66.297 6.39998 65.7999 6.39998C65.3028 6.39998 64.8999 5.99703 64.8999 5.49998C64.8999 5.00292 65.3028 4.59998 65.7999 4.59998Z" stroke="#676767" stroke-linecap="round" stroke-linejoin="round"/>
<path d="M65.8001 63.1C67.2913 63.1 68.5001 61.8912 68.5001 60.4C68.5001 58.9088 67.2913 57.7 65.8001 57.7C64.3089 57.7 63.1001 58.9088 63.1001 60.4C63.1001 61.8912 64.3089 63.1 65.8001 63.1Z" stroke="#676767" stroke-linecap="round" stroke-linejoin="round"/>
<path fill-rule="evenodd" clip-rule="evenodd" d="M65.7999 59.5C65.3028 59.5 64.8999 59.9029 64.8999 60.4C64.8999 60.8971 65.3028 61.3 65.7999 61.3C66.297 61.3 66.6999 60.8971 66.6999 60.4C66.6999 59.9029 66.297 59.5 65.7999 59.5Z" stroke="#676767" stroke-linecap="round" stroke-linejoin="round"/>
<path d="M9.0999 8.19999C10.5911 8.19999 11.7999 6.99116 11.7999 5.49999C11.7999 4.00882 10.5911 2.79999 9.0999 2.79999C7.60873 2.79999 6.3999 4.00882 6.3999 5.49999C6.3999 6.99116 7.60873 8.19999 9.0999 8.19999Z" stroke="#676767" stroke-linecap="round" stroke-linejoin="round"/>
<path d="M9.1001 6.5C9.65238 6.5 10.1001 6.05228 10.1001 5.5C10.1001 4.94771 9.65238 4.5 9.1001 4.5C8.54781 4.5 8.1001 4.94771 8.1001 5.5C8.1001 6.05228 8.54781 6.5 9.1001 6.5Z" stroke="#676767" stroke-linecap="round" stroke-linejoin="round"/>
<path d="M9.0999 63.1C10.5911 63.1 11.7999 61.8912 11.7999 60.4C11.7999 58.9088 10.5911 57.7 9.0999 57.7C7.60873 57.7 6.3999 58.9088 6.3999 60.4C6.3999 61.8912 7.60873 63.1 9.0999 63.1Z" stroke="#676767" stroke-linecap="round" stroke-linejoin="round"/>
<path fill-rule="evenodd" clip-rule="evenodd" d="M9.1002 59.5C9.59725 59.5 10.0002 59.9029 10.0002 60.4C10.0002 60.8971 9.59725 61.3 9.1002 61.3C8.60314 61.3 8.2002 60.8971 8.2002 60.4C8.2002 59.9029 8.60314 59.5 9.1002 59.5Z" stroke="#676767" stroke-linecap="round" stroke-linejoin="round"/>
<path d="M35.7785 41.5C33.897 47.7983 34.3152 53.0024 37.0332 57.1124C37.8326 58.2808 38.1215 59.6766 37.8998 61.3" stroke="#676767" stroke-linecap="round" stroke-linejoin="round"/>
<path d="M30.3563 37.9005C27.6685 42.91 25.8958 46.7178 25.0382 49.3241C24.1807 51.9303 23.4435 54.5468 22.8267 57.1737" stroke="#676767" stroke-linecap="round" stroke-linejoin="round"/>
<path d="M43.6294 38.8974C48.1431 43.676 52.8591 45.9158 57.7774 45.617C59.189 45.5089 60.5423 45.9567 61.8374 46.9603" stroke="#676767" stroke-linecap="round" stroke-linejoin="round"/>
<path d="M37.8008 41.7937C40.7952 46.6261 43.2066 50.0653 45.0348 52.111C46.8631 54.1568 48.7605 56.1035 50.727 57.9511" stroke="#676767" stroke-linecap="round" stroke-linejoin="round"/>
<path d="M46 30.9C52.1686 29.2469 56.3531 26.2159 58.5534 21.8071C59.1656 20.5306 60.23 19.5825 61.7467 18.9628" stroke="#676767" stroke-linecap="round" stroke-linejoin="round"/>
<path d="M44.8945 37.2932C50.5768 37.1161 54.7608 36.7474 57.4466 36.1869C60.1325 35.6265 62.7671 34.9567 65.3504 34.1774" stroke="#676767" stroke-linecap="round" stroke-linejoin="round"/>
<path d="M39.1935 24.4C41.075 18.1017 40.6568 12.8976 37.9388 8.78761C37.1394 7.61921 36.8505 6.22334 37.0722 4.59998" stroke="#676767" stroke-linecap="round" stroke-linejoin="round"/>
<path d="M44.2002 27.4731C46.888 22.4637 48.6607 18.6558 49.5182 16.0496C50.3758 13.4433 51.1064 10.9216 51.7101 8.4845" stroke="#676767" stroke-linecap="round" stroke-linejoin="round"/>
<path d="M30.6798 27.4731C25.9844 22.4459 21.1775 20.0817 16.2591 20.3805C14.8476 20.4886 13.6603 20.1312 12.6973 19.3084" stroke="#676767" stroke-linecap="round" stroke-linejoin="round"/>
<path d="M36.2984 24.4C33.3905 19.3777 31.0223 15.8437 29.1941 13.7979C27.3658 11.7521 25.5514 9.86813 23.751 8.14594" stroke="#676767" stroke-linecap="round" stroke-linejoin="round"/>
<path d="M29.3142 35.8379C22.919 37.3576 18.6212 40.3218 16.4208 44.7307C15.8087 46.0071 14.7442 46.9553 13.2275 47.575" stroke="#676767" stroke-linecap="round" stroke-linejoin="round"/>
<path d="M29.72 29.3421C24.0378 29.5191 19.8537 29.8879 17.1679 30.4483C14.482 31.0088 11.8475 31.6786 9.26416 32.4578" stroke="#676767" stroke-linecap="round" stroke-linejoin="round"/>
<path d="M70.2217 14C70.2217 12.7574 69.2143 11.75 67.9717 11.75C66.729 11.75 65.7217 12.7574 65.7217 14C65.7217 15.2426 66.729 16.25 67.9717 16.25C69.2143 16.25 70.2217 15.2426 70.2217 14Z" fill="white" stroke="#1B1B1B" stroke-width="1.5"/>
<path d="M70.9717 14C70.9717 12.3431 69.6285 11 67.9717 11C66.3148 11 64.9717 12.3431 64.9717 14C64.9717 15.6569 66.3148 17 67.9717 17C69.6285 17 70.9717 15.6569 70.9717 14Z" stroke="#1B1B1B"/>
<path d="M9.22168 14C9.22168 12.7574 8.21432 11.75 6.97168 11.75C5.72904 11.75 4.72168 12.7574 4.72168 14C4.72168 15.2426 5.72904 16.25 6.97168 16.25C8.21432 16.25 9.22168 15.2426 9.22168 14Z" fill="white" stroke="#1B1B1B" stroke-width="1.5"/>
<path d="M9.97168 14C9.97168 12.3431 8.62853 11 6.97168 11C5.31483 11 3.97168 12.3431 3.97168 14C3.97168 15.6569 5.31483 17 6.97168 17C8.62853 17 9.97168 15.6569 9.97168 14Z" stroke="#1B1B1B"/>
<path d="M70.2217 53C70.2217 51.7574 69.2143 50.75 67.9717 50.75C66.729 50.75 65.7217 51.7574 65.7217 53C65.7217 54.2426 66.729 55.25 67.9717 55.25C69.2143 55.25 70.2217 54.2426 70.2217 53Z" fill="white" stroke="#1B1B1B" stroke-width="1.5"/>
<path d="M70.9717 53C70.9717 51.3431 69.6285 50 67.9717 50C66.3148 50 64.9717 51.3431 64.9717 53C64.9717 54.6569 66.3148 56 67.9717 56C69.6285 56 70.9717 54.6569 70.9717 53Z" stroke="#1B1B1B"/>
<path d="M9.22168 53C9.22168 51.7574 8.21432 50.75 6.97168 50.75C5.72904 50.75 4.72168 51.7574 4.72168 53C4.72168 54.2426 5.72904 55.25 6.97168 55.25C8.21432 55.25 9.22168 54.2426 9.22168 53Z" fill="white" stroke="#1B1B1B" stroke-width="1.5"/>
<path d="M9.97168 53C9.97168 51.3431 8.62853 50 6.97168 50C5.31483 50 3.97168 51.3431 3.97168 53C3.97168 54.6569 5.31483 56 6.97168 56C8.62853 56 9.97168 54.6569 9.97168 53Z" stroke="#1B1B1B"/>
<path d="M39.7471 32.9867C39.7471 31.7441 38.7397 30.7367 37.4971 30.7367C36.2544 30.7367 35.2471 31.7441 35.2471 32.9867C35.2471 34.2293 36.2544 35.2367 37.4971 35.2367C38.7397 35.2367 39.7471 34.2293 39.7471 32.9867Z" fill="white" stroke="#1B1B1B" stroke-width="1.5"/>
<path d="M40.4971 32.9867C40.4971 31.3298 39.1539 29.9867 37.4971 29.9867C35.8402 29.9867 34.4971 31.3298 34.4971 32.9867C34.4971 34.6435 35.8402 35.9867 37.4971 35.9867C39.1539 35.9867 40.4971 34.6435 40.4971 32.9867Z" stroke="#1B1B1B"/>
</g>
<defs>
<clipPath id="clip0_838_3588">
<rect width="75" height="66" fill="white"/>
</clipPath>
</defs>
</svg>
