<svg width="93" height="61" viewBox="0 0 93 61" fill="none" xmlns="http://www.w3.org/2000/svg">
<g clip-path="url(#clip0_838_3791)">
<path fill-rule="evenodd" clip-rule="evenodd" d="M37.6738 6.17188H54.5298C56.9113 6.17188 58.8418 8.10242 58.8418 10.4839V14.4039C58.8418 16.7853 56.9113 18.7159 54.5298 18.7159H37.6738C35.2924 18.7159 33.3618 16.7853 33.3618 14.4039V10.4839C33.3618 8.10242 35.2924 6.17188 37.6738 6.17188Z" stroke="#676767" stroke-linecap="round" stroke-linejoin="round"/>
<path d="M38.1694 6.17185C40.6417 4.68403 43.2498 3.94012 45.994 3.94012C48.7381 3.94012 51.4978 4.68403 54.273 6.17185" stroke="#676767" stroke-linecap="round" stroke-linejoin="round"/>
<path d="M44.5732 3.94V1H47.8108V3.94" stroke="#676767" stroke-linecap="round" stroke-linejoin="round"/>
<path d="M54.259 6.13789C53.2942 3.5087 50.3526 2.39569 47.811 2.0058" stroke="#676767" stroke-linecap="round" stroke-linejoin="round"/>
<path d="M44.5733 2.0058C42.0555 2.39126 39.0389 3.93997 38.1694 6.08377" stroke="#676767" stroke-linecap="round" stroke-linejoin="round"/>
<path d="M36.897 18.7534C38.7716 21.9331 42.2316 24.0666 46.19 24.0666C50.1713 24.0666 53.6485 21.9084 55.5154 18.6981" stroke="#676767" stroke-linecap="round" stroke-linejoin="round"/>
<path fill-rule="evenodd" clip-rule="evenodd" d="M31.0832 19.4324C29.9935 28.339 29.3698 35.5463 29.2121 41.0544C29.0545 46.5625 29.1853 52.4365 29.6045 58.6764C14.4001 53.5321 5.50947 47.6581 2.93263 41.0544C0.355791 34.4507 0.355791 23.0992 2.93263 7C8.27753 11.2672 13.4817 14.2393 18.5453 15.9166C23.6088 17.5938 27.7881 18.7658 31.0832 19.4324Z" stroke="#676767" stroke-linecap="round" stroke-linejoin="round"/>
<path fill-rule="evenodd" clip-rule="evenodd" d="M62 20.4324L62.2051 22.1351C63.1683 30.2619 63.7236 36.9016 63.8711 42.0544C64.0287 47.5625 63.8979 53.4365 63.4787 59.6764L64.7311 59.246C79.1722 54.2052 87.6453 48.4747 90.1506 42.0544C92.7274 35.4507 92.7274 24.0992 90.1506 8C84.8057 12.2672 79.6015 15.2393 74.5379 16.9166L73.2371 17.3427C68.7543 18.7938 65.0086 19.8237 62 20.4324Z" stroke="#676767" stroke-linecap="round" stroke-linejoin="round"/>
<path d="M32 38.3694C36.0708 39.3982 40.8034 39.9126 46.1977 39.9126C51.592 39.9126 56.3246 39.3982 60.3954 38.3694" stroke="#676767" stroke-linecap="round" stroke-linejoin="round"/>
<path d="M55.7942 47.3006C52.9221 47.7086 49.7876 47.9125 46.3906 47.9125" stroke="#676767" stroke-linecap="round" stroke-linejoin="round"/>
<path d="M41.3003 47.7468C39.6513 47.6348 38.0755 47.4659 36.5728 47.2401" stroke="#676767" stroke-linecap="round" stroke-linejoin="round"/>
<path d="M55.9277 36.6365L60.4167 38.3942L56.8457 42.0839" stroke="#676767" stroke-linecap="round" stroke-linejoin="round"/>
<path d="M1.64209 35.7645L10.5524 24.693L14.9321 52.2852" stroke="#676767" stroke-linecap="round" stroke-linejoin="round"/>
<path d="M13.3955 42.4926L19.4865 33.8466L23.7938 56.5346" stroke="#676767" stroke-linecap="round" stroke-linejoin="round"/>
<path d="M63.9873 50.0023L68.5443 35.8382L77.0416 53.593" stroke="#676767" stroke-linecap="round" stroke-linejoin="round"/>
<path fill-rule="evenodd" clip-rule="evenodd" d="M86.1677 23.9357C87.5231 23.6722 88.3228 21.9205 87.954 20.023C87.5851 18.1255 86.1874 16.8008 84.8321 17.0643C83.4767 17.3277 82.677 19.0795 83.0458 20.977C83.4147 22.8745 84.8124 24.1991 86.1677 23.9357Z" stroke="#676767" stroke-linecap="round" stroke-linejoin="round"/>
<path d="M27.25 24C27.25 22.7574 26.2426 21.75 25 21.75C23.7574 21.75 22.75 22.7574 22.75 24C22.75 25.2426 23.7574 26.25 25 26.25C26.2426 26.25 27.25 25.2426 27.25 24Z" fill="white" stroke="#1B1B1B" stroke-width="1.5"/>
<path d="M28 24C28 22.3431 26.6569 21 25 21C23.3431 21 22 22.3431 22 24C22 25.6569 23.3431 27 25 27C26.6569 27 28 25.6569 28 24Z" stroke="#1B1B1B"/>
<path d="M70.25 24C70.25 22.7574 69.2426 21.75 68 21.75C66.7574 21.75 65.75 22.7574 65.75 24C65.75 25.2426 66.7574 26.25 68 26.25C69.2426 26.25 70.25 25.2426 70.25 24Z" fill="white" stroke="#1B1B1B" stroke-width="1.5"/>
<path d="M71 24C71 22.3431 69.6569 21 68 21C66.3431 21 65 22.3431 65 24C65 25.6569 66.3431 27 68 27C69.6569 27 71 25.6569 71 24Z" stroke="#1B1B1B"/>
<path d="M48.25 40C48.25 38.7574 47.2426 37.75 46 37.75C44.7574 37.75 43.75 38.7574 43.75 40C43.75 41.2426 44.7574 42.25 46 42.25C47.2426 42.25 48.25 41.2426 48.25 40Z" fill="white" stroke="#1B1B1B" stroke-width="1.5"/>
<path d="M49 40C49 38.3431 47.6569 37 46 37C44.3431 37 43 38.3431 43 40C43 41.6569 44.3431 43 46 43C47.6569 43 49 41.6569 49 40Z" stroke="#1B1B1B"/>
</g>
<defs>
<clipPath id="clip0_838_3791">
<rect width="93" height="61" fill="white"/>
</clipPath>
</defs>
</svg>
