<svg width="56" height="80" viewBox="0 0 56 80" fill="none" xmlns="http://www.w3.org/2000/svg">
<g clip-path="url(#clip0_838_3748)">
<path d="M17.4985 15.2061C17.4985 10.0156 17.4985 6.31498 17.4985 5.6355C17.4985 2.9424 19.1773 1 21.6468 1C24.1163 1 42.1022 1 44.5239 1C46.9457 1 48.7875 3.07304 48.7875 5.6355C48.7875 6.77549 48.7875 17.3467 48.7875 28.9685" stroke="#676767" stroke-linecap="round" stroke-linejoin="round"/>
<path fill-rule="evenodd" clip-rule="evenodd" d="M48.7876 36.4985C48.7876 38.0963 48.7876 39.344 48.7876 40.8938V36.4985Z" stroke="#676767" stroke-linecap="round" stroke-linejoin="round"/>
<path d="M48.7875 50.097C48.7875 56.0986 48.7875 60.355 48.7875 61.0977C48.7875 63.7827 46.7361 65.0332 44.9606 65.0332C43.1851 65.0332 23.6221 65.0332 21.3477 65.0332C19.0734 65.0332 17.4985 63.0265 17.4985 60.7539C17.4985 59.5385 17.4985 44.6277 17.4985 30.6063" stroke="#676767" stroke-linecap="round" stroke-linejoin="round"/>
<path d="M33.1552 62.6138C28.1784 62.6138 24.6657 62.6138 22.6171 62.6138C20.5686 62.6138 19.5922 61.6375 19.6881 59.6848V31.1885C19.6881 29.2461 19.6881 27.6346 19.6881 26.7682" stroke="#676767" stroke-linecap="round" stroke-linejoin="round"/>
<path d="M19.688 17.0666C19.688 10.5424 19.688 6.78131 19.688 5.78329C19.688 4.20706 20.5548 3.34027 22.2884 3.18292H26.0589C26.0904 4.39979 26.6989 5.00822 27.8842 5.00822C29.0696 5.00822 30.8371 5.00822 33.1867 5.00822" stroke="#676767" stroke-linecap="round" stroke-linejoin="round"/>
<path d="M32.8109 62.6138C37.7877 62.6138 41.3004 62.6138 43.3489 62.6138C45.3975 62.6138 46.3739 61.6374 46.278 59.6847V31.1885C46.278 15.8279 46.278 7.35952 46.278 5.78329C46.278 4.20706 45.4112 3.34027 43.6776 3.18292H39.907C39.8755 4.39979 39.2671 5.00822 38.0818 5.00822C36.8964 5.00822 35.1289 5.00822 32.7793 5.00822" stroke="#676767" stroke-linecap="round" stroke-linejoin="round"/>
<path d="M15.5113 32.1772C16.6146 31.6002 17.6408 30.5922 18.5898 29.1531C20.0135 26.9945 20.8245 22.712 20.6676 20.7036C20.5106 18.6952 19.3489 15.1891 17.4985 15.1891C15.6482 15.1891 14.1839 19.9173 13.0232 21.9242C11.8625 23.9311 5.8865 34.6574 4.0903 37.7472C2.2941 40.837 4.89205 57.9769 4.0903 60.626C3.10961 63.8664 1.13234 65.1753 1.0023 67.4247C0.917922 68.8843 3.17241 71.4481 5.01708 72.816C9.70479 76.2923 20.6676 78.0447 21.908 76.2923C23.1483 74.54 22.1475 71.7785 25.1261 69.8616C27.1119 68.5836 28.9485 66.9742 30.636 65.0332" stroke="#676767" stroke-linecap="round" stroke-linejoin="round"/>
<path d="M48.7876 14.0417C52.2266 13.3438 54.2746 13.8824 54.9316 15.6572C55.9171 18.3195 49.7965 20.8259 48.7876 21.3002" stroke="#676767" stroke-linecap="round" stroke-linejoin="round"/>
<path d="M48.7876 24.0368C51.8663 26.3424 53.538 28.0918 53.8029 29.2848C54.2003 31.0744 52.8727 36.927 52.1043 38.0151C51.336 39.1033 48.8342 37.5244 48.3367 35.3048C48.005 33.8251 48.1553 31.713 48.7876 28.9685" stroke="#676767" stroke-linecap="round" stroke-linejoin="round"/>
<path d="M52.4842 37.4732C54.2832 40.0573 55.0895 41.9822 54.9032 43.2481C54.6236 45.1469 51.9557 49.6688 51.1755 50.7078C50.3953 51.7468 48.3645 50.4601 47.9239 47.9137C47.4834 45.3674 48.0711 43.2481 48.7875 40.8938" stroke="#676767" stroke-linecap="round" stroke-linejoin="round"/>
<path d="M49.9691 50.9742C51.1859 51.6499 51.7942 52.5916 51.7942 53.7995C51.7942 55.0074 50.792 55.9492 48.7876 56.6248" stroke="#676767" stroke-linecap="round" stroke-linejoin="round"/>
<path d="M24.25 76C24.25 74.7574 23.2426 73.75 22 73.75C20.7574 73.75 19.75 74.7574 19.75 76C19.75 77.2426 20.7574 78.25 22 78.25C23.2426 78.25 24.25 77.2426 24.25 76Z" fill="white" stroke="#1B1B1B" stroke-width="1.5"/>
<path d="M25 76C25 74.3431 23.6569 73 22 73C20.3431 73 19 74.3431 19 76C19 77.6569 20.3431 79 22 79C23.6569 79 25 77.6569 25 76Z" stroke="#1B1B1B"/>
<path d="M35.25 5C35.25 3.75736 34.2426 2.75 33 2.75C31.7574 2.75 30.75 3.75736 30.75 5C30.75 6.24264 31.7574 7.25 33 7.25C34.2426 7.25 35.25 6.24264 35.25 5Z" fill="white" stroke="#1B1B1B" stroke-width="1.5"/>
<path d="M36 5C36 3.34315 34.6569 2 33 2C31.3431 2 30 3.34315 30 5C30 6.65685 31.3431 8 33 8C34.6569 8 36 6.65685 36 5Z" stroke="#1B1B1B"/>
<path d="M6.25 39C6.25 37.7574 5.24264 36.75 4 36.75C2.75736 36.75 1.75 37.7574 1.75 39C1.75 40.2426 2.75736 41.25 4 41.25C5.24264 41.25 6.25 40.2426 6.25 39Z" fill="white" stroke="#1B1B1B" stroke-width="1.5"/>
<path d="M7 39C7 37.3431 5.65685 36 4 36C2.34315 36 1 37.3431 1 39C1 40.6569 2.34315 42 4 42C5.65685 42 7 40.6569 7 39Z" stroke="#1B1B1B"/>
</g>
<defs>
<clipPath id="clip0_838_3748">
<rect width="56" height="80" fill="white"/>
</clipPath>
</defs>
</svg>
