<svg width="106" height="72" viewBox="0 0 106 72" fill="none" xmlns="http://www.w3.org/2000/svg">
<g clip-path="url(#clip0_838_3865)">
<path d="M102.226 47.1677C101.182 43.3586 100.526 40.9667 100.261 39.9918C99.8621 38.5295 95.2904 33.2609 93.7183 30.414C92.1463 27.567 87.9912 17.1111 86.3618 14.9488C84.7324 12.7866 79.4717 13.7487 76.8859 13.5398C74.3001 13.3309 72.087 12.8629 70.6058 13.319C69.1246 13.7752 63.204 18.5473 62.7547 19.3499C62.3054 20.1524 60.2132 24.6062 59.9037 25.5881C59.6975 26.2426 59.895 26.8889 60.4962 27.5268" stroke="#676767" stroke-linecap="round" stroke-linejoin="round"/>
<path d="M102.227 47.1677C100.649 50.8312 98.7474 53.1243 96.5228 54.0473C93.1859 55.4317 89.7104 54.7656 89.7104 54.7656C89.7104 54.7656 88.0485 45.4207 87.1335 44.2064C86.2184 42.9921 83.7535 41.6327 80.3861 40.0868C77.0186 38.5409 75.4403 36.5627 74.022 35.2983C72.6037 34.0339 66.2279 32.5642 64.1146 31.6162C62.0012 30.6683 60.5165 29.0996 60.4949 27.9281C60.4737 26.7566 61.8759 25.4409 64.4024 25.9822C66.9288 26.5235 67.9621 27.0459 71.7788 27.6504C75.5955 28.2549 77.0157 26.5189 77.3597 25.9923C77.7037 25.4657 77.9217 24.0888 77.7507 23.5234C77.5797 22.958 76.2296 21.3602 75.6862 20.9981C75.1428 20.6361 72.9294 19.6886 72.5134 19.6227C71.3778 19.4428 67.0751 22.2163 66.9056 22.344C66.7361 22.4718 64.4322 25.2266 64.2452 25.7737" stroke="#676767" stroke-linecap="round" stroke-linejoin="round"/>
<path d="M70.0813 13.5599C69.2678 12.8391 68.6566 12.3629 68.2479 12.1314C66.6742 11.24 64.9086 10.4125 64.2262 10.0788C60.9486 8.47576 58.4786 7.11835 57.6394 5.70661C56.8474 4.03311 57.3688 2.93016 57.9742 2.82897C58.5796 2.72779 69.228 7.16872 71.398 7.86449C73.5681 8.56027 75.7894 11.3038 78.9724 13.5424" stroke="#676767" stroke-linecap="round" stroke-linejoin="round"/>
<path d="M80.2335 13.4687C78.0313 10.2568 76.7137 8.50838 76.2809 8.22343C75.6317 7.796 68.5408 3.37199 66.6338 2.36392C65.777 1.91104 64.4901 1.32187 64.0408 1.5068C63.4901 1.73351 62.9276 3.08498 64.5546 5.24409" stroke="#676767" stroke-linecap="round" stroke-linejoin="round"/>
<path d="M82.3671 13.5368C78.576 7.67328 76.3321 4.27925 75.6354 3.35464C74.5903 1.96773 73.9512 3.73281 74.0018 4.58561C74.0356 5.15415 74.2962 6.03445 74.7837 7.22652" stroke="#676767" stroke-linecap="round" stroke-linejoin="round"/>
<path d="M2.01887 67.0609C1.62912 63.1304 1.38361 60.6625 1.28235 59.6572C1.13046 58.1492 3.51043 51.5922 3.95781 48.3709C4.40519 45.1496 4.53726 33.8992 5.28354 31.2966C6.02981 28.694 11.2859 27.7069 13.6251 26.5853C15.9642 25.4636 17.8626 24.2336 19.4089 24.1286C20.9553 24.0237 28.1927 26.3571 28.8998 26.9453C29.6069 27.5335 33.1563 30.9417 33.797 31.7475C34.2242 32.2846 34.2714 32.9587 33.9387 33.7698" stroke="#676767" stroke-linecap="round" stroke-linejoin="round"/>
<path d="M2.01904 67.0609C4.805 69.9156 7.40179 71.3751 9.80941 71.4395C13.4208 71.5361 16.4268 69.6688 16.4268 69.6688C16.4268 69.6688 14.6294 60.3489 15.0485 58.8874C15.4676 57.4258 17.2816 55.2734 19.8713 52.6234C22.4611 49.9733 23.2257 47.5609 24.0967 45.8722C24.9677 44.1836 30.3933 40.5266 32.0266 38.8842C33.6598 37.2418 34.4838 35.2453 34.0839 34.1439C33.684 33.0426 31.9035 32.3168 29.7388 33.7275C27.5742 35.1383 26.7967 35.9963 23.4501 37.9284C20.1036 39.8606 18.1556 38.7488 17.6457 38.3804C17.1359 38.0121 16.4389 36.8048 16.3959 36.2157C16.353 35.6266 17.0408 33.651 17.4183 33.1183C17.7959 32.5855 19.5227 30.9078 19.8874 30.6972C20.8831 30.1223 25.8941 31.1696 26.098 31.2281C26.302 31.2866 29.4402 33.0328 29.8108 33.4765" stroke="#676767" stroke-linecap="round" stroke-linejoin="round"/>
<path d="M19.985 24.1654C20.4862 23.2009 20.8861 22.5374 21.1848 22.1747C22.3344 20.7787 23.6862 19.3734 24.2037 18.8173C26.6891 16.1461 28.5087 13.9937 28.7862 12.375C28.9258 10.5288 28.0439 9.68596 27.4424 9.80846C26.8409 9.93097 18.4913 17.893 16.7147 19.3202C14.9381 20.7474 13.8475 24.1048 11.6782 27.3354" stroke="#676767" stroke-linecap="round" stroke-linejoin="round"/>
<path d="M10.4746 27.7184C11.3795 23.9307 11.983 21.8262 12.2849 21.4051C12.7379 20.7734 17.7724 14.1021 19.1915 12.4776C19.829 11.7477 20.8194 10.7365 21.305 10.748C21.9005 10.7624 22.9099 11.8225 22.1647 14.4213" stroke="#676767" stroke-linecap="round" stroke-linejoin="round"/>
<path d="M8.50684 28.5467C9.94485 21.714 10.8234 17.7413 11.1425 16.6284C11.6212 14.9591 12.8504 16.3779 13.1087 17.1922C13.281 17.735 13.3531 18.6503 13.3252 19.9379" stroke="#676767" stroke-linecap="round" stroke-linejoin="round"/>
<path d="M36.8691 33.4251L44.3441 31.4222M51.9507 29.384L58.6372 27.5923" stroke="#676767" stroke-linecap="round" stroke-linejoin="round"/>
<path d="M55.3823 25.9601L58.8208 27.5494L56.6376 30.6449" stroke="#676767" stroke-linecap="round" stroke-linejoin="round"/>
<path d="M39.9312 35.0646L36.4927 33.4754L38.6759 30.3798" stroke="#676767" stroke-linecap="round" stroke-linejoin="round"/>
<path fill-rule="evenodd" clip-rule="evenodd" d="M49.1293 34.1793C51.1992 33.6247 52.4275 31.4971 51.8729 29.4273C51.3183 27.3574 49.1907 26.1291 47.1209 26.6837C45.051 27.2383 43.8227 29.3659 44.3773 31.4357C44.9319 33.5056 47.0595 34.7339 49.1293 34.1793Z" stroke="#676767" stroke-linecap="round" stroke-linejoin="round"/>
<path d="M50.4321 30.4477C50.4321 29.2051 49.4248 28.1977 48.1821 28.1977C46.9395 28.1977 45.9321 29.2051 45.9321 30.4477C45.9321 31.6903 46.9395 32.6977 48.1821 32.6977C49.4248 32.6977 50.4321 31.6903 50.4321 30.4477Z" fill="white" stroke="#1B1B1B" stroke-width="1.5"/>
<path d="M51.1821 30.4477C51.1821 28.7908 49.839 27.4477 48.1821 27.4477C46.5253 27.4477 45.1821 28.7908 45.1821 30.4477C45.1821 32.1045 46.5253 33.4477 48.1821 33.4477C49.839 33.4477 51.1821 32.1045 51.1821 30.4477Z" stroke="#1B1B1B"/>
<path d="M17.25 58C17.25 56.7574 16.2426 55.75 15 55.75C13.7574 55.75 12.75 56.7574 12.75 58C12.75 59.2426 13.7574 60.25 15 60.25C16.2426 60.25 17.25 59.2426 17.25 58Z" fill="white" stroke="#1B1B1B" stroke-width="1.5"/>
<path d="M18 58C18 56.3431 16.6569 55 15 55C13.3431 55 12 56.3431 12 58C12 59.6569 13.3431 61 15 61C16.6569 61 18 59.6569 18 58Z" stroke="#1B1B1B"/>
<path d="M89.25 43C89.25 41.7574 88.2426 40.75 87 40.75C85.7574 40.75 84.75 41.7574 84.75 43C84.75 44.2426 85.7574 45.25 87 45.25C88.2426 45.25 89.25 44.2426 89.25 43Z" fill="white" stroke="#1B1B1B" stroke-width="1.5"/>
<path d="M90 43C90 41.3431 88.6569 40 87 40C85.3431 40 84 41.3431 84 43C84 44.6569 85.3431 46 87 46C88.6569 46 90 44.6569 90 43Z" stroke="#1B1B1B"/>
<path d="M104.25 47C104.25 45.7574 103.243 44.75 102 44.75C100.757 44.75 99.75 45.7574 99.75 47C99.75 48.2426 100.757 49.25 102 49.25C103.243 49.25 104.25 48.2426 104.25 47Z" fill="white" stroke="#1B1B1B" stroke-width="1.5"/>
<path d="M105 47C105 45.3431 103.657 44 102 44C100.343 44 99 45.3431 99 47C99 48.6569 100.343 50 102 50C103.657 50 105 48.6569 105 47Z" stroke="#1B1B1B"/>
</g>
<defs>
<clipPath id="clip0_838_3865">
<rect width="106" height="72" fill="white"/>
</clipPath>
</defs>
</svg>
