<svg width="91" height="88" viewBox="0 0 91 88" fill="none" xmlns="http://www.w3.org/2000/svg">
<g clip-path="url(#clip0_838_4169)">
<path d="M34.2946 25.1414L34.0268 29.8085L29.9185 27.5617" stroke="#676767" stroke-linecap="round" stroke-linejoin="round"/>
<path d="M33.8414 29.3821L24.4277 12.985" stroke="#676767" stroke-linecap="round" stroke-linejoin="round"/>
<path d="M53.2929 33.4174L51.8263 37.8562L48.4395 34.6226" stroke="#676767" stroke-linecap="round" stroke-linejoin="round"/>
<path d="M51.7571 37.3445L43.521 6.91541" stroke="#676767" stroke-linecap="round" stroke-linejoin="round"/>
<path d="M66.568 52.2158L62.0078 53.2448L63.0352 48.6763" stroke="#676767" stroke-linecap="round" stroke-linejoin="round"/>
<path d="M62.4106 52.9219L84.2516 30.19" stroke="#676767" stroke-linecap="round" stroke-linejoin="round"/>
<path d="M24.1282 48.0317L28.0361 50.5972L24.0361 53.0317" stroke="#676767" stroke-linecap="round" stroke-linejoin="round"/>
<path d="M27.4676 50.5598L7 50.6116" stroke="#676767" stroke-linecap="round" stroke-linejoin="round"/>
<path d="M66.9779 63.3428L62.4102 64.3374L65.272 68.0437" stroke="#676767" stroke-linecap="round" stroke-linejoin="round"/>
<path d="M62.9546 64.5062L82.0442 71.8895" stroke="#676767" stroke-linecap="round" stroke-linejoin="round"/>
<path fill-rule="evenodd" clip-rule="evenodd" d="M9.67773 48.8199C9.67773 70.0887 26.9157 87.3199 48.1777 87.3199C69.4431 87.3199 86.6777 70.0887 86.6777 48.8199C86.6777 27.5613 69.4431 10.3199 48.1777 10.3199C26.9157 10.3199 9.67773 27.5613 9.67773 48.8199Z" stroke="#676767" stroke-linecap="round" stroke-linejoin="round"/>
<path d="M57.9175 59.1392V65.1392" stroke="#676767" stroke-linecap="round" stroke-linejoin="round"/>
<path d="M60.9175 62.1392H54.9175" stroke="#676767" stroke-linecap="round" stroke-linejoin="round"/>
<path d="M56.6777 70.3199V76.3199" stroke="#676767" stroke-linecap="round" stroke-linejoin="round"/>
<path d="M59.6777 73.3199H53.6777" stroke="#676767" stroke-linecap="round" stroke-linejoin="round"/>
<path fill-rule="evenodd" clip-rule="evenodd" d="M34.1776 47.2844L37.7132 50.8199L34.1776 54.3554L30.6421 50.8199L34.1776 47.2844Z" stroke="#676767" stroke-linecap="round" stroke-linejoin="round"/>
<path d="M33.0835 32.0555V37.3445" stroke="#676767" stroke-linecap="round" stroke-linejoin="round"/>
<path d="M36.0835 32.0555V37.3445" stroke="#676767" stroke-linecap="round" stroke-linejoin="round"/>
<path d="M39.0835 32.0555V37.3445" stroke="#676767" stroke-linecap="round" stroke-linejoin="round"/>
<path d="M75.5265 22.1299L66.5684 25.7853" stroke="#676767" stroke-linecap="round" stroke-linejoin="round"/>
<path d="M62.6775 25.7853L31.3037 14.235" stroke="#676767" stroke-linecap="round" stroke-linejoin="round"/>
<path d="M15.2646 29.382L26.0359 80.3547L69.4221 80.8747L85.9883 42.1184" stroke="#676767" stroke-linecap="round" stroke-linejoin="round"/>
<path d="M23.25 39C23.25 37.7574 22.2426 36.75 21 36.75C19.7574 36.75 18.75 37.7574 18.75 39C18.75 40.2426 19.7574 41.25 21 41.25C22.2426 41.25 23.25 40.2426 23.25 39Z" fill="white" stroke="#1B1B1B" stroke-width="1.5"/>
<path d="M24 39C24 37.3431 22.6569 36 21 36C19.3431 36 18 37.3431 18 39C18 40.6569 19.3431 42 21 42C22.6569 42 24 40.6569 24 39Z" stroke="#1B1B1B"/>
<path d="M67.25 26C67.25 24.7574 66.2426 23.75 65 23.75C63.7574 23.75 62.75 24.7574 62.75 26C62.75 27.2426 63.7574 28.25 65 28.25C66.2426 28.25 67.25 27.2426 67.25 26Z" fill="white" stroke="#1B1B1B" stroke-width="1.5"/>
<path d="M68 26C68 24.3431 66.6569 23 65 23C63.3431 23 62 24.3431 62 26C62 27.6569 63.3431 29 65 29C66.6569 29 68 27.6569 68 26Z" stroke="#1B1B1B"/>
<path d="M89.25 27C89.25 25.7574 88.2426 24.75 87 24.75C85.7574 24.75 84.75 25.7574 84.75 27C84.75 28.2426 85.7574 29.25 87 29.25C88.2426 29.25 89.25 28.2426 89.25 27Z" fill="white" stroke="#1B1B1B" stroke-width="1.5"/>
<path d="M90 27C90 25.3431 88.6569 24 87 24C85.3431 24 84 25.3431 84 27C84 28.6569 85.3431 30 87 30C88.6569 30 90 28.6569 90 27Z" stroke="#1B1B1B"/>
<path d="M25.4678 10.812C25.4678 9.56937 24.4604 8.56201 23.2178 8.56201C21.9751 8.56201 20.9678 9.56937 20.9678 10.812C20.9678 12.0547 21.9751 13.062 23.2178 13.062C24.4604 13.062 25.4678 12.0547 25.4678 10.812Z" fill="white" stroke="#1B1B1B" stroke-width="1.5"/>
<path d="M26.2178 10.812C26.2178 9.15516 24.8746 7.81201 23.2178 7.81201C21.5609 7.81201 20.2178 9.15516 20.2178 10.812C20.2178 12.4689 21.5609 13.812 23.2178 13.812C24.8746 13.812 26.2178 12.4689 26.2178 10.812Z" stroke="#1B1B1B"/>
<path d="M6.58643 50.5518C6.58643 49.3091 5.57907 48.3018 4.33643 48.3018C3.09379 48.3018 2.08643 49.3091 2.08643 50.5518C2.08643 51.7944 3.09379 52.8018 4.33643 52.8018C5.57907 52.8018 6.58643 51.7944 6.58643 50.5518Z" fill="white" stroke="#1B1B1B" stroke-width="1.5"/>
<path d="M7.33643 50.5518C7.33643 48.8949 5.99328 47.5518 4.33643 47.5518C2.67957 47.5518 1.33643 48.8949 1.33643 50.5518C1.33643 52.2086 2.67957 53.5518 4.33643 53.5518C5.99328 53.5518 7.33643 52.2086 7.33643 50.5518Z" stroke="#1B1B1B"/>
<path d="M45.25 4C45.25 2.75736 44.2426 1.75 43 1.75C41.7574 1.75 40.75 2.75736 40.75 4C40.75 5.24264 41.7574 6.25 43 6.25C44.2426 6.25 45.25 5.24264 45.25 4Z" fill="white" stroke="#1B1B1B" stroke-width="1.5"/>
<path d="M46 4C46 2.34315 44.6569 1 43 1C41.3431 1 40 2.34315 40 4C40 5.65685 41.3431 7 43 7C44.6569 7 46 5.65685 46 4Z" stroke="#1B1B1B"/>
<path d="M39.25 64C39.25 62.7574 38.2426 61.75 37 61.75C35.7574 61.75 34.75 62.7574 34.75 64C34.75 65.2426 35.7574 66.25 37 66.25C38.2426 66.25 39.25 65.2426 39.25 64Z" fill="white" stroke="#1B1B1B" stroke-width="1.5"/>
<path d="M40 64C40 62.3431 38.6569 61 37 61C35.3431 61 34 62.3431 34 64C34 65.6569 35.3431 67 37 67C38.6569 67 40 65.6569 40 64Z" stroke="#1B1B1B"/>
<path d="M86.25 73C86.25 71.7574 85.2426 70.75 84 70.75C82.7574 70.75 81.75 71.7574 81.75 73C81.75 74.2426 82.7574 75.25 84 75.25C85.2426 75.25 86.25 74.2426 86.25 73Z" fill="white" stroke="#1B1B1B" stroke-width="1.5"/>
<path d="M87 73C87 71.3431 85.6569 70 84 70C82.3431 70 81 71.3431 81 73C81 74.6569 82.3431 76 84 76C85.6569 76 87 74.6569 87 73Z" stroke="#1B1B1B"/>
</g>
<defs>
<clipPath id="clip0_838_4169">
<rect width="91" height="88" fill="white"/>
</clipPath>
</defs>
</svg>
