<svg width="97" height="93" viewBox="0 0 97 93" fill="none" xmlns="http://www.w3.org/2000/svg">
<g clip-path="url(#clip0_838_4125)">
<path d="M45.1392 57.7752V34.745V25.1407C45.1392 10.3802 46.2942 3 48.6042 3C50.9142 3 52.0692 10.3802 52.0692 25.1407V34.745V57.7752" stroke="#676767" stroke-linecap="round" stroke-linejoin="round"/>
<path d="M52.0694 54.8773L53.5735 53.6584H59.3766L60.6602 54.8773C60.8406 60.873 60.8406 64.8306 60.6602 66.7502C60.4799 68.6697 59.9486 70.3656 59.0665 71.8376H54.4862C53.1972 71.9902 52.2993 72.3458 51.7927 72.9046C51.2861 73.4634 50.6454 74.2973 49.8706 75.4064L52.0694 57.7752" stroke="#676767" stroke-linecap="round" stroke-linejoin="round"/>
<path d="M44.9552 54.8773L43.4511 53.6584H37.648L36.3644 54.8773C36.184 60.873 36.184 64.8306 36.3644 66.7502C36.5447 68.6697 37.076 70.3656 37.9581 71.8376H42.5384C43.8274 71.9902 44.7253 72.3458 45.2319 72.9046C45.7385 73.4634 46.364 74.2973 47.1084 75.4064L45.1391 57.7752" stroke="#676767" stroke-linecap="round" stroke-linejoin="round"/>
<path d="M51.3622 73.5075C51.0295 79.802 50.7671 83.6435 50.5751 85.032C50.2871 87.1146 49.9287 89.4981 48.4841 89.4981C47.0394 89.4981 46.6869 87.2167 46.3367 85.032C46.1031 83.5755 45.8617 79.7022 45.6123 73.4122" stroke="#676767" stroke-linecap="round" stroke-linejoin="round"/>
<path d="M52.0693 38.8901H62.7351L92.8052 42.2205C94.4264 42.5043 95.3982 43.3036 95.7207 44.6185C96.0432 45.9334 96.2058 48.8537 96.2087 53.3794L60.7955 55.5702" stroke="#676767" stroke-linecap="round" stroke-linejoin="round"/>
<path d="M92.1668 53.6585V48.5585L53.603 49.2907" stroke="#676767" stroke-linecap="round" stroke-linejoin="round"/>
<path d="M52.0693 45.3994L54.6731 53.6584" stroke="#676767" stroke-linecap="round" stroke-linejoin="round"/>
<path d="M45.1392 38.8901H34.4734L4.40326 42.2205C2.7821 42.5043 1.81028 43.3036 1.4878 44.6185C1.16532 45.9334 1.00266 48.8537 0.999828 53.3794L36.2907 55.5626" stroke="#676767" stroke-linecap="round" stroke-linejoin="round"/>
<path d="M5.04173 53.6585V48.5585L43.6055 49.2907" stroke="#676767" stroke-linecap="round" stroke-linejoin="round"/>
<path d="M45.1392 45.3994L42.5354 53.6584" stroke="#676767" stroke-linecap="round" stroke-linejoin="round"/>
<path d="M60.7954 38.8901C60.9329 35.1412 61.5275 33.2667 62.5791 33.2667C63.6307 33.2667 64.2129 35.1412 64.3258 38.8901" stroke="#676767" stroke-linecap="round" stroke-linejoin="round"/>
<path d="M32.896 38.9862C33.0335 35.2373 33.6281 33.3629 34.6797 33.3629C35.7199 33.3629 36.3008 35.1969 36.4226 38.8649" stroke="#676767" stroke-linecap="round" stroke-linejoin="round"/>
<path fill-rule="evenodd" clip-rule="evenodd" d="M64.0035 88.4867C63.1617 85.7689 62.7407 83.4805 62.7407 81.6218C62.7407 79.763 63.1262 78.0591 63.8971 76.51C64.668 77.7639 65.0534 79.4679 65.0534 81.6218C65.0534 83.7757 64.7035 86.064 64.0035 88.4867Z" stroke="#676767" stroke-linecap="round" stroke-linejoin="round"/>
<path d="M63.2087 78.1216H51.1636" stroke="#676767" stroke-linecap="round" stroke-linejoin="round"/>
<path d="M63.3234 86.1682L62.3469 88.9653H50.8413L50.3354 86.5783" stroke="#676767" stroke-linecap="round" stroke-linejoin="round"/>
<path fill-rule="evenodd" clip-rule="evenodd" d="M32.9076 88.4414C33.7495 85.7235 34.1704 83.4352 34.1704 81.5764C34.1704 79.7176 33.785 78.0137 33.014 76.4647C32.2431 77.7186 31.8577 79.4225 31.8577 81.5764C31.8577 83.7303 32.2077 86.0186 32.9076 88.4414Z" stroke="#676767" stroke-linecap="round" stroke-linejoin="round"/>
<path d="M33.7026 78.0762H45.7305" stroke="#676767" stroke-linecap="round" stroke-linejoin="round"/>
<path d="M33.5649 86.0568L34.5644 88.9199H46.0701L46.582 86.4648" stroke="#676767" stroke-linecap="round" stroke-linejoin="round"/>
<path fill-rule="evenodd" clip-rule="evenodd" d="M46.6025 28.3828H50.5625L50.2475 11.2997H47.11L46.6025 28.3828Z" stroke="#676767" stroke-linecap="round" stroke-linejoin="round"/>
<path d="M20.25 41C20.25 39.7574 19.2426 38.75 18 38.75C16.7574 38.75 15.75 39.7574 15.75 41C15.75 42.2426 16.7574 43.25 18 43.25C19.2426 43.25 20.25 42.2426 20.25 41Z" fill="white" stroke="#1B1B1B" stroke-width="1.5"/>
<path d="M21 41C21 39.3431 19.6569 38 18 38C16.3431 38 15 39.3431 15 41C15 42.6569 16.3431 44 18 44C19.6569 44 21 42.6569 21 41Z" stroke="#1B1B1B"/>
<path d="M84.25 41C84.25 39.7574 83.2426 38.75 82 38.75C80.7574 38.75 79.75 39.7574 79.75 41C79.75 42.2426 80.7574 43.25 82 43.25C83.2426 43.25 84.25 42.2426 84.25 41Z" fill="white" stroke="#1B1B1B" stroke-width="1.5"/>
<path d="M85 41C85 39.3431 83.6569 38 82 38C80.3431 38 79 39.3431 79 41C79 42.6569 80.3431 44 82 44C83.6569 44 85 42.6569 85 41Z" stroke="#1B1B1B"/>
<path d="M50.8574 3.88977C50.8574 2.64713 49.8501 1.63977 48.6074 1.63977C47.3648 1.63977 46.3574 2.64713 46.3574 3.88977C46.3574 5.13241 47.3648 6.13977 48.6074 6.13977C49.8501 6.13977 50.8574 5.13241 50.8574 3.88977Z" fill="white" stroke="#1B1B1B" stroke-width="1.5"/>
<path d="M51.6074 3.88977C51.6074 2.23292 50.2643 0.889771 48.6074 0.889771C46.9506 0.889771 45.6074 2.23292 45.6074 3.88977C45.6074 5.54662 46.9506 6.88977 48.6074 6.88977C50.2643 6.88977 51.6074 5.54662 51.6074 3.88977Z" stroke="#1B1B1B"/>
<path d="M72.25 55C72.25 53.7574 71.2426 52.75 70 52.75C68.7574 52.75 67.75 53.7574 67.75 55C67.75 56.2426 68.7574 57.25 70 57.25C71.2426 57.25 72.25 56.2426 72.25 55Z" fill="white" stroke="#1B1B1B" stroke-width="1.5"/>
<path d="M73 55C73 53.3431 71.6569 52 70 52C68.3431 52 67 53.3431 67 55C67 56.6569 68.3431 58 70 58C71.6569 58 73 56.6569 73 55Z" stroke="#1B1B1B"/>
<path d="M29.25 55C29.25 53.7574 28.2426 52.75 27 52.75C25.7574 52.75 24.75 53.7574 24.75 55C24.75 56.2426 25.7574 57.25 27 57.25C28.2426 57.25 29.25 56.2426 29.25 55Z" fill="white" stroke="#1B1B1B" stroke-width="1.5"/>
<path d="M30 55C30 53.3431 28.6569 52 27 52C25.3431 52 24 53.3431 24 55C24 56.6569 25.3431 58 27 58C28.6569 58 30 56.6569 30 55Z" stroke="#1B1B1B"/>
<path d="M42.25 89C42.25 87.7574 41.2426 86.75 40 86.75C38.7574 86.75 37.75 87.7574 37.75 89C37.75 90.2426 38.7574 91.25 40 91.25C41.2426 91.25 42.25 90.2426 42.25 89Z" fill="white" stroke="#1B1B1B" stroke-width="1.5"/>
<path d="M43 89C43 87.3431 41.6569 86 40 86C38.3431 86 37 87.3431 37 89C37 90.6569 38.3431 92 40 92C41.6569 92 43 90.6569 43 89Z" stroke="#1B1B1B"/>
<path d="M59.25 89C59.25 87.7574 58.2426 86.75 57 86.75C55.7574 86.75 54.75 87.7574 54.75 89C54.75 90.2426 55.7574 91.25 57 91.25C58.2426 91.25 59.25 90.2426 59.25 89Z" fill="white" stroke="#1B1B1B" stroke-width="1.5"/>
<path d="M60 89C60 87.3431 58.6569 86 57 86C55.3431 86 54 87.3431 54 89C54 90.6569 55.3431 92 57 92C58.6569 92 60 90.6569 60 89Z" stroke="#1B1B1B"/>
</g>
<defs>
<clipPath id="clip0_838_4125">
<rect width="97" height="93" fill="white"/>
</clipPath>
</defs>
</svg>
