<svg width="120" height="30" viewBox="0 0 120 30" fill="none" xmlns="http://www.w3.org/2000/svg">
<g style="mix-blend-mode:luminosity" opacity="0.7">
<path d="M10.8639 15.6494H6.79398L8.96113 8.57794L10.8639 15.6494ZM4.68424 23.4479L6.07143 18.8009H11.5573L12.8564 23.4479H17.9389L12.8896 5.72047C12.5991 4.67366 11.9646 4.18877 10.8639 4.18877H3.67569V5.86297H4.27941C5.03066 5.86297 5.437 6.15652 5.437 6.73204C5.437 7.10817 5.35241 7.42438 5.05483 8.28842L0 23.4479H4.68424ZM23.7918 23.4479V5.66458C23.7918 4.73861 23.2485 4.18877 22.3512 4.18877H17.9061V5.86297H18.1957C18.9439 5.86297 19.2611 6.18119 19.2611 6.93899V23.4479H23.7918ZM31.4986 23.4479V5.66458C31.4986 4.73861 30.9478 4.18877 30.0556 4.18877H25.611V5.86297H25.893C26.6472 5.86297 26.965 6.18119 26.965 6.93899V23.4479H31.4986ZM39.4039 5.94655C39.4039 4.65553 38.4487 3.87457 36.8067 3.87457C35.191 3.87457 34.203 4.65503 34.203 5.94655C34.203 7.25218 35.191 8.02709 36.8067 8.02709C38.4482 8.02709 39.4039 7.25218 39.4039 5.94655ZM39.3193 23.4479V10.4838C39.3193 9.55981 38.7674 9.01399 37.8722 9.01399H33.485V10.656H33.7433C34.4946 10.656 34.8118 11.0014 34.8118 11.7536V23.4484H39.3193V23.4479ZM49.2432 16.5144V19.3195C48.4889 20.1005 47.57 20.5677 46.7915 20.5677C45.9783 20.5677 45.6939 20.169 45.6939 19.0874C45.6939 18.0179 45.9204 17.533 46.7306 17.2178C47.3343 16.9555 48.1163 16.7244 49.2432 16.5144ZM43.1455 13.1449C44.6496 12.4228 46.2966 12.0175 47.5936 12.0175C48.8101 12.0175 49.2432 12.4505 49.2432 13.7133V14.0356C47.3963 14.3271 46.8192 14.446 45.7769 14.6756C45.1772 14.817 44.6194 14.9877 44.0725 15.2214C42.2503 15.951 41.3898 17.3578 41.3898 19.5209C41.3898 22.2646 42.572 23.5899 45.0247 23.5899C45.9199 23.5899 46.7301 23.4182 47.4537 23.1327C48.0861 22.8517 48.4622 22.6156 49.3882 21.8935V22.0944C49.3882 22.9877 49.8479 23.4479 50.7462 23.4479H54.873V21.8935H54.6696C53.8922 21.8935 53.6041 21.5441 53.6041 20.6241V13.7476C53.6041 10.083 52.3328 8.80554 48.6616 8.80554C47.4803 8.80554 46.3258 8.95659 45.2034 9.2149C44.072 9.47219 43.492 9.70381 42.1415 10.3705L43.1455 13.1449ZM61.4485 23.4479V13.6887C62.2022 12.8503 62.9792 12.4722 63.8744 12.4722C64.8306 12.4722 65.0587 12.8503 65.0587 14.3014V23.4479H69.5627V13.6328C69.5627 11.3488 69.3955 10.6273 68.6709 9.85285C68.0637 9.18317 67.1407 8.84128 65.9529 8.84128C64.1896 8.84128 62.9495 9.38811 61.2833 10.9475V10.372C61.2833 9.4727 60.814 9.01399 59.8921 9.01399H55.6147V10.656H55.874C56.6253 10.656 56.946 11.0014 56.946 11.7536V23.4484H61.4485V23.4479ZM82.9271 20.4167H76.6321L82.6396 11.9908V9.01147H73.2293C72.1598 9.01147 71.6699 9.5014 71.6699 10.5719V13.1952H73.3431V12.9379C73.3431 12.2753 73.689 11.9571 74.407 11.9571H77.6457L71.5803 20.4756V23.4469H82.9271V20.4167Z" fill="white"/>
<path d="M108.45 23.0793H112.692V10.3705C112.692 9.0961 112.201 8.63538 110.957 8.63538H108.45V23.0793ZM106.567 23.0793V6.76229C106.567 5.4622 106.105 5.02515 104.841 5.02515H101.022V6.84688H101.25C102.123 6.84688 102.292 7.04325 102.292 8.09309V23.0798H106.567V23.0793ZM100.418 23.0793V8.63588H97.9055C96.6633 8.63588 96.1754 9.0966 96.1754 10.371V23.0798H100.418V23.0793Z" fill="white"/>
<path d="M116.705 14.7863C116.705 21.9761 111.536 27.2036 104.433 27.2036C97.3307 27.2036 92.1601 21.9761 92.1601 14.7863C92.1601 7.59407 97.3307 2.36603 104.433 2.36603C111.537 2.36654 116.705 7.62731 116.705 14.7863ZM119.217 14.7863C119.217 6.33125 112.892 0 104.434 0C95.9707 0 89.648 6.33125 89.648 14.7863C89.648 23.2515 95.9712 29.5676 104.434 29.5676C112.892 29.5676 119.217 23.2515 119.217 14.7863Z" fill="white"/>
</g>
</svg>
