<svg width="117" height="33" viewBox="0 0 117 33" fill="none" xmlns="http://www.w3.org/2000/svg">
<g style="mix-blend-mode:luminosity" opacity="0.7">
<path d="M37.4867 1.57373H4.85613C2.61438 1.57373 0.75824 3.37502 0.75824 5.70267V26.4088C0.75824 28.7393 2.61438 30.5845 4.85613 30.5845H37.4867C39.6882 30.5845 41.5443 28.7393 41.5443 26.4088V5.70267C41.5443 3.37502 39.6882 1.57373 37.4867 1.57373Z" fill="#ED1C24"/>
<path d="M38.5659 26.4088C38.5659 27.0696 38.1342 27.596 37.4867 27.596H4.85613C4.21152 27.596 3.73669 27.0696 3.73669 26.4088V5.70266C3.73669 5.04472 4.21152 4.51837 4.85613 4.51837H37.4867C38.1342 4.51837 38.5659 5.04472 38.5659 5.70266V26.4088Z" fill="white"/>
<path d="M31.7025 19.9902C31.7025 18.0574 30.4938 17.6158 28.7269 17.6158H27.0837V22.4963H28.6809C30.2809 22.4963 31.7025 21.9699 31.7025 19.9902ZM27.0837 14.1009H28.6406C30.1082 14.1009 31.1845 13.443 31.1845 11.8142C31.1845 10.01 29.8032 9.52753 28.3355 9.52753H27.0837V14.1009ZM29.8895 25.5725H22.6405V6.58289H30.2377C33.8205 6.58289 35.7601 8.07714 35.7601 11.6388C35.7601 13.4869 34.2493 14.8028 32.609 15.6391C34.8996 16.297 36.4507 17.7065 36.4507 20.078C36.4507 23.9467 33.2565 25.5725 29.8895 25.5725Z" fill="#ED1C24"/>
<path d="M16.2116 16.3847C16.2116 12.5599 15.8203 9.57432 11.7655 9.57432H10.8562V22.4963H12.4533C14.8274 22.4963 16.2116 20.5634 16.2116 16.3847ZM13.2303 25.5725H6.3698V6.58289H13.2303C18.0649 6.58289 20.652 9.65912 20.652 15.99C20.652 21.4874 18.9282 25.5286 13.2303 25.5725Z" fill="#ED1C24"/>
<path d="M93.3521 9.47485C93.3521 9.47485 93.3521 15.4022 93.3521 15.7209H87.7031C87.7031 15.4022 87.7031 9.47485 87.7031 9.47485H83.6196V25.5754H87.7031C87.7031 25.5754 87.7031 19.2562 87.7031 18.9375H93.3521C93.3521 19.2562 93.3521 25.5754 93.3521 25.5754H97.4384V9.47485H93.3521Z" fill="white"/>
<path d="M110.892 9.47485C110.892 9.47485 110.892 17.3848 110.892 18.2766C110.351 17.5485 104.31 9.47485 104.31 9.47485H100.88V25.5754H104.351C104.351 25.5754 104.351 16.7385 104.351 15.8408C104.895 16.5689 111.634 25.5754 111.634 25.5754H114.359V9.47485H110.892Z" fill="white"/>
<path d="M55.8265 18.4609C56.1114 18.4609 58.2754 18.4609 58.2754 18.4609C59.8438 18.4609 60.4826 19.0223 60.4826 20.3967C60.4826 21.9172 59.8064 22.4816 57.9992 22.4816C57.9992 22.4816 56.1056 22.4816 55.8265 22.4816V18.4609ZM58.0193 15.7823C58.0193 15.7823 56.1056 15.7823 55.8265 15.7823V12.5628C56.1085 12.5628 58.1056 12.5628 58.1056 12.5628C59.2481 12.5628 59.7344 13.0365 59.7344 14.1535C59.7344 15.294 59.2222 15.7823 58.0193 15.7823ZM61.4179 17.0075C63.0294 16.3233 63.6942 15.3934 63.6942 13.674C63.6942 10.9252 61.8409 9.47485 58.3387 9.47485H51.743V25.5754H58.2121C62.3704 25.5754 64.5661 23.97 64.5661 20.9376C64.5661 18.7737 63.5589 17.5661 61.4179 17.0075Z" fill="white"/>
<path d="M71.4929 19.8206L73.444 14.3173L75.4066 19.8206H71.4929ZM77.4498 25.5753H81.611L75.5361 9.47482H71.772L65.6079 25.5753H69.4583L70.4914 22.6453H76.4109L77.4498 25.5753Z" fill="white"/>
</g>
</svg>
