<svg width="79" height="26" viewBox="0 0 79 26" fill="none" xmlns="http://www.w3.org/2000/svg">
<path d="M8.27089 0.457079C5.70259 0.457079 4.33274 0.636637 3.73323 0.636637C2.73437 0.636637 1.84973 0.606586 0.964706 0.606586C0.479735 0.606586 0.394119 0.636684 0.394119 0.845863C0.394119 1.20431 0.508132 1.23466 1.79276 1.23466C2.59148 1.23466 3.04863 1.50372 3.04863 3.86525V17.6165C3.04863 18.0649 2.99118 18.1248 1.70705 18.1248C1.07909 18.1248 0.90769 18.1842 0.90769 18.4835C0.90769 18.7823 1.10751 18.8122 1.39326 18.8122C2.30628 18.8122 2.93423 18.6927 4.13278 18.6927C5.38847 18.6927 6.58729 18.9914 7.78606 18.9914C11.7533 18.9914 14.4076 17.4074 14.4076 14.0592C14.4076 11.4584 12.7233 10.4418 11.382 9.72395C10.8111 9.42512 10.2688 9.2757 10.2688 9.2161C10.2688 9.12667 10.8968 8.7976 11.4393 8.40887C12.3528 7.75135 13.58 6.70458 13.58 4.58226C13.58 2.4597 11.9816 0.457006 8.27076 0.457006L8.27089 0.457079ZM57.1719 0.491268C57.023 0.491268 56.0796 0.933315 54.1434 1.06335C53.7215 1.08932 53.5226 1.06307 53.5226 1.37511C53.5226 1.66144 53.7711 1.71357 54.218 1.71357C55.3348 1.71357 55.4839 1.71344 55.4839 3.35132V17.6782C55.4839 18.1462 55.0617 18.1203 54.044 18.1203C53.448 18.1203 53.4233 18.2767 53.4233 18.4587C53.4233 18.6667 53.4728 18.7187 54.044 18.7187C54.3915 18.7187 55.7074 18.6668 56.5511 18.6668C56.9985 18.6668 57.5445 18.7187 57.9168 18.7187C58.8103 18.7187 58.984 18.7186 58.984 18.4587C58.984 18.2503 59.0336 18.0944 57.7923 18.0944C57.3457 18.0944 57.1719 17.8084 57.1719 15.6505C57.1719 14.8961 57.296 12.8423 57.296 2.93534C57.296 2.15546 57.4201 1.21892 57.4201 0.906876C57.4201 0.62079 57.2958 0.491049 57.1719 0.491049L57.1719 0.491268ZM36.5626 0.517181C36.3391 0.517181 34.8742 1.08893 33.0872 1.08893C32.8141 1.08893 32.7645 1.19303 32.7645 1.45291C32.7645 1.63538 32.8638 1.71361 33.8812 1.71361C34.5514 1.71361 34.7501 1.94767 34.7501 3.79353C34.7501 9.28011 34.6756 16.9765 34.6756 17.7304C34.6756 18.1204 34.4522 18.1203 33.6083 18.1203C33.0125 18.1203 32.8885 18.2503 32.8885 18.4588C32.8885 18.6927 33.0375 18.7187 33.6083 18.7187C33.9558 18.7187 34.8744 18.6669 35.7188 18.6669C36.5132 18.6669 37.6546 18.7187 38.0269 18.7187C38.5729 18.7187 38.6972 18.7187 38.6972 18.4588C38.6972 18.2503 38.5979 18.1203 38.0269 18.1203C36.488 18.1203 36.5379 18.1205 36.5379 16.8988V15.2606C36.5379 15.0265 36.8853 14.8442 37.2824 14.5841C37.7042 14.298 38.0516 14.0383 38.151 14.0383C38.2999 14.0383 39.3431 15.6767 40.3855 16.9247C41.428 18.1727 41.6516 18.8227 42.0987 18.8227C42.4462 18.8227 43.1908 18.7968 43.4887 18.7968C43.712 18.7968 44.0346 18.8227 44.3325 18.8227C44.8785 18.8227 45.0523 18.7707 45.0523 18.5887C45.0523 18.3808 44.8539 18.2503 44.2583 18.2503C43.4144 18.2503 42.62 16.9764 41.7756 15.9104C40.0381 13.7261 39.5916 13.2323 39.5916 12.9981C39.5916 12.8162 41.1305 11.6724 42.3719 10.398C43.1413 9.61811 43.985 8.50027 43.985 8.26588C43.985 8.18774 43.8859 8.16183 43.6874 8.16183C43.3897 8.16183 41.9494 8.23958 41.6267 8.23958C41.3288 8.23958 40.8574 8.16183 40.6093 8.16183C40.2866 8.16183 40.1625 8.21371 40.1625 8.42215C40.1625 8.6563 40.2865 8.708 40.6588 8.708C41.7508 8.708 41.8254 8.76014 41.8254 9.17605C41.8254 9.72201 41.6019 10.1641 40.634 11.126C39.8397 11.9064 37.2575 14.2983 36.6368 14.2983C36.5625 14.2983 36.5379 14.2202 36.5379 14.1161C36.5379 9.87794 36.6863 6.96588 36.6863 3.01358C36.6863 2.18153 36.7362 1.08888 36.7362 0.751104C36.7362 0.595079 36.6866 0.517078 36.5626 0.517078L36.5626 0.517181ZM7.41433 1.17456C10.0116 1.17456 11.2103 4.04459 11.2103 5.53944C11.2103 7.90097 10.2685 8.469 9.44088 9.12676C9.44088 9.12676 8.24192 8.9472 6.50126 8.9472C5.81592 8.9472 5.44512 9.00678 5.44512 8.52837V2.04169C5.44512 1.4438 5.53088 1.17474 7.41429 1.17474L7.41433 1.17456ZM19.9304 7.90164C17.6715 7.90164 15.313 10.086 15.313 13.7522C15.313 18.0944 18.3417 19.1349 20.377 19.1349C22.3878 19.1349 24.4979 17.4963 24.4979 17.3664C24.4979 17.3143 24.4234 17.1583 24.2993 17.1583C24.1505 17.1583 23.2569 17.7826 21.6186 17.7826C19.7317 17.7826 17.0752 16.8205 17.0752 13.2321C17.0752 12.6342 17.15 12.5042 17.5475 12.4782C20.377 12.2962 22.8595 11.7245 23.5049 11.568C24.1756 11.412 24.523 11.3081 24.523 11.204C24.523 10.9961 24.1255 10.3719 23.7033 9.85213C22.8097 8.75996 21.2212 7.90186 19.9302 7.90186L19.9304 7.90164ZM48.8758 7.90164C46.6171 7.90164 44.2584 10.086 44.2584 13.7522C44.2584 18.0944 47.2868 19.1349 49.3224 19.1349C51.333 19.1349 53.4433 17.4963 53.4433 17.3664C53.4433 17.3143 53.3686 17.1583 53.2446 17.1583C53.0957 17.1583 52.2019 17.7826 50.5636 17.7826C48.677 17.7826 46.021 16.8205 46.021 13.2321C46.021 12.6342 46.0955 12.5042 46.4925 12.4782C49.3225 12.2962 51.8045 11.7245 52.4503 11.568C53.1205 11.412 53.4681 11.3081 53.4681 11.204C53.4681 10.9961 53.0711 10.3719 52.649 9.85213C51.755 8.75996 50.1666 7.90186 48.8756 7.90186L48.8758 7.90164ZM63.194 7.90164C60.9349 7.90164 58.5766 10.086 58.5766 13.7522C58.5766 18.0944 61.6051 19.1349 63.6407 19.1349C65.6515 19.1349 67.7616 17.4963 67.7616 17.3664C67.7616 17.3143 67.6869 17.1583 67.5629 17.1583C67.414 17.1583 66.5206 17.7826 64.8819 17.7826C62.9955 17.7826 60.3392 16.8205 60.3392 13.2321C60.3392 12.6342 60.4138 12.5042 60.8108 12.4782C63.6408 12.2962 66.1233 11.7245 66.7687 11.568C67.4389 11.412 67.7864 11.3081 67.7864 11.204C67.7864 10.9961 67.3894 10.3719 66.9673 9.85213C66.0738 8.75996 64.4849 7.90186 63.1943 7.90186L63.194 7.90164ZM28.569 8.08346C28.1715 8.08346 27.6998 8.21342 27.3027 8.21342C26.8062 8.21342 26.3345 8.16121 25.4906 8.16121C25.0682 8.16121 25.0932 8.23958 25.0932 8.55187C25.0932 8.83796 25.0931 8.81181 25.5404 8.81181C26.9304 8.81181 26.8806 8.86381 26.8806 10.6318V17.7565C26.8806 18.1205 26.8062 18.1464 25.7886 18.1464C25.1925 18.1464 25.1678 18.1982 25.1678 18.4586C25.1678 18.7187 25.2173 18.7185 25.7886 18.7185C26.136 18.7185 26.9802 18.5885 27.8241 18.5885C28.6187 18.5885 30.2817 18.7185 30.6292 18.7185C31.2746 18.7185 31.2995 18.7447 31.2995 18.4586C31.2995 18.2242 31.2746 18.1464 30.6292 18.1464C28.7924 18.1464 28.7181 18.1462 28.7181 16.8723V11.5155C28.7181 10.4236 29.2639 9.79956 30.7034 9.79956C31.9449 9.79956 32.243 10.8656 32.5905 10.8656C32.7394 10.8656 33.1363 9.72162 33.1363 9.4615C33.1363 8.78572 31.9946 8.21326 31.5473 8.21326C30.3807 8.21326 29.2145 9.56555 28.8422 9.56555C28.7428 9.56555 28.7181 9.38364 28.7181 9.14972C28.7181 9.07159 28.7676 8.49956 28.7676 8.3695C28.7676 8.16107 28.6683 8.08327 28.5689 8.08327L28.569 8.08346ZM78.1356 8.10937C77.7881 8.10937 77.1179 8.21342 76.7456 8.21342C76.075 8.21342 75.6282 8.16158 74.9582 8.16158C74.5114 8.16158 74.4368 8.1614 74.4368 8.49965C74.4368 8.75977 74.5362 8.75997 75.3058 8.75997C76.1495 8.75997 76.1492 8.9158 76.1492 9.69569C76.1492 10.0597 75.2559 12.7642 74.6602 14.6361C74.2632 15.8585 74.1142 16.2224 73.9405 16.2224C73.8411 16.2224 73.5431 15.7804 73.3441 15.2344C71.855 11.2297 71.2096 10.3195 71.2096 9.56562C71.2096 8.96773 71.3585 8.81171 71.9541 8.81171C72.4753 8.81171 72.5748 8.7857 72.5748 8.55177C72.5748 8.26521 72.4753 8.16148 71.9541 8.16148C71.1599 8.16148 70.2908 8.23924 69.5958 8.23924C69.0002 8.23924 68.8265 8.1874 68.1315 8.1874C67.6847 8.1874 67.6105 8.31761 67.6105 8.55177C67.6105 8.78569 67.6351 8.81171 68.1315 8.81171C68.5782 8.81171 68.7521 8.94193 69.3727 10.5017C70.7381 13.882 72.7237 18.6924 72.7237 18.9784C72.7237 19.7583 70.5895 22.8264 69.6955 23.9962C68.8515 25.1146 67.6847 25.2706 67.6847 25.4266C67.6847 25.5567 67.9328 25.6866 68.3549 25.6866C68.901 25.6866 69.0746 25.4787 69.8192 25.3748C70.3657 25.2967 70.6635 25.2706 70.9367 24.6987C71.7308 22.9824 72.8481 20.8761 74.4121 16.8979C76.3731 11.9061 77.4655 8.78565 78.0116 8.78565C78.3095 8.78565 78.6567 8.65557 78.6567 8.42165C78.6567 8.13532 78.5327 8.10912 78.1356 8.10912V8.10937ZM19.6821 8.44781C20.8241 8.44781 22.2885 10.3716 22.2885 11.0217C22.2885 11.1777 22.264 11.2297 21.9908 11.2816C20.129 11.5937 18.7885 11.9322 17.4977 11.9322C17.1995 11.9322 17.1997 11.906 17.1997 11.7759C17.1997 11.4115 17.7956 8.44778 19.682 8.44778L19.6821 8.44781ZM48.627 8.44781C49.7693 8.44781 51.2338 10.3716 51.2338 11.0217C51.2338 11.1777 51.2089 11.2297 50.9358 11.2816C49.074 11.5937 47.7336 11.9322 46.443 11.9322C46.1451 11.9322 46.145 11.906 46.145 11.7759C46.145 11.4115 46.7406 8.44778 48.627 8.44778L48.627 8.44781ZM62.9452 8.44781C64.0871 8.44781 65.552 10.3716 65.552 11.0217C65.552 11.1777 65.5272 11.2297 65.254 11.2816C63.3922 11.5937 62.0519 11.9322 60.7608 11.9322C60.4629 11.9322 60.4628 11.906 60.4628 11.7759C60.4628 11.4115 61.0583 8.44778 62.9452 8.44778L62.9452 8.44781ZM6.47469 9.51465C9.58534 9.51465 11.6971 11.6073 11.6971 14.298C11.6971 16.8987 10.0991 18.4537 7.9302 18.4537C7.01672 18.4537 6.10379 18.2443 5.78958 17.8853C5.53298 17.5863 5.4471 15.9124 5.4471 15.6432V10.2917C5.4471 9.63417 5.67572 9.5145 6.47492 9.5145L6.47469 9.51465ZM20.6272 21.7182C20.0408 21.7182 19.5517 22.0888 19.5517 22.7028C19.5517 23.8697 21.0195 23.6617 21.0195 24.3113C21.0195 24.5699 20.8305 24.7932 20.4479 24.7932C20.1911 24.7932 19.8666 24.6667 19.5951 24.4739L19.353 24.9205C19.6243 25.1181 19.9923 25.3063 20.4479 25.3063C21.0826 25.3063 21.6106 24.8795 21.6106 24.2909C21.6106 23.1084 20.1427 23.464 20.1427 22.6772C20.1427 22.4186 20.3075 22.231 20.6272 22.231C20.913 22.231 21.1357 22.3325 21.3829 22.4643L21.5912 22.0278C21.3105 21.8453 20.9759 21.7182 20.6272 21.7182L20.6272 21.7182ZM32.3294 21.7182C31.3315 21.7182 30.886 22.4643 30.886 23.5096C30.886 24.5042 31.3267 25.3063 32.3294 25.3063C33.3321 25.3063 33.7732 24.5042 33.7732 23.5096C33.7732 22.4643 33.3273 21.7182 32.3294 21.7182ZM40.1087 21.7182C39.1107 21.7182 38.6211 22.4693 38.6211 23.5149C38.6211 24.5804 39.0673 25.3063 40.0893 25.3063C40.535 25.3063 40.9517 25.1131 41.2907 24.7883L40.9952 24.3928C40.7239 24.6517 40.414 24.7932 40.1183 24.7932C39.503 24.7932 39.2121 24.3318 39.2121 23.5097C39.2121 22.6927 39.5225 22.231 40.1087 22.231C40.4236 22.231 40.6561 22.3478 40.9127 22.5709L41.2132 22.1649C40.8644 21.8653 40.5204 21.7182 40.1087 21.7182L40.1087 21.7182ZM52.7216 21.7182C51.7234 21.7182 51.2782 22.4643 51.2782 23.5096C51.2782 24.5042 51.7188 25.3063 52.7216 25.3063C53.7243 25.3063 54.1654 24.5042 54.1654 23.5096C54.1654 22.4643 53.7195 21.7182 52.7216 21.7182ZM6.3636 21.7689L5.80629 21.8301V25.2503H6.38293V22.9161H6.39261L7.79268 25.2503H8.30623V21.7742H7.72959V24.0581H7.71528L6.36365 21.7689L6.3636 21.7689ZM13.7596 21.7689V25.2503H15.775L15.8188 24.7376H14.3362V23.7534H15.5814V23.2406H14.3362V22.2817H15.7363V21.7689H13.7596ZM34.5149 21.7689V25.2503H35.0912V23.7534H36.3123V23.2406H35.0912V22.2817H36.4525V21.7689H34.5149ZM43.4275 21.7689L42.7544 21.8249L41.5867 25.2503H42.1246L42.4004 24.4126H43.7377L44.0138 25.2503H44.6052L43.4275 21.7689H43.4275ZM48.9685 21.7689V25.2503H49.5448V23.7534H50.766V23.2406H49.5448V22.2817H50.9065V21.7689H48.9685ZM58.0459 21.7689L57.4886 21.8301V25.2503H58.0649V22.9161H58.075L59.4747 25.2503H59.9883V21.7742H59.4119V24.0581H59.3972L58.0459 21.7689V21.7689ZM63.6012 21.7689L62.9277 21.8249L61.76 25.2503H62.2979L62.5741 24.4126H63.911L64.1872 25.2503H64.7785L63.6012 21.7689H63.6012ZM2.54948 21.7742V24.0423C2.54948 24.8238 2.96114 25.3063 3.77523 25.3063C4.58405 25.3063 4.996 24.824 4.996 24.0374V21.7742H4.41935V24.0779C4.41935 24.5095 4.24533 24.7932 3.77529 24.7932C3.30042 24.7932 3.12585 24.5093 3.12585 24.0727V21.7742H2.54952H2.54948ZM9.12745 21.7742V25.2503H9.70378V21.7742H9.12745ZM10.2704 21.7742L11.4136 25.2503H12.048L13.1963 21.7742H12.6293L11.995 23.7177C11.995 23.7177 11.932 23.9154 11.7672 24.5092H11.7382C11.5782 23.9154 11.5155 23.7125 11.5155 23.7125L10.8807 21.7742H10.2703H10.2704ZM16.5816 21.7742V25.2503H17.158V23.8597H17.4341C17.6425 23.8597 17.7636 24.0631 17.8605 24.271L18.3206 25.2503H18.9553L18.3206 23.9968C18.282 23.9156 18.2238 23.824 18.1173 23.7579V23.7482C18.5531 23.5755 18.7423 23.2205 18.7423 22.8046C18.7423 22.2007 18.3788 21.7742 17.6471 21.7742H16.5816H16.5816ZM22.2971 21.7742V25.2503H22.8734V21.7742H22.2971ZM23.5369 21.7742V22.2918H24.414V25.2503H24.9903V22.2865H25.8284L25.8722 21.7742H23.5369ZM26.2495 21.7742L27.2959 23.7631V25.2503H27.8723V23.7631L28.9191 21.7742H28.284L27.8142 22.764C27.8142 22.764 27.7561 22.8905 27.5915 23.2763H27.5772C27.4025 22.8905 27.3394 22.764 27.3394 22.764L26.8987 21.7742H26.2495H26.2495ZM45.0722 21.7742V25.2503H47.0342L47.078 24.7376H45.6489V21.7742H45.0722ZM47.6392 21.7742V25.2503H48.2156V21.7742H47.6392ZM54.6625 21.7742V25.2503H55.2391V23.8597H55.5153C55.7234 23.8597 55.8448 24.0631 55.9417 24.271L56.4018 25.2503H57.0366L56.4018 23.9968C56.3632 23.9156 56.305 23.824 56.1985 23.7579V23.7482C56.6343 23.5755 56.8235 23.2205 56.8235 22.8046C56.8235 22.2007 56.46 21.7742 55.7283 21.7742H54.6625ZM60.7126 21.7742V25.2503H61.2889V21.7742H60.7126ZM32.3286 22.2309C32.9003 22.2309 33.1764 22.7535 33.1764 23.5096C33.1764 24.2657 32.8957 24.7932 32.3286 24.7932C31.7571 24.7932 31.4761 24.2655 31.4761 23.5043C31.4761 22.7482 31.7571 22.2309 32.3286 22.2309ZM52.7203 22.2309C53.292 22.2309 53.5681 22.7535 53.5681 23.5096C53.5681 24.2657 53.2872 24.7932 52.7203 24.7932C52.1486 24.7932 51.8679 24.2655 51.8679 23.5043C51.8679 22.7482 52.1486 22.2309 52.7203 22.2309ZM17.1579 22.2918H17.6327C18.0252 22.2918 18.1513 22.4846 18.1513 22.8094C18.1513 23.1393 17.9913 23.3522 17.6424 23.3522H17.1579V22.2918ZM55.239 22.2918H55.7139C56.1063 22.2918 56.2324 22.4846 56.2324 22.8094C56.2324 23.1393 56.0724 23.3522 55.7235 23.3522H55.239V22.2918ZM43.0572 22.3831H43.0668C43.2945 23.1036 43.3333 23.2151 43.3333 23.2151L43.5901 23.9814H42.5386L42.7954 23.2151C42.7954 23.2151 42.8343 23.1036 43.0572 22.3831ZM63.2308 22.3831H63.2405C63.4682 23.1036 63.5073 23.2151 63.5073 23.2151L63.7637 23.9814H62.7123L62.9694 23.2151C62.9694 23.2151 63.008 23.1036 63.2309 22.3831H63.2308Z" fill="white"/>
</svg>
