<svg width="95" height="13" viewBox="0 0 95 13" fill="none" xmlns="http://www.w3.org/2000/svg">
<path fill-rule="evenodd" clip-rule="evenodd" d="M0 0.311327H2.33991V4.98123H6.39357V0.311327H8.72525V12.6887H6.39357V7.26149H2.33991V12.6887H0V0.311327ZM15.1765 0.311327H17.5164L22.1798 12.6887H19.7822L18.8347 10.1392H13.8912L12.9025 12.6887H10.5049L15.1765 0.311327ZM16.3629 3.59288L14.7481 7.84207H17.9696L16.3629 3.59288ZM35.107 2.49062L33.4921 4.06408C32.3935 2.88047 31.1577 2.28867 29.7845 2.28867C28.6255 2.28867 27.6492 2.69255 26.8555 3.50032C26.0618 4.3081 25.6649 5.30377 25.6649 6.48738C25.6649 7.31198 25.8407 8.04401 26.1922 8.68349C26.5438 9.32298 27.0408 9.82502 27.6835 10.1896C28.3262 10.5543 29.0402 10.7366 29.8257 10.7366C30.4958 10.7366 31.1082 10.609 31.663 10.3537C32.2178 10.0985 32.8275 9.63431 33.4921 8.96116L35.0575 10.6272C34.1622 11.5191 33.3163 12.1375 32.5199 12.4825C31.7234 12.8275 30.8144 13 29.7927 13C27.9087 13 26.3666 12.39 25.1664 11.1699C23.9663 9.94983 23.3662 8.3862 23.3662 6.47896C23.3662 5.24487 23.6395 4.14823 24.186 3.189C24.7325 2.22977 25.5152 1.45847 26.5341 0.87508C27.5531 0.29169 28.6502 0 29.8257 0C30.8254 0 31.788 0.215963 32.7135 0.647896C33.639 1.07983 34.4368 1.69406 35.107 2.49062ZM37.142 0.311327H39.4737V4.56893L42.7611 0.311327H45.5377L41.3028 5.83107L45.9497 12.6887H43.2143L39.4737 7.19418V12.6887H37.142V0.311327ZM47.5975 0.311327H54.2135V2.61683H49.888V4.85502H54.2135V7.11845H49.888V10.3748H54.2135V12.6887H47.5975V0.311327ZM56.5205 0.311327H58.9675C60.3077 0.311327 61.2621 0.433333 61.8306 0.677347C62.3991 0.921361 62.8564 1.32664 63.2024 1.8932C63.5485 2.45977 63.7215 3.13009 63.7215 3.90421C63.7215 4.71759 63.5306 5.39773 63.1489 5.94466C62.7671 6.49159 62.1918 6.90528 61.4228 7.18576L64.29 12.6887H61.7688L59.0417 7.4466H58.8274V12.6887H56.5205V0.311327ZM58.8274 5.14952H59.5525C60.2885 5.14952 60.7952 5.05135 61.0726 4.85502C61.35 4.65868 61.4887 4.33333 61.4887 3.87896C61.4887 3.60971 61.42 3.37551 61.2827 3.17638C61.1454 2.97724 60.9614 2.8342 60.7307 2.74725C60.5 2.6603 60.077 2.61683 59.4619 2.61683H58.8274V5.14952ZM66.2756 0.311327H68.665C69.6262 0.311327 70.365 0.427724 70.8813 0.660519C71.3976 0.893314 71.8055 1.25091 72.1048 1.73333C72.4042 2.21575 72.5538 2.75145 72.5538 3.34045C72.5538 3.89019 72.422 4.39083 72.1584 4.84239C71.8947 5.29396 71.5075 5.65998 70.9966 5.94045C71.6283 6.15922 72.1144 6.41586 72.455 6.71036C72.7955 7.00486 73.0606 7.36106 73.2501 7.77896C73.4396 8.19687 73.5343 8.64983 73.5343 9.13786C73.5343 10.1307 73.1786 10.9708 72.4673 11.6579C71.756 12.3451 70.8017 12.6887 69.6042 12.6887H66.2756V0.311327ZM67.4621 1.52298V5.48608H68.1541C68.9945 5.48608 69.6125 5.40615 70.0079 5.24628C70.4034 5.08641 70.7165 4.83398 70.9472 4.489C71.1779 4.14401 71.2933 3.76117 71.2933 3.34045C71.2933 2.77389 71.0996 2.32934 70.7124 2.0068C70.3251 1.68425 69.7086 1.52298 68.8627 1.52298H67.4621ZM67.4621 6.73139V11.477H68.9616C69.8459 11.477 70.4941 11.3887 70.906 11.212C71.318 11.0353 71.6489 10.759 71.8988 10.3832C72.1488 10.0073 72.2737 9.60065 72.2737 9.16311C72.2737 8.61337 72.0979 8.13377 71.7464 7.72427C71.3949 7.31478 70.9115 7.03431 70.2963 6.88285C69.8844 6.78188 69.1676 6.73139 68.1459 6.73139H67.4621ZM80.8836 0.311327L86.5357 12.6887H85.2339L83.3306 8.61618H78.107L76.212 12.6887H74.8608L80.587 0.311327H80.8836ZM80.7353 2.93657L78.6508 7.42136H82.7951L80.7353 2.93657ZM86.0523 0.311327H87.4529L90.5509 5.41036L93.5993 0.311327H95L91.1606 6.77346V12.6887H89.9659V6.77346L86.0523 0.311327Z" fill="black"/>
</svg>
