<svg width="25" height="54" viewBox="0 0 25 54" fill="none" xmlns="http://www.w3.org/2000/svg">
<path d="M4.59129 3.63302C4.93996 5.33305 4.93996 7.19405 4.59129 9.21601C4.06828 12.2489 2.64927 19.8064 2.64927 21.2134C2.64927 22.6204 2.97662 27.063 2.64927 30.1069C2.32193 33.1508 0.682698 50.3662 1.05454 51.5092C1.42638 52.6522 2.44418 52.9558 3.92948 51.8128C5.41477 50.6698 6.00036 47.5324 6.59735 45.0244C7.19435 42.5164 7.92339 34.3732 8.29156 33.9491C8.65972 33.525 10.7241 30.7207 10.7241 30.1069" stroke="black" stroke-linecap="round" stroke-linejoin="round"/>
<path d="M7.78971 26.7662C10.2088 29.7421 11.8 31.23 12.5632 31.23C13.708 31.23 16.3696 30.5244 16.9766 30.2362C17.5836 29.948 19.7711 29.4111 20.0321 28.7192C20.2932 28.0273 20.0894 25.9867 17.987 25.2037C17.047 24.8536 15.8233 24.8397 15.2057 24.9592" stroke="black" stroke-linecap="round" stroke-linejoin="round"/>
<path d="M15.7826 26.0874C14.4407 23.6841 13.606 22.3417 13.2782 22.0601C13.2782 22.0601 16.1991 19.7571 17.044 14.5216C17.4349 12.0989 17.2521 9.99382 16.4956 8.20637" stroke="black" stroke-linecap="round" stroke-linejoin="round"/>
<path d="M10.0077 31.5365C12.811 32.8413 14.4586 33.4937 14.9504 33.4937C15.6882 33.4937 18.385 33.0898 18.9491 31.5365C19.2071 30.8261 18.9386 29.9357 18.7631 29.5727" stroke="black" stroke-linecap="round" stroke-linejoin="round"/>
<path d="M17.0154 24.8921C16.5893 23.784 16.1138 23.1159 15.5889 22.8878C15.0641 22.6596 14.5197 22.6596 13.9557 22.8878" stroke="black" stroke-linecap="round" stroke-linejoin="round"/>
<path d="M19.0558 31.23C20.2935 30.9943 21.0911 30.4416 21.4485 29.5718C21.9845 28.2671 20.6198 26.0275 20.2521 25.3649C19.8845 24.7022 18.8338 22.9744 18.2112 22.716C17.5885 22.4576 16.7847 22.716 16.1696 23.2709" stroke="black" stroke-linecap="round" stroke-linejoin="round"/>
<path d="M21.5716 28.3271C22.5157 27.9099 23.2073 27.3487 23.6464 26.6435C24.3051 25.5857 22.7971 23.4851 22.2765 23.0496C21.7558 22.6141 20.9326 21.5751 19.5719 22.1449C19.1019 22.3417 18.7448 22.7594 18.5457 22.8857" stroke="black" stroke-linecap="round" stroke-linejoin="round"/>
<path d="M22.1594 22.8799C22.5514 20.0077 22.5514 17.5121 22.1594 15.393C21.5714 12.2143 19.5655 9.79771 19.0555 8.20508C18.5455 6.61245 18.9312 4.53009 18.5455 3.88326C18.1599 3.23642 14.8158 1.03153 11.9903 1.03153C9.16466 1.03153 4.90121 2.17156 4.59128 3.63294" stroke="black" stroke-linecap="round" stroke-linejoin="round"/>
</svg>
