<svg width="115" height="10" viewBox="0 0 115 10" fill="none" xmlns="http://www.w3.org/2000/svg">
<g clip-path="url(#clip0_838_7851)">
<path d="M111.487 7.1029V6.52561C111.265 6.64132 110.982 6.74354 110.587 6.83354C109.91 6.98719 109.7 7.19226 109.7 7.57734C109.7 8.0132 110.045 8.20542 110.428 8.20542C110.969 8.20542 111.487 7.88463 111.487 7.1029ZM111.586 8.71843H111.561C111.154 9.29573 110.513 9.64159 109.552 9.64159C108.345 9.64159 107.457 8.96208 107.457 7.6802C107.457 6.23053 108.529 5.80816 109.737 5.66673C111.068 5.51309 111.425 5.34658 111.425 4.93579C111.425 4.57707 111.265 4.30771 110.761 4.30771C110.255 4.30771 109.996 4.61564 109.934 5.08944H107.728C107.777 3.7947 108.739 2.73011 110.71 2.73011C111.671 2.73011 112.473 2.93583 112.991 3.33312C113.508 3.75613 113.742 4.25628 113.742 5.12801V7.60305C113.742 8.02606 113.903 8.06463 114.137 8.02606H114.174V9.39794C114.001 9.47509 113.582 9.59081 113.151 9.59081C112.214 9.59081 111.734 9.32144 111.586 8.71843M104.573 2.93583H106.902V9.47509H104.573V2.93583ZM104.573 0.307136H106.902V2.1406H104.573V0.307136ZM101.468 6.15403C101.468 5.21801 100.999 4.47421 100.309 4.47421C99.6312 4.47421 99.1746 5.15372 99.1746 6.15403C99.1746 7.15433 99.6182 7.85956 100.309 7.85956C100.999 7.85956 101.468 7.1029 101.468 6.15403ZM96.8086 6.1926C96.8086 4.14121 97.9425 2.73011 99.6182 2.73011C100.518 2.73011 100.962 3.07661 101.369 3.6282H101.406V0.307136H103.735V9.47509H101.516V8.56479H101.492C101.085 9.29573 100.42 9.69302 99.6429 9.69302C98.0166 9.69302 96.8086 8.44907 96.8086 6.1926ZM92.0024 5.51303H94.1712C94.0723 4.78208 93.6781 4.34622 93.1239 4.34622C92.4825 4.34622 92.1247 4.79494 92.0024 5.51303ZM89.7218 6.19254C89.7218 4.21765 91.0898 2.71783 93.0738 2.71783C94.0606 2.71783 94.812 3.05084 95.391 3.60242C96.1553 4.33336 96.5124 5.50017 96.4877 6.79555H92.0024C92.1377 7.55156 92.5326 8.01314 93.2345 8.01314C93.6411 8.01314 93.937 7.84664 94.1094 7.52585H96.3648C96.2294 8.116 95.7858 8.69265 95.1691 9.10345C94.5902 9.48788 93.9618 9.65439 93.161 9.65439C91.1021 9.65439 89.7218 8.1925 89.7218 6.19254ZM79.5668 0.307136H82.9189L84.2746 5.43594H84.2993L85.655 0.307136H89.0318V9.47509H86.7023V3.73041H86.6776L85.2113 9.47509H83.3255L81.8592 3.73041H81.8339V9.47509H79.5668V0.307136H79.5668ZM74.4765 7.1029V6.52561C74.254 6.64132 73.971 6.74354 73.5768 6.83354C72.8996 6.98719 72.6895 7.19226 72.6895 7.57734C72.6895 8.0132 73.0349 8.20542 73.4168 8.20542C73.9587 8.20542 74.4765 7.88463 74.4765 7.1029ZM74.5753 8.71843H74.5506C74.144 9.29573 73.5027 9.64159 72.5412 9.64159C71.3338 9.64159 70.4465 8.96208 70.4465 7.6802C70.4465 6.23053 71.5186 5.80816 72.7266 5.66673C74.0575 5.51309 74.4153 5.34658 74.4153 4.93579C74.4153 4.57707 74.254 4.30771 73.7492 4.30771C73.2438 4.30771 72.9855 4.61564 72.9237 5.08944H70.7178C70.7672 3.7947 71.7281 2.73011 73.6998 2.73011C74.6618 2.73011 75.4626 2.93583 75.9804 3.33312C76.4976 3.75613 76.7318 4.25628 76.7318 5.12801V7.60305C76.7318 8.02606 76.8924 8.06463 77.126 8.02606H77.1631V9.39794C76.9907 9.47509 76.5717 9.59081 76.1405 9.59081C75.2037 9.59081 74.723 9.32144 74.5753 8.71843ZM67.6241 6.15403C67.6241 5.21801 67.1557 4.47421 66.4655 4.47421C65.7877 4.47421 65.3323 5.15372 65.3323 6.15403C65.3323 7.15433 65.7759 7.85956 66.4655 7.85956C67.1557 7.85956 67.6241 7.1029 67.6241 6.15403ZM62.9657 6.1926C62.9657 4.14121 64.099 2.73011 65.7759 2.73011C66.675 2.73011 67.1186 3.07661 67.5258 3.6282H67.5623V0.307136H69.8918V9.47509H67.6729V8.56479H67.6488C67.2416 9.29573 66.5761 9.69302 65.8 9.69302C64.1731 9.69302 62.9657 8.44907 62.9657 6.1926ZM60.4018 3.92308H60.4389C60.9443 3.10214 61.548 2.79485 62.3488 2.79485C62.5335 2.79485 62.6571 2.81995 62.7313 2.85849V4.92339H62.6818C61.3138 4.67974 60.513 5.32068 60.513 6.79542V9.4749H58.1835V2.93564H60.4018V3.92308ZM55.1268 9.47503V8.62901H55.0897C54.6096 9.30852 53.993 9.6801 53.1304 9.6801C51.627 9.6801 50.8874 8.65473 50.8874 7.15427V2.93576H53.2169V6.57762C53.2169 7.25713 53.4999 7.61585 54.0547 7.61585C54.6584 7.61585 55.0162 7.16713 55.0162 6.4619V2.93576H57.345V9.47503H55.1268H55.1268ZM46.9681 7.37207C47.523 7.37207 47.9048 7.02621 47.9048 6.47463C47.9048 5.88512 47.4859 5.59004 46.9557 5.59004H45.1317V7.37207H46.9681ZM46.7339 3.87165C47.227 3.87165 47.5594 3.62801 47.5594 3.14071C47.5594 2.66627 47.2146 2.38405 46.7216 2.38405H45.1317V3.87165H46.7339ZM42.6051 0.306946H47.1652C48.0278 0.306946 48.6685 0.524878 49.1369 0.897099C49.6671 1.32011 49.9748 1.94819 49.9748 2.70485C49.9748 3.57658 49.6176 4.12816 48.878 4.46181V4.49976C49.8395 4.82055 50.3943 5.66657 50.3943 6.70544C50.3943 7.69289 50.0119 8.43605 49.3834 8.89827C48.8533 9.28271 48.1637 9.47492 47.2511 9.47492H42.6051V0.306972V0.306946ZM35.7652 2.93576H36.579V0.820084H38.859V2.93576H40.054V4.39765H38.859V7.05141C38.859 7.70585 39.302 7.71807 40.0293 7.66728V9.44931C39.6722 9.53931 39.302 9.6036 38.8831 9.6036C37.355 9.6036 36.579 9.15423 36.579 7.59014V4.39765H35.7652V2.93576ZM33.0909 3.92308H33.128C33.6335 3.10214 34.2371 2.79485 35.0379 2.79485C35.2233 2.79485 35.3463 2.81995 35.4204 2.85849V4.92339H35.371C34.003 4.67974 33.2022 5.32068 33.2022 6.79542V9.4749H30.8727V2.93564H33.0909V3.92308ZM25.8071 5.51303H27.9759C27.8776 4.78208 27.4828 4.34622 26.9285 4.34622C26.2878 4.34622 25.9306 4.79494 25.8071 5.51303ZM23.527 6.19254C23.527 4.21765 24.895 2.71783 26.8791 2.71783C27.8653 2.71783 28.6173 3.05084 29.1962 3.60242C29.9606 4.33336 30.3177 5.50017 30.2936 6.79555H25.8071C25.9424 7.55156 26.3372 8.01314 27.0398 8.01314C27.4463 8.01314 27.7417 7.84664 27.9147 7.52585H30.17C30.0341 8.116 29.5904 8.69265 28.9744 9.10345C28.3948 9.48788 27.7664 9.65439 26.9656 9.65439C24.9074 9.65439 23.527 8.1925 23.527 6.19254ZM20.8402 6.16682C20.8402 5.1408 20.4577 4.48701 19.7558 4.48701C19.0409 4.48701 18.5725 5.21795 18.5725 6.16682C18.5725 7.12856 19.0409 7.84664 19.7558 7.84664C20.4707 7.84664 20.8402 7.19284 20.8402 6.16682ZM18.5725 8.62901H18.5478V9.47503H16.3295V0.307074H18.659V3.61528H18.6961C19.1391 3.03798 19.694 2.73069 20.5442 2.73069C22.2329 2.73069 23.2067 4.29479 23.2067 6.19254C23.2067 8.42329 22.1835 9.69296 20.5201 9.69296C19.731 9.69296 18.9914 9.37217 18.5725 8.62901ZM13.2729 9.47503V8.62901H13.2358C12.7557 9.30852 12.1391 9.6801 11.2765 9.6801C9.77253 9.6801 9.03353 8.65473 9.03353 7.15427V2.93576H11.3624V6.57762C11.3624 7.25713 11.646 7.61585 12.2009 7.61585C12.8045 7.61585 13.1617 7.16713 13.1617 6.4619V2.93576H15.4912V9.47503H13.2729ZM5.55798 0.307265V3.66625H2.84665V0.307265H0.270645V9.47522H2.84665V5.88479H5.55798V9.47522H8.13338V0.307265H5.55798Z" fill="white"/>
</g>
<defs>
<clipPath id="clip0_838_7851">
<rect width="114.444" height="10" fill="white"/>
</clipPath>
</defs>
</svg>
