<svg width="145" height="18" viewBox="0 0 145 18" fill="none" xmlns="http://www.w3.org/2000/svg">
<g style="mix-blend-mode:luminosity" opacity="0.7" clip-path="url(#clip0_838_2673)">
<path d="M11.4805 1.11807V7.05779H5.77617V1.11807H1.29318V16.9666H5.77617V10.6216H11.4805V16.9666H15.9635V1.11807H11.4805ZM27.1566 17.358C23.4926 17.344 19.8286 14.9821 19.8286 10.2303V1.11807H24.3116V10.6216C24.3116 12.6062 25.9496 13.3888 27.1709 13.3888C28.3923 13.3888 30.0303 12.5922 30.0303 10.6216V1.11807H34.4845V10.2303C34.4845 14.9821 30.8206 17.3719 27.1566 17.358ZM45.8932 17.358C41.209 17.358 37.3439 13.7941 37.3439 9.04235C37.3439 4.29058 41.209 0.726746 45.8932 0.726746C49.1548 0.726746 51.1808 2.30601 51.1808 2.30601L48.6376 5.38069C48.6376 5.38069 47.718 4.58407 45.8932 4.58407C43.4505 4.58407 41.7263 6.66646 41.7263 9.04235C41.7263 11.4182 43.4505 13.4028 45.8932 13.4028C47.9335 13.4028 48.9537 12.6062 48.9537 12.6062V10.6216H45.4908V7.15562H52.8188V14.5907C52.8188 14.5907 50.5773 17.358 45.8932 17.358ZM64.0263 4.6819C61.5836 4.6819 59.8594 6.66646 59.8594 9.04235C59.8594 11.4182 61.5836 13.4028 64.0263 13.4028C66.4689 13.4028 68.1931 11.4182 68.1931 9.04235C68.1931 6.66646 66.4689 4.6819 64.0263 4.6819ZM64.0263 17.358C59.3421 17.358 55.477 13.7941 55.477 9.04235C55.477 4.29058 59.3421 0.726746 64.0263 0.726746C68.7104 0.726746 72.5756 4.29058 72.5756 9.04235C72.5756 13.7941 68.7104 17.358 64.0263 17.358ZM106.988 4.6819C104.546 4.6819 102.821 6.66646 102.821 9.04235C102.821 11.4182 104.546 13.4028 106.988 13.4028C109.431 13.4028 111.155 11.4182 111.155 9.04235C111.169 6.66646 109.431 4.6819 106.988 4.6819ZM106.988 17.358C102.304 17.358 98.4389 13.7941 98.4389 9.04235C98.4389 4.29058 102.304 0.726746 106.988 0.726746C111.672 0.726746 115.538 4.29058 115.538 9.04235C115.538 13.7941 111.672 17.358 106.988 17.358ZM125.121 12.4105C125.121 12.9975 124.518 13.5006 123.498 13.5006C121.256 13.5006 119.834 12.0192 119.834 12.0192L117.391 15.1917C117.391 15.1917 119.431 17.3719 123.498 17.3719C126.759 17.3719 129.604 15.3874 129.604 12.4245C129.604 7.67272 121.86 7.26742 121.86 5.68816C121.86 5.10117 122.679 4.59804 123.9 4.59804C125.524 4.59804 126.443 5.39466 126.443 5.39466L128.785 2.31999C128.785 2.31999 126.745 0.740721 123.498 0.740721C120.437 0.740721 117.793 2.92095 117.793 5.68816C117.779 10.426 125.121 10.6216 125.121 12.4105ZM93.956 8.24573C94.6744 7.35128 94.9761 6.4708 94.9761 5.47852C94.9761 3.06071 92.9645 1.11807 90.4931 1.11807H82.7629V16.9666H91.2116C93.9703 16.9666 96.1974 14.7864 96.1974 12.117C96.1974 10.4539 95.3784 9.04235 93.956 8.24573ZM86.9297 4.58407H89.473C90.2632 4.58407 90.8954 5.199 90.8954 5.96767C90.8954 6.73634 90.2632 7.35128 89.473 7.35128H86.9297V4.58407ZM90.292 13.4028H86.9297V10.426H90.292C91.1397 10.426 91.815 11.0968 91.815 11.9074C91.815 12.732 91.1397 13.4028 90.292 13.4028ZM139.375 12.4105C139.375 12.9975 138.771 13.5006 137.751 13.5006C135.51 13.5006 134.087 12.0192 134.087 12.0192L131.645 15.1917C131.645 15.1917 133.685 17.3719 137.751 17.3719C141.013 17.3719 143.858 15.3874 143.858 12.4245C143.858 7.67272 136.113 7.26742 136.113 5.68816C136.113 5.10117 136.932 4.59804 138.154 4.59804C139.777 4.59804 140.697 5.39466 140.697 5.39466L143.039 2.31999C143.039 2.31999 140.999 0.740721 137.751 0.740721C134.691 0.740721 132.047 2.92095 132.047 5.68816C132.033 10.426 139.375 10.6216 139.375 12.4105Z" fill="white"/>
</g>
<defs>
<clipPath id="clip0_838_2673">
<rect width="144.404" height="17.33" fill="white"/>
</clipPath>
</defs>
</svg>
