<svg width="134" height="29" viewBox="0 0 134 29" fill="none" xmlns="http://www.w3.org/2000/svg">
<g style="mix-blend-mode:luminosity" opacity="0.7" clip-path="url(#clip0_838_2656)">
<path d="M55.6327 5.70218V22.8087H52.6628V9.38482H52.6233L47.3171 22.8087H45.3372L39.9122 9.38482H39.8726V22.8087H37.1403V5.70218H41.4169L46.3271 18.3736H46.4063L51.5937 5.70218H55.6327ZM58.0878 7.00892C58.0878 6.53374 58.2462 6.13776 58.6026 5.82097C58.959 5.50418 59.355 5.34579 59.8302 5.34579C60.3449 5.34579 60.7805 5.50418 61.0973 5.82097C61.4141 6.13776 61.6121 6.53374 61.6121 7.00892C61.6121 7.4841 61.4537 7.88008 61.0973 8.19687C60.7409 8.51366 60.3449 8.67205 59.8302 8.67205C59.3154 8.67205 58.9194 8.51366 58.6026 8.19687C58.2858 7.84049 58.0878 7.4445 58.0878 7.00892ZM61.2953 10.5332V22.8087H58.4046V10.5332H61.2953ZM70.0465 20.7099C70.4821 20.7099 70.9573 20.6308 71.4721 20.3932C71.9868 20.1952 72.462 19.918 72.8976 19.6012V22.2939C72.4224 22.5711 71.9077 22.7691 71.3137 22.8879C70.7197 23.0067 70.0861 23.0858 69.3734 23.0858C67.5518 23.0858 66.0867 22.5315 64.9779 21.3831C63.8296 20.2348 63.2752 18.7696 63.2752 17.0273C63.2752 15.0474 63.8692 13.4239 65.0175 12.1567C66.1659 10.8896 67.7894 10.256 69.9277 10.256C70.4821 10.256 71.0365 10.3352 71.5513 10.454C72.1056 10.5728 72.5412 10.7708 72.858 10.9292V13.701C72.4224 13.3843 71.9473 13.1071 71.5117 12.9487C71.0365 12.7903 70.5613 12.6715 70.0861 12.6715C68.9378 12.6715 68.027 13.0279 67.3142 13.7802C66.6015 14.5326 66.2847 15.5226 66.2847 16.7897C66.2847 18.0173 66.6411 19.0072 67.3142 19.6804C67.9874 20.3536 68.8982 20.7099 70.0465 20.7099ZM81.0945 10.3352C81.3321 10.3352 81.5301 10.3352 81.7281 10.3748C81.926 10.4144 82.0844 10.454 82.2032 10.4936V13.4239C82.0448 13.3051 81.8468 13.1863 81.5301 13.1071C81.2133 13.0279 80.8965 12.9487 80.4609 12.9487C79.7481 12.9487 79.1542 13.2655 78.679 13.8594C78.2038 14.4534 77.9266 15.3642 77.9266 16.6313V22.8087H75.0359V10.5332H77.9266V12.4735H77.9662C78.2434 11.8003 78.6394 11.2855 79.1542 10.8896C79.7085 10.5332 80.3421 10.3352 81.0945 10.3352ZM82.3616 16.8689C82.3616 14.8494 82.9556 13.2259 84.0644 12.0379C85.2127 10.85 86.7966 10.256 88.8162 10.256C90.7169 10.256 92.2216 10.8104 93.2908 11.9587C94.3599 13.1071 94.9143 14.6514 94.9143 16.5917C94.9143 18.5716 94.3203 20.1556 93.2116 21.3435C92.0632 22.5315 90.5189 23.1254 88.539 23.1254C86.6382 23.1254 85.1335 22.5711 84.0248 21.4623C82.916 20.314 82.3616 18.7696 82.3616 16.8689ZM85.3711 16.7501C85.3711 18.0173 85.6483 19.0072 86.2423 19.6804C86.8362 20.3536 87.6678 20.7099 88.737 20.7099C89.7665 20.7099 90.5981 20.3932 91.1525 19.6804C91.7068 19.0072 91.984 18.0173 91.984 16.6709C91.984 15.3642 91.7068 14.3742 91.1525 13.6614C90.5981 12.9883 89.7665 12.6319 88.7766 12.6319C87.7074 12.6319 86.9154 12.9883 86.3215 13.701C85.6483 14.4534 85.3711 15.4434 85.3711 16.7501ZM99.2305 13.7802C99.2305 14.1762 99.3493 14.5326 99.6265 14.7702C99.9037 15.0078 100.458 15.285 101.369 15.6414C102.517 16.1165 103.349 16.6313 103.784 17.1857C104.26 17.7797 104.497 18.4528 104.497 19.2844C104.497 20.4328 104.062 21.3435 103.151 22.0563C102.28 22.7691 101.052 23.0858 99.5473 23.0858C99.0325 23.0858 98.4782 23.0067 97.8446 22.8879C97.211 22.7691 96.6962 22.6107 96.2606 22.4127V19.5616C96.7754 19.918 97.3694 20.2348 97.9634 20.4328C98.5574 20.6307 99.1117 20.7495 99.6265 20.7495C100.26 20.7495 100.775 20.6703 101.052 20.4724C101.369 20.2744 101.527 19.9972 101.527 19.5616C101.527 19.1656 101.369 18.8488 101.052 18.532C100.735 18.2548 100.102 17.9381 99.2305 17.5817C98.1614 17.1461 97.409 16.6313 96.9734 16.0769C96.5378 15.5226 96.3002 14.8098 96.3002 13.9386C96.3002 12.8299 96.7358 11.9191 97.607 11.2063C98.4782 10.4936 99.6265 10.1372 101.012 10.1372C101.448 10.1372 101.923 10.1768 102.438 10.2956C102.953 10.4144 103.428 10.5332 103.784 10.652V13.4634C103.388 13.2259 102.953 12.9883 102.438 12.7903C101.923 12.5923 101.408 12.5131 100.933 12.5131C100.379 12.5131 99.9433 12.6319 99.6661 12.8299C99.3889 13.1071 99.2305 13.3843 99.2305 13.7802ZM105.725 16.8689C105.725 14.8494 106.319 13.2259 107.427 12.0379C108.576 10.85 110.16 10.256 112.179 10.256C114.08 10.256 115.585 10.8104 116.654 11.9587C117.723 13.1071 118.277 14.6514 118.277 16.5917C118.277 18.5716 117.683 20.1556 116.575 21.3435C115.426 22.5315 113.882 23.1254 111.902 23.1254C110.001 23.1254 108.497 22.5711 107.388 21.4623C106.319 20.314 105.725 18.7696 105.725 16.8689ZM108.734 16.7501C108.734 18.0173 109.011 19.0072 109.605 19.6804C110.199 20.3536 111.031 20.7099 112.1 20.7099C113.13 20.7099 113.961 20.3932 114.515 19.6804C115.07 19.0072 115.347 18.0173 115.347 16.6709C115.347 15.3642 115.07 14.3742 114.515 13.6614C113.961 12.9883 113.13 12.6319 112.14 12.6319C111.07 12.6319 110.278 12.9883 109.684 13.701C109.051 14.4534 108.734 15.4434 108.734 16.7501ZM127.9 12.9091H123.584V22.8087H120.653V12.9091H118.594V10.5332H120.653V8.83044C120.653 7.5633 121.089 6.49414 121.92 5.66258C122.752 4.83101 123.821 4.43503 125.128 4.43503C125.484 4.43503 125.801 4.47463 126.078 4.47463C126.355 4.47463 126.593 4.55382 126.791 4.63302V7.12772C126.712 7.08812 126.514 7.00892 126.276 6.92972C126.039 6.85053 125.761 6.81093 125.445 6.81093C124.851 6.81093 124.375 7.00892 124.059 7.36531C123.742 7.72169 123.584 8.31567 123.584 9.02844V10.4936H127.9V7.72169L130.79 6.85053V10.4936H133.721V12.8695H130.79V18.6112C130.79 19.3636 130.949 19.8784 131.186 20.1952C131.464 20.512 131.899 20.6703 132.493 20.6703C132.652 20.6703 132.85 20.6308 133.087 20.5516C133.325 20.4724 133.523 20.3932 133.681 20.2744V22.6503C133.483 22.7691 133.206 22.8483 132.77 22.9275C132.335 23.0067 131.939 23.0462 131.503 23.0462C130.276 23.0462 129.365 22.7295 128.771 22.0959C128.177 21.4623 127.86 20.4724 127.86 19.1656L127.9 12.9091Z" fill="white"/>
<path d="M13.5793 0H0.0366211V13.5426H13.5793V0Z" fill="#F25022"/>
<path d="M28.5474 0H15.0048V13.5426H28.5474V0Z" fill="#7FBA00"/>
<path d="M13.5793 14.9682H0.0366211V28.5108H13.5793V14.9682Z" fill="#00A4EF"/>
<path d="M28.5474 14.9682H15.0048V28.5108H28.5474V14.9682Z" fill="#FFB900"/>
</g>
<defs>
<clipPath id="clip0_838_2656">
<rect width="133.684" height="28.5108" fill="white" transform="translate(0.0366211)"/>
</clipPath>
</defs>
</svg>
