<?xml version="1.0" encoding="UTF-8" standalone="no"?>
<!DOCTYPE svg PUBLIC "-//W3C//DTD SVG 1.1//EN" "http://www.w3.org/Graphics/SVG/1.1/DTD/svg11.dtd">
<svg width="100%" height="100%" viewBox="0 0 59 50" version="1.1" xmlns="http://www.w3.org/2000/svg" xmlns:xlink="http://www.w3.org/1999/xlink" xml:space="preserve" xmlns:serif="http://www.serif.com/" style="fill-rule:evenodd;clip-rule:evenodd;stroke-linejoin:round;stroke-miterlimit:2;">
    <g>
        <path d="M26.845,46.272C38.735,46.272 48.374,36.505 48.374,24.456C48.374,12.408 38.735,2.641 26.845,2.641C14.954,2.641 5.315,12.408 5.315,24.456C5.315,36.505 14.954,46.272 26.845,46.272Z" style="fill:rgb(11,61,145);fill-rule:nonzero;"/>
        <path d="M25.573,7.076C25.707,7.076 25.815,6.967 25.815,6.832C25.815,6.696 25.707,6.587 25.573,6.587C25.44,6.587 25.332,6.696 25.332,6.832C25.332,6.967 25.44,7.076 25.573,7.076Z" style="fill:white;fill-rule:nonzero;"/>
        <path d="M28.051,7.402C28.185,7.402 28.293,7.293 28.293,7.158C28.293,7.023 28.185,6.913 28.051,6.913C27.918,6.913 27.81,7.023 27.81,7.158C27.81,7.293 27.918,7.402 28.051,7.402Z" style="fill:white;fill-rule:nonzero;"/>
        <path d="M31.302,11.837C31.435,11.837 31.543,11.727 31.543,11.592C31.543,11.457 31.435,11.348 31.302,11.348C31.168,11.348 31.06,11.457 31.06,11.592C31.06,11.727 31.168,11.837 31.302,11.837Z" style="fill:white;fill-rule:nonzero;"/>
        <path d="M13.473,34.663C13.606,34.663 13.714,34.554 13.714,34.419C13.714,34.283 13.606,34.174 13.473,34.174C13.34,34.174 13.232,34.283 13.232,34.419C13.232,34.554 13.34,34.663 13.473,34.663Z" style="fill:white;fill-rule:nonzero;"/>
        <path d="M14.101,36.62C14.234,36.62 14.342,36.51 14.342,36.375C14.342,36.24 14.234,36.13 14.101,36.13C13.967,36.13 13.859,36.24 13.859,36.375C13.859,36.51 13.967,36.62 14.101,36.62Z" style="fill:white;fill-rule:nonzero;"/>
        <path d="M11.108,34.895C11.207,34.895 11.288,34.813 11.288,34.712C11.288,34.611 11.207,34.529 11.108,34.529C11.008,34.529 10.927,34.611 10.927,34.712C10.927,34.813 11.008,34.895 11.108,34.895Z" style="fill:white;fill-rule:nonzero;"/>
        <path d="M20.923,38.739C21.023,38.739 21.104,38.657 21.104,38.556C21.104,38.454 21.023,38.372 20.923,38.372C20.823,38.372 20.742,38.454 20.742,38.556C20.742,38.657 20.823,38.739 20.923,38.739Z" style="fill:white;fill-rule:nonzero;"/>
        <path d="M36.318,35.498C36.417,35.498 36.499,35.416 36.499,35.315C36.499,35.214 36.417,35.132 36.318,35.132C36.218,35.132 36.137,35.214 36.137,35.315C36.137,35.416 36.218,35.498 36.318,35.498Z" style="fill:white;fill-rule:nonzero;"/>
        <path d="M40.792,30.575C40.892,30.575 40.973,30.493 40.973,30.391C40.973,30.29 40.892,30.208 40.792,30.208C40.691,30.208 40.61,30.29 40.61,30.391C40.61,30.493 40.691,30.575 40.792,30.575Z" style="fill:white;fill-rule:nonzero;"/>
        <path d="M18.863,13.206C18.963,13.206 19.044,13.124 19.044,13.023C19.044,12.922 18.963,12.84 18.863,12.84C18.764,12.84 18.683,12.922 18.683,13.023C18.683,13.124 18.764,13.206 18.863,13.206Z" style="fill:white;fill-rule:nonzero;"/>
        <path d="M23.787,9.542C23.887,9.542 23.968,9.46 23.968,9.359C23.968,9.258 23.887,9.176 23.787,9.176C23.687,9.176 23.606,9.258 23.606,9.359C23.606,9.46 23.687,9.542 23.787,9.542Z" style="fill:white;fill-rule:nonzero;"/>
        <path d="M23.252,9.183C23.352,9.183 23.433,9.101 23.433,9C23.433,8.899 23.352,8.817 23.252,8.817C23.153,8.817 23.072,8.899 23.072,9C23.072,9.101 23.153,9.183 23.252,9.183Z" style="fill:white;fill-rule:nonzero;"/>
        <path d="M22.77,8.825C22.869,8.825 22.951,8.743 22.951,8.641C22.951,8.54 22.869,8.458 22.77,8.458C22.67,8.458 22.589,8.54 22.589,8.641C22.589,8.743 22.67,8.825 22.77,8.825Z" style="fill:white;fill-rule:nonzero;"/>
        <path d="M19.636,14.152C19.736,14.152 19.817,14.07 19.817,13.969C19.817,13.868 19.736,13.786 19.636,13.786C19.536,13.786 19.455,13.868 19.455,13.969C19.455,14.07 19.536,14.152 19.636,14.152Z" style="fill:white;fill-rule:nonzero;"/>
        <path d="M26.888,4.618C26.988,4.618 27.069,4.536 27.069,4.435C27.069,4.334 26.988,4.252 26.888,4.252C26.789,4.252 26.708,4.334 26.708,4.435C26.708,4.536 26.789,4.618 26.888,4.618Z" style="fill:white;fill-rule:nonzero;"/>
        <path d="M28.08,9.901C28.18,9.901 28.261,9.819 28.261,9.717C28.261,9.616 28.18,9.534 28.08,9.534C27.98,9.534 27.899,9.616 27.899,9.717C27.899,9.819 27.98,9.901 28.08,9.901Z" style="fill:white;fill-rule:nonzero;"/>
        <path d="M26.201,8.869C26.301,8.869 26.382,8.787 26.382,8.686C26.382,8.585 26.301,8.503 26.201,8.503C26.101,8.503 26.02,8.585 26.02,8.686C26.02,8.787 26.101,8.869 26.201,8.869Z" style="fill:white;fill-rule:nonzero;"/>
        <path d="M22.983,10.272C23.083,10.272 23.163,10.19 23.163,10.089C23.163,9.987 23.083,9.905 22.983,9.905C22.883,9.905 22.802,9.987 22.802,10.089C22.802,10.19 22.883,10.272 22.983,10.272Z" style="fill:white;fill-rule:nonzero;"/>
        <path d="M37.175,40.337C37.275,40.337 37.356,40.255 37.356,40.154C37.356,40.053 37.275,39.971 37.175,39.971C37.075,39.971 36.994,40.053 36.994,40.154C36.994,40.255 37.075,40.337 37.175,40.337Z" style="fill:white;fill-rule:nonzero;"/>
        <path d="M13.167,35.841C13.267,35.841 13.349,35.759 13.349,35.658C13.349,35.556 13.267,35.474 13.167,35.474C13.067,35.474 12.986,35.556 12.986,35.658C12.986,35.759 13.067,35.841 13.167,35.841Z" style="fill:white;fill-rule:nonzero;"/>
        <path d="M25.75,38.206C25.85,38.206 25.932,38.123 25.932,38.022C25.932,37.92 25.85,37.838 25.75,37.838C25.65,37.838 25.569,37.92 25.569,38.022C25.569,38.123 25.65,38.206 25.75,38.206Z" style="fill:white;fill-rule:nonzero;"/>
        <path d="M16.912,35.695C17.012,35.695 17.093,35.612 17.093,35.511C17.093,35.41 17.012,35.327 16.912,35.327C16.812,35.327 16.731,35.41 16.731,35.511C16.731,35.612 16.812,35.695 16.912,35.695Z" style="fill:white;fill-rule:nonzero;"/>
        <path d="M18.477,38.283C18.577,38.283 18.659,38.201 18.659,38.1C18.659,37.998 18.577,37.916 18.477,37.916C18.377,37.916 18.296,37.998 18.296,38.1C18.296,38.201 18.377,38.283 18.477,38.283Z" style="fill:white;fill-rule:nonzero;"/>
        <path d="M29.998,36.652C30.098,36.652 30.179,36.57 30.179,36.469C30.179,36.368 30.098,36.286 29.998,36.286C29.898,36.286 29.818,36.368 29.818,36.469C29.818,36.57 29.898,36.652 29.998,36.652Z" style="fill:white;fill-rule:nonzero;"/>
        <path d="M36.35,33.02C36.45,33.02 36.531,32.938 36.531,32.837C36.531,32.736 36.45,32.654 36.35,32.654C36.25,32.654 36.169,32.736 36.169,32.837C36.169,32.938 36.25,33.02 36.35,33.02Z" style="fill:white;fill-rule:nonzero;"/>
        <path d="M41.165,35.25C41.265,35.25 41.346,35.167 41.346,35.066C41.346,34.965 41.265,34.883 41.165,34.883C41.066,34.883 40.985,34.965 40.985,35.066C40.985,35.167 41.066,35.25 41.165,35.25Z" style="fill:white;fill-rule:nonzero;"/>
        <path d="M42.807,36.314C42.907,36.314 42.987,36.232 42.987,36.131C42.987,36.029 42.907,35.947 42.807,35.947C42.707,35.947 42.626,36.029 42.626,36.131C42.626,36.232 42.707,36.314 42.807,36.314Z" style="fill:white;fill-rule:nonzero;"/>
        <path d="M43.076,33.411C43.176,33.411 43.257,33.329 43.257,33.228C43.257,33.127 43.176,33.045 43.076,33.045C42.977,33.045 42.896,33.127 42.896,33.228C42.896,33.329 42.977,33.411 43.076,33.411Z" style="fill:white;fill-rule:nonzero;"/>
        <path d="M19.133,29.303C19.233,29.303 19.313,29.221 19.313,29.12C19.313,29.018 19.233,28.936 19.133,28.936C19.033,28.936 18.952,29.018 18.952,29.12C18.952,29.221 19.033,29.303 19.133,29.303Z" style="fill:white;fill-rule:nonzero;"/>
        <path d="M19.201,33.571C19.335,33.571 19.443,33.461 19.443,33.326C19.443,33.191 19.335,33.082 19.201,33.082C19.068,33.082 18.96,33.191 18.96,33.326C18.96,33.461 19.068,33.571 19.201,33.571Z" style="fill:white;fill-rule:nonzero;"/>
        <path d="M20.65,36.669C20.783,36.669 20.891,36.559 20.891,36.424C20.891,36.289 20.783,36.179 20.65,36.179C20.516,36.179 20.408,36.289 20.408,36.424C20.408,36.559 20.516,36.669 20.65,36.669Z" style="fill:white;fill-rule:nonzero;"/>
        <path d="M37.996,33.44C38.129,33.44 38.237,33.331 38.237,33.196C38.237,33.061 38.129,32.951 37.996,32.951C37.862,32.951 37.754,33.061 37.754,33.196C37.754,33.331 37.862,33.44 37.996,33.44Z" style="fill:white;fill-rule:nonzero;"/>
        <path d="M44.239,33.082C44.372,33.082 44.48,32.972 44.48,32.837C44.48,32.702 44.372,32.592 44.239,32.592C44.105,32.592 43.997,32.702 43.997,32.837C43.997,32.972 44.105,33.082 44.239,33.082Z" style="fill:white;fill-rule:nonzero;"/>
        <path d="M41.149,31.745C41.283,31.745 41.391,31.635 41.391,31.5C41.391,31.365 41.283,31.255 41.149,31.255C41.016,31.255 40.908,31.365 40.908,31.5C40.908,31.635 41.016,31.745 41.149,31.745Z" style="fill:white;fill-rule:nonzero;"/>
        <path d="M37.996,31.875C38.129,31.875 38.237,31.766 38.237,31.63C38.237,31.495 38.129,31.386 37.996,31.386C37.862,31.386 37.754,31.495 37.754,31.63C37.754,31.766 37.862,31.875 37.996,31.875Z" style="fill:white;fill-rule:nonzero;"/>
        <path d="M31.49,6.678L32.09,6.62L31.491,6.586C31.472,6.468 31.379,6.377 31.263,6.361L31.205,5.756L31.171,6.366C31.062,6.391 30.979,6.483 30.966,6.597L30.352,6.653L30.97,6.687C30.993,6.792 31.076,6.874 31.182,6.893L31.237,7.517L31.27,6.895C31.381,6.876 31.469,6.789 31.49,6.678Z" style="fill:white;fill-rule:nonzero;"/>
        <path d="M21.36,13.449L21.96,13.391L21.361,13.357C21.343,13.239 21.25,13.147 21.133,13.132L21.075,12.527L21.042,13.137C20.933,13.162 20.85,13.253 20.836,13.367L20.223,13.424L20.84,13.458C20.863,13.563 20.947,13.645 21.052,13.664L21.108,14.288L21.141,13.665C21.252,13.647 21.34,13.56 21.36,13.449Z" style="fill:white;fill-rule:nonzero;"/>
        <path d="M43.799,31.35L44.399,31.292L43.8,31.258C43.782,31.14 43.688,31.048 43.572,31.033L43.514,30.428L43.48,31.038C43.372,31.063 43.289,31.154 43.275,31.269L42.662,31.325L43.28,31.359C43.302,31.464 43.386,31.546 43.491,31.565L43.547,32.189L43.58,31.566C43.69,31.548 43.778,31.461 43.799,31.35Z" style="fill:white;fill-rule:nonzero;"/>
        <path d="M19.333,40.71L19.933,40.652L19.334,40.617C19.315,40.5 19.222,40.408 19.105,40.393L19.048,39.788L19.014,40.398C18.905,40.422 18.822,40.514 18.809,40.628L18.195,40.685L18.813,40.719C18.836,40.823 18.919,40.906 19.024,40.925L19.08,41.549L19.113,40.926C19.224,40.908 19.312,40.821 19.333,40.71Z" style="fill:white;fill-rule:nonzero;"/>
        <path d="M41.892,36.145L42.492,36.086L41.893,36.052C41.875,35.935 41.782,35.843 41.665,35.828L41.607,35.222L41.574,35.832C41.465,35.856 41.382,35.948 41.369,36.063L40.755,36.119L41.373,36.153C41.396,36.258 41.479,36.34 41.584,36.359L41.64,36.983L41.673,36.36C41.783,36.342 41.872,36.255 41.892,36.145Z" style="fill:white;fill-rule:nonzero;"/>
        <path d="M31.95,19.231C29.447,20.217 27.005,21.097 24.945,21.75C20.759,23.078 9.305,26.674 2.386,31.206L2.965,31.435C7.181,29.022 9.921,28.264 12.555,27.424C15.419,26.511 24.679,24.315 28.871,23.12C30.288,22.716 31.947,22.187 33.704,21.544C33.295,20.966 32.864,20.386 32.41,19.808C32.258,19.613 32.105,19.421 31.95,19.231ZM35.009,23.502C34.402,23.917 33.894,24.248 33.539,24.456C31.479,25.663 21.438,32.609 19.154,34.207C16.869,35.804 10.529,41.87 8.662,43.63L8.598,44.347C14.616,38.869 16.504,37.518 18.896,35.674C21.857,33.391 27.982,29.169 30.063,27.815C32.053,26.522 33.848,25.332 35.459,24.244C35.432,24.199 35.406,24.154 35.38,24.109C35.258,23.908 35.135,23.705 35.009,23.502ZM44.416,13.435C41.484,15.176 36.863,17.278 32.38,19.061C32.487,19.194 32.594,19.328 32.7,19.464C33.201,20.103 33.674,20.746 34.119,21.39C37.643,20.075 41.509,18.31 44.577,16.173C43.116,17.577 38.283,21.236 35.337,23.276C35.489,23.526 35.636,23.777 35.778,24.026C40.242,21 43.245,18.772 44.996,17.282C47.409,15.228 52.912,10.63 55.004,4.467C51.335,9.196 46.997,11.902 44.416,13.435Z" style="fill:rgb(252,61,33);fill-rule:nonzero;"/>
        <path d="M24.074,29.858C23.6,29.253 22.943,28.442 22.45,27.813C21.791,26.972 21.181,26.123 20.622,25.275C20.44,25.321 20.258,25.367 20.076,25.413C20.751,26.48 21.5,27.545 22.317,28.586C22.913,29.347 23.455,29.96 23.733,30.341C23.789,30.418 23.901,30.589 24.052,30.816C24.225,30.696 24.401,30.576 24.578,30.454C24.407,30.265 24.238,30.067 24.074,29.858ZM27.539,33.045C27.149,32.671 26.203,32.047 25.219,31.11C25.002,31.261 24.783,31.414 24.563,31.569C25.198,32.476 26.064,33.591 26.742,33.916C27.763,34.406 28.038,33.525 27.539,33.045ZM32.7,19.464C27.073,12.286 20.198,8.344 17.234,10.73C14.932,12.583 15.877,18 19.051,23.689C19.215,23.632 19.377,23.576 19.538,23.521C16.336,17.977 15.459,12.826 17.63,11.077C20.359,8.88 26.947,12.839 32.411,19.808C33.543,21.25 34.537,22.698 35.379,24.109C38.604,29.517 39.593,34.407 37.365,36.403C36.684,37.014 34.6,37.254 31.871,36.009C31.833,36.058 31.894,36.189 31.942,36.221C34.298,37.181 36.554,37.546 37.694,36.629C40.431,34.425 38.328,26.641 32.7,19.464Z" style="fill:white;fill-rule:nonzero;"/>
        <path d="M8.565,20.315L12.169,20.315L15.195,25.516L15.195,21.457C15.195,21 14.623,20.405 14.422,20.315L16.916,20.315C16.764,20.356 16.273,20.959 16.273,21.457L16.273,27.424C16.273,27.791 16.796,28.296 17.045,28.492L13.57,28.492L10.496,23.266L10.496,27.375C10.496,27.783 10.89,28.174 11.301,28.508L8.646,28.508C9.024,28.345 9.386,27.831 9.418,27.424C9.45,27.016 9.418,21.758 9.418,21.53C9.418,21.033 8.943,20.625 8.565,20.315Z" style="fill:white;fill-rule:nonzero;"/>
        <path d="M41.536,28.492L46.331,28.492C46.065,28.427 45.767,28.109 45.606,27.685C45.446,27.261 42.903,20.315 42.903,20.315L41.08,20.315C40.563,20.692 40.009,21.09 39.417,21.509C39.416,21.525 39.414,21.54 39.411,21.554C39.332,22.044 37.905,27.279 37.819,27.538C37.698,27.897 37.078,28.296 36.829,28.508L39.411,28.508C39.154,28.215 38.945,27.929 38.993,27.603C39.041,27.277 39.186,26.625 39.186,26.625L41.857,26.625C41.978,26.951 42.068,27.244 42.115,27.522C42.171,27.856 41.833,28.231 41.536,28.492ZM39.428,25.582L40.329,22.598L41.519,25.582L39.428,25.582ZM39.022,20.613C39.154,20.514 39.287,20.415 39.42,20.315L38.72,20.315C38.789,20.381 38.905,20.483 39.022,20.613Z" style="fill:white;fill-rule:nonzero;"/>
        <path d="M20.682,27.603C20.73,27.277 20.875,26.625 20.875,26.625L23.546,26.625C23.667,26.951 23.757,27.244 23.803,27.522C23.86,27.856 23.522,28.231 23.224,28.492L27.446,28.492C27.534,28.432 27.621,28.372 27.709,28.313C27.545,28.166 27.394,27.946 27.295,27.685C27.134,27.261 24.592,20.315 24.592,20.315L20.408,20.315C20.609,20.503 21.189,21.008 21.1,21.554C21.021,22.044 19.594,27.279 19.507,27.538C19.386,27.897 18.767,28.296 18.517,28.508L21.1,28.508C20.843,28.215 20.633,27.929 20.682,27.603ZM22.017,22.598L23.208,25.582L21.116,25.582L22.017,22.598Z" style="fill:white;fill-rule:nonzero;"/>
        <path d="M35.265,24.374C34.478,24.906 33.647,25.46 32.771,26.04C33.164,26.233 33.477,26.475 33.507,26.788C33.562,27.376 32.396,27.66 31.342,27.538C31.132,27.514 30.925,27.458 30.727,27.383C30.508,27.526 30.287,27.67 30.063,27.815C29.835,27.964 29.558,28.146 29.243,28.357L29.243,29.201C29.452,28.785 29.909,28.413 30.264,28.394C30.417,28.386 30.948,28.883 33.137,28.761C34.199,28.702 36.25,27.554 36.218,26.234C36.199,25.453 35.796,24.845 35.265,24.374ZM29.242,26.413L29.242,27.273C29.436,27.142 29.627,27.013 29.814,26.888C29.519,26.68 29.311,26.486 29.242,26.413ZM34.517,23.834C34.313,23.712 34.106,23.605 33.908,23.51C32.879,23.021 31.801,22.932 31.575,22.271C31.416,21.805 31.865,21.375 32.959,21.391C34.053,21.407 35.067,22.067 35.341,22.304L35.341,20.201C35.26,20.282 34.907,20.692 34.584,20.625C33.965,20.494 32.911,20.324 31.704,20.331C30.32,20.339 29.129,21.423 29.089,22.793C29.033,24.709 30.545,25.231 31.398,25.532C31.486,25.563 31.587,25.596 31.695,25.632C32.513,25.092 33.16,24.677 33.539,24.456C33.793,24.308 34.126,24.095 34.517,23.834Z" style="fill:white;fill-rule:nonzero;"/>
    </g>
</svg>
