<svg width="137" height="32" viewBox="0 0 137 32" fill="none" xmlns="http://www.w3.org/2000/svg">
<path d="M16.7447 0C17.6469 0.1617 18.5655 0.266806 19.4515 0.485101C25.5641 1.98891 30.1973 7.14716 31.0589 13.3726C32.2051 21.6517 26.7915 29.2193 18.5411 30.8605C17.9477 30.9818 17.3381 31.0465 16.7366 31.1354C13.9729 31.1354 11.2092 31.1354 8.4455 31.1354C8.4455 25.9206 8.4455 20.7057 8.45363 15.499C8.45363 15.1513 8.48614 14.7956 8.54304 14.456C9.07952 10.9552 12.2903 8.3114 15.8099 8.44884C19.5246 8.60246 22.5078 11.4565 22.7435 15.0947C23.093 20.4955 17.5657 24.2874 12.6154 22.0398C12.5097 21.9913 12.4041 21.9508 12.2496 21.8942C12.2496 23.5517 12.2415 25.1525 12.2659 26.7533C12.2659 26.8503 12.4528 26.9959 12.5748 27.0282C14.1598 27.481 15.7774 27.5699 17.4031 27.3112C24.2798 26.2116 28.7179 19.7194 27.2304 12.9765C25.8567 6.73482 19.5815 2.65189 13.3307 3.92123C7.67329 5.05314 3.72285 9.85564 3.70659 15.6122C3.69846 20.6491 3.70659 25.6861 3.70659 30.7231C3.70659 30.8605 3.72285 30.9899 3.7391 31.1273C2.49545 31.1273 1.24366 31.1273 0 31.1273C0 25.5487 0 19.97 0 14.3913C0.0487709 14.076 0.10567 13.7607 0.146313 13.4373C1.00793 7.15524 5.61678 2.01317 11.8026 0.477016C12.6804 0.258721 13.5827 0.153615 14.4687 0C15.2247 0 15.9887 0 16.7447 0Z" fill="#E6461A"/>
<path d="M136.558 21.9913C135.721 21.9913 134.884 21.9913 133.981 21.9913C133.981 21.3687 133.981 20.7542 133.981 20.1398C133.973 17.7547 133.981 15.3696 133.957 12.9845C133.933 11.1169 132.518 9.43522 130.681 9.05523C128.161 8.5297 125.601 10.559 125.593 13.1301C125.585 15.9194 125.601 18.7087 125.609 21.4981C125.609 21.6598 125.609 21.8134 125.609 21.9993C124.756 21.9993 123.951 21.9993 123.105 21.9993C123.105 17.0756 123.105 12.1518 123.105 7.18759C123.91 7.18759 124.723 7.18759 125.585 7.18759C125.585 7.43014 125.585 7.68078 125.585 8.00418C126.398 7.28461 127.259 6.83993 128.235 6.59738C132.071 5.63527 136.087 8.44077 136.477 12.3539C136.485 12.4671 136.526 12.5884 136.55 12.7016C136.558 15.79 136.558 18.8947 136.558 21.9913Z" fill="white"/>
<path d="M39.1633 20.3338C39.1633 22.7917 39.1633 25.2414 39.1633 27.7235C38.3099 27.7235 37.5051 27.7235 36.676 27.7235C36.6679 27.6184 36.6516 27.5133 36.6516 27.4082C36.6516 23.107 36.6354 18.8138 36.6598 14.5126C36.6842 10.6237 39.4235 7.3412 43.2438 6.57313C47.8364 5.65144 52.3315 8.86119 52.933 13.4858C53.5264 18.0458 50.3725 22.1368 45.7718 22.6866C43.3576 22.9695 41.2767 22.1449 39.4885 20.544C39.4072 20.4713 39.3666 20.3419 39.3015 20.2368C39.2528 20.2691 39.2121 20.3015 39.1633 20.3338ZM44.8452 20.2449C47.9909 20.2368 50.5026 17.7143 50.5026 14.5773C50.4944 11.4484 47.9502 8.91778 44.8208 8.93395C41.6832 8.95012 39.1633 11.4726 39.1715 14.6096C39.1633 17.7305 41.6994 20.253 44.8452 20.2449Z" fill="white"/>
<path d="M91.6645 17.8921C92.8675 19.7194 95.4118 20.6249 97.6634 20.0266C99.0371 19.6628 100.134 18.8785 100.923 17.7062C101.711 16.5339 102.004 15.2241 101.833 13.793C102.687 13.793 103.508 13.793 104.321 13.793C104.768 16.9219 102.89 21.0049 98.6794 22.3389C94.6965 23.6002 90.3965 21.6598 88.7139 17.8517C87.0232 14.0275 88.5107 9.54032 92.1766 7.46247C95.9726 5.31186 100.224 6.71865 102.207 9.07139C98.6957 12.0063 95.1923 14.9411 91.6645 17.8921ZM90.6078 15.5071C93.1358 13.3969 95.5906 11.3433 98.0698 9.26543C96.1758 8.48118 93.7617 9.00671 92.2254 10.5348C90.8761 11.885 90.364 13.5262 90.6078 15.5071Z" fill="white"/>
<path d="M70.2302 21.9993C69.3767 21.9993 68.5639 21.9993 67.7185 21.9993C67.7185 21.4981 67.7185 21.021 67.7185 20.4713C67.5885 20.5764 67.5153 20.633 67.4503 20.6895C62.7926 24.6997 55.6152 22.4683 54.1033 16.5419C52.7133 11.0765 57.2328 5.87779 62.8658 6.44374C67.0113 6.86417 70.1814 10.3003 70.2221 14.4398C70.2465 16.8653 70.2302 19.2908 70.2302 21.7163C70.2302 21.7972 70.2302 21.878 70.2302 21.9993ZM56.3711 14.553C56.363 17.6577 58.891 20.2044 61.9961 20.2206C65.1337 20.2287 67.7104 17.7304 67.7185 14.6581C67.7266 11.4484 65.2231 8.90968 62.0611 8.90968C58.9235 8.89351 56.3793 11.4241 56.3711 14.553Z" fill="white"/>
<path d="M105.288 14.553C105.296 10.0577 108.97 6.40332 113.473 6.40332C117.993 6.40332 121.683 10.0982 121.659 14.5934C121.634 19.0968 117.968 22.727 113.449 22.7189C108.946 22.7108 105.28 19.0483 105.288 14.553ZM113.465 20.2125C116.603 20.2125 119.155 17.69 119.155 14.5692C119.163 11.4565 116.611 8.90159 113.49 8.89351C110.36 8.88542 107.8 11.4241 107.792 14.5368C107.792 17.6657 110.336 20.2125 113.465 20.2125Z" fill="white"/>
<path d="M71.0271 7.13908C71.5229 7.13908 71.9618 7.13908 72.4658 7.13908C72.4658 5.22293 72.4658 3.33104 72.4658 1.41489C73.3274 1.41489 74.1322 1.41489 74.9856 1.41489C74.9856 3.31487 74.9856 5.20676 74.9856 7.13908C76.2618 7.13908 77.4892 7.13908 78.741 7.13908C78.741 7.97992 78.741 8.78034 78.741 9.63735C77.5055 9.63735 76.2699 9.63735 74.9938 9.63735C74.9938 13.785 74.9938 17.876 74.9938 21.9913C74.1484 21.9913 73.3437 21.9913 72.4902 21.9913C72.4902 21.8134 72.4902 21.6598 72.4902 21.5062C72.4902 17.7062 72.4821 13.9062 72.4983 10.1063C72.4983 9.74245 72.4089 9.59692 72.0269 9.63735C71.7099 9.66969 71.3847 9.64543 71.0352 9.64543C71.0271 8.80459 71.0271 8.00418 71.0271 7.13908Z" fill="white"/>
<path d="M82.5446 9.30586C83.7395 8.23864 85.105 7.50291 86.682 7.22802C87.2347 7.13099 87.8037 7.12291 88.4052 7.06631C88.4052 7.89099 88.4052 8.62672 88.4052 9.36246C88.4052 9.64544 88.1939 9.59692 88.0313 9.59692C86.7795 9.61309 85.6578 10.0093 84.6905 10.7773C83.2843 11.885 82.5202 13.3403 82.4958 15.1352C82.4714 17.2615 82.4877 19.396 82.4877 21.5223C82.4877 21.6679 82.4877 21.8134 82.4877 21.9913C81.6504 21.9913 80.8457 21.9913 80.0085 21.9913C80.0085 17.0513 80.0085 12.1195 80.0085 7.17142C80.7969 7.17142 81.5935 7.17142 82.4389 7.17142C82.4389 7.86673 82.4389 8.56204 82.4389 9.25735C82.4795 9.27352 82.5121 9.28969 82.5446 9.30586Z" fill="white"/>
</svg>
