<?xml version="1.0" encoding="UTF-8" standalone="no"?>
<!DOCTYPE svg PUBLIC "-//W3C//DTD SVG 1.1//EN" "http://www.w3.org/Graphics/SVG/1.1/DTD/svg11.dtd">
<svg width="100%" height="100%" viewBox="0 0 113 90" version="1.1" xmlns="http://www.w3.org/2000/svg" xmlns:xlink="http://www.w3.org/1999/xlink" xml:space="preserve" xmlns:serif="http://www.serif.com/" style="fill-rule:evenodd;clip-rule:evenodd;stroke-linejoin:round;stroke-miterlimit:2;">
    <g transform="matrix(1,0,0,1,-454,-1)">
        <g id="pattern5" transform="matrix(3.93842,0,0,2.96607,76.8806,-59.5251)">
            <rect x="96" y="20.691" width="28.438" height="30.011" style="fill:none;"/>
            <g transform="matrix(0.253909,0,0,0.337147,96.5078,21.0283)">
                <circle cx="85.552" cy="42.952" r="22.499" style="fill:rgb(59,91,255);"/>
                <path d="M77.464,17.377C66.736,20.95 59,31.071 59,43C59,54.908 66.708,65.015 77.407,68.604C69.577,79.105 57.059,85.905 42.952,85.905C19.23,85.905 0,66.674 0,42.952C0,19.23 19.23,0 42.952,0C57.093,0 69.637,6.833 77.464,17.377Z" style="fill:rgb(18,212,255);"/>
            </g>
        </g>
    </g>
</svg>
