<svg width="86" height="20" viewBox="0 0 86 20" fill="none" xmlns="http://www.w3.org/2000/svg">
<path d="M10.2347 0.309448C4.84178 0.309448 0.469241 4.6477 0.468109 10.0008V10.0058C0.468661 12.2152 1.21444 14.2502 2.46855 15.8797L10.5877 5.29151L9.71373 5.29315L8.84696 5.29151C7.92052 5.29151 7.05215 5.35675 6.42395 5.47791C6.04387 5.55192 5.70523 5.68734 5.429 5.88142C5.10527 6.10675 4.69978 6.58482 4.43461 7.05467C4.40422 7.1095 4.35892 7.18954 4.30258 7.30632L3.82803 7.19886L4.62464 4.1583H14.7944L6.71276 14.8814C7.23812 14.8353 7.44861 14.8233 7.8751 14.8233C8.20269 14.8233 8.70043 14.8447 9.36556 14.883L10.8013 14.9713C11.3178 15.0004 11.7554 15.0157 12.0879 15.0157C12.8282 15.0157 13.3093 14.9581 13.7883 14.8129C14.1584 14.6999 14.5097 14.5305 14.8335 14.3134C15.4008 13.9231 15.9527 13.2997 16.2825 12.6735C16.3145 12.6105 16.367 12.5135 16.4267 12.3852L16.8592 12.4943C16.7184 13.0261 16.6443 13.2295 16.43 13.7043C15.9958 14.667 15.5052 15.3117 14.8317 15.8057C14.139 16.315 13.3728 16.5645 12.4662 16.5793L12.328 16.5804C11.6568 16.5804 11.1381 16.525 9.53054 16.2816C7.89582 16.0316 7.0634 15.9461 6.24187 15.9461C5.6922 15.9461 5.18064 15.9878 4.65085 16.0744C3.94926 16.184 3.67415 16.2657 3.03777 16.5541C4.82098 18.4839 7.38655 19.6973 10.2344 19.6973C15.6279 19.6973 20.0014 15.3568 20.0014 10.0032C20.0014 4.64913 15.6277 0.30976 10.2344 0.30976" fill="white"/>
<path d="M60.5222 7.04042C60.5244 6.40939 60.5409 6.23614 60.6216 5.98011C60.6547 5.87814 60.7012 5.7789 60.7586 5.68624C60.8558 5.52616 60.9254 5.4494 61.1155 5.29205H58.061C58.2588 5.462 58.324 5.53109 58.4151 5.66541C58.4764 5.7641 58.5278 5.86608 58.5621 5.97353C58.6322 6.2016 58.656 6.42912 58.6615 6.98998C58.6615 7.27781 58.6632 7.46749 58.6632 7.56015V13.2136C58.6632 13.5459 58.6035 13.8984 58.5135 14.1281C58.4753 14.2235 58.4234 14.3172 58.3615 14.4033C58.2903 14.5069 58.2389 14.5639 58.0709 14.7361H61.0911C60.9424 14.6089 60.8889 14.5497 60.7983 14.4033C60.7347 14.3107 60.6834 14.2114 60.6469 14.1149C60.5657 13.9006 60.5187 13.5842 60.5187 13.2865V7.59461L60.522 7.04033" fill="white"/>
<path d="M80.8547 7.03617C80.8547 6.61676 80.8873 6.29714 80.9596 6.03562C80.9933 5.91501 81.0453 5.79769 81.1104 5.68748C81.2099 5.5263 81.2839 5.449 81.4861 5.29165H78.3814C78.561 5.44077 78.6234 5.50821 78.7294 5.67597C78.7974 5.78452 78.8499 5.89691 78.8869 6.00493C78.9598 6.22751 78.9891 6.50383 78.9891 6.9978V9.29169H74.7255V7.56959C74.7255 7.04712 74.7288 6.70611 74.7509 6.44897C74.763 6.29601 74.7879 6.1584 74.8277 6.03888C74.8923 5.83603 75.0663 5.55423 75.221 5.3936C75.242 5.37057 75.2812 5.33494 75.3259 5.29163H72.2766C72.4594 5.47803 72.5086 5.53505 72.5898 5.65567C72.6561 5.75216 72.7141 5.85961 72.755 5.9753C72.834 6.21433 72.8489 6.34537 72.8577 6.97476L72.8682 7.57234V12.744C72.8682 13.2676 72.8577 13.4978 72.8296 13.7385C72.8124 13.8602 72.7793 13.9852 72.7351 14.1135C72.6561 14.3169 72.5473 14.4764 72.3677 14.6415C72.3456 14.6634 72.3114 14.6935 72.2633 14.7358H75.2769C75.1454 14.6009 75.1001 14.5439 75.0211 14.4244C74.9659 14.3344 74.9123 14.2369 74.8681 14.131C74.7725 13.8811 74.7422 13.7034 74.7289 13.3027C74.7261 13.1014 74.7256 12.9156 74.7256 12.7391V10.4506H78.9892V12.7555C78.9892 13.2643 78.9837 13.4501 78.9456 13.7149C78.9307 13.858 78.8975 13.9962 78.8439 14.1234C78.7749 14.2999 78.6661 14.4611 78.502 14.6179C78.4732 14.6425 78.4335 14.6848 78.371 14.7357H81.4111C81.2857 14.6124 81.2382 14.5592 81.157 14.4435C81.0813 14.3394 81.0233 14.2369 80.9802 14.1338C80.8874 13.9101 80.8658 13.7456 80.8548 13.2791C80.8493 13.0017 80.8476 12.8399 80.8476 12.79L80.8548 7.59424V7.03612" fill="white"/>
<path d="M52.9093 9.4516C52.5701 9.64952 52.2215 9.7619 51.7116 9.83428C51.5177 9.86389 51.3487 9.87924 51.2139 9.87924C51.1658 9.87924 51.1327 9.87812 51.0598 9.87211V6.37653C51.1813 6.37325 51.2266 6.37325 51.3084 6.37325C51.7746 6.37325 52.2309 6.42752 52.5878 6.52895C52.8276 6.59693 53.0513 6.71535 53.2353 6.87051C53.5562 7.14299 53.7253 7.53827 53.7253 8.03059C53.7253 8.45932 53.5999 8.8228 53.3529 9.09748C53.2375 9.22852 53.0867 9.34583 52.9093 9.45164V9.4516ZM56.5432 14.0815C56.2084 13.7652 55.909 13.4647 55.4654 12.9845C55.1826 12.6835 54.9511 12.4241 54.771 12.2164L53.2927 10.4893C53.475 10.4362 53.5501 10.4104 53.7142 10.3452C54.1948 10.1571 54.5594 9.94768 54.8881 9.67191C55.2649 9.35721 55.4964 9.0206 55.6367 8.5946C55.7179 8.35557 55.7538 8.1116 55.7538 7.86708C55.7538 7.28649 55.5372 6.75963 55.1113 6.31831C54.7196 5.91097 54.176 5.61052 53.5644 5.46634C53.1379 5.36875 52.6954 5.32325 51.9386 5.30295C51.653 5.29582 51.3569 5.29199 51.0558 5.29199H48.6003C48.7655 5.4444 48.8268 5.51184 48.9179 5.64781C48.9892 5.75636 49.05 5.87314 49.0864 5.99211C49.1505 6.20482 49.177 6.49759 49.177 6.99814V13.1949C49.177 13.6412 49.1483 13.9005 49.0715 14.1094C49.0284 14.2152 48.9748 14.315 48.9074 14.4076C48.8185 14.5195 48.7632 14.5765 48.5859 14.736H51.6117C51.4741 14.5907 51.4327 14.5441 51.3487 14.429C51.2819 14.3385 51.2266 14.2404 51.1874 14.1406C51.1056 13.9317 51.0675 13.7059 51.067 13.2678C51.062 13.1264 51.0598 12.9668 51.0598 12.7952V10.6707L52.8232 12.7683C52.9055 12.8681 53.0386 13.0194 53.216 13.2261C53.4231 13.4552 53.5767 13.6268 53.6839 13.7337C54.0236 14.0813 54.3468 14.3374 54.6656 14.5089C54.9418 14.6542 55.1992 14.7156 55.6091 14.7299C55.7649 14.7343 55.9312 14.7359 56.1052 14.7359H57.299C57.141 14.6109 57.0736 14.5577 56.9516 14.4519C56.8223 14.3395 56.6847 14.2184 56.5433 14.0813" fill="white"/>
<path d="M69.6525 13.3716C69.0801 13.6112 68.5564 13.7214 67.9913 13.7214C67.0069 13.7214 66.165 13.3733 65.5407 12.7055C64.9231 12.0438 64.5933 11.1266 64.5933 10.0887C64.5933 9.09962 64.9016 8.18073 65.4518 7.54045C65.6899 7.26085 65.9805 7.02619 66.313 6.84089C66.8522 6.54264 67.4776 6.38694 68.1553 6.38694C68.7354 6.38694 69.2972 6.49987 69.864 6.72795C70.2165 6.87049 70.3446 6.94121 70.6468 7.15449V5.37877C70.4132 5.30311 70.3198 5.27734 70.0695 5.22361C69.5188 5.10903 68.9917 5.0564 68.3934 5.0564C67.3708 5.0564 66.487 5.21978 65.6826 5.55804C65.2014 5.7587 64.7628 6.01801 64.3739 6.32778C63.201 7.26528 62.5629 8.62223 62.5629 10.1874C62.5629 11.706 63.1783 13.018 64.3009 13.8996C65.2279 14.6254 66.4217 14.9911 67.8553 14.9911C68.7508 14.9911 69.5877 14.859 70.5264 14.5684C70.5623 14.558 70.6136 14.541 70.6816 14.5196V12.8041C70.4523 12.9543 70.375 13.0031 70.238 13.0832C70.0535 13.1879 69.8607 13.286 69.6524 13.3716" fill="white"/>
<path d="M44.3518 5.65793C44.4114 5.75881 44.4611 5.86682 44.4921 5.97921C44.5589 6.20728 44.576 6.43754 44.576 6.9677V10.5582C44.576 11.3295 44.554 11.7862 44.4954 12.1624C44.4589 12.4135 44.3733 12.6465 44.2512 12.8548C44.0197 13.2391 43.5899 13.5346 43.0817 13.6635C42.8751 13.7134 42.6497 13.7402 42.4055 13.7402C41.5896 13.7402 40.8885 13.437 40.5476 12.9403C40.2858 12.5549 40.2134 12.1881 40.2013 11.2172L40.1952 10.4387V7.59115C40.1952 7.03961 40.1974 6.777 40.2178 6.49576C40.2267 6.3269 40.2515 6.18051 40.2874 6.0621C40.3537 5.84499 40.5156 5.55552 40.6681 5.37789C40.6896 5.35815 40.7123 5.33238 40.7487 5.29401H37.6557C37.8463 5.45081 37.907 5.52317 38.0004 5.67613C38.0606 5.77975 38.1081 5.88994 38.1352 6.00452C38.1727 6.14706 38.1954 6.29345 38.2004 6.43983C38.2009 6.53194 38.2031 6.72821 38.2037 7.02536L38.2081 7.57196V10.2769C38.2081 11.2813 38.2119 11.5357 38.2462 11.9387C38.3014 12.6289 38.5108 13.1799 38.913 13.6799C39.6334 14.579 40.7918 15.05 42.269 15.05C42.975 15.05 43.6589 14.9436 44.1804 14.7512C44.729 14.5489 45.235 14.2122 45.5975 13.8137C46.0373 13.3241 46.2903 12.7221 46.3643 11.9787C46.4129 11.5467 46.4306 11.0319 46.4306 10.2923V7.57618L46.4229 7.0367V6.93034C46.4229 6.52464 46.4455 6.2878 46.5041 6.0685C46.5383 5.93418 46.593 5.80535 46.6687 5.68692C46.7692 5.52629 46.8411 5.45172 47.0416 5.29382H44.0076C44.1921 5.43855 44.2562 5.50654 44.3518 5.65787" fill="white"/>
<path d="M33.9175 13.4081C33.4949 13.4849 33.0165 13.5276 32.4232 13.5419C32.2233 13.5474 31.973 13.5474 31.662 13.5474H30.204L35.9731 5.29138H28.4893L27.5706 7.30724C27.8777 7.14497 28.0004 7.08794 28.2656 6.98159C28.692 6.81437 29.1605 6.68115 29.6113 6.60385C30.0046 6.53696 30.3665 6.50626 30.9532 6.48871C31.2167 6.48049 31.4642 6.47556 31.6923 6.47556H32.7994L26.9773 14.7355H35.2069L36.1571 12.5814C35.8267 12.77 35.7096 12.8303 35.4577 12.9443C34.9771 13.162 34.4583 13.3188 33.9174 13.4081" fill="white"/>
<path d="M83.9985 3.71462C83.4941 3.71462 83.0964 3.34511 83.0964 2.80179C83.0964 2.25299 83.4941 1.88623 83.9985 1.88623C84.5112 1.88623 84.8979 2.25301 84.8979 2.80179C84.8979 3.34511 84.5112 3.71462 83.9985 3.71462ZM83.9985 1.73273C83.403 1.73273 82.9213 2.16804 82.9213 2.80181C82.9213 3.43887 83.403 3.86815 83.9985 3.86815C84.5913 3.86815 85.073 3.43887 85.073 2.80181C85.073 2.16804 84.5913 1.73273 83.9985 1.73273Z" fill="white"/>
<path d="M84.0183 2.73053H83.7609V2.36979H84.0045C84.173 2.36979 84.2934 2.40378 84.2934 2.54906C84.2934 2.67132 84.2106 2.73053 84.0183 2.73053H84.0183ZM84.4741 2.54577C84.4741 2.25302 84.2708 2.20203 83.9382 2.20203H83.5946V3.33361H83.7609V2.89282H84.0586C84.0702 2.89282 84.0818 2.89282 84.0901 2.89008L84.3282 3.33361H84.5199L84.2592 2.85335C84.4056 2.79359 84.4741 2.67408 84.4741 2.54578" fill="white"/>
</svg>
