<svg width="20" height="11" viewBox="0 0 20 11" fill="none" xmlns="http://www.w3.org/2000/svg">
<path d="M10.9305 5.49991C10.9305 8.53746 8.48362 11 5.46515 11C2.44669 11 0 8.5382 0 5.49991C0 2.46161 2.44688 0 5.46515 0C8.48343 0 10.9305 2.46235 10.9305 5.49991ZM16.926 5.49991C16.926 8.35939 15.7025 10.6772 14.1934 10.6772C12.6842 10.6772 11.4607 8.35865 11.4607 5.49991C11.4607 2.64117 12.6842 0.322564 14.1934 0.322564C15.7025 0.322564 16.926 2.64117 16.926 5.49991ZM19.3783 5.49991C19.3783 8.06187 18.9479 10.1386 18.4172 10.1386C17.8864 10.1386 17.4561 8.06113 17.4561 5.49991C17.4561 2.93869 17.8864 0.861221 18.4174 0.861221C18.9483 0.861221 19.3783 2.93813 19.3783 5.49991Z" fill="black"/>
</svg>
