<svg width="11" height="10" viewBox="0 0 11 10" fill="none" xmlns="http://www.w3.org/2000/svg">
<path d="M2.37498 10V3.25271H0.132479V10H2.37498ZM1.25415 2.33144C2.03563 2.33144 2.52279 1.8133 2.52279 1.16572C2.5083 0.50378 2.03563 0 1.26883 0C0.501387 0 0 0.50378 0 1.16572C0 1.8133 0.48651 2.33144 1.23933 2.33144H1.25415Z" fill="white"/>
<path d="M3.61597 10H5.85885V6.23206C5.85885 6.0303 5.87347 5.82874 5.93279 5.68468C6.09451 5.28155 6.4638 4.86438 7.08318 4.86438C7.89481 4.86438 8.21921 5.48331 8.21921 6.39022V10H10.4616V6.13108C10.4616 4.05858 9.3555 3.09429 7.8798 3.09429C6.67009 3.09429 6.13875 3.77027 5.84372 4.23091H5.85885V3.25271H3.61597C3.64572 3.88574 3.61597 10 3.61597 10Z" fill="white"/>
</svg>
