<svg width="11" height="10" viewBox="0 0 11 10" fill="none" xmlns="http://www.w3.org/2000/svg">
<path d="M2.37498 10V3.25271H0.132479V10H2.37498ZM1.25415 2.33144C2.03563 2.33144 2.52279 1.8133 2.52279 1.16572C2.5083 0.50378 2.03563 -3.97959e-07 1.26883 -3.97959e-07C0.501387 -3.97959e-07 0 0.50378 0 1.16572C0 1.8133 0.48651 2.33144 1.23933 2.33144H1.25415Z" fill="black"/>
<path d="M3.61621 10H5.8591V6.23206C5.8591 6.0303 5.87372 5.82874 5.93303 5.68468C6.09475 5.28155 6.46405 4.86438 7.08342 4.86438C7.89505 4.86438 8.21945 5.48331 8.21945 6.39022V10H10.4619V6.13108C10.4619 4.05858 9.35574 3.09429 7.88004 3.09429C6.67033 3.09429 6.139 3.77027 5.84396 4.23091H5.8591V3.25271H3.61621C3.64597 3.88574 3.61621 10 3.61621 10Z" fill="black"/>
</svg>
